G04 #@! TF.GenerationSoftware,KiCad,Pcbnew,(5.1.5)-3*
G04 #@! TF.CreationDate,2020-08-13T10:07:38-04:00*
G04 #@! TF.ProjectId,WifiAntSwitch,57696669-416e-4745-9377-697463682e6b,A*
G04 #@! TF.SameCoordinates,Original*
G04 #@! TF.FileFunction,Soldermask,Bot*
G04 #@! TF.FilePolarity,Negative*
%FSLAX46Y46*%
G04 Gerber Fmt 4.6, Leading zero omitted, Abs format (unit mm)*
G04 Created by KiCad (PCBNEW (5.1.5)-3) date 2020-08-13 10:07:38*
%MOMM*%
%LPD*%
G04 APERTURE LIST*
%ADD10C,0.100000*%
G04 APERTURE END LIST*
D10*
G36*
X209852585Y-122938802D02*
G01*
X210002410Y-122968604D01*
X210284674Y-123085521D01*
X210538705Y-123255259D01*
X210754741Y-123471295D01*
X210924479Y-123725326D01*
X211041396Y-124007590D01*
X211101000Y-124307240D01*
X211101000Y-124612760D01*
X211041396Y-124912410D01*
X210924479Y-125194674D01*
X210754741Y-125448705D01*
X210538705Y-125664741D01*
X210284674Y-125834479D01*
X210002410Y-125951396D01*
X209852585Y-125981198D01*
X209702761Y-126011000D01*
X209397239Y-126011000D01*
X209247415Y-125981198D01*
X209097590Y-125951396D01*
X208815326Y-125834479D01*
X208561295Y-125664741D01*
X208345259Y-125448705D01*
X208175521Y-125194674D01*
X208058604Y-124912410D01*
X207999000Y-124612760D01*
X207999000Y-124307240D01*
X208058604Y-124007590D01*
X208175521Y-123725326D01*
X208345259Y-123471295D01*
X208561295Y-123255259D01*
X208815326Y-123085521D01*
X209097590Y-122968604D01*
X209247415Y-122938802D01*
X209397239Y-122909000D01*
X209702761Y-122909000D01*
X209852585Y-122938802D01*
G37*
G36*
X82852585Y-122938802D02*
G01*
X83002410Y-122968604D01*
X83284674Y-123085521D01*
X83538705Y-123255259D01*
X83754741Y-123471295D01*
X83924479Y-123725326D01*
X84041396Y-124007590D01*
X84101000Y-124307240D01*
X84101000Y-124612760D01*
X84041396Y-124912410D01*
X83924479Y-125194674D01*
X83754741Y-125448705D01*
X83538705Y-125664741D01*
X83284674Y-125834479D01*
X83002410Y-125951396D01*
X82852585Y-125981198D01*
X82702761Y-126011000D01*
X82397239Y-126011000D01*
X82247415Y-125981198D01*
X82097590Y-125951396D01*
X81815326Y-125834479D01*
X81561295Y-125664741D01*
X81345259Y-125448705D01*
X81175521Y-125194674D01*
X81058604Y-124912410D01*
X80999000Y-124612760D01*
X80999000Y-124307240D01*
X81058604Y-124007590D01*
X81175521Y-123725326D01*
X81345259Y-123471295D01*
X81561295Y-123255259D01*
X81815326Y-123085521D01*
X82097590Y-122968604D01*
X82247415Y-122938802D01*
X82397239Y-122909000D01*
X82702761Y-122909000D01*
X82852585Y-122938802D01*
G37*
G36*
X182993512Y-119118927D02*
G01*
X183142812Y-119148624D01*
X183306784Y-119216544D01*
X183454354Y-119315147D01*
X183579853Y-119440646D01*
X183678456Y-119588216D01*
X183746376Y-119752188D01*
X183781000Y-119926259D01*
X183781000Y-120103741D01*
X183746376Y-120277812D01*
X183678456Y-120441784D01*
X183579853Y-120589354D01*
X183454354Y-120714853D01*
X183306784Y-120813456D01*
X183142812Y-120881376D01*
X182993512Y-120911073D01*
X182968742Y-120916000D01*
X182791258Y-120916000D01*
X182766488Y-120911073D01*
X182617188Y-120881376D01*
X182453216Y-120813456D01*
X182305646Y-120714853D01*
X182180147Y-120589354D01*
X182081544Y-120441784D01*
X182013624Y-120277812D01*
X181979000Y-120103741D01*
X181979000Y-119926259D01*
X182013624Y-119752188D01*
X182081544Y-119588216D01*
X182180147Y-119440646D01*
X182305646Y-119315147D01*
X182453216Y-119216544D01*
X182617188Y-119148624D01*
X182766488Y-119118927D01*
X182791258Y-119114000D01*
X182968742Y-119114000D01*
X182993512Y-119118927D01*
G37*
G36*
X180453512Y-119118927D02*
G01*
X180602812Y-119148624D01*
X180766784Y-119216544D01*
X180914354Y-119315147D01*
X181039853Y-119440646D01*
X181138456Y-119588216D01*
X181206376Y-119752188D01*
X181241000Y-119926259D01*
X181241000Y-120103741D01*
X181206376Y-120277812D01*
X181138456Y-120441784D01*
X181039853Y-120589354D01*
X180914354Y-120714853D01*
X180766784Y-120813456D01*
X180602812Y-120881376D01*
X180453512Y-120911073D01*
X180428742Y-120916000D01*
X180251258Y-120916000D01*
X180226488Y-120911073D01*
X180077188Y-120881376D01*
X179913216Y-120813456D01*
X179765646Y-120714853D01*
X179640147Y-120589354D01*
X179541544Y-120441784D01*
X179473624Y-120277812D01*
X179439000Y-120103741D01*
X179439000Y-119926259D01*
X179473624Y-119752188D01*
X179541544Y-119588216D01*
X179640147Y-119440646D01*
X179765646Y-119315147D01*
X179913216Y-119216544D01*
X180077188Y-119148624D01*
X180226488Y-119118927D01*
X180251258Y-119114000D01*
X180428742Y-119114000D01*
X180453512Y-119118927D01*
G37*
G36*
X175373512Y-119118927D02*
G01*
X175522812Y-119148624D01*
X175686784Y-119216544D01*
X175834354Y-119315147D01*
X175959853Y-119440646D01*
X176058456Y-119588216D01*
X176126376Y-119752188D01*
X176161000Y-119926259D01*
X176161000Y-120103741D01*
X176126376Y-120277812D01*
X176058456Y-120441784D01*
X175959853Y-120589354D01*
X175834354Y-120714853D01*
X175686784Y-120813456D01*
X175522812Y-120881376D01*
X175373512Y-120911073D01*
X175348742Y-120916000D01*
X175171258Y-120916000D01*
X175146488Y-120911073D01*
X174997188Y-120881376D01*
X174833216Y-120813456D01*
X174685646Y-120714853D01*
X174560147Y-120589354D01*
X174461544Y-120441784D01*
X174393624Y-120277812D01*
X174359000Y-120103741D01*
X174359000Y-119926259D01*
X174393624Y-119752188D01*
X174461544Y-119588216D01*
X174560147Y-119440646D01*
X174685646Y-119315147D01*
X174833216Y-119216544D01*
X174997188Y-119148624D01*
X175146488Y-119118927D01*
X175171258Y-119114000D01*
X175348742Y-119114000D01*
X175373512Y-119118927D01*
G37*
G36*
X172833512Y-119118927D02*
G01*
X172982812Y-119148624D01*
X173146784Y-119216544D01*
X173294354Y-119315147D01*
X173419853Y-119440646D01*
X173518456Y-119588216D01*
X173586376Y-119752188D01*
X173621000Y-119926259D01*
X173621000Y-120103741D01*
X173586376Y-120277812D01*
X173518456Y-120441784D01*
X173419853Y-120589354D01*
X173294354Y-120714853D01*
X173146784Y-120813456D01*
X172982812Y-120881376D01*
X172833512Y-120911073D01*
X172808742Y-120916000D01*
X172631258Y-120916000D01*
X172606488Y-120911073D01*
X172457188Y-120881376D01*
X172293216Y-120813456D01*
X172145646Y-120714853D01*
X172020147Y-120589354D01*
X171921544Y-120441784D01*
X171853624Y-120277812D01*
X171819000Y-120103741D01*
X171819000Y-119926259D01*
X171853624Y-119752188D01*
X171921544Y-119588216D01*
X172020147Y-119440646D01*
X172145646Y-119315147D01*
X172293216Y-119216544D01*
X172457188Y-119148624D01*
X172606488Y-119118927D01*
X172631258Y-119114000D01*
X172808742Y-119114000D01*
X172833512Y-119118927D01*
G37*
G36*
X170293512Y-119118927D02*
G01*
X170442812Y-119148624D01*
X170606784Y-119216544D01*
X170754354Y-119315147D01*
X170879853Y-119440646D01*
X170978456Y-119588216D01*
X171046376Y-119752188D01*
X171081000Y-119926259D01*
X171081000Y-120103741D01*
X171046376Y-120277812D01*
X170978456Y-120441784D01*
X170879853Y-120589354D01*
X170754354Y-120714853D01*
X170606784Y-120813456D01*
X170442812Y-120881376D01*
X170293512Y-120911073D01*
X170268742Y-120916000D01*
X170091258Y-120916000D01*
X170066488Y-120911073D01*
X169917188Y-120881376D01*
X169753216Y-120813456D01*
X169605646Y-120714853D01*
X169480147Y-120589354D01*
X169381544Y-120441784D01*
X169313624Y-120277812D01*
X169279000Y-120103741D01*
X169279000Y-119926259D01*
X169313624Y-119752188D01*
X169381544Y-119588216D01*
X169480147Y-119440646D01*
X169605646Y-119315147D01*
X169753216Y-119216544D01*
X169917188Y-119148624D01*
X170066488Y-119118927D01*
X170091258Y-119114000D01*
X170268742Y-119114000D01*
X170293512Y-119118927D01*
G37*
G36*
X166001000Y-120916000D02*
G01*
X164199000Y-120916000D01*
X164199000Y-119114000D01*
X166001000Y-119114000D01*
X166001000Y-120916000D01*
G37*
G36*
X167753512Y-119118927D02*
G01*
X167902812Y-119148624D01*
X168066784Y-119216544D01*
X168214354Y-119315147D01*
X168339853Y-119440646D01*
X168438456Y-119588216D01*
X168506376Y-119752188D01*
X168541000Y-119926259D01*
X168541000Y-120103741D01*
X168506376Y-120277812D01*
X168438456Y-120441784D01*
X168339853Y-120589354D01*
X168214354Y-120714853D01*
X168066784Y-120813456D01*
X167902812Y-120881376D01*
X167753512Y-120911073D01*
X167728742Y-120916000D01*
X167551258Y-120916000D01*
X167526488Y-120911073D01*
X167377188Y-120881376D01*
X167213216Y-120813456D01*
X167065646Y-120714853D01*
X166940147Y-120589354D01*
X166841544Y-120441784D01*
X166773624Y-120277812D01*
X166739000Y-120103741D01*
X166739000Y-119926259D01*
X166773624Y-119752188D01*
X166841544Y-119588216D01*
X166940147Y-119440646D01*
X167065646Y-119315147D01*
X167213216Y-119216544D01*
X167377188Y-119148624D01*
X167526488Y-119118927D01*
X167551258Y-119114000D01*
X167728742Y-119114000D01*
X167753512Y-119118927D01*
G37*
G36*
X177913512Y-119118927D02*
G01*
X178062812Y-119148624D01*
X178226784Y-119216544D01*
X178374354Y-119315147D01*
X178499853Y-119440646D01*
X178598456Y-119588216D01*
X178666376Y-119752188D01*
X178701000Y-119926259D01*
X178701000Y-120103741D01*
X178666376Y-120277812D01*
X178598456Y-120441784D01*
X178499853Y-120589354D01*
X178374354Y-120714853D01*
X178226784Y-120813456D01*
X178062812Y-120881376D01*
X177913512Y-120911073D01*
X177888742Y-120916000D01*
X177711258Y-120916000D01*
X177686488Y-120911073D01*
X177537188Y-120881376D01*
X177373216Y-120813456D01*
X177225646Y-120714853D01*
X177100147Y-120589354D01*
X177001544Y-120441784D01*
X176933624Y-120277812D01*
X176899000Y-120103741D01*
X176899000Y-119926259D01*
X176933624Y-119752188D01*
X177001544Y-119588216D01*
X177100147Y-119440646D01*
X177225646Y-119315147D01*
X177373216Y-119216544D01*
X177537188Y-119148624D01*
X177686488Y-119118927D01*
X177711258Y-119114000D01*
X177888742Y-119114000D01*
X177913512Y-119118927D01*
G37*
G36*
X113347394Y-119215934D02*
G01*
X113498624Y-119278576D01*
X113498626Y-119278577D01*
X113634732Y-119369520D01*
X113750480Y-119485268D01*
X113841423Y-119621374D01*
X113841424Y-119621376D01*
X113904066Y-119772606D01*
X113936000Y-119933152D01*
X113936000Y-120096848D01*
X113904066Y-120257394D01*
X113841424Y-120408624D01*
X113841423Y-120408626D01*
X113750480Y-120544732D01*
X113634732Y-120660480D01*
X113498626Y-120751423D01*
X113498625Y-120751424D01*
X113498624Y-120751424D01*
X113347394Y-120814066D01*
X113186848Y-120846000D01*
X113023152Y-120846000D01*
X112862606Y-120814066D01*
X112711376Y-120751424D01*
X112711375Y-120751424D01*
X112711374Y-120751423D01*
X112575268Y-120660480D01*
X112459520Y-120544732D01*
X112368577Y-120408626D01*
X112368576Y-120408624D01*
X112305934Y-120257394D01*
X112274000Y-120096848D01*
X112274000Y-119933152D01*
X112305934Y-119772606D01*
X112368576Y-119621376D01*
X112368577Y-119621374D01*
X112459520Y-119485268D01*
X112575268Y-119369520D01*
X112711374Y-119278577D01*
X112711376Y-119278576D01*
X112862606Y-119215934D01*
X113023152Y-119184000D01*
X113186848Y-119184000D01*
X113347394Y-119215934D01*
G37*
G36*
X115887394Y-119215934D02*
G01*
X116038624Y-119278576D01*
X116038626Y-119278577D01*
X116174732Y-119369520D01*
X116290480Y-119485268D01*
X116381423Y-119621374D01*
X116381424Y-119621376D01*
X116444066Y-119772606D01*
X116476000Y-119933152D01*
X116476000Y-120096848D01*
X116444066Y-120257394D01*
X116381424Y-120408624D01*
X116381423Y-120408626D01*
X116290480Y-120544732D01*
X116174732Y-120660480D01*
X116038626Y-120751423D01*
X116038625Y-120751424D01*
X116038624Y-120751424D01*
X115887394Y-120814066D01*
X115726848Y-120846000D01*
X115563152Y-120846000D01*
X115402606Y-120814066D01*
X115251376Y-120751424D01*
X115251375Y-120751424D01*
X115251374Y-120751423D01*
X115115268Y-120660480D01*
X114999520Y-120544732D01*
X114908577Y-120408626D01*
X114908576Y-120408624D01*
X114845934Y-120257394D01*
X114814000Y-120096848D01*
X114814000Y-119933152D01*
X114845934Y-119772606D01*
X114908576Y-119621376D01*
X114908577Y-119621374D01*
X114999520Y-119485268D01*
X115115268Y-119369520D01*
X115251374Y-119278577D01*
X115251376Y-119278576D01*
X115402606Y-119215934D01*
X115563152Y-119184000D01*
X115726848Y-119184000D01*
X115887394Y-119215934D01*
G37*
G36*
X118427394Y-119215934D02*
G01*
X118578624Y-119278576D01*
X118578626Y-119278577D01*
X118714732Y-119369520D01*
X118830480Y-119485268D01*
X118921423Y-119621374D01*
X118921424Y-119621376D01*
X118984066Y-119772606D01*
X119016000Y-119933152D01*
X119016000Y-120096848D01*
X118984066Y-120257394D01*
X118921424Y-120408624D01*
X118921423Y-120408626D01*
X118830480Y-120544732D01*
X118714732Y-120660480D01*
X118578626Y-120751423D01*
X118578625Y-120751424D01*
X118578624Y-120751424D01*
X118427394Y-120814066D01*
X118266848Y-120846000D01*
X118103152Y-120846000D01*
X117942606Y-120814066D01*
X117791376Y-120751424D01*
X117791375Y-120751424D01*
X117791374Y-120751423D01*
X117655268Y-120660480D01*
X117539520Y-120544732D01*
X117448577Y-120408626D01*
X117448576Y-120408624D01*
X117385934Y-120257394D01*
X117354000Y-120096848D01*
X117354000Y-119933152D01*
X117385934Y-119772606D01*
X117448576Y-119621376D01*
X117448577Y-119621374D01*
X117539520Y-119485268D01*
X117655268Y-119369520D01*
X117791374Y-119278577D01*
X117791376Y-119278576D01*
X117942606Y-119215934D01*
X118103152Y-119184000D01*
X118266848Y-119184000D01*
X118427394Y-119215934D01*
G37*
G36*
X120967394Y-119215934D02*
G01*
X121118624Y-119278576D01*
X121118626Y-119278577D01*
X121254732Y-119369520D01*
X121370480Y-119485268D01*
X121461423Y-119621374D01*
X121461424Y-119621376D01*
X121524066Y-119772606D01*
X121556000Y-119933152D01*
X121556000Y-120096848D01*
X121524066Y-120257394D01*
X121461424Y-120408624D01*
X121461423Y-120408626D01*
X121370480Y-120544732D01*
X121254732Y-120660480D01*
X121118626Y-120751423D01*
X121118625Y-120751424D01*
X121118624Y-120751424D01*
X120967394Y-120814066D01*
X120806848Y-120846000D01*
X120643152Y-120846000D01*
X120482606Y-120814066D01*
X120331376Y-120751424D01*
X120331375Y-120751424D01*
X120331374Y-120751423D01*
X120195268Y-120660480D01*
X120079520Y-120544732D01*
X119988577Y-120408626D01*
X119988576Y-120408624D01*
X119925934Y-120257394D01*
X119894000Y-120096848D01*
X119894000Y-119933152D01*
X119925934Y-119772606D01*
X119988576Y-119621376D01*
X119988577Y-119621374D01*
X120079520Y-119485268D01*
X120195268Y-119369520D01*
X120331374Y-119278577D01*
X120331376Y-119278576D01*
X120482606Y-119215934D01*
X120643152Y-119184000D01*
X120806848Y-119184000D01*
X120967394Y-119215934D01*
G37*
G36*
X123507394Y-119215934D02*
G01*
X123658624Y-119278576D01*
X123658626Y-119278577D01*
X123794732Y-119369520D01*
X123910480Y-119485268D01*
X124001423Y-119621374D01*
X124001424Y-119621376D01*
X124064066Y-119772606D01*
X124096000Y-119933152D01*
X124096000Y-120096848D01*
X124064066Y-120257394D01*
X124001424Y-120408624D01*
X124001423Y-120408626D01*
X123910480Y-120544732D01*
X123794732Y-120660480D01*
X123658626Y-120751423D01*
X123658625Y-120751424D01*
X123658624Y-120751424D01*
X123507394Y-120814066D01*
X123346848Y-120846000D01*
X123183152Y-120846000D01*
X123022606Y-120814066D01*
X122871376Y-120751424D01*
X122871375Y-120751424D01*
X122871374Y-120751423D01*
X122735268Y-120660480D01*
X122619520Y-120544732D01*
X122528577Y-120408626D01*
X122528576Y-120408624D01*
X122465934Y-120257394D01*
X122434000Y-120096848D01*
X122434000Y-119933152D01*
X122465934Y-119772606D01*
X122528576Y-119621376D01*
X122528577Y-119621374D01*
X122619520Y-119485268D01*
X122735268Y-119369520D01*
X122871374Y-119278577D01*
X122871376Y-119278576D01*
X123022606Y-119215934D01*
X123183152Y-119184000D01*
X123346848Y-119184000D01*
X123507394Y-119215934D01*
G37*
G36*
X126047394Y-119215934D02*
G01*
X126198624Y-119278576D01*
X126198626Y-119278577D01*
X126334732Y-119369520D01*
X126450480Y-119485268D01*
X126541423Y-119621374D01*
X126541424Y-119621376D01*
X126604066Y-119772606D01*
X126636000Y-119933152D01*
X126636000Y-120096848D01*
X126604066Y-120257394D01*
X126541424Y-120408624D01*
X126541423Y-120408626D01*
X126450480Y-120544732D01*
X126334732Y-120660480D01*
X126198626Y-120751423D01*
X126198625Y-120751424D01*
X126198624Y-120751424D01*
X126047394Y-120814066D01*
X125886848Y-120846000D01*
X125723152Y-120846000D01*
X125562606Y-120814066D01*
X125411376Y-120751424D01*
X125411375Y-120751424D01*
X125411374Y-120751423D01*
X125275268Y-120660480D01*
X125159520Y-120544732D01*
X125068577Y-120408626D01*
X125068576Y-120408624D01*
X125005934Y-120257394D01*
X124974000Y-120096848D01*
X124974000Y-119933152D01*
X125005934Y-119772606D01*
X125068576Y-119621376D01*
X125068577Y-119621374D01*
X125159520Y-119485268D01*
X125275268Y-119369520D01*
X125411374Y-119278577D01*
X125411376Y-119278576D01*
X125562606Y-119215934D01*
X125723152Y-119184000D01*
X125886848Y-119184000D01*
X126047394Y-119215934D01*
G37*
G36*
X128587394Y-119215934D02*
G01*
X128738624Y-119278576D01*
X128738626Y-119278577D01*
X128874732Y-119369520D01*
X128990480Y-119485268D01*
X129081423Y-119621374D01*
X129081424Y-119621376D01*
X129144066Y-119772606D01*
X129176000Y-119933152D01*
X129176000Y-120096848D01*
X129144066Y-120257394D01*
X129081424Y-120408624D01*
X129081423Y-120408626D01*
X128990480Y-120544732D01*
X128874732Y-120660480D01*
X128738626Y-120751423D01*
X128738625Y-120751424D01*
X128738624Y-120751424D01*
X128587394Y-120814066D01*
X128426848Y-120846000D01*
X128263152Y-120846000D01*
X128102606Y-120814066D01*
X127951376Y-120751424D01*
X127951375Y-120751424D01*
X127951374Y-120751423D01*
X127815268Y-120660480D01*
X127699520Y-120544732D01*
X127608577Y-120408626D01*
X127608576Y-120408624D01*
X127545934Y-120257394D01*
X127514000Y-120096848D01*
X127514000Y-119933152D01*
X127545934Y-119772606D01*
X127608576Y-119621376D01*
X127608577Y-119621374D01*
X127699520Y-119485268D01*
X127815268Y-119369520D01*
X127951374Y-119278577D01*
X127951376Y-119278576D01*
X128102606Y-119215934D01*
X128263152Y-119184000D01*
X128426848Y-119184000D01*
X128587394Y-119215934D01*
G37*
G36*
X131127394Y-119215934D02*
G01*
X131278624Y-119278576D01*
X131278626Y-119278577D01*
X131414732Y-119369520D01*
X131530480Y-119485268D01*
X131621423Y-119621374D01*
X131621424Y-119621376D01*
X131684066Y-119772606D01*
X131716000Y-119933152D01*
X131716000Y-120096848D01*
X131684066Y-120257394D01*
X131621424Y-120408624D01*
X131621423Y-120408626D01*
X131530480Y-120544732D01*
X131414732Y-120660480D01*
X131278626Y-120751423D01*
X131278625Y-120751424D01*
X131278624Y-120751424D01*
X131127394Y-120814066D01*
X130966848Y-120846000D01*
X130803152Y-120846000D01*
X130642606Y-120814066D01*
X130491376Y-120751424D01*
X130491375Y-120751424D01*
X130491374Y-120751423D01*
X130355268Y-120660480D01*
X130239520Y-120544732D01*
X130148577Y-120408626D01*
X130148576Y-120408624D01*
X130085934Y-120257394D01*
X130054000Y-120096848D01*
X130054000Y-119933152D01*
X130085934Y-119772606D01*
X130148576Y-119621376D01*
X130148577Y-119621374D01*
X130239520Y-119485268D01*
X130355268Y-119369520D01*
X130491374Y-119278577D01*
X130491376Y-119278576D01*
X130642606Y-119215934D01*
X130803152Y-119184000D01*
X130966848Y-119184000D01*
X131127394Y-119215934D01*
G37*
G36*
X85407394Y-119215934D02*
G01*
X85558624Y-119278576D01*
X85558626Y-119278577D01*
X85694732Y-119369520D01*
X85810480Y-119485268D01*
X85901423Y-119621374D01*
X85901424Y-119621376D01*
X85964066Y-119772606D01*
X85996000Y-119933152D01*
X85996000Y-120096848D01*
X85964066Y-120257394D01*
X85901424Y-120408624D01*
X85901423Y-120408626D01*
X85810480Y-120544732D01*
X85694732Y-120660480D01*
X85558626Y-120751423D01*
X85558625Y-120751424D01*
X85558624Y-120751424D01*
X85407394Y-120814066D01*
X85246848Y-120846000D01*
X85083152Y-120846000D01*
X84922606Y-120814066D01*
X84771376Y-120751424D01*
X84771375Y-120751424D01*
X84771374Y-120751423D01*
X84635268Y-120660480D01*
X84519520Y-120544732D01*
X84428577Y-120408626D01*
X84428576Y-120408624D01*
X84365934Y-120257394D01*
X84334000Y-120096848D01*
X84334000Y-119933152D01*
X84365934Y-119772606D01*
X84428576Y-119621376D01*
X84428577Y-119621374D01*
X84519520Y-119485268D01*
X84635268Y-119369520D01*
X84771374Y-119278577D01*
X84771376Y-119278576D01*
X84922606Y-119215934D01*
X85083152Y-119184000D01*
X85246848Y-119184000D01*
X85407394Y-119215934D01*
G37*
G36*
X108267394Y-119215934D02*
G01*
X108418624Y-119278576D01*
X108418626Y-119278577D01*
X108554732Y-119369520D01*
X108670480Y-119485268D01*
X108761423Y-119621374D01*
X108761424Y-119621376D01*
X108824066Y-119772606D01*
X108856000Y-119933152D01*
X108856000Y-120096848D01*
X108824066Y-120257394D01*
X108761424Y-120408624D01*
X108761423Y-120408626D01*
X108670480Y-120544732D01*
X108554732Y-120660480D01*
X108418626Y-120751423D01*
X108418625Y-120751424D01*
X108418624Y-120751424D01*
X108267394Y-120814066D01*
X108106848Y-120846000D01*
X107943152Y-120846000D01*
X107782606Y-120814066D01*
X107631376Y-120751424D01*
X107631375Y-120751424D01*
X107631374Y-120751423D01*
X107495268Y-120660480D01*
X107379520Y-120544732D01*
X107288577Y-120408626D01*
X107288576Y-120408624D01*
X107225934Y-120257394D01*
X107194000Y-120096848D01*
X107194000Y-119933152D01*
X107225934Y-119772606D01*
X107288576Y-119621376D01*
X107288577Y-119621374D01*
X107379520Y-119485268D01*
X107495268Y-119369520D01*
X107631374Y-119278577D01*
X107631376Y-119278576D01*
X107782606Y-119215934D01*
X107943152Y-119184000D01*
X108106848Y-119184000D01*
X108267394Y-119215934D01*
G37*
G36*
X105727394Y-119215934D02*
G01*
X105878624Y-119278576D01*
X105878626Y-119278577D01*
X106014732Y-119369520D01*
X106130480Y-119485268D01*
X106221423Y-119621374D01*
X106221424Y-119621376D01*
X106284066Y-119772606D01*
X106316000Y-119933152D01*
X106316000Y-120096848D01*
X106284066Y-120257394D01*
X106221424Y-120408624D01*
X106221423Y-120408626D01*
X106130480Y-120544732D01*
X106014732Y-120660480D01*
X105878626Y-120751423D01*
X105878625Y-120751424D01*
X105878624Y-120751424D01*
X105727394Y-120814066D01*
X105566848Y-120846000D01*
X105403152Y-120846000D01*
X105242606Y-120814066D01*
X105091376Y-120751424D01*
X105091375Y-120751424D01*
X105091374Y-120751423D01*
X104955268Y-120660480D01*
X104839520Y-120544732D01*
X104748577Y-120408626D01*
X104748576Y-120408624D01*
X104685934Y-120257394D01*
X104654000Y-120096848D01*
X104654000Y-119933152D01*
X104685934Y-119772606D01*
X104748576Y-119621376D01*
X104748577Y-119621374D01*
X104839520Y-119485268D01*
X104955268Y-119369520D01*
X105091374Y-119278577D01*
X105091376Y-119278576D01*
X105242606Y-119215934D01*
X105403152Y-119184000D01*
X105566848Y-119184000D01*
X105727394Y-119215934D01*
G37*
G36*
X103187394Y-119215934D02*
G01*
X103338624Y-119278576D01*
X103338626Y-119278577D01*
X103474732Y-119369520D01*
X103590480Y-119485268D01*
X103681423Y-119621374D01*
X103681424Y-119621376D01*
X103744066Y-119772606D01*
X103776000Y-119933152D01*
X103776000Y-120096848D01*
X103744066Y-120257394D01*
X103681424Y-120408624D01*
X103681423Y-120408626D01*
X103590480Y-120544732D01*
X103474732Y-120660480D01*
X103338626Y-120751423D01*
X103338625Y-120751424D01*
X103338624Y-120751424D01*
X103187394Y-120814066D01*
X103026848Y-120846000D01*
X102863152Y-120846000D01*
X102702606Y-120814066D01*
X102551376Y-120751424D01*
X102551375Y-120751424D01*
X102551374Y-120751423D01*
X102415268Y-120660480D01*
X102299520Y-120544732D01*
X102208577Y-120408626D01*
X102208576Y-120408624D01*
X102145934Y-120257394D01*
X102114000Y-120096848D01*
X102114000Y-119933152D01*
X102145934Y-119772606D01*
X102208576Y-119621376D01*
X102208577Y-119621374D01*
X102299520Y-119485268D01*
X102415268Y-119369520D01*
X102551374Y-119278577D01*
X102551376Y-119278576D01*
X102702606Y-119215934D01*
X102863152Y-119184000D01*
X103026848Y-119184000D01*
X103187394Y-119215934D01*
G37*
G36*
X100647394Y-119215934D02*
G01*
X100798624Y-119278576D01*
X100798626Y-119278577D01*
X100934732Y-119369520D01*
X101050480Y-119485268D01*
X101141423Y-119621374D01*
X101141424Y-119621376D01*
X101204066Y-119772606D01*
X101236000Y-119933152D01*
X101236000Y-120096848D01*
X101204066Y-120257394D01*
X101141424Y-120408624D01*
X101141423Y-120408626D01*
X101050480Y-120544732D01*
X100934732Y-120660480D01*
X100798626Y-120751423D01*
X100798625Y-120751424D01*
X100798624Y-120751424D01*
X100647394Y-120814066D01*
X100486848Y-120846000D01*
X100323152Y-120846000D01*
X100162606Y-120814066D01*
X100011376Y-120751424D01*
X100011375Y-120751424D01*
X100011374Y-120751423D01*
X99875268Y-120660480D01*
X99759520Y-120544732D01*
X99668577Y-120408626D01*
X99668576Y-120408624D01*
X99605934Y-120257394D01*
X99574000Y-120096848D01*
X99574000Y-119933152D01*
X99605934Y-119772606D01*
X99668576Y-119621376D01*
X99668577Y-119621374D01*
X99759520Y-119485268D01*
X99875268Y-119369520D01*
X100011374Y-119278577D01*
X100011376Y-119278576D01*
X100162606Y-119215934D01*
X100323152Y-119184000D01*
X100486848Y-119184000D01*
X100647394Y-119215934D01*
G37*
G36*
X98107394Y-119215934D02*
G01*
X98258624Y-119278576D01*
X98258626Y-119278577D01*
X98394732Y-119369520D01*
X98510480Y-119485268D01*
X98601423Y-119621374D01*
X98601424Y-119621376D01*
X98664066Y-119772606D01*
X98696000Y-119933152D01*
X98696000Y-120096848D01*
X98664066Y-120257394D01*
X98601424Y-120408624D01*
X98601423Y-120408626D01*
X98510480Y-120544732D01*
X98394732Y-120660480D01*
X98258626Y-120751423D01*
X98258625Y-120751424D01*
X98258624Y-120751424D01*
X98107394Y-120814066D01*
X97946848Y-120846000D01*
X97783152Y-120846000D01*
X97622606Y-120814066D01*
X97471376Y-120751424D01*
X97471375Y-120751424D01*
X97471374Y-120751423D01*
X97335268Y-120660480D01*
X97219520Y-120544732D01*
X97128577Y-120408626D01*
X97128576Y-120408624D01*
X97065934Y-120257394D01*
X97034000Y-120096848D01*
X97034000Y-119933152D01*
X97065934Y-119772606D01*
X97128576Y-119621376D01*
X97128577Y-119621374D01*
X97219520Y-119485268D01*
X97335268Y-119369520D01*
X97471374Y-119278577D01*
X97471376Y-119278576D01*
X97622606Y-119215934D01*
X97783152Y-119184000D01*
X97946848Y-119184000D01*
X98107394Y-119215934D01*
G37*
G36*
X95567394Y-119215934D02*
G01*
X95718624Y-119278576D01*
X95718626Y-119278577D01*
X95854732Y-119369520D01*
X95970480Y-119485268D01*
X96061423Y-119621374D01*
X96061424Y-119621376D01*
X96124066Y-119772606D01*
X96156000Y-119933152D01*
X96156000Y-120096848D01*
X96124066Y-120257394D01*
X96061424Y-120408624D01*
X96061423Y-120408626D01*
X95970480Y-120544732D01*
X95854732Y-120660480D01*
X95718626Y-120751423D01*
X95718625Y-120751424D01*
X95718624Y-120751424D01*
X95567394Y-120814066D01*
X95406848Y-120846000D01*
X95243152Y-120846000D01*
X95082606Y-120814066D01*
X94931376Y-120751424D01*
X94931375Y-120751424D01*
X94931374Y-120751423D01*
X94795268Y-120660480D01*
X94679520Y-120544732D01*
X94588577Y-120408626D01*
X94588576Y-120408624D01*
X94525934Y-120257394D01*
X94494000Y-120096848D01*
X94494000Y-119933152D01*
X94525934Y-119772606D01*
X94588576Y-119621376D01*
X94588577Y-119621374D01*
X94679520Y-119485268D01*
X94795268Y-119369520D01*
X94931374Y-119278577D01*
X94931376Y-119278576D01*
X95082606Y-119215934D01*
X95243152Y-119184000D01*
X95406848Y-119184000D01*
X95567394Y-119215934D01*
G37*
G36*
X93027394Y-119215934D02*
G01*
X93178624Y-119278576D01*
X93178626Y-119278577D01*
X93314732Y-119369520D01*
X93430480Y-119485268D01*
X93521423Y-119621374D01*
X93521424Y-119621376D01*
X93584066Y-119772606D01*
X93616000Y-119933152D01*
X93616000Y-120096848D01*
X93584066Y-120257394D01*
X93521424Y-120408624D01*
X93521423Y-120408626D01*
X93430480Y-120544732D01*
X93314732Y-120660480D01*
X93178626Y-120751423D01*
X93178625Y-120751424D01*
X93178624Y-120751424D01*
X93027394Y-120814066D01*
X92866848Y-120846000D01*
X92703152Y-120846000D01*
X92542606Y-120814066D01*
X92391376Y-120751424D01*
X92391375Y-120751424D01*
X92391374Y-120751423D01*
X92255268Y-120660480D01*
X92139520Y-120544732D01*
X92048577Y-120408626D01*
X92048576Y-120408624D01*
X91985934Y-120257394D01*
X91954000Y-120096848D01*
X91954000Y-119933152D01*
X91985934Y-119772606D01*
X92048576Y-119621376D01*
X92048577Y-119621374D01*
X92139520Y-119485268D01*
X92255268Y-119369520D01*
X92391374Y-119278577D01*
X92391376Y-119278576D01*
X92542606Y-119215934D01*
X92703152Y-119184000D01*
X92866848Y-119184000D01*
X93027394Y-119215934D01*
G37*
G36*
X90487394Y-119215934D02*
G01*
X90638624Y-119278576D01*
X90638626Y-119278577D01*
X90774732Y-119369520D01*
X90890480Y-119485268D01*
X90981423Y-119621374D01*
X90981424Y-119621376D01*
X91044066Y-119772606D01*
X91076000Y-119933152D01*
X91076000Y-120096848D01*
X91044066Y-120257394D01*
X90981424Y-120408624D01*
X90981423Y-120408626D01*
X90890480Y-120544732D01*
X90774732Y-120660480D01*
X90638626Y-120751423D01*
X90638625Y-120751424D01*
X90638624Y-120751424D01*
X90487394Y-120814066D01*
X90326848Y-120846000D01*
X90163152Y-120846000D01*
X90002606Y-120814066D01*
X89851376Y-120751424D01*
X89851375Y-120751424D01*
X89851374Y-120751423D01*
X89715268Y-120660480D01*
X89599520Y-120544732D01*
X89508577Y-120408626D01*
X89508576Y-120408624D01*
X89445934Y-120257394D01*
X89414000Y-120096848D01*
X89414000Y-119933152D01*
X89445934Y-119772606D01*
X89508576Y-119621376D01*
X89508577Y-119621374D01*
X89599520Y-119485268D01*
X89715268Y-119369520D01*
X89851374Y-119278577D01*
X89851376Y-119278576D01*
X90002606Y-119215934D01*
X90163152Y-119184000D01*
X90326848Y-119184000D01*
X90487394Y-119215934D01*
G37*
G36*
X87947394Y-119215934D02*
G01*
X88098624Y-119278576D01*
X88098626Y-119278577D01*
X88234732Y-119369520D01*
X88350480Y-119485268D01*
X88441423Y-119621374D01*
X88441424Y-119621376D01*
X88504066Y-119772606D01*
X88536000Y-119933152D01*
X88536000Y-120096848D01*
X88504066Y-120257394D01*
X88441424Y-120408624D01*
X88441423Y-120408626D01*
X88350480Y-120544732D01*
X88234732Y-120660480D01*
X88098626Y-120751423D01*
X88098625Y-120751424D01*
X88098624Y-120751424D01*
X87947394Y-120814066D01*
X87786848Y-120846000D01*
X87623152Y-120846000D01*
X87462606Y-120814066D01*
X87311376Y-120751424D01*
X87311375Y-120751424D01*
X87311374Y-120751423D01*
X87175268Y-120660480D01*
X87059520Y-120544732D01*
X86968577Y-120408626D01*
X86968576Y-120408624D01*
X86905934Y-120257394D01*
X86874000Y-120096848D01*
X86874000Y-119933152D01*
X86905934Y-119772606D01*
X86968576Y-119621376D01*
X86968577Y-119621374D01*
X87059520Y-119485268D01*
X87175268Y-119369520D01*
X87311374Y-119278577D01*
X87311376Y-119278576D01*
X87462606Y-119215934D01*
X87623152Y-119184000D01*
X87786848Y-119184000D01*
X87947394Y-119215934D01*
G37*
G36*
X110807394Y-119215934D02*
G01*
X110958624Y-119278576D01*
X110958626Y-119278577D01*
X111094732Y-119369520D01*
X111210480Y-119485268D01*
X111301423Y-119621374D01*
X111301424Y-119621376D01*
X111364066Y-119772606D01*
X111396000Y-119933152D01*
X111396000Y-120096848D01*
X111364066Y-120257394D01*
X111301424Y-120408624D01*
X111301423Y-120408626D01*
X111210480Y-120544732D01*
X111094732Y-120660480D01*
X110958626Y-120751423D01*
X110958625Y-120751424D01*
X110958624Y-120751424D01*
X110807394Y-120814066D01*
X110646848Y-120846000D01*
X110483152Y-120846000D01*
X110322606Y-120814066D01*
X110171376Y-120751424D01*
X110171375Y-120751424D01*
X110171374Y-120751423D01*
X110035268Y-120660480D01*
X109919520Y-120544732D01*
X109828577Y-120408626D01*
X109828576Y-120408624D01*
X109765934Y-120257394D01*
X109734000Y-120096848D01*
X109734000Y-119933152D01*
X109765934Y-119772606D01*
X109828576Y-119621376D01*
X109828577Y-119621374D01*
X109919520Y-119485268D01*
X110035268Y-119369520D01*
X110171374Y-119278577D01*
X110171376Y-119278576D01*
X110322606Y-119215934D01*
X110483152Y-119184000D01*
X110646848Y-119184000D01*
X110807394Y-119215934D01*
G37*
G36*
X113347394Y-93815934D02*
G01*
X113498624Y-93878576D01*
X113498626Y-93878577D01*
X113634732Y-93969520D01*
X113750480Y-94085268D01*
X113841423Y-94221374D01*
X113841424Y-94221376D01*
X113904066Y-94372606D01*
X113936000Y-94533152D01*
X113936000Y-94696848D01*
X113904066Y-94857394D01*
X113841424Y-95008624D01*
X113841423Y-95008626D01*
X113750480Y-95144732D01*
X113634732Y-95260480D01*
X113498626Y-95351423D01*
X113498625Y-95351424D01*
X113498624Y-95351424D01*
X113347394Y-95414066D01*
X113186848Y-95446000D01*
X113023152Y-95446000D01*
X112862606Y-95414066D01*
X112711376Y-95351424D01*
X112711375Y-95351424D01*
X112711374Y-95351423D01*
X112575268Y-95260480D01*
X112459520Y-95144732D01*
X112368577Y-95008626D01*
X112368576Y-95008624D01*
X112305934Y-94857394D01*
X112274000Y-94696848D01*
X112274000Y-94533152D01*
X112305934Y-94372606D01*
X112368576Y-94221376D01*
X112368577Y-94221374D01*
X112459520Y-94085268D01*
X112575268Y-93969520D01*
X112711374Y-93878577D01*
X112711376Y-93878576D01*
X112862606Y-93815934D01*
X113023152Y-93784000D01*
X113186848Y-93784000D01*
X113347394Y-93815934D01*
G37*
G36*
X87947394Y-93815934D02*
G01*
X88098624Y-93878576D01*
X88098626Y-93878577D01*
X88234732Y-93969520D01*
X88350480Y-94085268D01*
X88441423Y-94221374D01*
X88441424Y-94221376D01*
X88504066Y-94372606D01*
X88536000Y-94533152D01*
X88536000Y-94696848D01*
X88504066Y-94857394D01*
X88441424Y-95008624D01*
X88441423Y-95008626D01*
X88350480Y-95144732D01*
X88234732Y-95260480D01*
X88098626Y-95351423D01*
X88098625Y-95351424D01*
X88098624Y-95351424D01*
X87947394Y-95414066D01*
X87786848Y-95446000D01*
X87623152Y-95446000D01*
X87462606Y-95414066D01*
X87311376Y-95351424D01*
X87311375Y-95351424D01*
X87311374Y-95351423D01*
X87175268Y-95260480D01*
X87059520Y-95144732D01*
X86968577Y-95008626D01*
X86968576Y-95008624D01*
X86905934Y-94857394D01*
X86874000Y-94696848D01*
X86874000Y-94533152D01*
X86905934Y-94372606D01*
X86968576Y-94221376D01*
X86968577Y-94221374D01*
X87059520Y-94085268D01*
X87175268Y-93969520D01*
X87311374Y-93878577D01*
X87311376Y-93878576D01*
X87462606Y-93815934D01*
X87623152Y-93784000D01*
X87786848Y-93784000D01*
X87947394Y-93815934D01*
G37*
G36*
X115887394Y-93815934D02*
G01*
X116038624Y-93878576D01*
X116038626Y-93878577D01*
X116174732Y-93969520D01*
X116290480Y-94085268D01*
X116381423Y-94221374D01*
X116381424Y-94221376D01*
X116444066Y-94372606D01*
X116476000Y-94533152D01*
X116476000Y-94696848D01*
X116444066Y-94857394D01*
X116381424Y-95008624D01*
X116381423Y-95008626D01*
X116290480Y-95144732D01*
X116174732Y-95260480D01*
X116038626Y-95351423D01*
X116038625Y-95351424D01*
X116038624Y-95351424D01*
X115887394Y-95414066D01*
X115726848Y-95446000D01*
X115563152Y-95446000D01*
X115402606Y-95414066D01*
X115251376Y-95351424D01*
X115251375Y-95351424D01*
X115251374Y-95351423D01*
X115115268Y-95260480D01*
X114999520Y-95144732D01*
X114908577Y-95008626D01*
X114908576Y-95008624D01*
X114845934Y-94857394D01*
X114814000Y-94696848D01*
X114814000Y-94533152D01*
X114845934Y-94372606D01*
X114908576Y-94221376D01*
X114908577Y-94221374D01*
X114999520Y-94085268D01*
X115115268Y-93969520D01*
X115251374Y-93878577D01*
X115251376Y-93878576D01*
X115402606Y-93815934D01*
X115563152Y-93784000D01*
X115726848Y-93784000D01*
X115887394Y-93815934D01*
G37*
G36*
X118427394Y-93815934D02*
G01*
X118578624Y-93878576D01*
X118578626Y-93878577D01*
X118714732Y-93969520D01*
X118830480Y-94085268D01*
X118921423Y-94221374D01*
X118921424Y-94221376D01*
X118984066Y-94372606D01*
X119016000Y-94533152D01*
X119016000Y-94696848D01*
X118984066Y-94857394D01*
X118921424Y-95008624D01*
X118921423Y-95008626D01*
X118830480Y-95144732D01*
X118714732Y-95260480D01*
X118578626Y-95351423D01*
X118578625Y-95351424D01*
X118578624Y-95351424D01*
X118427394Y-95414066D01*
X118266848Y-95446000D01*
X118103152Y-95446000D01*
X117942606Y-95414066D01*
X117791376Y-95351424D01*
X117791375Y-95351424D01*
X117791374Y-95351423D01*
X117655268Y-95260480D01*
X117539520Y-95144732D01*
X117448577Y-95008626D01*
X117448576Y-95008624D01*
X117385934Y-94857394D01*
X117354000Y-94696848D01*
X117354000Y-94533152D01*
X117385934Y-94372606D01*
X117448576Y-94221376D01*
X117448577Y-94221374D01*
X117539520Y-94085268D01*
X117655268Y-93969520D01*
X117791374Y-93878577D01*
X117791376Y-93878576D01*
X117942606Y-93815934D01*
X118103152Y-93784000D01*
X118266848Y-93784000D01*
X118427394Y-93815934D01*
G37*
G36*
X120967394Y-93815934D02*
G01*
X121118624Y-93878576D01*
X121118626Y-93878577D01*
X121254732Y-93969520D01*
X121370480Y-94085268D01*
X121461423Y-94221374D01*
X121461424Y-94221376D01*
X121524066Y-94372606D01*
X121556000Y-94533152D01*
X121556000Y-94696848D01*
X121524066Y-94857394D01*
X121461424Y-95008624D01*
X121461423Y-95008626D01*
X121370480Y-95144732D01*
X121254732Y-95260480D01*
X121118626Y-95351423D01*
X121118625Y-95351424D01*
X121118624Y-95351424D01*
X120967394Y-95414066D01*
X120806848Y-95446000D01*
X120643152Y-95446000D01*
X120482606Y-95414066D01*
X120331376Y-95351424D01*
X120331375Y-95351424D01*
X120331374Y-95351423D01*
X120195268Y-95260480D01*
X120079520Y-95144732D01*
X119988577Y-95008626D01*
X119988576Y-95008624D01*
X119925934Y-94857394D01*
X119894000Y-94696848D01*
X119894000Y-94533152D01*
X119925934Y-94372606D01*
X119988576Y-94221376D01*
X119988577Y-94221374D01*
X120079520Y-94085268D01*
X120195268Y-93969520D01*
X120331374Y-93878577D01*
X120331376Y-93878576D01*
X120482606Y-93815934D01*
X120643152Y-93784000D01*
X120806848Y-93784000D01*
X120967394Y-93815934D01*
G37*
G36*
X123507394Y-93815934D02*
G01*
X123658624Y-93878576D01*
X123658626Y-93878577D01*
X123794732Y-93969520D01*
X123910480Y-94085268D01*
X124001423Y-94221374D01*
X124001424Y-94221376D01*
X124064066Y-94372606D01*
X124096000Y-94533152D01*
X124096000Y-94696848D01*
X124064066Y-94857394D01*
X124001424Y-95008624D01*
X124001423Y-95008626D01*
X123910480Y-95144732D01*
X123794732Y-95260480D01*
X123658626Y-95351423D01*
X123658625Y-95351424D01*
X123658624Y-95351424D01*
X123507394Y-95414066D01*
X123346848Y-95446000D01*
X123183152Y-95446000D01*
X123022606Y-95414066D01*
X122871376Y-95351424D01*
X122871375Y-95351424D01*
X122871374Y-95351423D01*
X122735268Y-95260480D01*
X122619520Y-95144732D01*
X122528577Y-95008626D01*
X122528576Y-95008624D01*
X122465934Y-94857394D01*
X122434000Y-94696848D01*
X122434000Y-94533152D01*
X122465934Y-94372606D01*
X122528576Y-94221376D01*
X122528577Y-94221374D01*
X122619520Y-94085268D01*
X122735268Y-93969520D01*
X122871374Y-93878577D01*
X122871376Y-93878576D01*
X123022606Y-93815934D01*
X123183152Y-93784000D01*
X123346848Y-93784000D01*
X123507394Y-93815934D01*
G37*
G36*
X126047394Y-93815934D02*
G01*
X126198624Y-93878576D01*
X126198626Y-93878577D01*
X126334732Y-93969520D01*
X126450480Y-94085268D01*
X126541423Y-94221374D01*
X126541424Y-94221376D01*
X126604066Y-94372606D01*
X126636000Y-94533152D01*
X126636000Y-94696848D01*
X126604066Y-94857394D01*
X126541424Y-95008624D01*
X126541423Y-95008626D01*
X126450480Y-95144732D01*
X126334732Y-95260480D01*
X126198626Y-95351423D01*
X126198625Y-95351424D01*
X126198624Y-95351424D01*
X126047394Y-95414066D01*
X125886848Y-95446000D01*
X125723152Y-95446000D01*
X125562606Y-95414066D01*
X125411376Y-95351424D01*
X125411375Y-95351424D01*
X125411374Y-95351423D01*
X125275268Y-95260480D01*
X125159520Y-95144732D01*
X125068577Y-95008626D01*
X125068576Y-95008624D01*
X125005934Y-94857394D01*
X124974000Y-94696848D01*
X124974000Y-94533152D01*
X125005934Y-94372606D01*
X125068576Y-94221376D01*
X125068577Y-94221374D01*
X125159520Y-94085268D01*
X125275268Y-93969520D01*
X125411374Y-93878577D01*
X125411376Y-93878576D01*
X125562606Y-93815934D01*
X125723152Y-93784000D01*
X125886848Y-93784000D01*
X126047394Y-93815934D01*
G37*
G36*
X85407394Y-93815934D02*
G01*
X85558624Y-93878576D01*
X85558626Y-93878577D01*
X85694732Y-93969520D01*
X85810480Y-94085268D01*
X85901423Y-94221374D01*
X85901424Y-94221376D01*
X85964066Y-94372606D01*
X85996000Y-94533152D01*
X85996000Y-94696848D01*
X85964066Y-94857394D01*
X85901424Y-95008624D01*
X85901423Y-95008626D01*
X85810480Y-95144732D01*
X85694732Y-95260480D01*
X85558626Y-95351423D01*
X85558625Y-95351424D01*
X85558624Y-95351424D01*
X85407394Y-95414066D01*
X85246848Y-95446000D01*
X85083152Y-95446000D01*
X84922606Y-95414066D01*
X84771376Y-95351424D01*
X84771375Y-95351424D01*
X84771374Y-95351423D01*
X84635268Y-95260480D01*
X84519520Y-95144732D01*
X84428577Y-95008626D01*
X84428576Y-95008624D01*
X84365934Y-94857394D01*
X84334000Y-94696848D01*
X84334000Y-94533152D01*
X84365934Y-94372606D01*
X84428576Y-94221376D01*
X84428577Y-94221374D01*
X84519520Y-94085268D01*
X84635268Y-93969520D01*
X84771374Y-93878577D01*
X84771376Y-93878576D01*
X84922606Y-93815934D01*
X85083152Y-93784000D01*
X85246848Y-93784000D01*
X85407394Y-93815934D01*
G37*
G36*
X128587394Y-93815934D02*
G01*
X128738624Y-93878576D01*
X128738626Y-93878577D01*
X128874732Y-93969520D01*
X128990480Y-94085268D01*
X129081423Y-94221374D01*
X129081424Y-94221376D01*
X129144066Y-94372606D01*
X129176000Y-94533152D01*
X129176000Y-94696848D01*
X129144066Y-94857394D01*
X129081424Y-95008624D01*
X129081423Y-95008626D01*
X128990480Y-95144732D01*
X128874732Y-95260480D01*
X128738626Y-95351423D01*
X128738625Y-95351424D01*
X128738624Y-95351424D01*
X128587394Y-95414066D01*
X128426848Y-95446000D01*
X128263152Y-95446000D01*
X128102606Y-95414066D01*
X127951376Y-95351424D01*
X127951375Y-95351424D01*
X127951374Y-95351423D01*
X127815268Y-95260480D01*
X127699520Y-95144732D01*
X127608577Y-95008626D01*
X127608576Y-95008624D01*
X127545934Y-94857394D01*
X127514000Y-94696848D01*
X127514000Y-94533152D01*
X127545934Y-94372606D01*
X127608576Y-94221376D01*
X127608577Y-94221374D01*
X127699520Y-94085268D01*
X127815268Y-93969520D01*
X127951374Y-93878577D01*
X127951376Y-93878576D01*
X128102606Y-93815934D01*
X128263152Y-93784000D01*
X128426848Y-93784000D01*
X128587394Y-93815934D01*
G37*
G36*
X131716000Y-95446000D02*
G01*
X130054000Y-95446000D01*
X130054000Y-93784000D01*
X131716000Y-93784000D01*
X131716000Y-95446000D01*
G37*
G36*
X108267394Y-93815934D02*
G01*
X108418624Y-93878576D01*
X108418626Y-93878577D01*
X108554732Y-93969520D01*
X108670480Y-94085268D01*
X108761423Y-94221374D01*
X108761424Y-94221376D01*
X108824066Y-94372606D01*
X108856000Y-94533152D01*
X108856000Y-94696848D01*
X108824066Y-94857394D01*
X108761424Y-95008624D01*
X108761423Y-95008626D01*
X108670480Y-95144732D01*
X108554732Y-95260480D01*
X108418626Y-95351423D01*
X108418625Y-95351424D01*
X108418624Y-95351424D01*
X108267394Y-95414066D01*
X108106848Y-95446000D01*
X107943152Y-95446000D01*
X107782606Y-95414066D01*
X107631376Y-95351424D01*
X107631375Y-95351424D01*
X107631374Y-95351423D01*
X107495268Y-95260480D01*
X107379520Y-95144732D01*
X107288577Y-95008626D01*
X107288576Y-95008624D01*
X107225934Y-94857394D01*
X107194000Y-94696848D01*
X107194000Y-94533152D01*
X107225934Y-94372606D01*
X107288576Y-94221376D01*
X107288577Y-94221374D01*
X107379520Y-94085268D01*
X107495268Y-93969520D01*
X107631374Y-93878577D01*
X107631376Y-93878576D01*
X107782606Y-93815934D01*
X107943152Y-93784000D01*
X108106848Y-93784000D01*
X108267394Y-93815934D01*
G37*
G36*
X105727394Y-93815934D02*
G01*
X105878624Y-93878576D01*
X105878626Y-93878577D01*
X106014732Y-93969520D01*
X106130480Y-94085268D01*
X106221423Y-94221374D01*
X106221424Y-94221376D01*
X106284066Y-94372606D01*
X106316000Y-94533152D01*
X106316000Y-94696848D01*
X106284066Y-94857394D01*
X106221424Y-95008624D01*
X106221423Y-95008626D01*
X106130480Y-95144732D01*
X106014732Y-95260480D01*
X105878626Y-95351423D01*
X105878625Y-95351424D01*
X105878624Y-95351424D01*
X105727394Y-95414066D01*
X105566848Y-95446000D01*
X105403152Y-95446000D01*
X105242606Y-95414066D01*
X105091376Y-95351424D01*
X105091375Y-95351424D01*
X105091374Y-95351423D01*
X104955268Y-95260480D01*
X104839520Y-95144732D01*
X104748577Y-95008626D01*
X104748576Y-95008624D01*
X104685934Y-94857394D01*
X104654000Y-94696848D01*
X104654000Y-94533152D01*
X104685934Y-94372606D01*
X104748576Y-94221376D01*
X104748577Y-94221374D01*
X104839520Y-94085268D01*
X104955268Y-93969520D01*
X105091374Y-93878577D01*
X105091376Y-93878576D01*
X105242606Y-93815934D01*
X105403152Y-93784000D01*
X105566848Y-93784000D01*
X105727394Y-93815934D01*
G37*
G36*
X98107394Y-93815934D02*
G01*
X98258624Y-93878576D01*
X98258626Y-93878577D01*
X98394732Y-93969520D01*
X98510480Y-94085268D01*
X98601423Y-94221374D01*
X98601424Y-94221376D01*
X98664066Y-94372606D01*
X98696000Y-94533152D01*
X98696000Y-94696848D01*
X98664066Y-94857394D01*
X98601424Y-95008624D01*
X98601423Y-95008626D01*
X98510480Y-95144732D01*
X98394732Y-95260480D01*
X98258626Y-95351423D01*
X98258625Y-95351424D01*
X98258624Y-95351424D01*
X98107394Y-95414066D01*
X97946848Y-95446000D01*
X97783152Y-95446000D01*
X97622606Y-95414066D01*
X97471376Y-95351424D01*
X97471375Y-95351424D01*
X97471374Y-95351423D01*
X97335268Y-95260480D01*
X97219520Y-95144732D01*
X97128577Y-95008626D01*
X97128576Y-95008624D01*
X97065934Y-94857394D01*
X97034000Y-94696848D01*
X97034000Y-94533152D01*
X97065934Y-94372606D01*
X97128576Y-94221376D01*
X97128577Y-94221374D01*
X97219520Y-94085268D01*
X97335268Y-93969520D01*
X97471374Y-93878577D01*
X97471376Y-93878576D01*
X97622606Y-93815934D01*
X97783152Y-93784000D01*
X97946848Y-93784000D01*
X98107394Y-93815934D01*
G37*
G36*
X95567394Y-93815934D02*
G01*
X95718624Y-93878576D01*
X95718626Y-93878577D01*
X95854732Y-93969520D01*
X95970480Y-94085268D01*
X96061423Y-94221374D01*
X96061424Y-94221376D01*
X96124066Y-94372606D01*
X96156000Y-94533152D01*
X96156000Y-94696848D01*
X96124066Y-94857394D01*
X96061424Y-95008624D01*
X96061423Y-95008626D01*
X95970480Y-95144732D01*
X95854732Y-95260480D01*
X95718626Y-95351423D01*
X95718625Y-95351424D01*
X95718624Y-95351424D01*
X95567394Y-95414066D01*
X95406848Y-95446000D01*
X95243152Y-95446000D01*
X95082606Y-95414066D01*
X94931376Y-95351424D01*
X94931375Y-95351424D01*
X94931374Y-95351423D01*
X94795268Y-95260480D01*
X94679520Y-95144732D01*
X94588577Y-95008626D01*
X94588576Y-95008624D01*
X94525934Y-94857394D01*
X94494000Y-94696848D01*
X94494000Y-94533152D01*
X94525934Y-94372606D01*
X94588576Y-94221376D01*
X94588577Y-94221374D01*
X94679520Y-94085268D01*
X94795268Y-93969520D01*
X94931374Y-93878577D01*
X94931376Y-93878576D01*
X95082606Y-93815934D01*
X95243152Y-93784000D01*
X95406848Y-93784000D01*
X95567394Y-93815934D01*
G37*
G36*
X93027394Y-93815934D02*
G01*
X93178624Y-93878576D01*
X93178626Y-93878577D01*
X93314732Y-93969520D01*
X93430480Y-94085268D01*
X93521423Y-94221374D01*
X93521424Y-94221376D01*
X93584066Y-94372606D01*
X93616000Y-94533152D01*
X93616000Y-94696848D01*
X93584066Y-94857394D01*
X93521424Y-95008624D01*
X93521423Y-95008626D01*
X93430480Y-95144732D01*
X93314732Y-95260480D01*
X93178626Y-95351423D01*
X93178625Y-95351424D01*
X93178624Y-95351424D01*
X93027394Y-95414066D01*
X92866848Y-95446000D01*
X92703152Y-95446000D01*
X92542606Y-95414066D01*
X92391376Y-95351424D01*
X92391375Y-95351424D01*
X92391374Y-95351423D01*
X92255268Y-95260480D01*
X92139520Y-95144732D01*
X92048577Y-95008626D01*
X92048576Y-95008624D01*
X91985934Y-94857394D01*
X91954000Y-94696848D01*
X91954000Y-94533152D01*
X91985934Y-94372606D01*
X92048576Y-94221376D01*
X92048577Y-94221374D01*
X92139520Y-94085268D01*
X92255268Y-93969520D01*
X92391374Y-93878577D01*
X92391376Y-93878576D01*
X92542606Y-93815934D01*
X92703152Y-93784000D01*
X92866848Y-93784000D01*
X93027394Y-93815934D01*
G37*
G36*
X90487394Y-93815934D02*
G01*
X90638624Y-93878576D01*
X90638626Y-93878577D01*
X90774732Y-93969520D01*
X90890480Y-94085268D01*
X90981423Y-94221374D01*
X90981424Y-94221376D01*
X91044066Y-94372606D01*
X91076000Y-94533152D01*
X91076000Y-94696848D01*
X91044066Y-94857394D01*
X90981424Y-95008624D01*
X90981423Y-95008626D01*
X90890480Y-95144732D01*
X90774732Y-95260480D01*
X90638626Y-95351423D01*
X90638625Y-95351424D01*
X90638624Y-95351424D01*
X90487394Y-95414066D01*
X90326848Y-95446000D01*
X90163152Y-95446000D01*
X90002606Y-95414066D01*
X89851376Y-95351424D01*
X89851375Y-95351424D01*
X89851374Y-95351423D01*
X89715268Y-95260480D01*
X89599520Y-95144732D01*
X89508577Y-95008626D01*
X89508576Y-95008624D01*
X89445934Y-94857394D01*
X89414000Y-94696848D01*
X89414000Y-94533152D01*
X89445934Y-94372606D01*
X89508576Y-94221376D01*
X89508577Y-94221374D01*
X89599520Y-94085268D01*
X89715268Y-93969520D01*
X89851374Y-93878577D01*
X89851376Y-93878576D01*
X90002606Y-93815934D01*
X90163152Y-93784000D01*
X90326848Y-93784000D01*
X90487394Y-93815934D01*
G37*
G36*
X103187394Y-93815934D02*
G01*
X103338624Y-93878576D01*
X103338626Y-93878577D01*
X103474732Y-93969520D01*
X103590480Y-94085268D01*
X103681423Y-94221374D01*
X103681424Y-94221376D01*
X103744066Y-94372606D01*
X103776000Y-94533152D01*
X103776000Y-94696848D01*
X103744066Y-94857394D01*
X103681424Y-95008624D01*
X103681423Y-95008626D01*
X103590480Y-95144732D01*
X103474732Y-95260480D01*
X103338626Y-95351423D01*
X103338625Y-95351424D01*
X103338624Y-95351424D01*
X103187394Y-95414066D01*
X103026848Y-95446000D01*
X102863152Y-95446000D01*
X102702606Y-95414066D01*
X102551376Y-95351424D01*
X102551375Y-95351424D01*
X102551374Y-95351423D01*
X102415268Y-95260480D01*
X102299520Y-95144732D01*
X102208577Y-95008626D01*
X102208576Y-95008624D01*
X102145934Y-94857394D01*
X102114000Y-94696848D01*
X102114000Y-94533152D01*
X102145934Y-94372606D01*
X102208576Y-94221376D01*
X102208577Y-94221374D01*
X102299520Y-94085268D01*
X102415268Y-93969520D01*
X102551374Y-93878577D01*
X102551376Y-93878576D01*
X102702606Y-93815934D01*
X102863152Y-93784000D01*
X103026848Y-93784000D01*
X103187394Y-93815934D01*
G37*
G36*
X100647394Y-93815934D02*
G01*
X100798624Y-93878576D01*
X100798626Y-93878577D01*
X100934732Y-93969520D01*
X101050480Y-94085268D01*
X101141423Y-94221374D01*
X101141424Y-94221376D01*
X101204066Y-94372606D01*
X101236000Y-94533152D01*
X101236000Y-94696848D01*
X101204066Y-94857394D01*
X101141424Y-95008624D01*
X101141423Y-95008626D01*
X101050480Y-95144732D01*
X100934732Y-95260480D01*
X100798626Y-95351423D01*
X100798625Y-95351424D01*
X100798624Y-95351424D01*
X100647394Y-95414066D01*
X100486848Y-95446000D01*
X100323152Y-95446000D01*
X100162606Y-95414066D01*
X100011376Y-95351424D01*
X100011375Y-95351424D01*
X100011374Y-95351423D01*
X99875268Y-95260480D01*
X99759520Y-95144732D01*
X99668577Y-95008626D01*
X99668576Y-95008624D01*
X99605934Y-94857394D01*
X99574000Y-94696848D01*
X99574000Y-94533152D01*
X99605934Y-94372606D01*
X99668576Y-94221376D01*
X99668577Y-94221374D01*
X99759520Y-94085268D01*
X99875268Y-93969520D01*
X100011374Y-93878577D01*
X100011376Y-93878576D01*
X100162606Y-93815934D01*
X100323152Y-93784000D01*
X100486848Y-93784000D01*
X100647394Y-93815934D01*
G37*
G36*
X110807394Y-93815934D02*
G01*
X110958624Y-93878576D01*
X110958626Y-93878577D01*
X111094732Y-93969520D01*
X111210480Y-94085268D01*
X111301423Y-94221374D01*
X111301424Y-94221376D01*
X111364066Y-94372606D01*
X111396000Y-94533152D01*
X111396000Y-94696848D01*
X111364066Y-94857394D01*
X111301424Y-95008624D01*
X111301423Y-95008626D01*
X111210480Y-95144732D01*
X111094732Y-95260480D01*
X110958626Y-95351423D01*
X110958625Y-95351424D01*
X110958624Y-95351424D01*
X110807394Y-95414066D01*
X110646848Y-95446000D01*
X110483152Y-95446000D01*
X110322606Y-95414066D01*
X110171376Y-95351424D01*
X110171375Y-95351424D01*
X110171374Y-95351423D01*
X110035268Y-95260480D01*
X109919520Y-95144732D01*
X109828577Y-95008626D01*
X109828576Y-95008624D01*
X109765934Y-94857394D01*
X109734000Y-94696848D01*
X109734000Y-94533152D01*
X109765934Y-94372606D01*
X109828576Y-94221376D01*
X109828577Y-94221374D01*
X109919520Y-94085268D01*
X110035268Y-93969520D01*
X110171374Y-93878577D01*
X110171376Y-93878576D01*
X110322606Y-93815934D01*
X110483152Y-93784000D01*
X110646848Y-93784000D01*
X110807394Y-93815934D01*
G37*
G36*
X96030936Y-88536340D02*
G01*
X96129220Y-88546020D01*
X96318381Y-88603401D01*
X96492712Y-88696583D01*
X96645515Y-88821985D01*
X96770917Y-88974788D01*
X96864099Y-89149119D01*
X96921480Y-89338280D01*
X96940855Y-89535000D01*
X96921480Y-89731720D01*
X96864099Y-89920881D01*
X96770917Y-90095212D01*
X96645515Y-90248015D01*
X96492712Y-90373417D01*
X96318381Y-90466599D01*
X96129220Y-90523980D01*
X96030936Y-90533660D01*
X95981795Y-90538500D01*
X95788205Y-90538500D01*
X95739064Y-90533660D01*
X95640780Y-90523980D01*
X95451619Y-90466599D01*
X95277288Y-90373417D01*
X95124485Y-90248015D01*
X94999083Y-90095212D01*
X94905901Y-89920881D01*
X94848520Y-89731720D01*
X94829145Y-89535000D01*
X94848520Y-89338280D01*
X94905901Y-89149119D01*
X94999083Y-88974788D01*
X95124485Y-88821985D01*
X95277288Y-88696583D01*
X95451619Y-88603401D01*
X95640780Y-88546020D01*
X95739064Y-88536340D01*
X95788205Y-88531500D01*
X95981795Y-88531500D01*
X96030936Y-88536340D01*
G37*
G36*
X86473512Y-87368927D02*
G01*
X86622812Y-87398624D01*
X86786784Y-87466544D01*
X86934354Y-87565147D01*
X87059853Y-87690646D01*
X87158456Y-87838216D01*
X87226376Y-88002188D01*
X87261000Y-88176259D01*
X87261000Y-88353741D01*
X87226376Y-88527812D01*
X87158456Y-88691784D01*
X87059853Y-88839354D01*
X86934354Y-88964853D01*
X86786784Y-89063456D01*
X86622812Y-89131376D01*
X86473512Y-89161073D01*
X86448742Y-89166000D01*
X86271258Y-89166000D01*
X86246488Y-89161073D01*
X86097188Y-89131376D01*
X85933216Y-89063456D01*
X85785646Y-88964853D01*
X85660147Y-88839354D01*
X85561544Y-88691784D01*
X85493624Y-88527812D01*
X85459000Y-88353741D01*
X85459000Y-88176259D01*
X85493624Y-88002188D01*
X85561544Y-87838216D01*
X85660147Y-87690646D01*
X85785646Y-87565147D01*
X85933216Y-87466544D01*
X86097188Y-87398624D01*
X86246488Y-87368927D01*
X86271258Y-87364000D01*
X86448742Y-87364000D01*
X86473512Y-87368927D01*
G37*
G36*
X113070331Y-85263211D02*
G01*
X113398092Y-85398974D01*
X113693070Y-85596072D01*
X113943928Y-85846930D01*
X114141026Y-86141908D01*
X114276789Y-86469669D01*
X114346000Y-86817616D01*
X114346000Y-87172384D01*
X114276789Y-87520331D01*
X114141026Y-87848092D01*
X113943928Y-88143070D01*
X113693070Y-88393928D01*
X113398092Y-88591026D01*
X113070331Y-88726789D01*
X112722384Y-88796000D01*
X112367616Y-88796000D01*
X112019669Y-88726789D01*
X111691908Y-88591026D01*
X111396930Y-88393928D01*
X111146072Y-88143070D01*
X110948974Y-87848092D01*
X110813211Y-87520331D01*
X110744000Y-87172384D01*
X110744000Y-86817616D01*
X110813211Y-86469669D01*
X110948974Y-86141908D01*
X111146072Y-85846930D01*
X111396930Y-85596072D01*
X111691908Y-85398974D01*
X112019669Y-85263211D01*
X112367616Y-85194000D01*
X112722384Y-85194000D01*
X113070331Y-85263211D01*
G37*
G36*
X96030936Y-85996340D02*
G01*
X96129220Y-86006020D01*
X96318381Y-86063401D01*
X96492712Y-86156583D01*
X96645515Y-86281985D01*
X96770917Y-86434788D01*
X96864099Y-86609119D01*
X96921480Y-86798280D01*
X96940855Y-86995000D01*
X96921480Y-87191720D01*
X96864099Y-87380881D01*
X96770917Y-87555212D01*
X96645515Y-87708015D01*
X96492712Y-87833417D01*
X96318381Y-87926599D01*
X96129220Y-87983980D01*
X96030936Y-87993660D01*
X95981795Y-87998500D01*
X95788205Y-87998500D01*
X95739064Y-87993660D01*
X95640780Y-87983980D01*
X95451619Y-87926599D01*
X95277288Y-87833417D01*
X95124485Y-87708015D01*
X94999083Y-87555212D01*
X94905901Y-87380881D01*
X94848520Y-87191720D01*
X94829145Y-86995000D01*
X94848520Y-86798280D01*
X94905901Y-86609119D01*
X94999083Y-86434788D01*
X95124485Y-86281985D01*
X95277288Y-86156583D01*
X95451619Y-86063401D01*
X95640780Y-86006020D01*
X95739064Y-85996340D01*
X95788205Y-85991500D01*
X95981795Y-85991500D01*
X96030936Y-85996340D01*
G37*
G36*
X87261000Y-86626000D02*
G01*
X85459000Y-86626000D01*
X85459000Y-84824000D01*
X87261000Y-84824000D01*
X87261000Y-86626000D01*
G37*
G36*
X96936000Y-85458500D02*
G01*
X94834000Y-85458500D01*
X94834000Y-83451500D01*
X96936000Y-83451500D01*
X96936000Y-85458500D01*
G37*
G36*
X168388512Y-82923927D02*
G01*
X168537812Y-82953624D01*
X168701784Y-83021544D01*
X168849354Y-83120147D01*
X168974853Y-83245646D01*
X169073456Y-83393216D01*
X169141376Y-83557188D01*
X169176000Y-83731259D01*
X169176000Y-83908741D01*
X169141376Y-84082812D01*
X169073456Y-84246784D01*
X168974853Y-84394354D01*
X168849354Y-84519853D01*
X168701784Y-84618456D01*
X168537812Y-84686376D01*
X168388512Y-84716073D01*
X168363742Y-84721000D01*
X168186258Y-84721000D01*
X168161488Y-84716073D01*
X168012188Y-84686376D01*
X167848216Y-84618456D01*
X167700646Y-84519853D01*
X167575147Y-84394354D01*
X167476544Y-84246784D01*
X167408624Y-84082812D01*
X167374000Y-83908741D01*
X167374000Y-83731259D01*
X167408624Y-83557188D01*
X167476544Y-83393216D01*
X167575147Y-83245646D01*
X167700646Y-83120147D01*
X167848216Y-83021544D01*
X168012188Y-82953624D01*
X168161488Y-82923927D01*
X168186258Y-82919000D01*
X168363742Y-82919000D01*
X168388512Y-82923927D01*
G37*
G36*
X166636000Y-84721000D02*
G01*
X164834000Y-84721000D01*
X164834000Y-82919000D01*
X166636000Y-82919000D01*
X166636000Y-84721000D01*
G37*
G36*
X170928512Y-82923927D02*
G01*
X171077812Y-82953624D01*
X171241784Y-83021544D01*
X171389354Y-83120147D01*
X171514853Y-83245646D01*
X171613456Y-83393216D01*
X171681376Y-83557188D01*
X171716000Y-83731259D01*
X171716000Y-83908741D01*
X171681376Y-84082812D01*
X171613456Y-84246784D01*
X171514853Y-84394354D01*
X171389354Y-84519853D01*
X171241784Y-84618456D01*
X171077812Y-84686376D01*
X170928512Y-84716073D01*
X170903742Y-84721000D01*
X170726258Y-84721000D01*
X170701488Y-84716073D01*
X170552188Y-84686376D01*
X170388216Y-84618456D01*
X170240646Y-84519853D01*
X170115147Y-84394354D01*
X170016544Y-84246784D01*
X169948624Y-84082812D01*
X169914000Y-83908741D01*
X169914000Y-83731259D01*
X169948624Y-83557188D01*
X170016544Y-83393216D01*
X170115147Y-83245646D01*
X170240646Y-83120147D01*
X170388216Y-83021544D01*
X170552188Y-82953624D01*
X170701488Y-82923927D01*
X170726258Y-82919000D01*
X170903742Y-82919000D01*
X170928512Y-82923927D01*
G37*
G36*
X173468512Y-82923927D02*
G01*
X173617812Y-82953624D01*
X173781784Y-83021544D01*
X173929354Y-83120147D01*
X174054853Y-83245646D01*
X174153456Y-83393216D01*
X174221376Y-83557188D01*
X174256000Y-83731259D01*
X174256000Y-83908741D01*
X174221376Y-84082812D01*
X174153456Y-84246784D01*
X174054853Y-84394354D01*
X173929354Y-84519853D01*
X173781784Y-84618456D01*
X173617812Y-84686376D01*
X173468512Y-84716073D01*
X173443742Y-84721000D01*
X173266258Y-84721000D01*
X173241488Y-84716073D01*
X173092188Y-84686376D01*
X172928216Y-84618456D01*
X172780646Y-84519853D01*
X172655147Y-84394354D01*
X172556544Y-84246784D01*
X172488624Y-84082812D01*
X172454000Y-83908741D01*
X172454000Y-83731259D01*
X172488624Y-83557188D01*
X172556544Y-83393216D01*
X172655147Y-83245646D01*
X172780646Y-83120147D01*
X172928216Y-83021544D01*
X173092188Y-82953624D01*
X173241488Y-82923927D01*
X173266258Y-82919000D01*
X173443742Y-82919000D01*
X173468512Y-82923927D01*
G37*
G36*
X176008512Y-82923927D02*
G01*
X176157812Y-82953624D01*
X176321784Y-83021544D01*
X176469354Y-83120147D01*
X176594853Y-83245646D01*
X176693456Y-83393216D01*
X176761376Y-83557188D01*
X176796000Y-83731259D01*
X176796000Y-83908741D01*
X176761376Y-84082812D01*
X176693456Y-84246784D01*
X176594853Y-84394354D01*
X176469354Y-84519853D01*
X176321784Y-84618456D01*
X176157812Y-84686376D01*
X176008512Y-84716073D01*
X175983742Y-84721000D01*
X175806258Y-84721000D01*
X175781488Y-84716073D01*
X175632188Y-84686376D01*
X175468216Y-84618456D01*
X175320646Y-84519853D01*
X175195147Y-84394354D01*
X175096544Y-84246784D01*
X175028624Y-84082812D01*
X174994000Y-83908741D01*
X174994000Y-83731259D01*
X175028624Y-83557188D01*
X175096544Y-83393216D01*
X175195147Y-83245646D01*
X175320646Y-83120147D01*
X175468216Y-83021544D01*
X175632188Y-82953624D01*
X175781488Y-82923927D01*
X175806258Y-82919000D01*
X175983742Y-82919000D01*
X176008512Y-82923927D01*
G37*
G36*
X178548512Y-82923927D02*
G01*
X178697812Y-82953624D01*
X178861784Y-83021544D01*
X179009354Y-83120147D01*
X179134853Y-83245646D01*
X179233456Y-83393216D01*
X179301376Y-83557188D01*
X179336000Y-83731259D01*
X179336000Y-83908741D01*
X179301376Y-84082812D01*
X179233456Y-84246784D01*
X179134853Y-84394354D01*
X179009354Y-84519853D01*
X178861784Y-84618456D01*
X178697812Y-84686376D01*
X178548512Y-84716073D01*
X178523742Y-84721000D01*
X178346258Y-84721000D01*
X178321488Y-84716073D01*
X178172188Y-84686376D01*
X178008216Y-84618456D01*
X177860646Y-84519853D01*
X177735147Y-84394354D01*
X177636544Y-84246784D01*
X177568624Y-84082812D01*
X177534000Y-83908741D01*
X177534000Y-83731259D01*
X177568624Y-83557188D01*
X177636544Y-83393216D01*
X177735147Y-83245646D01*
X177860646Y-83120147D01*
X178008216Y-83021544D01*
X178172188Y-82953624D01*
X178321488Y-82923927D01*
X178346258Y-82919000D01*
X178523742Y-82919000D01*
X178548512Y-82923927D01*
G37*
G36*
X209852585Y-78488802D02*
G01*
X210002410Y-78518604D01*
X210284674Y-78635521D01*
X210538705Y-78805259D01*
X210754741Y-79021295D01*
X210924479Y-79275326D01*
X211041396Y-79557590D01*
X211101000Y-79857240D01*
X211101000Y-80162760D01*
X211041396Y-80462410D01*
X210924479Y-80744674D01*
X210754741Y-80998705D01*
X210538705Y-81214741D01*
X210284674Y-81384479D01*
X210002410Y-81501396D01*
X209852585Y-81531198D01*
X209702761Y-81561000D01*
X209397239Y-81561000D01*
X209247415Y-81531198D01*
X209097590Y-81501396D01*
X208815326Y-81384479D01*
X208561295Y-81214741D01*
X208345259Y-80998705D01*
X208175521Y-80744674D01*
X208058604Y-80462410D01*
X207999000Y-80162760D01*
X207999000Y-79857240D01*
X208058604Y-79557590D01*
X208175521Y-79275326D01*
X208345259Y-79021295D01*
X208561295Y-78805259D01*
X208815326Y-78635521D01*
X209097590Y-78518604D01*
X209247415Y-78488802D01*
X209397239Y-78459000D01*
X209702761Y-78459000D01*
X209852585Y-78488802D01*
G37*
G36*
X82852585Y-78488802D02*
G01*
X83002410Y-78518604D01*
X83284674Y-78635521D01*
X83538705Y-78805259D01*
X83754741Y-79021295D01*
X83924479Y-79275326D01*
X84041396Y-79557590D01*
X84101000Y-79857240D01*
X84101000Y-80162760D01*
X84041396Y-80462410D01*
X83924479Y-80744674D01*
X83754741Y-80998705D01*
X83538705Y-81214741D01*
X83284674Y-81384479D01*
X83002410Y-81501396D01*
X82852585Y-81531198D01*
X82702761Y-81561000D01*
X82397239Y-81561000D01*
X82247415Y-81531198D01*
X82097590Y-81501396D01*
X81815326Y-81384479D01*
X81561295Y-81214741D01*
X81345259Y-80998705D01*
X81175521Y-80744674D01*
X81058604Y-80462410D01*
X80999000Y-80162760D01*
X80999000Y-79857240D01*
X81058604Y-79557590D01*
X81175521Y-79275326D01*
X81345259Y-79021295D01*
X81561295Y-78805259D01*
X81815326Y-78635521D01*
X82097590Y-78518604D01*
X82247415Y-78488802D01*
X82397239Y-78459000D01*
X82702761Y-78459000D01*
X82852585Y-78488802D01*
G37*
M02*
