G04 #@! TF.GenerationSoftware,KiCad,Pcbnew,(5.1.5)-3*
G04 #@! TF.CreationDate,2020-08-13T10:07:37-04:00*
G04 #@! TF.ProjectId,WifiAntSwitch,57696669-416e-4745-9377-697463682e6b,A*
G04 #@! TF.SameCoordinates,Original*
G04 #@! TF.FileFunction,Soldermask,Top*
G04 #@! TF.FilePolarity,Negative*
%FSLAX46Y46*%
G04 Gerber Fmt 4.6, Leading zero omitted, Abs format (unit mm)*
G04 Created by KiCad (PCBNEW (5.1.5)-3) date 2020-08-13 10:07:37*
%MOMM*%
%LPD*%
G04 APERTURE LIST*
%ADD10C,0.100000*%
G04 APERTURE END LIST*
D10*
G36*
X209852585Y-122938802D02*
G01*
X210002410Y-122968604D01*
X210284674Y-123085521D01*
X210538705Y-123255259D01*
X210754741Y-123471295D01*
X210924479Y-123725326D01*
X211041396Y-124007590D01*
X211101000Y-124307240D01*
X211101000Y-124612760D01*
X211041396Y-124912410D01*
X210924479Y-125194674D01*
X210754741Y-125448705D01*
X210538705Y-125664741D01*
X210284674Y-125834479D01*
X210002410Y-125951396D01*
X209852585Y-125981198D01*
X209702761Y-126011000D01*
X209397239Y-126011000D01*
X209247415Y-125981198D01*
X209097590Y-125951396D01*
X208815326Y-125834479D01*
X208561295Y-125664741D01*
X208345259Y-125448705D01*
X208175521Y-125194674D01*
X208058604Y-124912410D01*
X207999000Y-124612760D01*
X207999000Y-124307240D01*
X208058604Y-124007590D01*
X208175521Y-123725326D01*
X208345259Y-123471295D01*
X208561295Y-123255259D01*
X208815326Y-123085521D01*
X209097590Y-122968604D01*
X209247415Y-122938802D01*
X209397239Y-122909000D01*
X209702761Y-122909000D01*
X209852585Y-122938802D01*
G37*
G36*
X82852585Y-122938802D02*
G01*
X83002410Y-122968604D01*
X83284674Y-123085521D01*
X83538705Y-123255259D01*
X83754741Y-123471295D01*
X83924479Y-123725326D01*
X84041396Y-124007590D01*
X84101000Y-124307240D01*
X84101000Y-124612760D01*
X84041396Y-124912410D01*
X83924479Y-125194674D01*
X83754741Y-125448705D01*
X83538705Y-125664741D01*
X83284674Y-125834479D01*
X83002410Y-125951396D01*
X82852585Y-125981198D01*
X82702761Y-126011000D01*
X82397239Y-126011000D01*
X82247415Y-125981198D01*
X82097590Y-125951396D01*
X81815326Y-125834479D01*
X81561295Y-125664741D01*
X81345259Y-125448705D01*
X81175521Y-125194674D01*
X81058604Y-124912410D01*
X80999000Y-124612760D01*
X80999000Y-124307240D01*
X81058604Y-124007590D01*
X81175521Y-123725326D01*
X81345259Y-123471295D01*
X81561295Y-123255259D01*
X81815326Y-123085521D01*
X82097590Y-122968604D01*
X82247415Y-122938802D01*
X82397239Y-122909000D01*
X82702761Y-122909000D01*
X82852585Y-122938802D01*
G37*
G36*
X182993512Y-119118927D02*
G01*
X183142812Y-119148624D01*
X183306784Y-119216544D01*
X183454354Y-119315147D01*
X183579853Y-119440646D01*
X183678456Y-119588216D01*
X183746376Y-119752188D01*
X183781000Y-119926259D01*
X183781000Y-120103741D01*
X183746376Y-120277812D01*
X183678456Y-120441784D01*
X183579853Y-120589354D01*
X183454354Y-120714853D01*
X183306784Y-120813456D01*
X183142812Y-120881376D01*
X182993512Y-120911073D01*
X182968742Y-120916000D01*
X182791258Y-120916000D01*
X182766488Y-120911073D01*
X182617188Y-120881376D01*
X182453216Y-120813456D01*
X182305646Y-120714853D01*
X182180147Y-120589354D01*
X182081544Y-120441784D01*
X182013624Y-120277812D01*
X181979000Y-120103741D01*
X181979000Y-119926259D01*
X182013624Y-119752188D01*
X182081544Y-119588216D01*
X182180147Y-119440646D01*
X182305646Y-119315147D01*
X182453216Y-119216544D01*
X182617188Y-119148624D01*
X182766488Y-119118927D01*
X182791258Y-119114000D01*
X182968742Y-119114000D01*
X182993512Y-119118927D01*
G37*
G36*
X177913512Y-119118927D02*
G01*
X178062812Y-119148624D01*
X178226784Y-119216544D01*
X178374354Y-119315147D01*
X178499853Y-119440646D01*
X178598456Y-119588216D01*
X178666376Y-119752188D01*
X178701000Y-119926259D01*
X178701000Y-120103741D01*
X178666376Y-120277812D01*
X178598456Y-120441784D01*
X178499853Y-120589354D01*
X178374354Y-120714853D01*
X178226784Y-120813456D01*
X178062812Y-120881376D01*
X177913512Y-120911073D01*
X177888742Y-120916000D01*
X177711258Y-120916000D01*
X177686488Y-120911073D01*
X177537188Y-120881376D01*
X177373216Y-120813456D01*
X177225646Y-120714853D01*
X177100147Y-120589354D01*
X177001544Y-120441784D01*
X176933624Y-120277812D01*
X176899000Y-120103741D01*
X176899000Y-119926259D01*
X176933624Y-119752188D01*
X177001544Y-119588216D01*
X177100147Y-119440646D01*
X177225646Y-119315147D01*
X177373216Y-119216544D01*
X177537188Y-119148624D01*
X177686488Y-119118927D01*
X177711258Y-119114000D01*
X177888742Y-119114000D01*
X177913512Y-119118927D01*
G37*
G36*
X167753512Y-119118927D02*
G01*
X167902812Y-119148624D01*
X168066784Y-119216544D01*
X168214354Y-119315147D01*
X168339853Y-119440646D01*
X168438456Y-119588216D01*
X168506376Y-119752188D01*
X168541000Y-119926259D01*
X168541000Y-120103741D01*
X168506376Y-120277812D01*
X168438456Y-120441784D01*
X168339853Y-120589354D01*
X168214354Y-120714853D01*
X168066784Y-120813456D01*
X167902812Y-120881376D01*
X167753512Y-120911073D01*
X167728742Y-120916000D01*
X167551258Y-120916000D01*
X167526488Y-120911073D01*
X167377188Y-120881376D01*
X167213216Y-120813456D01*
X167065646Y-120714853D01*
X166940147Y-120589354D01*
X166841544Y-120441784D01*
X166773624Y-120277812D01*
X166739000Y-120103741D01*
X166739000Y-119926259D01*
X166773624Y-119752188D01*
X166841544Y-119588216D01*
X166940147Y-119440646D01*
X167065646Y-119315147D01*
X167213216Y-119216544D01*
X167377188Y-119148624D01*
X167526488Y-119118927D01*
X167551258Y-119114000D01*
X167728742Y-119114000D01*
X167753512Y-119118927D01*
G37*
G36*
X166001000Y-120916000D02*
G01*
X164199000Y-120916000D01*
X164199000Y-119114000D01*
X166001000Y-119114000D01*
X166001000Y-120916000D01*
G37*
G36*
X170293512Y-119118927D02*
G01*
X170442812Y-119148624D01*
X170606784Y-119216544D01*
X170754354Y-119315147D01*
X170879853Y-119440646D01*
X170978456Y-119588216D01*
X171046376Y-119752188D01*
X171081000Y-119926259D01*
X171081000Y-120103741D01*
X171046376Y-120277812D01*
X170978456Y-120441784D01*
X170879853Y-120589354D01*
X170754354Y-120714853D01*
X170606784Y-120813456D01*
X170442812Y-120881376D01*
X170293512Y-120911073D01*
X170268742Y-120916000D01*
X170091258Y-120916000D01*
X170066488Y-120911073D01*
X169917188Y-120881376D01*
X169753216Y-120813456D01*
X169605646Y-120714853D01*
X169480147Y-120589354D01*
X169381544Y-120441784D01*
X169313624Y-120277812D01*
X169279000Y-120103741D01*
X169279000Y-119926259D01*
X169313624Y-119752188D01*
X169381544Y-119588216D01*
X169480147Y-119440646D01*
X169605646Y-119315147D01*
X169753216Y-119216544D01*
X169917188Y-119148624D01*
X170066488Y-119118927D01*
X170091258Y-119114000D01*
X170268742Y-119114000D01*
X170293512Y-119118927D01*
G37*
G36*
X172833512Y-119118927D02*
G01*
X172982812Y-119148624D01*
X173146784Y-119216544D01*
X173294354Y-119315147D01*
X173419853Y-119440646D01*
X173518456Y-119588216D01*
X173586376Y-119752188D01*
X173621000Y-119926259D01*
X173621000Y-120103741D01*
X173586376Y-120277812D01*
X173518456Y-120441784D01*
X173419853Y-120589354D01*
X173294354Y-120714853D01*
X173146784Y-120813456D01*
X172982812Y-120881376D01*
X172833512Y-120911073D01*
X172808742Y-120916000D01*
X172631258Y-120916000D01*
X172606488Y-120911073D01*
X172457188Y-120881376D01*
X172293216Y-120813456D01*
X172145646Y-120714853D01*
X172020147Y-120589354D01*
X171921544Y-120441784D01*
X171853624Y-120277812D01*
X171819000Y-120103741D01*
X171819000Y-119926259D01*
X171853624Y-119752188D01*
X171921544Y-119588216D01*
X172020147Y-119440646D01*
X172145646Y-119315147D01*
X172293216Y-119216544D01*
X172457188Y-119148624D01*
X172606488Y-119118927D01*
X172631258Y-119114000D01*
X172808742Y-119114000D01*
X172833512Y-119118927D01*
G37*
G36*
X175373512Y-119118927D02*
G01*
X175522812Y-119148624D01*
X175686784Y-119216544D01*
X175834354Y-119315147D01*
X175959853Y-119440646D01*
X176058456Y-119588216D01*
X176126376Y-119752188D01*
X176161000Y-119926259D01*
X176161000Y-120103741D01*
X176126376Y-120277812D01*
X176058456Y-120441784D01*
X175959853Y-120589354D01*
X175834354Y-120714853D01*
X175686784Y-120813456D01*
X175522812Y-120881376D01*
X175373512Y-120911073D01*
X175348742Y-120916000D01*
X175171258Y-120916000D01*
X175146488Y-120911073D01*
X174997188Y-120881376D01*
X174833216Y-120813456D01*
X174685646Y-120714853D01*
X174560147Y-120589354D01*
X174461544Y-120441784D01*
X174393624Y-120277812D01*
X174359000Y-120103741D01*
X174359000Y-119926259D01*
X174393624Y-119752188D01*
X174461544Y-119588216D01*
X174560147Y-119440646D01*
X174685646Y-119315147D01*
X174833216Y-119216544D01*
X174997188Y-119148624D01*
X175146488Y-119118927D01*
X175171258Y-119114000D01*
X175348742Y-119114000D01*
X175373512Y-119118927D01*
G37*
G36*
X180453512Y-119118927D02*
G01*
X180602812Y-119148624D01*
X180766784Y-119216544D01*
X180914354Y-119315147D01*
X181039853Y-119440646D01*
X181138456Y-119588216D01*
X181206376Y-119752188D01*
X181241000Y-119926259D01*
X181241000Y-120103741D01*
X181206376Y-120277812D01*
X181138456Y-120441784D01*
X181039853Y-120589354D01*
X180914354Y-120714853D01*
X180766784Y-120813456D01*
X180602812Y-120881376D01*
X180453512Y-120911073D01*
X180428742Y-120916000D01*
X180251258Y-120916000D01*
X180226488Y-120911073D01*
X180077188Y-120881376D01*
X179913216Y-120813456D01*
X179765646Y-120714853D01*
X179640147Y-120589354D01*
X179541544Y-120441784D01*
X179473624Y-120277812D01*
X179439000Y-120103741D01*
X179439000Y-119926259D01*
X179473624Y-119752188D01*
X179541544Y-119588216D01*
X179640147Y-119440646D01*
X179765646Y-119315147D01*
X179913216Y-119216544D01*
X180077188Y-119148624D01*
X180226488Y-119118927D01*
X180251258Y-119114000D01*
X180428742Y-119114000D01*
X180453512Y-119118927D01*
G37*
G36*
X85407394Y-119215934D02*
G01*
X85558624Y-119278576D01*
X85558626Y-119278577D01*
X85694732Y-119369520D01*
X85810480Y-119485268D01*
X85901423Y-119621374D01*
X85901424Y-119621376D01*
X85964066Y-119772606D01*
X85996000Y-119933152D01*
X85996000Y-120096848D01*
X85964066Y-120257394D01*
X85901424Y-120408624D01*
X85901423Y-120408626D01*
X85810480Y-120544732D01*
X85694732Y-120660480D01*
X85558626Y-120751423D01*
X85558625Y-120751424D01*
X85558624Y-120751424D01*
X85407394Y-120814066D01*
X85246848Y-120846000D01*
X85083152Y-120846000D01*
X84922606Y-120814066D01*
X84771376Y-120751424D01*
X84771375Y-120751424D01*
X84771374Y-120751423D01*
X84635268Y-120660480D01*
X84519520Y-120544732D01*
X84428577Y-120408626D01*
X84428576Y-120408624D01*
X84365934Y-120257394D01*
X84334000Y-120096848D01*
X84334000Y-119933152D01*
X84365934Y-119772606D01*
X84428576Y-119621376D01*
X84428577Y-119621374D01*
X84519520Y-119485268D01*
X84635268Y-119369520D01*
X84771374Y-119278577D01*
X84771376Y-119278576D01*
X84922606Y-119215934D01*
X85083152Y-119184000D01*
X85246848Y-119184000D01*
X85407394Y-119215934D01*
G37*
G36*
X131127394Y-119215934D02*
G01*
X131278624Y-119278576D01*
X131278626Y-119278577D01*
X131414732Y-119369520D01*
X131530480Y-119485268D01*
X131621423Y-119621374D01*
X131621424Y-119621376D01*
X131684066Y-119772606D01*
X131716000Y-119933152D01*
X131716000Y-120096848D01*
X131684066Y-120257394D01*
X131621424Y-120408624D01*
X131621423Y-120408626D01*
X131530480Y-120544732D01*
X131414732Y-120660480D01*
X131278626Y-120751423D01*
X131278625Y-120751424D01*
X131278624Y-120751424D01*
X131127394Y-120814066D01*
X130966848Y-120846000D01*
X130803152Y-120846000D01*
X130642606Y-120814066D01*
X130491376Y-120751424D01*
X130491375Y-120751424D01*
X130491374Y-120751423D01*
X130355268Y-120660480D01*
X130239520Y-120544732D01*
X130148577Y-120408626D01*
X130148576Y-120408624D01*
X130085934Y-120257394D01*
X130054000Y-120096848D01*
X130054000Y-119933152D01*
X130085934Y-119772606D01*
X130148576Y-119621376D01*
X130148577Y-119621374D01*
X130239520Y-119485268D01*
X130355268Y-119369520D01*
X130491374Y-119278577D01*
X130491376Y-119278576D01*
X130642606Y-119215934D01*
X130803152Y-119184000D01*
X130966848Y-119184000D01*
X131127394Y-119215934D01*
G37*
G36*
X128587394Y-119215934D02*
G01*
X128738624Y-119278576D01*
X128738626Y-119278577D01*
X128874732Y-119369520D01*
X128990480Y-119485268D01*
X129081423Y-119621374D01*
X129081424Y-119621376D01*
X129144066Y-119772606D01*
X129176000Y-119933152D01*
X129176000Y-120096848D01*
X129144066Y-120257394D01*
X129081424Y-120408624D01*
X129081423Y-120408626D01*
X128990480Y-120544732D01*
X128874732Y-120660480D01*
X128738626Y-120751423D01*
X128738625Y-120751424D01*
X128738624Y-120751424D01*
X128587394Y-120814066D01*
X128426848Y-120846000D01*
X128263152Y-120846000D01*
X128102606Y-120814066D01*
X127951376Y-120751424D01*
X127951375Y-120751424D01*
X127951374Y-120751423D01*
X127815268Y-120660480D01*
X127699520Y-120544732D01*
X127608577Y-120408626D01*
X127608576Y-120408624D01*
X127545934Y-120257394D01*
X127514000Y-120096848D01*
X127514000Y-119933152D01*
X127545934Y-119772606D01*
X127608576Y-119621376D01*
X127608577Y-119621374D01*
X127699520Y-119485268D01*
X127815268Y-119369520D01*
X127951374Y-119278577D01*
X127951376Y-119278576D01*
X128102606Y-119215934D01*
X128263152Y-119184000D01*
X128426848Y-119184000D01*
X128587394Y-119215934D01*
G37*
G36*
X126047394Y-119215934D02*
G01*
X126198624Y-119278576D01*
X126198626Y-119278577D01*
X126334732Y-119369520D01*
X126450480Y-119485268D01*
X126541423Y-119621374D01*
X126541424Y-119621376D01*
X126604066Y-119772606D01*
X126636000Y-119933152D01*
X126636000Y-120096848D01*
X126604066Y-120257394D01*
X126541424Y-120408624D01*
X126541423Y-120408626D01*
X126450480Y-120544732D01*
X126334732Y-120660480D01*
X126198626Y-120751423D01*
X126198625Y-120751424D01*
X126198624Y-120751424D01*
X126047394Y-120814066D01*
X125886848Y-120846000D01*
X125723152Y-120846000D01*
X125562606Y-120814066D01*
X125411376Y-120751424D01*
X125411375Y-120751424D01*
X125411374Y-120751423D01*
X125275268Y-120660480D01*
X125159520Y-120544732D01*
X125068577Y-120408626D01*
X125068576Y-120408624D01*
X125005934Y-120257394D01*
X124974000Y-120096848D01*
X124974000Y-119933152D01*
X125005934Y-119772606D01*
X125068576Y-119621376D01*
X125068577Y-119621374D01*
X125159520Y-119485268D01*
X125275268Y-119369520D01*
X125411374Y-119278577D01*
X125411376Y-119278576D01*
X125562606Y-119215934D01*
X125723152Y-119184000D01*
X125886848Y-119184000D01*
X126047394Y-119215934D01*
G37*
G36*
X123507394Y-119215934D02*
G01*
X123658624Y-119278576D01*
X123658626Y-119278577D01*
X123794732Y-119369520D01*
X123910480Y-119485268D01*
X124001423Y-119621374D01*
X124001424Y-119621376D01*
X124064066Y-119772606D01*
X124096000Y-119933152D01*
X124096000Y-120096848D01*
X124064066Y-120257394D01*
X124001424Y-120408624D01*
X124001423Y-120408626D01*
X123910480Y-120544732D01*
X123794732Y-120660480D01*
X123658626Y-120751423D01*
X123658625Y-120751424D01*
X123658624Y-120751424D01*
X123507394Y-120814066D01*
X123346848Y-120846000D01*
X123183152Y-120846000D01*
X123022606Y-120814066D01*
X122871376Y-120751424D01*
X122871375Y-120751424D01*
X122871374Y-120751423D01*
X122735268Y-120660480D01*
X122619520Y-120544732D01*
X122528577Y-120408626D01*
X122528576Y-120408624D01*
X122465934Y-120257394D01*
X122434000Y-120096848D01*
X122434000Y-119933152D01*
X122465934Y-119772606D01*
X122528576Y-119621376D01*
X122528577Y-119621374D01*
X122619520Y-119485268D01*
X122735268Y-119369520D01*
X122871374Y-119278577D01*
X122871376Y-119278576D01*
X123022606Y-119215934D01*
X123183152Y-119184000D01*
X123346848Y-119184000D01*
X123507394Y-119215934D01*
G37*
G36*
X120967394Y-119215934D02*
G01*
X121118624Y-119278576D01*
X121118626Y-119278577D01*
X121254732Y-119369520D01*
X121370480Y-119485268D01*
X121461423Y-119621374D01*
X121461424Y-119621376D01*
X121524066Y-119772606D01*
X121556000Y-119933152D01*
X121556000Y-120096848D01*
X121524066Y-120257394D01*
X121461424Y-120408624D01*
X121461423Y-120408626D01*
X121370480Y-120544732D01*
X121254732Y-120660480D01*
X121118626Y-120751423D01*
X121118625Y-120751424D01*
X121118624Y-120751424D01*
X120967394Y-120814066D01*
X120806848Y-120846000D01*
X120643152Y-120846000D01*
X120482606Y-120814066D01*
X120331376Y-120751424D01*
X120331375Y-120751424D01*
X120331374Y-120751423D01*
X120195268Y-120660480D01*
X120079520Y-120544732D01*
X119988577Y-120408626D01*
X119988576Y-120408624D01*
X119925934Y-120257394D01*
X119894000Y-120096848D01*
X119894000Y-119933152D01*
X119925934Y-119772606D01*
X119988576Y-119621376D01*
X119988577Y-119621374D01*
X120079520Y-119485268D01*
X120195268Y-119369520D01*
X120331374Y-119278577D01*
X120331376Y-119278576D01*
X120482606Y-119215934D01*
X120643152Y-119184000D01*
X120806848Y-119184000D01*
X120967394Y-119215934D01*
G37*
G36*
X118427394Y-119215934D02*
G01*
X118578624Y-119278576D01*
X118578626Y-119278577D01*
X118714732Y-119369520D01*
X118830480Y-119485268D01*
X118921423Y-119621374D01*
X118921424Y-119621376D01*
X118984066Y-119772606D01*
X119016000Y-119933152D01*
X119016000Y-120096848D01*
X118984066Y-120257394D01*
X118921424Y-120408624D01*
X118921423Y-120408626D01*
X118830480Y-120544732D01*
X118714732Y-120660480D01*
X118578626Y-120751423D01*
X118578625Y-120751424D01*
X118578624Y-120751424D01*
X118427394Y-120814066D01*
X118266848Y-120846000D01*
X118103152Y-120846000D01*
X117942606Y-120814066D01*
X117791376Y-120751424D01*
X117791375Y-120751424D01*
X117791374Y-120751423D01*
X117655268Y-120660480D01*
X117539520Y-120544732D01*
X117448577Y-120408626D01*
X117448576Y-120408624D01*
X117385934Y-120257394D01*
X117354000Y-120096848D01*
X117354000Y-119933152D01*
X117385934Y-119772606D01*
X117448576Y-119621376D01*
X117448577Y-119621374D01*
X117539520Y-119485268D01*
X117655268Y-119369520D01*
X117791374Y-119278577D01*
X117791376Y-119278576D01*
X117942606Y-119215934D01*
X118103152Y-119184000D01*
X118266848Y-119184000D01*
X118427394Y-119215934D01*
G37*
G36*
X115887394Y-119215934D02*
G01*
X116038624Y-119278576D01*
X116038626Y-119278577D01*
X116174732Y-119369520D01*
X116290480Y-119485268D01*
X116381423Y-119621374D01*
X116381424Y-119621376D01*
X116444066Y-119772606D01*
X116476000Y-119933152D01*
X116476000Y-120096848D01*
X116444066Y-120257394D01*
X116381424Y-120408624D01*
X116381423Y-120408626D01*
X116290480Y-120544732D01*
X116174732Y-120660480D01*
X116038626Y-120751423D01*
X116038625Y-120751424D01*
X116038624Y-120751424D01*
X115887394Y-120814066D01*
X115726848Y-120846000D01*
X115563152Y-120846000D01*
X115402606Y-120814066D01*
X115251376Y-120751424D01*
X115251375Y-120751424D01*
X115251374Y-120751423D01*
X115115268Y-120660480D01*
X114999520Y-120544732D01*
X114908577Y-120408626D01*
X114908576Y-120408624D01*
X114845934Y-120257394D01*
X114814000Y-120096848D01*
X114814000Y-119933152D01*
X114845934Y-119772606D01*
X114908576Y-119621376D01*
X114908577Y-119621374D01*
X114999520Y-119485268D01*
X115115268Y-119369520D01*
X115251374Y-119278577D01*
X115251376Y-119278576D01*
X115402606Y-119215934D01*
X115563152Y-119184000D01*
X115726848Y-119184000D01*
X115887394Y-119215934D01*
G37*
G36*
X113347394Y-119215934D02*
G01*
X113498624Y-119278576D01*
X113498626Y-119278577D01*
X113634732Y-119369520D01*
X113750480Y-119485268D01*
X113841423Y-119621374D01*
X113841424Y-119621376D01*
X113904066Y-119772606D01*
X113936000Y-119933152D01*
X113936000Y-120096848D01*
X113904066Y-120257394D01*
X113841424Y-120408624D01*
X113841423Y-120408626D01*
X113750480Y-120544732D01*
X113634732Y-120660480D01*
X113498626Y-120751423D01*
X113498625Y-120751424D01*
X113498624Y-120751424D01*
X113347394Y-120814066D01*
X113186848Y-120846000D01*
X113023152Y-120846000D01*
X112862606Y-120814066D01*
X112711376Y-120751424D01*
X112711375Y-120751424D01*
X112711374Y-120751423D01*
X112575268Y-120660480D01*
X112459520Y-120544732D01*
X112368577Y-120408626D01*
X112368576Y-120408624D01*
X112305934Y-120257394D01*
X112274000Y-120096848D01*
X112274000Y-119933152D01*
X112305934Y-119772606D01*
X112368576Y-119621376D01*
X112368577Y-119621374D01*
X112459520Y-119485268D01*
X112575268Y-119369520D01*
X112711374Y-119278577D01*
X112711376Y-119278576D01*
X112862606Y-119215934D01*
X113023152Y-119184000D01*
X113186848Y-119184000D01*
X113347394Y-119215934D01*
G37*
G36*
X105727394Y-119215934D02*
G01*
X105878624Y-119278576D01*
X105878626Y-119278577D01*
X106014732Y-119369520D01*
X106130480Y-119485268D01*
X106221423Y-119621374D01*
X106221424Y-119621376D01*
X106284066Y-119772606D01*
X106316000Y-119933152D01*
X106316000Y-120096848D01*
X106284066Y-120257394D01*
X106221424Y-120408624D01*
X106221423Y-120408626D01*
X106130480Y-120544732D01*
X106014732Y-120660480D01*
X105878626Y-120751423D01*
X105878625Y-120751424D01*
X105878624Y-120751424D01*
X105727394Y-120814066D01*
X105566848Y-120846000D01*
X105403152Y-120846000D01*
X105242606Y-120814066D01*
X105091376Y-120751424D01*
X105091375Y-120751424D01*
X105091374Y-120751423D01*
X104955268Y-120660480D01*
X104839520Y-120544732D01*
X104748577Y-120408626D01*
X104748576Y-120408624D01*
X104685934Y-120257394D01*
X104654000Y-120096848D01*
X104654000Y-119933152D01*
X104685934Y-119772606D01*
X104748576Y-119621376D01*
X104748577Y-119621374D01*
X104839520Y-119485268D01*
X104955268Y-119369520D01*
X105091374Y-119278577D01*
X105091376Y-119278576D01*
X105242606Y-119215934D01*
X105403152Y-119184000D01*
X105566848Y-119184000D01*
X105727394Y-119215934D01*
G37*
G36*
X103187394Y-119215934D02*
G01*
X103338624Y-119278576D01*
X103338626Y-119278577D01*
X103474732Y-119369520D01*
X103590480Y-119485268D01*
X103681423Y-119621374D01*
X103681424Y-119621376D01*
X103744066Y-119772606D01*
X103776000Y-119933152D01*
X103776000Y-120096848D01*
X103744066Y-120257394D01*
X103681424Y-120408624D01*
X103681423Y-120408626D01*
X103590480Y-120544732D01*
X103474732Y-120660480D01*
X103338626Y-120751423D01*
X103338625Y-120751424D01*
X103338624Y-120751424D01*
X103187394Y-120814066D01*
X103026848Y-120846000D01*
X102863152Y-120846000D01*
X102702606Y-120814066D01*
X102551376Y-120751424D01*
X102551375Y-120751424D01*
X102551374Y-120751423D01*
X102415268Y-120660480D01*
X102299520Y-120544732D01*
X102208577Y-120408626D01*
X102208576Y-120408624D01*
X102145934Y-120257394D01*
X102114000Y-120096848D01*
X102114000Y-119933152D01*
X102145934Y-119772606D01*
X102208576Y-119621376D01*
X102208577Y-119621374D01*
X102299520Y-119485268D01*
X102415268Y-119369520D01*
X102551374Y-119278577D01*
X102551376Y-119278576D01*
X102702606Y-119215934D01*
X102863152Y-119184000D01*
X103026848Y-119184000D01*
X103187394Y-119215934D01*
G37*
G36*
X100647394Y-119215934D02*
G01*
X100798624Y-119278576D01*
X100798626Y-119278577D01*
X100934732Y-119369520D01*
X101050480Y-119485268D01*
X101141423Y-119621374D01*
X101141424Y-119621376D01*
X101204066Y-119772606D01*
X101236000Y-119933152D01*
X101236000Y-120096848D01*
X101204066Y-120257394D01*
X101141424Y-120408624D01*
X101141423Y-120408626D01*
X101050480Y-120544732D01*
X100934732Y-120660480D01*
X100798626Y-120751423D01*
X100798625Y-120751424D01*
X100798624Y-120751424D01*
X100647394Y-120814066D01*
X100486848Y-120846000D01*
X100323152Y-120846000D01*
X100162606Y-120814066D01*
X100011376Y-120751424D01*
X100011375Y-120751424D01*
X100011374Y-120751423D01*
X99875268Y-120660480D01*
X99759520Y-120544732D01*
X99668577Y-120408626D01*
X99668576Y-120408624D01*
X99605934Y-120257394D01*
X99574000Y-120096848D01*
X99574000Y-119933152D01*
X99605934Y-119772606D01*
X99668576Y-119621376D01*
X99668577Y-119621374D01*
X99759520Y-119485268D01*
X99875268Y-119369520D01*
X100011374Y-119278577D01*
X100011376Y-119278576D01*
X100162606Y-119215934D01*
X100323152Y-119184000D01*
X100486848Y-119184000D01*
X100647394Y-119215934D01*
G37*
G36*
X98107394Y-119215934D02*
G01*
X98258624Y-119278576D01*
X98258626Y-119278577D01*
X98394732Y-119369520D01*
X98510480Y-119485268D01*
X98601423Y-119621374D01*
X98601424Y-119621376D01*
X98664066Y-119772606D01*
X98696000Y-119933152D01*
X98696000Y-120096848D01*
X98664066Y-120257394D01*
X98601424Y-120408624D01*
X98601423Y-120408626D01*
X98510480Y-120544732D01*
X98394732Y-120660480D01*
X98258626Y-120751423D01*
X98258625Y-120751424D01*
X98258624Y-120751424D01*
X98107394Y-120814066D01*
X97946848Y-120846000D01*
X97783152Y-120846000D01*
X97622606Y-120814066D01*
X97471376Y-120751424D01*
X97471375Y-120751424D01*
X97471374Y-120751423D01*
X97335268Y-120660480D01*
X97219520Y-120544732D01*
X97128577Y-120408626D01*
X97128576Y-120408624D01*
X97065934Y-120257394D01*
X97034000Y-120096848D01*
X97034000Y-119933152D01*
X97065934Y-119772606D01*
X97128576Y-119621376D01*
X97128577Y-119621374D01*
X97219520Y-119485268D01*
X97335268Y-119369520D01*
X97471374Y-119278577D01*
X97471376Y-119278576D01*
X97622606Y-119215934D01*
X97783152Y-119184000D01*
X97946848Y-119184000D01*
X98107394Y-119215934D01*
G37*
G36*
X95567394Y-119215934D02*
G01*
X95718624Y-119278576D01*
X95718626Y-119278577D01*
X95854732Y-119369520D01*
X95970480Y-119485268D01*
X96061423Y-119621374D01*
X96061424Y-119621376D01*
X96124066Y-119772606D01*
X96156000Y-119933152D01*
X96156000Y-120096848D01*
X96124066Y-120257394D01*
X96061424Y-120408624D01*
X96061423Y-120408626D01*
X95970480Y-120544732D01*
X95854732Y-120660480D01*
X95718626Y-120751423D01*
X95718625Y-120751424D01*
X95718624Y-120751424D01*
X95567394Y-120814066D01*
X95406848Y-120846000D01*
X95243152Y-120846000D01*
X95082606Y-120814066D01*
X94931376Y-120751424D01*
X94931375Y-120751424D01*
X94931374Y-120751423D01*
X94795268Y-120660480D01*
X94679520Y-120544732D01*
X94588577Y-120408626D01*
X94588576Y-120408624D01*
X94525934Y-120257394D01*
X94494000Y-120096848D01*
X94494000Y-119933152D01*
X94525934Y-119772606D01*
X94588576Y-119621376D01*
X94588577Y-119621374D01*
X94679520Y-119485268D01*
X94795268Y-119369520D01*
X94931374Y-119278577D01*
X94931376Y-119278576D01*
X95082606Y-119215934D01*
X95243152Y-119184000D01*
X95406848Y-119184000D01*
X95567394Y-119215934D01*
G37*
G36*
X93027394Y-119215934D02*
G01*
X93178624Y-119278576D01*
X93178626Y-119278577D01*
X93314732Y-119369520D01*
X93430480Y-119485268D01*
X93521423Y-119621374D01*
X93521424Y-119621376D01*
X93584066Y-119772606D01*
X93616000Y-119933152D01*
X93616000Y-120096848D01*
X93584066Y-120257394D01*
X93521424Y-120408624D01*
X93521423Y-120408626D01*
X93430480Y-120544732D01*
X93314732Y-120660480D01*
X93178626Y-120751423D01*
X93178625Y-120751424D01*
X93178624Y-120751424D01*
X93027394Y-120814066D01*
X92866848Y-120846000D01*
X92703152Y-120846000D01*
X92542606Y-120814066D01*
X92391376Y-120751424D01*
X92391375Y-120751424D01*
X92391374Y-120751423D01*
X92255268Y-120660480D01*
X92139520Y-120544732D01*
X92048577Y-120408626D01*
X92048576Y-120408624D01*
X91985934Y-120257394D01*
X91954000Y-120096848D01*
X91954000Y-119933152D01*
X91985934Y-119772606D01*
X92048576Y-119621376D01*
X92048577Y-119621374D01*
X92139520Y-119485268D01*
X92255268Y-119369520D01*
X92391374Y-119278577D01*
X92391376Y-119278576D01*
X92542606Y-119215934D01*
X92703152Y-119184000D01*
X92866848Y-119184000D01*
X93027394Y-119215934D01*
G37*
G36*
X90487394Y-119215934D02*
G01*
X90638624Y-119278576D01*
X90638626Y-119278577D01*
X90774732Y-119369520D01*
X90890480Y-119485268D01*
X90981423Y-119621374D01*
X90981424Y-119621376D01*
X91044066Y-119772606D01*
X91076000Y-119933152D01*
X91076000Y-120096848D01*
X91044066Y-120257394D01*
X90981424Y-120408624D01*
X90981423Y-120408626D01*
X90890480Y-120544732D01*
X90774732Y-120660480D01*
X90638626Y-120751423D01*
X90638625Y-120751424D01*
X90638624Y-120751424D01*
X90487394Y-120814066D01*
X90326848Y-120846000D01*
X90163152Y-120846000D01*
X90002606Y-120814066D01*
X89851376Y-120751424D01*
X89851375Y-120751424D01*
X89851374Y-120751423D01*
X89715268Y-120660480D01*
X89599520Y-120544732D01*
X89508577Y-120408626D01*
X89508576Y-120408624D01*
X89445934Y-120257394D01*
X89414000Y-120096848D01*
X89414000Y-119933152D01*
X89445934Y-119772606D01*
X89508576Y-119621376D01*
X89508577Y-119621374D01*
X89599520Y-119485268D01*
X89715268Y-119369520D01*
X89851374Y-119278577D01*
X89851376Y-119278576D01*
X90002606Y-119215934D01*
X90163152Y-119184000D01*
X90326848Y-119184000D01*
X90487394Y-119215934D01*
G37*
G36*
X87947394Y-119215934D02*
G01*
X88098624Y-119278576D01*
X88098626Y-119278577D01*
X88234732Y-119369520D01*
X88350480Y-119485268D01*
X88441423Y-119621374D01*
X88441424Y-119621376D01*
X88504066Y-119772606D01*
X88536000Y-119933152D01*
X88536000Y-120096848D01*
X88504066Y-120257394D01*
X88441424Y-120408624D01*
X88441423Y-120408626D01*
X88350480Y-120544732D01*
X88234732Y-120660480D01*
X88098626Y-120751423D01*
X88098625Y-120751424D01*
X88098624Y-120751424D01*
X87947394Y-120814066D01*
X87786848Y-120846000D01*
X87623152Y-120846000D01*
X87462606Y-120814066D01*
X87311376Y-120751424D01*
X87311375Y-120751424D01*
X87311374Y-120751423D01*
X87175268Y-120660480D01*
X87059520Y-120544732D01*
X86968577Y-120408626D01*
X86968576Y-120408624D01*
X86905934Y-120257394D01*
X86874000Y-120096848D01*
X86874000Y-119933152D01*
X86905934Y-119772606D01*
X86968576Y-119621376D01*
X86968577Y-119621374D01*
X87059520Y-119485268D01*
X87175268Y-119369520D01*
X87311374Y-119278577D01*
X87311376Y-119278576D01*
X87462606Y-119215934D01*
X87623152Y-119184000D01*
X87786848Y-119184000D01*
X87947394Y-119215934D01*
G37*
G36*
X110807394Y-119215934D02*
G01*
X110958624Y-119278576D01*
X110958626Y-119278577D01*
X111094732Y-119369520D01*
X111210480Y-119485268D01*
X111301423Y-119621374D01*
X111301424Y-119621376D01*
X111364066Y-119772606D01*
X111396000Y-119933152D01*
X111396000Y-120096848D01*
X111364066Y-120257394D01*
X111301424Y-120408624D01*
X111301423Y-120408626D01*
X111210480Y-120544732D01*
X111094732Y-120660480D01*
X110958626Y-120751423D01*
X110958625Y-120751424D01*
X110958624Y-120751424D01*
X110807394Y-120814066D01*
X110646848Y-120846000D01*
X110483152Y-120846000D01*
X110322606Y-120814066D01*
X110171376Y-120751424D01*
X110171375Y-120751424D01*
X110171374Y-120751423D01*
X110035268Y-120660480D01*
X109919520Y-120544732D01*
X109828577Y-120408626D01*
X109828576Y-120408624D01*
X109765934Y-120257394D01*
X109734000Y-120096848D01*
X109734000Y-119933152D01*
X109765934Y-119772606D01*
X109828576Y-119621376D01*
X109828577Y-119621374D01*
X109919520Y-119485268D01*
X110035268Y-119369520D01*
X110171374Y-119278577D01*
X110171376Y-119278576D01*
X110322606Y-119215934D01*
X110483152Y-119184000D01*
X110646848Y-119184000D01*
X110807394Y-119215934D01*
G37*
G36*
X108267394Y-119215934D02*
G01*
X108418624Y-119278576D01*
X108418626Y-119278577D01*
X108554732Y-119369520D01*
X108670480Y-119485268D01*
X108761423Y-119621374D01*
X108761424Y-119621376D01*
X108824066Y-119772606D01*
X108856000Y-119933152D01*
X108856000Y-120096848D01*
X108824066Y-120257394D01*
X108761424Y-120408624D01*
X108761423Y-120408626D01*
X108670480Y-120544732D01*
X108554732Y-120660480D01*
X108418626Y-120751423D01*
X108418625Y-120751424D01*
X108418624Y-120751424D01*
X108267394Y-120814066D01*
X108106848Y-120846000D01*
X107943152Y-120846000D01*
X107782606Y-120814066D01*
X107631376Y-120751424D01*
X107631375Y-120751424D01*
X107631374Y-120751423D01*
X107495268Y-120660480D01*
X107379520Y-120544732D01*
X107288577Y-120408626D01*
X107288576Y-120408624D01*
X107225934Y-120257394D01*
X107194000Y-120096848D01*
X107194000Y-119933152D01*
X107225934Y-119772606D01*
X107288576Y-119621376D01*
X107288577Y-119621374D01*
X107379520Y-119485268D01*
X107495268Y-119369520D01*
X107631374Y-119278577D01*
X107631376Y-119278576D01*
X107782606Y-119215934D01*
X107943152Y-119184000D01*
X108106848Y-119184000D01*
X108267394Y-119215934D01*
G37*
G36*
X175844468Y-112496065D02*
G01*
X175883138Y-112507796D01*
X175918777Y-112526846D01*
X175950017Y-112552483D01*
X175975654Y-112583723D01*
X175994704Y-112619362D01*
X176006435Y-112658032D01*
X176011000Y-112704388D01*
X176011000Y-113355612D01*
X176006435Y-113401968D01*
X175994704Y-113440638D01*
X175975654Y-113476277D01*
X175950017Y-113507517D01*
X175918777Y-113533154D01*
X175883138Y-113552204D01*
X175844468Y-113563935D01*
X175798112Y-113568500D01*
X174721888Y-113568500D01*
X174675532Y-113563935D01*
X174636862Y-113552204D01*
X174601223Y-113533154D01*
X174569983Y-113507517D01*
X174544346Y-113476277D01*
X174525296Y-113440638D01*
X174513565Y-113401968D01*
X174509000Y-113355612D01*
X174509000Y-112704388D01*
X174513565Y-112658032D01*
X174525296Y-112619362D01*
X174544346Y-112583723D01*
X174569983Y-112552483D01*
X174601223Y-112526846D01*
X174636862Y-112507796D01*
X174675532Y-112496065D01*
X174721888Y-112491500D01*
X175798112Y-112491500D01*
X175844468Y-112496065D01*
G37*
G36*
X203657468Y-112496065D02*
G01*
X203696138Y-112507796D01*
X203731777Y-112526846D01*
X203763017Y-112552483D01*
X203788654Y-112583723D01*
X203807704Y-112619362D01*
X203819435Y-112658032D01*
X203824000Y-112704388D01*
X203824000Y-113355612D01*
X203819435Y-113401968D01*
X203807704Y-113440638D01*
X203788654Y-113476277D01*
X203763017Y-113507517D01*
X203731777Y-113533154D01*
X203696138Y-113552204D01*
X203657468Y-113563935D01*
X203611112Y-113568500D01*
X202534888Y-113568500D01*
X202488532Y-113563935D01*
X202449862Y-113552204D01*
X202414223Y-113533154D01*
X202382983Y-113507517D01*
X202357346Y-113476277D01*
X202338296Y-113440638D01*
X202326565Y-113401968D01*
X202322000Y-113355612D01*
X202322000Y-112704388D01*
X202326565Y-112658032D01*
X202338296Y-112619362D01*
X202357346Y-112583723D01*
X202382983Y-112552483D01*
X202414223Y-112526846D01*
X202449862Y-112507796D01*
X202488532Y-112496065D01*
X202534888Y-112491500D01*
X203611112Y-112491500D01*
X203657468Y-112496065D01*
G37*
G36*
X201244468Y-112496065D02*
G01*
X201283138Y-112507796D01*
X201318777Y-112526846D01*
X201350017Y-112552483D01*
X201375654Y-112583723D01*
X201394704Y-112619362D01*
X201406435Y-112658032D01*
X201411000Y-112704388D01*
X201411000Y-113355612D01*
X201406435Y-113401968D01*
X201394704Y-113440638D01*
X201375654Y-113476277D01*
X201350017Y-113507517D01*
X201318777Y-113533154D01*
X201283138Y-113552204D01*
X201244468Y-113563935D01*
X201198112Y-113568500D01*
X200121888Y-113568500D01*
X200075532Y-113563935D01*
X200036862Y-113552204D01*
X200001223Y-113533154D01*
X199969983Y-113507517D01*
X199944346Y-113476277D01*
X199925296Y-113440638D01*
X199913565Y-113401968D01*
X199909000Y-113355612D01*
X199909000Y-112704388D01*
X199913565Y-112658032D01*
X199925296Y-112619362D01*
X199944346Y-112583723D01*
X199969983Y-112552483D01*
X200001223Y-112526846D01*
X200036862Y-112507796D01*
X200075532Y-112496065D01*
X200121888Y-112491500D01*
X201198112Y-112491500D01*
X201244468Y-112496065D01*
G37*
G36*
X189687468Y-112496065D02*
G01*
X189726138Y-112507796D01*
X189761777Y-112526846D01*
X189793017Y-112552483D01*
X189818654Y-112583723D01*
X189837704Y-112619362D01*
X189849435Y-112658032D01*
X189854000Y-112704388D01*
X189854000Y-113355612D01*
X189849435Y-113401968D01*
X189837704Y-113440638D01*
X189818654Y-113476277D01*
X189793017Y-113507517D01*
X189761777Y-113533154D01*
X189726138Y-113552204D01*
X189687468Y-113563935D01*
X189641112Y-113568500D01*
X188564888Y-113568500D01*
X188518532Y-113563935D01*
X188479862Y-113552204D01*
X188444223Y-113533154D01*
X188412983Y-113507517D01*
X188387346Y-113476277D01*
X188368296Y-113440638D01*
X188356565Y-113401968D01*
X188352000Y-113355612D01*
X188352000Y-112704388D01*
X188356565Y-112658032D01*
X188368296Y-112619362D01*
X188387346Y-112583723D01*
X188412983Y-112552483D01*
X188444223Y-112526846D01*
X188479862Y-112507796D01*
X188518532Y-112496065D01*
X188564888Y-112491500D01*
X189641112Y-112491500D01*
X189687468Y-112496065D01*
G37*
G36*
X173304468Y-112466065D02*
G01*
X173343138Y-112477796D01*
X173378777Y-112496846D01*
X173410017Y-112522483D01*
X173435654Y-112553723D01*
X173454704Y-112589362D01*
X173466435Y-112628032D01*
X173471000Y-112674388D01*
X173471000Y-113325612D01*
X173466435Y-113371968D01*
X173454704Y-113410638D01*
X173435654Y-113446277D01*
X173410017Y-113477517D01*
X173378777Y-113503154D01*
X173343138Y-113522204D01*
X173304468Y-113533935D01*
X173258112Y-113538500D01*
X172181888Y-113538500D01*
X172135532Y-113533935D01*
X172096862Y-113522204D01*
X172061223Y-113503154D01*
X172029983Y-113477517D01*
X172004346Y-113446277D01*
X171985296Y-113410638D01*
X171973565Y-113371968D01*
X171969000Y-113325612D01*
X171969000Y-112674388D01*
X171973565Y-112628032D01*
X171985296Y-112589362D01*
X172004346Y-112553723D01*
X172029983Y-112522483D01*
X172061223Y-112496846D01*
X172096862Y-112477796D01*
X172135532Y-112466065D01*
X172181888Y-112461500D01*
X173258112Y-112461500D01*
X173304468Y-112466065D01*
G37*
G36*
X184734468Y-112466065D02*
G01*
X184773138Y-112477796D01*
X184808777Y-112496846D01*
X184840017Y-112522483D01*
X184865654Y-112553723D01*
X184884704Y-112589362D01*
X184896435Y-112628032D01*
X184901000Y-112674388D01*
X184901000Y-113325612D01*
X184896435Y-113371968D01*
X184884704Y-113410638D01*
X184865654Y-113446277D01*
X184840017Y-113477517D01*
X184808777Y-113503154D01*
X184773138Y-113522204D01*
X184734468Y-113533935D01*
X184688112Y-113538500D01*
X183611888Y-113538500D01*
X183565532Y-113533935D01*
X183526862Y-113522204D01*
X183491223Y-113503154D01*
X183459983Y-113477517D01*
X183434346Y-113446277D01*
X183415296Y-113410638D01*
X183403565Y-113371968D01*
X183399000Y-113325612D01*
X183399000Y-112674388D01*
X183403565Y-112628032D01*
X183415296Y-112589362D01*
X183434346Y-112553723D01*
X183459983Y-112522483D01*
X183491223Y-112496846D01*
X183526862Y-112477796D01*
X183565532Y-112466065D01*
X183611888Y-112461500D01*
X184688112Y-112461500D01*
X184734468Y-112466065D01*
G37*
G36*
X170764468Y-112466065D02*
G01*
X170803138Y-112477796D01*
X170838777Y-112496846D01*
X170870017Y-112522483D01*
X170895654Y-112553723D01*
X170914704Y-112589362D01*
X170926435Y-112628032D01*
X170931000Y-112674388D01*
X170931000Y-113325612D01*
X170926435Y-113371968D01*
X170914704Y-113410638D01*
X170895654Y-113446277D01*
X170870017Y-113477517D01*
X170838777Y-113503154D01*
X170803138Y-113522204D01*
X170764468Y-113533935D01*
X170718112Y-113538500D01*
X169641888Y-113538500D01*
X169595532Y-113533935D01*
X169556862Y-113522204D01*
X169521223Y-113503154D01*
X169489983Y-113477517D01*
X169464346Y-113446277D01*
X169445296Y-113410638D01*
X169433565Y-113371968D01*
X169429000Y-113325612D01*
X169429000Y-112674388D01*
X169433565Y-112628032D01*
X169445296Y-112589362D01*
X169464346Y-112553723D01*
X169489983Y-112522483D01*
X169521223Y-112496846D01*
X169556862Y-112477796D01*
X169595532Y-112466065D01*
X169641888Y-112461500D01*
X170718112Y-112461500D01*
X170764468Y-112466065D01*
G37*
G36*
X198704468Y-112466065D02*
G01*
X198743138Y-112477796D01*
X198778777Y-112496846D01*
X198810017Y-112522483D01*
X198835654Y-112553723D01*
X198854704Y-112589362D01*
X198866435Y-112628032D01*
X198871000Y-112674388D01*
X198871000Y-113325612D01*
X198866435Y-113371968D01*
X198854704Y-113410638D01*
X198835654Y-113446277D01*
X198810017Y-113477517D01*
X198778777Y-113503154D01*
X198743138Y-113522204D01*
X198704468Y-113533935D01*
X198658112Y-113538500D01*
X197581888Y-113538500D01*
X197535532Y-113533935D01*
X197496862Y-113522204D01*
X197461223Y-113503154D01*
X197429983Y-113477517D01*
X197404346Y-113446277D01*
X197385296Y-113410638D01*
X197373565Y-113371968D01*
X197369000Y-113325612D01*
X197369000Y-112674388D01*
X197373565Y-112628032D01*
X197385296Y-112589362D01*
X197404346Y-112553723D01*
X197429983Y-112522483D01*
X197461223Y-112496846D01*
X197496862Y-112477796D01*
X197535532Y-112466065D01*
X197581888Y-112461500D01*
X198658112Y-112461500D01*
X198704468Y-112466065D01*
G37*
G36*
X187274468Y-112466065D02*
G01*
X187313138Y-112477796D01*
X187348777Y-112496846D01*
X187380017Y-112522483D01*
X187405654Y-112553723D01*
X187424704Y-112589362D01*
X187436435Y-112628032D01*
X187441000Y-112674388D01*
X187441000Y-113325612D01*
X187436435Y-113371968D01*
X187424704Y-113410638D01*
X187405654Y-113446277D01*
X187380017Y-113477517D01*
X187348777Y-113503154D01*
X187313138Y-113522204D01*
X187274468Y-113533935D01*
X187228112Y-113538500D01*
X186151888Y-113538500D01*
X186105532Y-113533935D01*
X186066862Y-113522204D01*
X186031223Y-113503154D01*
X185999983Y-113477517D01*
X185974346Y-113446277D01*
X185955296Y-113410638D01*
X185943565Y-113371968D01*
X185939000Y-113325612D01*
X185939000Y-112674388D01*
X185943565Y-112628032D01*
X185955296Y-112589362D01*
X185974346Y-112553723D01*
X185999983Y-112522483D01*
X186031223Y-112496846D01*
X186066862Y-112477796D01*
X186105532Y-112466065D01*
X186151888Y-112461500D01*
X187228112Y-112461500D01*
X187274468Y-112466065D01*
G37*
G36*
X147904468Y-112339065D02*
G01*
X147943138Y-112350796D01*
X147978777Y-112369846D01*
X148010017Y-112395483D01*
X148035654Y-112426723D01*
X148054704Y-112462362D01*
X148066435Y-112501032D01*
X148071000Y-112547388D01*
X148071000Y-113198612D01*
X148066435Y-113244968D01*
X148054704Y-113283638D01*
X148035654Y-113319277D01*
X148010017Y-113350517D01*
X147978777Y-113376154D01*
X147943138Y-113395204D01*
X147904468Y-113406935D01*
X147858112Y-113411500D01*
X146781888Y-113411500D01*
X146735532Y-113406935D01*
X146696862Y-113395204D01*
X146661223Y-113376154D01*
X146629983Y-113350517D01*
X146604346Y-113319277D01*
X146585296Y-113283638D01*
X146573565Y-113244968D01*
X146569000Y-113198612D01*
X146569000Y-112547388D01*
X146573565Y-112501032D01*
X146585296Y-112462362D01*
X146604346Y-112426723D01*
X146629983Y-112395483D01*
X146661223Y-112369846D01*
X146696862Y-112350796D01*
X146735532Y-112339065D01*
X146781888Y-112334500D01*
X147858112Y-112334500D01*
X147904468Y-112339065D01*
G37*
G36*
X145364468Y-112248565D02*
G01*
X145403138Y-112260296D01*
X145438777Y-112279346D01*
X145470017Y-112304983D01*
X145495654Y-112336223D01*
X145514704Y-112371862D01*
X145526435Y-112410532D01*
X145531000Y-112456888D01*
X145531000Y-113108112D01*
X145526435Y-113154468D01*
X145514704Y-113193138D01*
X145495654Y-113228777D01*
X145470017Y-113260017D01*
X145438777Y-113285654D01*
X145403138Y-113304704D01*
X145364468Y-113316435D01*
X145318112Y-113321000D01*
X144241888Y-113321000D01*
X144195532Y-113316435D01*
X144156862Y-113304704D01*
X144121223Y-113285654D01*
X144089983Y-113260017D01*
X144064346Y-113228777D01*
X144045296Y-113193138D01*
X144033565Y-113154468D01*
X144029000Y-113108112D01*
X144029000Y-112456888D01*
X144033565Y-112410532D01*
X144045296Y-112371862D01*
X144064346Y-112336223D01*
X144089983Y-112304983D01*
X144121223Y-112279346D01*
X144156862Y-112260296D01*
X144195532Y-112248565D01*
X144241888Y-112244000D01*
X145318112Y-112244000D01*
X145364468Y-112248565D01*
G37*
G36*
X142669468Y-112248565D02*
G01*
X142708138Y-112260296D01*
X142743777Y-112279346D01*
X142775017Y-112304983D01*
X142800654Y-112336223D01*
X142819704Y-112371862D01*
X142831435Y-112410532D01*
X142836000Y-112456888D01*
X142836000Y-113108112D01*
X142831435Y-113154468D01*
X142819704Y-113193138D01*
X142800654Y-113228777D01*
X142775017Y-113260017D01*
X142743777Y-113285654D01*
X142708138Y-113304704D01*
X142669468Y-113316435D01*
X142623112Y-113321000D01*
X141546888Y-113321000D01*
X141500532Y-113316435D01*
X141461862Y-113304704D01*
X141426223Y-113285654D01*
X141394983Y-113260017D01*
X141369346Y-113228777D01*
X141350296Y-113193138D01*
X141338565Y-113154468D01*
X141334000Y-113108112D01*
X141334000Y-112456888D01*
X141338565Y-112410532D01*
X141350296Y-112371862D01*
X141369346Y-112336223D01*
X141394983Y-112304983D01*
X141426223Y-112279346D01*
X141461862Y-112260296D01*
X141500532Y-112248565D01*
X141546888Y-112244000D01*
X142623112Y-112244000D01*
X142669468Y-112248565D01*
G37*
G36*
X161874468Y-112242065D02*
G01*
X161913138Y-112253796D01*
X161948777Y-112272846D01*
X161980017Y-112298483D01*
X162005654Y-112329723D01*
X162024704Y-112365362D01*
X162036435Y-112404032D01*
X162041000Y-112450388D01*
X162041000Y-113101612D01*
X162036435Y-113147968D01*
X162024704Y-113186638D01*
X162005654Y-113222277D01*
X161980017Y-113253517D01*
X161948777Y-113279154D01*
X161913138Y-113298204D01*
X161874468Y-113309935D01*
X161828112Y-113314500D01*
X160751888Y-113314500D01*
X160705532Y-113309935D01*
X160666862Y-113298204D01*
X160631223Y-113279154D01*
X160599983Y-113253517D01*
X160574346Y-113222277D01*
X160555296Y-113186638D01*
X160543565Y-113147968D01*
X160539000Y-113101612D01*
X160539000Y-112450388D01*
X160543565Y-112404032D01*
X160555296Y-112365362D01*
X160574346Y-112329723D01*
X160599983Y-112298483D01*
X160631223Y-112272846D01*
X160666862Y-112253796D01*
X160705532Y-112242065D01*
X160751888Y-112237500D01*
X161828112Y-112237500D01*
X161874468Y-112242065D01*
G37*
G36*
X159334468Y-112163565D02*
G01*
X159373138Y-112175296D01*
X159408777Y-112194346D01*
X159440017Y-112219983D01*
X159465654Y-112251223D01*
X159484704Y-112286862D01*
X159496435Y-112325532D01*
X159501000Y-112371888D01*
X159501000Y-113023112D01*
X159496435Y-113069468D01*
X159484704Y-113108138D01*
X159465654Y-113143777D01*
X159440017Y-113175017D01*
X159408777Y-113200654D01*
X159373138Y-113219704D01*
X159334468Y-113231435D01*
X159288112Y-113236000D01*
X158211888Y-113236000D01*
X158165532Y-113231435D01*
X158126862Y-113219704D01*
X158091223Y-113200654D01*
X158059983Y-113175017D01*
X158034346Y-113143777D01*
X158015296Y-113108138D01*
X158003565Y-113069468D01*
X157999000Y-113023112D01*
X157999000Y-112371888D01*
X158003565Y-112325532D01*
X158015296Y-112286862D01*
X158034346Y-112251223D01*
X158059983Y-112219983D01*
X158091223Y-112194346D01*
X158126862Y-112175296D01*
X158165532Y-112163565D01*
X158211888Y-112159000D01*
X159288112Y-112159000D01*
X159334468Y-112163565D01*
G37*
G36*
X156794468Y-112163565D02*
G01*
X156833138Y-112175296D01*
X156868777Y-112194346D01*
X156900017Y-112219983D01*
X156925654Y-112251223D01*
X156944704Y-112286862D01*
X156956435Y-112325532D01*
X156961000Y-112371888D01*
X156961000Y-113023112D01*
X156956435Y-113069468D01*
X156944704Y-113108138D01*
X156925654Y-113143777D01*
X156900017Y-113175017D01*
X156868777Y-113200654D01*
X156833138Y-113219704D01*
X156794468Y-113231435D01*
X156748112Y-113236000D01*
X155671888Y-113236000D01*
X155625532Y-113231435D01*
X155586862Y-113219704D01*
X155551223Y-113200654D01*
X155519983Y-113175017D01*
X155494346Y-113143777D01*
X155475296Y-113108138D01*
X155463565Y-113069468D01*
X155459000Y-113023112D01*
X155459000Y-112371888D01*
X155463565Y-112325532D01*
X155475296Y-112286862D01*
X155494346Y-112251223D01*
X155519983Y-112219983D01*
X155551223Y-112194346D01*
X155586862Y-112175296D01*
X155625532Y-112163565D01*
X155671888Y-112159000D01*
X156748112Y-112159000D01*
X156794468Y-112163565D01*
G37*
G36*
X203657468Y-110621065D02*
G01*
X203696138Y-110632796D01*
X203731777Y-110651846D01*
X203763017Y-110677483D01*
X203788654Y-110708723D01*
X203807704Y-110744362D01*
X203819435Y-110783032D01*
X203824000Y-110829388D01*
X203824000Y-111480612D01*
X203819435Y-111526968D01*
X203807704Y-111565638D01*
X203788654Y-111601277D01*
X203763017Y-111632517D01*
X203731777Y-111658154D01*
X203696138Y-111677204D01*
X203657468Y-111688935D01*
X203611112Y-111693500D01*
X202534888Y-111693500D01*
X202488532Y-111688935D01*
X202449862Y-111677204D01*
X202414223Y-111658154D01*
X202382983Y-111632517D01*
X202357346Y-111601277D01*
X202338296Y-111565638D01*
X202326565Y-111526968D01*
X202322000Y-111480612D01*
X202322000Y-110829388D01*
X202326565Y-110783032D01*
X202338296Y-110744362D01*
X202357346Y-110708723D01*
X202382983Y-110677483D01*
X202414223Y-110651846D01*
X202449862Y-110632796D01*
X202488532Y-110621065D01*
X202534888Y-110616500D01*
X203611112Y-110616500D01*
X203657468Y-110621065D01*
G37*
G36*
X201244468Y-110621065D02*
G01*
X201283138Y-110632796D01*
X201318777Y-110651846D01*
X201350017Y-110677483D01*
X201375654Y-110708723D01*
X201394704Y-110744362D01*
X201406435Y-110783032D01*
X201411000Y-110829388D01*
X201411000Y-111480612D01*
X201406435Y-111526968D01*
X201394704Y-111565638D01*
X201375654Y-111601277D01*
X201350017Y-111632517D01*
X201318777Y-111658154D01*
X201283138Y-111677204D01*
X201244468Y-111688935D01*
X201198112Y-111693500D01*
X200121888Y-111693500D01*
X200075532Y-111688935D01*
X200036862Y-111677204D01*
X200001223Y-111658154D01*
X199969983Y-111632517D01*
X199944346Y-111601277D01*
X199925296Y-111565638D01*
X199913565Y-111526968D01*
X199909000Y-111480612D01*
X199909000Y-110829388D01*
X199913565Y-110783032D01*
X199925296Y-110744362D01*
X199944346Y-110708723D01*
X199969983Y-110677483D01*
X200001223Y-110651846D01*
X200036862Y-110632796D01*
X200075532Y-110621065D01*
X200121888Y-110616500D01*
X201198112Y-110616500D01*
X201244468Y-110621065D01*
G37*
G36*
X189687468Y-110621065D02*
G01*
X189726138Y-110632796D01*
X189761777Y-110651846D01*
X189793017Y-110677483D01*
X189818654Y-110708723D01*
X189837704Y-110744362D01*
X189849435Y-110783032D01*
X189854000Y-110829388D01*
X189854000Y-111480612D01*
X189849435Y-111526968D01*
X189837704Y-111565638D01*
X189818654Y-111601277D01*
X189793017Y-111632517D01*
X189761777Y-111658154D01*
X189726138Y-111677204D01*
X189687468Y-111688935D01*
X189641112Y-111693500D01*
X188564888Y-111693500D01*
X188518532Y-111688935D01*
X188479862Y-111677204D01*
X188444223Y-111658154D01*
X188412983Y-111632517D01*
X188387346Y-111601277D01*
X188368296Y-111565638D01*
X188356565Y-111526968D01*
X188352000Y-111480612D01*
X188352000Y-110829388D01*
X188356565Y-110783032D01*
X188368296Y-110744362D01*
X188387346Y-110708723D01*
X188412983Y-110677483D01*
X188444223Y-110651846D01*
X188479862Y-110632796D01*
X188518532Y-110621065D01*
X188564888Y-110616500D01*
X189641112Y-110616500D01*
X189687468Y-110621065D01*
G37*
G36*
X175844468Y-110621065D02*
G01*
X175883138Y-110632796D01*
X175918777Y-110651846D01*
X175950017Y-110677483D01*
X175975654Y-110708723D01*
X175994704Y-110744362D01*
X176006435Y-110783032D01*
X176011000Y-110829388D01*
X176011000Y-111480612D01*
X176006435Y-111526968D01*
X175994704Y-111565638D01*
X175975654Y-111601277D01*
X175950017Y-111632517D01*
X175918777Y-111658154D01*
X175883138Y-111677204D01*
X175844468Y-111688935D01*
X175798112Y-111693500D01*
X174721888Y-111693500D01*
X174675532Y-111688935D01*
X174636862Y-111677204D01*
X174601223Y-111658154D01*
X174569983Y-111632517D01*
X174544346Y-111601277D01*
X174525296Y-111565638D01*
X174513565Y-111526968D01*
X174509000Y-111480612D01*
X174509000Y-110829388D01*
X174513565Y-110783032D01*
X174525296Y-110744362D01*
X174544346Y-110708723D01*
X174569983Y-110677483D01*
X174601223Y-110651846D01*
X174636862Y-110632796D01*
X174675532Y-110621065D01*
X174721888Y-110616500D01*
X175798112Y-110616500D01*
X175844468Y-110621065D01*
G37*
G36*
X173304468Y-110591065D02*
G01*
X173343138Y-110602796D01*
X173378777Y-110621846D01*
X173410017Y-110647483D01*
X173435654Y-110678723D01*
X173454704Y-110714362D01*
X173466435Y-110753032D01*
X173471000Y-110799388D01*
X173471000Y-111450612D01*
X173466435Y-111496968D01*
X173454704Y-111535638D01*
X173435654Y-111571277D01*
X173410017Y-111602517D01*
X173378777Y-111628154D01*
X173343138Y-111647204D01*
X173304468Y-111658935D01*
X173258112Y-111663500D01*
X172181888Y-111663500D01*
X172135532Y-111658935D01*
X172096862Y-111647204D01*
X172061223Y-111628154D01*
X172029983Y-111602517D01*
X172004346Y-111571277D01*
X171985296Y-111535638D01*
X171973565Y-111496968D01*
X171969000Y-111450612D01*
X171969000Y-110799388D01*
X171973565Y-110753032D01*
X171985296Y-110714362D01*
X172004346Y-110678723D01*
X172029983Y-110647483D01*
X172061223Y-110621846D01*
X172096862Y-110602796D01*
X172135532Y-110591065D01*
X172181888Y-110586500D01*
X173258112Y-110586500D01*
X173304468Y-110591065D01*
G37*
G36*
X187274468Y-110591065D02*
G01*
X187313138Y-110602796D01*
X187348777Y-110621846D01*
X187380017Y-110647483D01*
X187405654Y-110678723D01*
X187424704Y-110714362D01*
X187436435Y-110753032D01*
X187441000Y-110799388D01*
X187441000Y-111450612D01*
X187436435Y-111496968D01*
X187424704Y-111535638D01*
X187405654Y-111571277D01*
X187380017Y-111602517D01*
X187348777Y-111628154D01*
X187313138Y-111647204D01*
X187274468Y-111658935D01*
X187228112Y-111663500D01*
X186151888Y-111663500D01*
X186105532Y-111658935D01*
X186066862Y-111647204D01*
X186031223Y-111628154D01*
X185999983Y-111602517D01*
X185974346Y-111571277D01*
X185955296Y-111535638D01*
X185943565Y-111496968D01*
X185939000Y-111450612D01*
X185939000Y-110799388D01*
X185943565Y-110753032D01*
X185955296Y-110714362D01*
X185974346Y-110678723D01*
X185999983Y-110647483D01*
X186031223Y-110621846D01*
X186066862Y-110602796D01*
X186105532Y-110591065D01*
X186151888Y-110586500D01*
X187228112Y-110586500D01*
X187274468Y-110591065D01*
G37*
G36*
X198704468Y-110591065D02*
G01*
X198743138Y-110602796D01*
X198778777Y-110621846D01*
X198810017Y-110647483D01*
X198835654Y-110678723D01*
X198854704Y-110714362D01*
X198866435Y-110753032D01*
X198871000Y-110799388D01*
X198871000Y-111450612D01*
X198866435Y-111496968D01*
X198854704Y-111535638D01*
X198835654Y-111571277D01*
X198810017Y-111602517D01*
X198778777Y-111628154D01*
X198743138Y-111647204D01*
X198704468Y-111658935D01*
X198658112Y-111663500D01*
X197581888Y-111663500D01*
X197535532Y-111658935D01*
X197496862Y-111647204D01*
X197461223Y-111628154D01*
X197429983Y-111602517D01*
X197404346Y-111571277D01*
X197385296Y-111535638D01*
X197373565Y-111496968D01*
X197369000Y-111450612D01*
X197369000Y-110799388D01*
X197373565Y-110753032D01*
X197385296Y-110714362D01*
X197404346Y-110678723D01*
X197429983Y-110647483D01*
X197461223Y-110621846D01*
X197496862Y-110602796D01*
X197535532Y-110591065D01*
X197581888Y-110586500D01*
X198658112Y-110586500D01*
X198704468Y-110591065D01*
G37*
G36*
X184734468Y-110591065D02*
G01*
X184773138Y-110602796D01*
X184808777Y-110621846D01*
X184840017Y-110647483D01*
X184865654Y-110678723D01*
X184884704Y-110714362D01*
X184896435Y-110753032D01*
X184901000Y-110799388D01*
X184901000Y-111450612D01*
X184896435Y-111496968D01*
X184884704Y-111535638D01*
X184865654Y-111571277D01*
X184840017Y-111602517D01*
X184808777Y-111628154D01*
X184773138Y-111647204D01*
X184734468Y-111658935D01*
X184688112Y-111663500D01*
X183611888Y-111663500D01*
X183565532Y-111658935D01*
X183526862Y-111647204D01*
X183491223Y-111628154D01*
X183459983Y-111602517D01*
X183434346Y-111571277D01*
X183415296Y-111535638D01*
X183403565Y-111496968D01*
X183399000Y-111450612D01*
X183399000Y-110799388D01*
X183403565Y-110753032D01*
X183415296Y-110714362D01*
X183434346Y-110678723D01*
X183459983Y-110647483D01*
X183491223Y-110621846D01*
X183526862Y-110602796D01*
X183565532Y-110591065D01*
X183611888Y-110586500D01*
X184688112Y-110586500D01*
X184734468Y-110591065D01*
G37*
G36*
X170764468Y-110591065D02*
G01*
X170803138Y-110602796D01*
X170838777Y-110621846D01*
X170870017Y-110647483D01*
X170895654Y-110678723D01*
X170914704Y-110714362D01*
X170926435Y-110753032D01*
X170931000Y-110799388D01*
X170931000Y-111450612D01*
X170926435Y-111496968D01*
X170914704Y-111535638D01*
X170895654Y-111571277D01*
X170870017Y-111602517D01*
X170838777Y-111628154D01*
X170803138Y-111647204D01*
X170764468Y-111658935D01*
X170718112Y-111663500D01*
X169641888Y-111663500D01*
X169595532Y-111658935D01*
X169556862Y-111647204D01*
X169521223Y-111628154D01*
X169489983Y-111602517D01*
X169464346Y-111571277D01*
X169445296Y-111535638D01*
X169433565Y-111496968D01*
X169429000Y-111450612D01*
X169429000Y-110799388D01*
X169433565Y-110753032D01*
X169445296Y-110714362D01*
X169464346Y-110678723D01*
X169489983Y-110647483D01*
X169521223Y-110621846D01*
X169556862Y-110602796D01*
X169595532Y-110591065D01*
X169641888Y-110586500D01*
X170718112Y-110586500D01*
X170764468Y-110591065D01*
G37*
G36*
X147904468Y-110464065D02*
G01*
X147943138Y-110475796D01*
X147978777Y-110494846D01*
X148010017Y-110520483D01*
X148035654Y-110551723D01*
X148054704Y-110587362D01*
X148066435Y-110626032D01*
X148071000Y-110672388D01*
X148071000Y-111323612D01*
X148066435Y-111369968D01*
X148054704Y-111408638D01*
X148035654Y-111444277D01*
X148010017Y-111475517D01*
X147978777Y-111501154D01*
X147943138Y-111520204D01*
X147904468Y-111531935D01*
X147858112Y-111536500D01*
X146781888Y-111536500D01*
X146735532Y-111531935D01*
X146696862Y-111520204D01*
X146661223Y-111501154D01*
X146629983Y-111475517D01*
X146604346Y-111444277D01*
X146585296Y-111408638D01*
X146573565Y-111369968D01*
X146569000Y-111323612D01*
X146569000Y-110672388D01*
X146573565Y-110626032D01*
X146585296Y-110587362D01*
X146604346Y-110551723D01*
X146629983Y-110520483D01*
X146661223Y-110494846D01*
X146696862Y-110475796D01*
X146735532Y-110464065D01*
X146781888Y-110459500D01*
X147858112Y-110459500D01*
X147904468Y-110464065D01*
G37*
G36*
X142669468Y-110373565D02*
G01*
X142708138Y-110385296D01*
X142743777Y-110404346D01*
X142775017Y-110429983D01*
X142800654Y-110461223D01*
X142819704Y-110496862D01*
X142831435Y-110535532D01*
X142836000Y-110581888D01*
X142836000Y-111233112D01*
X142831435Y-111279468D01*
X142819704Y-111318138D01*
X142800654Y-111353777D01*
X142775017Y-111385017D01*
X142743777Y-111410654D01*
X142708138Y-111429704D01*
X142669468Y-111441435D01*
X142623112Y-111446000D01*
X141546888Y-111446000D01*
X141500532Y-111441435D01*
X141461862Y-111429704D01*
X141426223Y-111410654D01*
X141394983Y-111385017D01*
X141369346Y-111353777D01*
X141350296Y-111318138D01*
X141338565Y-111279468D01*
X141334000Y-111233112D01*
X141334000Y-110581888D01*
X141338565Y-110535532D01*
X141350296Y-110496862D01*
X141369346Y-110461223D01*
X141394983Y-110429983D01*
X141426223Y-110404346D01*
X141461862Y-110385296D01*
X141500532Y-110373565D01*
X141546888Y-110369000D01*
X142623112Y-110369000D01*
X142669468Y-110373565D01*
G37*
G36*
X145364468Y-110373565D02*
G01*
X145403138Y-110385296D01*
X145438777Y-110404346D01*
X145470017Y-110429983D01*
X145495654Y-110461223D01*
X145514704Y-110496862D01*
X145526435Y-110535532D01*
X145531000Y-110581888D01*
X145531000Y-111233112D01*
X145526435Y-111279468D01*
X145514704Y-111318138D01*
X145495654Y-111353777D01*
X145470017Y-111385017D01*
X145438777Y-111410654D01*
X145403138Y-111429704D01*
X145364468Y-111441435D01*
X145318112Y-111446000D01*
X144241888Y-111446000D01*
X144195532Y-111441435D01*
X144156862Y-111429704D01*
X144121223Y-111410654D01*
X144089983Y-111385017D01*
X144064346Y-111353777D01*
X144045296Y-111318138D01*
X144033565Y-111279468D01*
X144029000Y-111233112D01*
X144029000Y-110581888D01*
X144033565Y-110535532D01*
X144045296Y-110496862D01*
X144064346Y-110461223D01*
X144089983Y-110429983D01*
X144121223Y-110404346D01*
X144156862Y-110385296D01*
X144195532Y-110373565D01*
X144241888Y-110369000D01*
X145318112Y-110369000D01*
X145364468Y-110373565D01*
G37*
G36*
X161874468Y-110367065D02*
G01*
X161913138Y-110378796D01*
X161948777Y-110397846D01*
X161980017Y-110423483D01*
X162005654Y-110454723D01*
X162024704Y-110490362D01*
X162036435Y-110529032D01*
X162041000Y-110575388D01*
X162041000Y-111226612D01*
X162036435Y-111272968D01*
X162024704Y-111311638D01*
X162005654Y-111347277D01*
X161980017Y-111378517D01*
X161948777Y-111404154D01*
X161913138Y-111423204D01*
X161874468Y-111434935D01*
X161828112Y-111439500D01*
X160751888Y-111439500D01*
X160705532Y-111434935D01*
X160666862Y-111423204D01*
X160631223Y-111404154D01*
X160599983Y-111378517D01*
X160574346Y-111347277D01*
X160555296Y-111311638D01*
X160543565Y-111272968D01*
X160539000Y-111226612D01*
X160539000Y-110575388D01*
X160543565Y-110529032D01*
X160555296Y-110490362D01*
X160574346Y-110454723D01*
X160599983Y-110423483D01*
X160631223Y-110397846D01*
X160666862Y-110378796D01*
X160705532Y-110367065D01*
X160751888Y-110362500D01*
X161828112Y-110362500D01*
X161874468Y-110367065D01*
G37*
G36*
X159334468Y-110288565D02*
G01*
X159373138Y-110300296D01*
X159408777Y-110319346D01*
X159440017Y-110344983D01*
X159465654Y-110376223D01*
X159484704Y-110411862D01*
X159496435Y-110450532D01*
X159501000Y-110496888D01*
X159501000Y-111148112D01*
X159496435Y-111194468D01*
X159484704Y-111233138D01*
X159465654Y-111268777D01*
X159440017Y-111300017D01*
X159408777Y-111325654D01*
X159373138Y-111344704D01*
X159334468Y-111356435D01*
X159288112Y-111361000D01*
X158211888Y-111361000D01*
X158165532Y-111356435D01*
X158126862Y-111344704D01*
X158091223Y-111325654D01*
X158059983Y-111300017D01*
X158034346Y-111268777D01*
X158015296Y-111233138D01*
X158003565Y-111194468D01*
X157999000Y-111148112D01*
X157999000Y-110496888D01*
X158003565Y-110450532D01*
X158015296Y-110411862D01*
X158034346Y-110376223D01*
X158059983Y-110344983D01*
X158091223Y-110319346D01*
X158126862Y-110300296D01*
X158165532Y-110288565D01*
X158211888Y-110284000D01*
X159288112Y-110284000D01*
X159334468Y-110288565D01*
G37*
G36*
X156794468Y-110288565D02*
G01*
X156833138Y-110300296D01*
X156868777Y-110319346D01*
X156900017Y-110344983D01*
X156925654Y-110376223D01*
X156944704Y-110411862D01*
X156956435Y-110450532D01*
X156961000Y-110496888D01*
X156961000Y-111148112D01*
X156956435Y-111194468D01*
X156944704Y-111233138D01*
X156925654Y-111268777D01*
X156900017Y-111300017D01*
X156868777Y-111325654D01*
X156833138Y-111344704D01*
X156794468Y-111356435D01*
X156748112Y-111361000D01*
X155671888Y-111361000D01*
X155625532Y-111356435D01*
X155586862Y-111344704D01*
X155551223Y-111325654D01*
X155519983Y-111300017D01*
X155494346Y-111268777D01*
X155475296Y-111233138D01*
X155463565Y-111194468D01*
X155459000Y-111148112D01*
X155459000Y-110496888D01*
X155463565Y-110450532D01*
X155475296Y-110411862D01*
X155494346Y-110376223D01*
X155519983Y-110344983D01*
X155551223Y-110319346D01*
X155586862Y-110300296D01*
X155625532Y-110288565D01*
X155671888Y-110284000D01*
X156748112Y-110284000D01*
X156794468Y-110288565D01*
G37*
G36*
X198571000Y-109696000D02*
G01*
X197669000Y-109696000D01*
X197669000Y-108394000D01*
X198571000Y-108394000D01*
X198571000Y-109696000D01*
G37*
G36*
X201111000Y-109696000D02*
G01*
X200209000Y-109696000D01*
X200209000Y-108394000D01*
X201111000Y-108394000D01*
X201111000Y-109696000D01*
G37*
G36*
X170706000Y-109446000D02*
G01*
X169804000Y-109446000D01*
X169804000Y-108144000D01*
X170706000Y-108144000D01*
X170706000Y-109446000D01*
G37*
G36*
X173246000Y-109446000D02*
G01*
X172344000Y-109446000D01*
X172344000Y-108144000D01*
X173246000Y-108144000D01*
X173246000Y-109446000D01*
G37*
G36*
X156661000Y-109061000D02*
G01*
X155759000Y-109061000D01*
X155759000Y-107759000D01*
X156661000Y-107759000D01*
X156661000Y-109061000D01*
G37*
G36*
X145231000Y-109061000D02*
G01*
X144329000Y-109061000D01*
X144329000Y-107759000D01*
X145231000Y-107759000D01*
X145231000Y-109061000D01*
G37*
G36*
X184601000Y-109061000D02*
G01*
X183699000Y-109061000D01*
X183699000Y-107759000D01*
X184601000Y-107759000D01*
X184601000Y-109061000D01*
G37*
G36*
X187141000Y-109061000D02*
G01*
X186239000Y-109061000D01*
X186239000Y-107759000D01*
X187141000Y-107759000D01*
X187141000Y-109061000D01*
G37*
G36*
X159201000Y-109061000D02*
G01*
X158299000Y-109061000D01*
X158299000Y-107759000D01*
X159201000Y-107759000D01*
X159201000Y-109061000D01*
G37*
G36*
X142691000Y-109061000D02*
G01*
X141789000Y-109061000D01*
X141789000Y-107759000D01*
X142691000Y-107759000D01*
X142691000Y-109061000D01*
G37*
G36*
X198571000Y-103696000D02*
G01*
X197669000Y-103696000D01*
X197669000Y-102394000D01*
X198571000Y-102394000D01*
X198571000Y-103696000D01*
G37*
G36*
X201111000Y-103696000D02*
G01*
X200209000Y-103696000D01*
X200209000Y-102394000D01*
X201111000Y-102394000D01*
X201111000Y-103696000D01*
G37*
G36*
X170706000Y-103446000D02*
G01*
X169804000Y-103446000D01*
X169804000Y-102144000D01*
X170706000Y-102144000D01*
X170706000Y-103446000D01*
G37*
G36*
X173246000Y-103446000D02*
G01*
X172344000Y-103446000D01*
X172344000Y-102144000D01*
X173246000Y-102144000D01*
X173246000Y-103446000D01*
G37*
G36*
X145231000Y-103061000D02*
G01*
X144329000Y-103061000D01*
X144329000Y-101759000D01*
X145231000Y-101759000D01*
X145231000Y-103061000D01*
G37*
G36*
X156661000Y-103061000D02*
G01*
X155759000Y-103061000D01*
X155759000Y-101759000D01*
X156661000Y-101759000D01*
X156661000Y-103061000D01*
G37*
G36*
X184601000Y-103061000D02*
G01*
X183699000Y-103061000D01*
X183699000Y-101759000D01*
X184601000Y-101759000D01*
X184601000Y-103061000D01*
G37*
G36*
X142691000Y-103061000D02*
G01*
X141789000Y-103061000D01*
X141789000Y-101759000D01*
X142691000Y-101759000D01*
X142691000Y-103061000D01*
G37*
G36*
X159201000Y-103061000D02*
G01*
X158299000Y-103061000D01*
X158299000Y-101759000D01*
X159201000Y-101759000D01*
X159201000Y-103061000D01*
G37*
G36*
X187141000Y-103061000D02*
G01*
X186239000Y-103061000D01*
X186239000Y-101759000D01*
X187141000Y-101759000D01*
X187141000Y-103061000D01*
G37*
G36*
X159151968Y-99583565D02*
G01*
X159190638Y-99595296D01*
X159226277Y-99614346D01*
X159257517Y-99639983D01*
X159283154Y-99671223D01*
X159302204Y-99706862D01*
X159313935Y-99745532D01*
X159318500Y-99791888D01*
X159318500Y-100868112D01*
X159313935Y-100914468D01*
X159302204Y-100953138D01*
X159283154Y-100988777D01*
X159257517Y-101020017D01*
X159226277Y-101045654D01*
X159190638Y-101064704D01*
X159151968Y-101076435D01*
X159105612Y-101081000D01*
X158454388Y-101081000D01*
X158408032Y-101076435D01*
X158369362Y-101064704D01*
X158333723Y-101045654D01*
X158302483Y-101020017D01*
X158276846Y-100988777D01*
X158257796Y-100953138D01*
X158246065Y-100914468D01*
X158241500Y-100868112D01*
X158241500Y-99791888D01*
X158246065Y-99745532D01*
X158257796Y-99706862D01*
X158276846Y-99671223D01*
X158302483Y-99639983D01*
X158333723Y-99614346D01*
X158369362Y-99595296D01*
X158408032Y-99583565D01*
X158454388Y-99579000D01*
X159105612Y-99579000D01*
X159151968Y-99583565D01*
G37*
G36*
X161026968Y-99583565D02*
G01*
X161065638Y-99595296D01*
X161101277Y-99614346D01*
X161132517Y-99639983D01*
X161158154Y-99671223D01*
X161177204Y-99706862D01*
X161188935Y-99745532D01*
X161193500Y-99791888D01*
X161193500Y-100868112D01*
X161188935Y-100914468D01*
X161177204Y-100953138D01*
X161158154Y-100988777D01*
X161132517Y-101020017D01*
X161101277Y-101045654D01*
X161065638Y-101064704D01*
X161026968Y-101076435D01*
X160980612Y-101081000D01*
X160329388Y-101081000D01*
X160283032Y-101076435D01*
X160244362Y-101064704D01*
X160208723Y-101045654D01*
X160177483Y-101020017D01*
X160151846Y-100988777D01*
X160132796Y-100953138D01*
X160121065Y-100914468D01*
X160116500Y-100868112D01*
X160116500Y-99791888D01*
X160121065Y-99745532D01*
X160132796Y-99706862D01*
X160151846Y-99671223D01*
X160177483Y-99639983D01*
X160208723Y-99614346D01*
X160244362Y-99595296D01*
X160283032Y-99583565D01*
X160329388Y-99579000D01*
X160980612Y-99579000D01*
X161026968Y-99583565D01*
G37*
G36*
X162961968Y-99583565D02*
G01*
X163000638Y-99595296D01*
X163036277Y-99614346D01*
X163067517Y-99639983D01*
X163093154Y-99671223D01*
X163112204Y-99706862D01*
X163123935Y-99745532D01*
X163128500Y-99791888D01*
X163128500Y-100868112D01*
X163123935Y-100914468D01*
X163112204Y-100953138D01*
X163093154Y-100988777D01*
X163067517Y-101020017D01*
X163036277Y-101045654D01*
X163000638Y-101064704D01*
X162961968Y-101076435D01*
X162915612Y-101081000D01*
X162264388Y-101081000D01*
X162218032Y-101076435D01*
X162179362Y-101064704D01*
X162143723Y-101045654D01*
X162112483Y-101020017D01*
X162086846Y-100988777D01*
X162067796Y-100953138D01*
X162056065Y-100914468D01*
X162051500Y-100868112D01*
X162051500Y-99791888D01*
X162056065Y-99745532D01*
X162067796Y-99706862D01*
X162086846Y-99671223D01*
X162112483Y-99639983D01*
X162143723Y-99614346D01*
X162179362Y-99595296D01*
X162218032Y-99583565D01*
X162264388Y-99579000D01*
X162915612Y-99579000D01*
X162961968Y-99583565D01*
G37*
G36*
X164836968Y-99583565D02*
G01*
X164875638Y-99595296D01*
X164911277Y-99614346D01*
X164942517Y-99639983D01*
X164968154Y-99671223D01*
X164987204Y-99706862D01*
X164998935Y-99745532D01*
X165003500Y-99791888D01*
X165003500Y-100868112D01*
X164998935Y-100914468D01*
X164987204Y-100953138D01*
X164968154Y-100988777D01*
X164942517Y-101020017D01*
X164911277Y-101045654D01*
X164875638Y-101064704D01*
X164836968Y-101076435D01*
X164790612Y-101081000D01*
X164139388Y-101081000D01*
X164093032Y-101076435D01*
X164054362Y-101064704D01*
X164018723Y-101045654D01*
X163987483Y-101020017D01*
X163961846Y-100988777D01*
X163942796Y-100953138D01*
X163931065Y-100914468D01*
X163926500Y-100868112D01*
X163926500Y-99791888D01*
X163931065Y-99745532D01*
X163942796Y-99706862D01*
X163961846Y-99671223D01*
X163987483Y-99639983D01*
X164018723Y-99614346D01*
X164054362Y-99595296D01*
X164093032Y-99583565D01*
X164139388Y-99579000D01*
X164790612Y-99579000D01*
X164836968Y-99583565D01*
G37*
G36*
X147026968Y-99583565D02*
G01*
X147065638Y-99595296D01*
X147101277Y-99614346D01*
X147132517Y-99639983D01*
X147158154Y-99671223D01*
X147177204Y-99706862D01*
X147188935Y-99745532D01*
X147193500Y-99791888D01*
X147193500Y-100868112D01*
X147188935Y-100914468D01*
X147177204Y-100953138D01*
X147158154Y-100988777D01*
X147132517Y-101020017D01*
X147101277Y-101045654D01*
X147065638Y-101064704D01*
X147026968Y-101076435D01*
X146980612Y-101081000D01*
X146329388Y-101081000D01*
X146283032Y-101076435D01*
X146244362Y-101064704D01*
X146208723Y-101045654D01*
X146177483Y-101020017D01*
X146151846Y-100988777D01*
X146132796Y-100953138D01*
X146121065Y-100914468D01*
X146116500Y-100868112D01*
X146116500Y-99791888D01*
X146121065Y-99745532D01*
X146132796Y-99706862D01*
X146151846Y-99671223D01*
X146177483Y-99639983D01*
X146208723Y-99614346D01*
X146244362Y-99595296D01*
X146283032Y-99583565D01*
X146329388Y-99579000D01*
X146980612Y-99579000D01*
X147026968Y-99583565D01*
G37*
G36*
X145151968Y-99583565D02*
G01*
X145190638Y-99595296D01*
X145226277Y-99614346D01*
X145257517Y-99639983D01*
X145283154Y-99671223D01*
X145302204Y-99706862D01*
X145313935Y-99745532D01*
X145318500Y-99791888D01*
X145318500Y-100868112D01*
X145313935Y-100914468D01*
X145302204Y-100953138D01*
X145283154Y-100988777D01*
X145257517Y-101020017D01*
X145226277Y-101045654D01*
X145190638Y-101064704D01*
X145151968Y-101076435D01*
X145105612Y-101081000D01*
X144454388Y-101081000D01*
X144408032Y-101076435D01*
X144369362Y-101064704D01*
X144333723Y-101045654D01*
X144302483Y-101020017D01*
X144276846Y-100988777D01*
X144257796Y-100953138D01*
X144246065Y-100914468D01*
X144241500Y-100868112D01*
X144241500Y-99791888D01*
X144246065Y-99745532D01*
X144257796Y-99706862D01*
X144276846Y-99671223D01*
X144302483Y-99639983D01*
X144333723Y-99614346D01*
X144369362Y-99595296D01*
X144408032Y-99583565D01*
X144454388Y-99579000D01*
X145105612Y-99579000D01*
X145151968Y-99583565D01*
G37*
G36*
X148659468Y-99583565D02*
G01*
X148698138Y-99595296D01*
X148733777Y-99614346D01*
X148765017Y-99639983D01*
X148790654Y-99671223D01*
X148809704Y-99706862D01*
X148821435Y-99745532D01*
X148826000Y-99791888D01*
X148826000Y-100868112D01*
X148821435Y-100914468D01*
X148809704Y-100953138D01*
X148790654Y-100988777D01*
X148765017Y-101020017D01*
X148733777Y-101045654D01*
X148698138Y-101064704D01*
X148659468Y-101076435D01*
X148613112Y-101081000D01*
X147961888Y-101081000D01*
X147915532Y-101076435D01*
X147876862Y-101064704D01*
X147841223Y-101045654D01*
X147809983Y-101020017D01*
X147784346Y-100988777D01*
X147765296Y-100953138D01*
X147753565Y-100914468D01*
X147749000Y-100868112D01*
X147749000Y-99791888D01*
X147753565Y-99745532D01*
X147765296Y-99706862D01*
X147784346Y-99671223D01*
X147809983Y-99639983D01*
X147841223Y-99614346D01*
X147876862Y-99595296D01*
X147915532Y-99583565D01*
X147961888Y-99579000D01*
X148613112Y-99579000D01*
X148659468Y-99583565D01*
G37*
G36*
X150534468Y-99583565D02*
G01*
X150573138Y-99595296D01*
X150608777Y-99614346D01*
X150640017Y-99639983D01*
X150665654Y-99671223D01*
X150684704Y-99706862D01*
X150696435Y-99745532D01*
X150701000Y-99791888D01*
X150701000Y-100868112D01*
X150696435Y-100914468D01*
X150684704Y-100953138D01*
X150665654Y-100988777D01*
X150640017Y-101020017D01*
X150608777Y-101045654D01*
X150573138Y-101064704D01*
X150534468Y-101076435D01*
X150488112Y-101081000D01*
X149836888Y-101081000D01*
X149790532Y-101076435D01*
X149751862Y-101064704D01*
X149716223Y-101045654D01*
X149684983Y-101020017D01*
X149659346Y-100988777D01*
X149640296Y-100953138D01*
X149628565Y-100914468D01*
X149624000Y-100868112D01*
X149624000Y-99791888D01*
X149628565Y-99745532D01*
X149640296Y-99706862D01*
X149659346Y-99671223D01*
X149684983Y-99639983D01*
X149716223Y-99614346D01*
X149751862Y-99595296D01*
X149790532Y-99583565D01*
X149836888Y-99579000D01*
X150488112Y-99579000D01*
X150534468Y-99583565D01*
G37*
G36*
X204236968Y-99583565D02*
G01*
X204275638Y-99595296D01*
X204311277Y-99614346D01*
X204342517Y-99639983D01*
X204368154Y-99671223D01*
X204387204Y-99706862D01*
X204398935Y-99745532D01*
X204403500Y-99791888D01*
X204403500Y-100868112D01*
X204398935Y-100914468D01*
X204387204Y-100953138D01*
X204368154Y-100988777D01*
X204342517Y-101020017D01*
X204311277Y-101045654D01*
X204275638Y-101064704D01*
X204236968Y-101076435D01*
X204190612Y-101081000D01*
X203539388Y-101081000D01*
X203493032Y-101076435D01*
X203454362Y-101064704D01*
X203418723Y-101045654D01*
X203387483Y-101020017D01*
X203361846Y-100988777D01*
X203342796Y-100953138D01*
X203331065Y-100914468D01*
X203326500Y-100868112D01*
X203326500Y-99791888D01*
X203331065Y-99745532D01*
X203342796Y-99706862D01*
X203361846Y-99671223D01*
X203387483Y-99639983D01*
X203418723Y-99614346D01*
X203454362Y-99595296D01*
X203493032Y-99583565D01*
X203539388Y-99579000D01*
X204190612Y-99579000D01*
X204236968Y-99583565D01*
G37*
G36*
X188966968Y-99583565D02*
G01*
X189005638Y-99595296D01*
X189041277Y-99614346D01*
X189072517Y-99639983D01*
X189098154Y-99671223D01*
X189117204Y-99706862D01*
X189128935Y-99745532D01*
X189133500Y-99791888D01*
X189133500Y-100868112D01*
X189128935Y-100914468D01*
X189117204Y-100953138D01*
X189098154Y-100988777D01*
X189072517Y-101020017D01*
X189041277Y-101045654D01*
X189005638Y-101064704D01*
X188966968Y-101076435D01*
X188920612Y-101081000D01*
X188269388Y-101081000D01*
X188223032Y-101076435D01*
X188184362Y-101064704D01*
X188148723Y-101045654D01*
X188117483Y-101020017D01*
X188091846Y-100988777D01*
X188072796Y-100953138D01*
X188061065Y-100914468D01*
X188056500Y-100868112D01*
X188056500Y-99791888D01*
X188061065Y-99745532D01*
X188072796Y-99706862D01*
X188091846Y-99671223D01*
X188117483Y-99639983D01*
X188148723Y-99614346D01*
X188184362Y-99595296D01*
X188223032Y-99583565D01*
X188269388Y-99579000D01*
X188920612Y-99579000D01*
X188966968Y-99583565D01*
G37*
G36*
X191204468Y-99583565D02*
G01*
X191243138Y-99595296D01*
X191278777Y-99614346D01*
X191310017Y-99639983D01*
X191335654Y-99671223D01*
X191354704Y-99706862D01*
X191366435Y-99745532D01*
X191371000Y-99791888D01*
X191371000Y-100868112D01*
X191366435Y-100914468D01*
X191354704Y-100953138D01*
X191335654Y-100988777D01*
X191310017Y-101020017D01*
X191278777Y-101045654D01*
X191243138Y-101064704D01*
X191204468Y-101076435D01*
X191158112Y-101081000D01*
X190506888Y-101081000D01*
X190460532Y-101076435D01*
X190421862Y-101064704D01*
X190386223Y-101045654D01*
X190354983Y-101020017D01*
X190329346Y-100988777D01*
X190310296Y-100953138D01*
X190298565Y-100914468D01*
X190294000Y-100868112D01*
X190294000Y-99791888D01*
X190298565Y-99745532D01*
X190310296Y-99706862D01*
X190329346Y-99671223D01*
X190354983Y-99639983D01*
X190386223Y-99614346D01*
X190421862Y-99595296D01*
X190460532Y-99583565D01*
X190506888Y-99579000D01*
X191158112Y-99579000D01*
X191204468Y-99583565D01*
G37*
G36*
X187091968Y-99583565D02*
G01*
X187130638Y-99595296D01*
X187166277Y-99614346D01*
X187197517Y-99639983D01*
X187223154Y-99671223D01*
X187242204Y-99706862D01*
X187253935Y-99745532D01*
X187258500Y-99791888D01*
X187258500Y-100868112D01*
X187253935Y-100914468D01*
X187242204Y-100953138D01*
X187223154Y-100988777D01*
X187197517Y-101020017D01*
X187166277Y-101045654D01*
X187130638Y-101064704D01*
X187091968Y-101076435D01*
X187045612Y-101081000D01*
X186394388Y-101081000D01*
X186348032Y-101076435D01*
X186309362Y-101064704D01*
X186273723Y-101045654D01*
X186242483Y-101020017D01*
X186216846Y-100988777D01*
X186197796Y-100953138D01*
X186186065Y-100914468D01*
X186181500Y-100868112D01*
X186181500Y-99791888D01*
X186186065Y-99745532D01*
X186197796Y-99706862D01*
X186216846Y-99671223D01*
X186242483Y-99639983D01*
X186273723Y-99614346D01*
X186309362Y-99595296D01*
X186348032Y-99583565D01*
X186394388Y-99579000D01*
X187045612Y-99579000D01*
X187091968Y-99583565D01*
G37*
G36*
X200426968Y-99583565D02*
G01*
X200465638Y-99595296D01*
X200501277Y-99614346D01*
X200532517Y-99639983D01*
X200558154Y-99671223D01*
X200577204Y-99706862D01*
X200588935Y-99745532D01*
X200593500Y-99791888D01*
X200593500Y-100868112D01*
X200588935Y-100914468D01*
X200577204Y-100953138D01*
X200558154Y-100988777D01*
X200532517Y-101020017D01*
X200501277Y-101045654D01*
X200465638Y-101064704D01*
X200426968Y-101076435D01*
X200380612Y-101081000D01*
X199729388Y-101081000D01*
X199683032Y-101076435D01*
X199644362Y-101064704D01*
X199608723Y-101045654D01*
X199577483Y-101020017D01*
X199551846Y-100988777D01*
X199532796Y-100953138D01*
X199521065Y-100914468D01*
X199516500Y-100868112D01*
X199516500Y-99791888D01*
X199521065Y-99745532D01*
X199532796Y-99706862D01*
X199551846Y-99671223D01*
X199577483Y-99639983D01*
X199608723Y-99614346D01*
X199644362Y-99595296D01*
X199683032Y-99583565D01*
X199729388Y-99579000D01*
X200380612Y-99579000D01*
X200426968Y-99583565D01*
G37*
G36*
X202301968Y-99583565D02*
G01*
X202340638Y-99595296D01*
X202376277Y-99614346D01*
X202407517Y-99639983D01*
X202433154Y-99671223D01*
X202452204Y-99706862D01*
X202463935Y-99745532D01*
X202468500Y-99791888D01*
X202468500Y-100868112D01*
X202463935Y-100914468D01*
X202452204Y-100953138D01*
X202433154Y-100988777D01*
X202407517Y-101020017D01*
X202376277Y-101045654D01*
X202340638Y-101064704D01*
X202301968Y-101076435D01*
X202255612Y-101081000D01*
X201604388Y-101081000D01*
X201558032Y-101076435D01*
X201519362Y-101064704D01*
X201483723Y-101045654D01*
X201452483Y-101020017D01*
X201426846Y-100988777D01*
X201407796Y-100953138D01*
X201396065Y-100914468D01*
X201391500Y-100868112D01*
X201391500Y-99791888D01*
X201396065Y-99745532D01*
X201407796Y-99706862D01*
X201426846Y-99671223D01*
X201452483Y-99639983D01*
X201483723Y-99614346D01*
X201519362Y-99595296D01*
X201558032Y-99583565D01*
X201604388Y-99579000D01*
X202255612Y-99579000D01*
X202301968Y-99583565D01*
G37*
G36*
X206111968Y-99583565D02*
G01*
X206150638Y-99595296D01*
X206186277Y-99614346D01*
X206217517Y-99639983D01*
X206243154Y-99671223D01*
X206262204Y-99706862D01*
X206273935Y-99745532D01*
X206278500Y-99791888D01*
X206278500Y-100868112D01*
X206273935Y-100914468D01*
X206262204Y-100953138D01*
X206243154Y-100988777D01*
X206217517Y-101020017D01*
X206186277Y-101045654D01*
X206150638Y-101064704D01*
X206111968Y-101076435D01*
X206065612Y-101081000D01*
X205414388Y-101081000D01*
X205368032Y-101076435D01*
X205329362Y-101064704D01*
X205293723Y-101045654D01*
X205262483Y-101020017D01*
X205236846Y-100988777D01*
X205217796Y-100953138D01*
X205206065Y-100914468D01*
X205201500Y-100868112D01*
X205201500Y-99791888D01*
X205206065Y-99745532D01*
X205217796Y-99706862D01*
X205236846Y-99671223D01*
X205262483Y-99639983D01*
X205293723Y-99614346D01*
X205329362Y-99595296D01*
X205368032Y-99583565D01*
X205414388Y-99579000D01*
X206065612Y-99579000D01*
X206111968Y-99583565D01*
G37*
G36*
X185126968Y-99583565D02*
G01*
X185165638Y-99595296D01*
X185201277Y-99614346D01*
X185232517Y-99639983D01*
X185258154Y-99671223D01*
X185277204Y-99706862D01*
X185288935Y-99745532D01*
X185293500Y-99791888D01*
X185293500Y-100868112D01*
X185288935Y-100914468D01*
X185277204Y-100953138D01*
X185258154Y-100988777D01*
X185232517Y-101020017D01*
X185201277Y-101045654D01*
X185165638Y-101064704D01*
X185126968Y-101076435D01*
X185080612Y-101081000D01*
X184429388Y-101081000D01*
X184383032Y-101076435D01*
X184344362Y-101064704D01*
X184308723Y-101045654D01*
X184277483Y-101020017D01*
X184251846Y-100988777D01*
X184232796Y-100953138D01*
X184221065Y-100914468D01*
X184216500Y-100868112D01*
X184216500Y-99791888D01*
X184221065Y-99745532D01*
X184232796Y-99706862D01*
X184251846Y-99671223D01*
X184277483Y-99639983D01*
X184308723Y-99614346D01*
X184344362Y-99595296D01*
X184383032Y-99583565D01*
X184429388Y-99579000D01*
X185080612Y-99579000D01*
X185126968Y-99583565D01*
G37*
G36*
X174966968Y-99583565D02*
G01*
X175005638Y-99595296D01*
X175041277Y-99614346D01*
X175072517Y-99639983D01*
X175098154Y-99671223D01*
X175117204Y-99706862D01*
X175128935Y-99745532D01*
X175133500Y-99791888D01*
X175133500Y-100868112D01*
X175128935Y-100914468D01*
X175117204Y-100953138D01*
X175098154Y-100988777D01*
X175072517Y-101020017D01*
X175041277Y-101045654D01*
X175005638Y-101064704D01*
X174966968Y-101076435D01*
X174920612Y-101081000D01*
X174269388Y-101081000D01*
X174223032Y-101076435D01*
X174184362Y-101064704D01*
X174148723Y-101045654D01*
X174117483Y-101020017D01*
X174091846Y-100988777D01*
X174072796Y-100953138D01*
X174061065Y-100914468D01*
X174056500Y-100868112D01*
X174056500Y-99791888D01*
X174061065Y-99745532D01*
X174072796Y-99706862D01*
X174091846Y-99671223D01*
X174117483Y-99639983D01*
X174148723Y-99614346D01*
X174184362Y-99595296D01*
X174223032Y-99583565D01*
X174269388Y-99579000D01*
X174920612Y-99579000D01*
X174966968Y-99583565D01*
G37*
G36*
X141371968Y-99583565D02*
G01*
X141410638Y-99595296D01*
X141446277Y-99614346D01*
X141477517Y-99639983D01*
X141503154Y-99671223D01*
X141522204Y-99706862D01*
X141533935Y-99745532D01*
X141538500Y-99791888D01*
X141538500Y-100868112D01*
X141533935Y-100914468D01*
X141522204Y-100953138D01*
X141503154Y-100988777D01*
X141477517Y-101020017D01*
X141446277Y-101045654D01*
X141410638Y-101064704D01*
X141371968Y-101076435D01*
X141325612Y-101081000D01*
X140674388Y-101081000D01*
X140628032Y-101076435D01*
X140589362Y-101064704D01*
X140553723Y-101045654D01*
X140522483Y-101020017D01*
X140496846Y-100988777D01*
X140477796Y-100953138D01*
X140466065Y-100914468D01*
X140461500Y-100868112D01*
X140461500Y-99791888D01*
X140466065Y-99745532D01*
X140477796Y-99706862D01*
X140496846Y-99671223D01*
X140522483Y-99639983D01*
X140553723Y-99614346D01*
X140589362Y-99595296D01*
X140628032Y-99583565D01*
X140674388Y-99579000D01*
X141325612Y-99579000D01*
X141371968Y-99583565D01*
G37*
G36*
X157216968Y-99583565D02*
G01*
X157255638Y-99595296D01*
X157291277Y-99614346D01*
X157322517Y-99639983D01*
X157348154Y-99671223D01*
X157367204Y-99706862D01*
X157378935Y-99745532D01*
X157383500Y-99791888D01*
X157383500Y-100868112D01*
X157378935Y-100914468D01*
X157367204Y-100953138D01*
X157348154Y-100988777D01*
X157322517Y-101020017D01*
X157291277Y-101045654D01*
X157255638Y-101064704D01*
X157216968Y-101076435D01*
X157170612Y-101081000D01*
X156519388Y-101081000D01*
X156473032Y-101076435D01*
X156434362Y-101064704D01*
X156398723Y-101045654D01*
X156367483Y-101020017D01*
X156341846Y-100988777D01*
X156322796Y-100953138D01*
X156311065Y-100914468D01*
X156306500Y-100868112D01*
X156306500Y-99791888D01*
X156311065Y-99745532D01*
X156322796Y-99706862D01*
X156341846Y-99671223D01*
X156367483Y-99639983D01*
X156398723Y-99614346D01*
X156434362Y-99595296D01*
X156473032Y-99583565D01*
X156519388Y-99579000D01*
X157170612Y-99579000D01*
X157216968Y-99583565D01*
G37*
G36*
X155341968Y-99583565D02*
G01*
X155380638Y-99595296D01*
X155416277Y-99614346D01*
X155447517Y-99639983D01*
X155473154Y-99671223D01*
X155492204Y-99706862D01*
X155503935Y-99745532D01*
X155508500Y-99791888D01*
X155508500Y-100868112D01*
X155503935Y-100914468D01*
X155492204Y-100953138D01*
X155473154Y-100988777D01*
X155447517Y-101020017D01*
X155416277Y-101045654D01*
X155380638Y-101064704D01*
X155341968Y-101076435D01*
X155295612Y-101081000D01*
X154644388Y-101081000D01*
X154598032Y-101076435D01*
X154559362Y-101064704D01*
X154523723Y-101045654D01*
X154492483Y-101020017D01*
X154466846Y-100988777D01*
X154447796Y-100953138D01*
X154436065Y-100914468D01*
X154431500Y-100868112D01*
X154431500Y-99791888D01*
X154436065Y-99745532D01*
X154447796Y-99706862D01*
X154466846Y-99671223D01*
X154492483Y-99639983D01*
X154523723Y-99614346D01*
X154559362Y-99595296D01*
X154598032Y-99583565D01*
X154644388Y-99579000D01*
X155295612Y-99579000D01*
X155341968Y-99583565D01*
G37*
G36*
X171156968Y-99583565D02*
G01*
X171195638Y-99595296D01*
X171231277Y-99614346D01*
X171262517Y-99639983D01*
X171288154Y-99671223D01*
X171307204Y-99706862D01*
X171318935Y-99745532D01*
X171323500Y-99791888D01*
X171323500Y-100868112D01*
X171318935Y-100914468D01*
X171307204Y-100953138D01*
X171288154Y-100988777D01*
X171262517Y-101020017D01*
X171231277Y-101045654D01*
X171195638Y-101064704D01*
X171156968Y-101076435D01*
X171110612Y-101081000D01*
X170459388Y-101081000D01*
X170413032Y-101076435D01*
X170374362Y-101064704D01*
X170338723Y-101045654D01*
X170307483Y-101020017D01*
X170281846Y-100988777D01*
X170262796Y-100953138D01*
X170251065Y-100914468D01*
X170246500Y-100868112D01*
X170246500Y-99791888D01*
X170251065Y-99745532D01*
X170262796Y-99706862D01*
X170281846Y-99671223D01*
X170307483Y-99639983D01*
X170338723Y-99614346D01*
X170374362Y-99595296D01*
X170413032Y-99583565D01*
X170459388Y-99579000D01*
X171110612Y-99579000D01*
X171156968Y-99583565D01*
G37*
G36*
X169281968Y-99583565D02*
G01*
X169320638Y-99595296D01*
X169356277Y-99614346D01*
X169387517Y-99639983D01*
X169413154Y-99671223D01*
X169432204Y-99706862D01*
X169443935Y-99745532D01*
X169448500Y-99791888D01*
X169448500Y-100868112D01*
X169443935Y-100914468D01*
X169432204Y-100953138D01*
X169413154Y-100988777D01*
X169387517Y-101020017D01*
X169356277Y-101045654D01*
X169320638Y-101064704D01*
X169281968Y-101076435D01*
X169235612Y-101081000D01*
X168584388Y-101081000D01*
X168538032Y-101076435D01*
X168499362Y-101064704D01*
X168463723Y-101045654D01*
X168432483Y-101020017D01*
X168406846Y-100988777D01*
X168387796Y-100953138D01*
X168376065Y-100914468D01*
X168371500Y-100868112D01*
X168371500Y-99791888D01*
X168376065Y-99745532D01*
X168387796Y-99706862D01*
X168406846Y-99671223D01*
X168432483Y-99639983D01*
X168463723Y-99614346D01*
X168499362Y-99595296D01*
X168538032Y-99583565D01*
X168584388Y-99579000D01*
X169235612Y-99579000D01*
X169281968Y-99583565D01*
G37*
G36*
X183251968Y-99583565D02*
G01*
X183290638Y-99595296D01*
X183326277Y-99614346D01*
X183357517Y-99639983D01*
X183383154Y-99671223D01*
X183402204Y-99706862D01*
X183413935Y-99745532D01*
X183418500Y-99791888D01*
X183418500Y-100868112D01*
X183413935Y-100914468D01*
X183402204Y-100953138D01*
X183383154Y-100988777D01*
X183357517Y-101020017D01*
X183326277Y-101045654D01*
X183290638Y-101064704D01*
X183251968Y-101076435D01*
X183205612Y-101081000D01*
X182554388Y-101081000D01*
X182508032Y-101076435D01*
X182469362Y-101064704D01*
X182433723Y-101045654D01*
X182402483Y-101020017D01*
X182376846Y-100988777D01*
X182357796Y-100953138D01*
X182346065Y-100914468D01*
X182341500Y-100868112D01*
X182341500Y-99791888D01*
X182346065Y-99745532D01*
X182357796Y-99706862D01*
X182376846Y-99671223D01*
X182402483Y-99639983D01*
X182433723Y-99614346D01*
X182469362Y-99595296D01*
X182508032Y-99583565D01*
X182554388Y-99579000D01*
X183205612Y-99579000D01*
X183251968Y-99583565D01*
G37*
G36*
X198491968Y-99583565D02*
G01*
X198530638Y-99595296D01*
X198566277Y-99614346D01*
X198597517Y-99639983D01*
X198623154Y-99671223D01*
X198642204Y-99706862D01*
X198653935Y-99745532D01*
X198658500Y-99791888D01*
X198658500Y-100868112D01*
X198653935Y-100914468D01*
X198642204Y-100953138D01*
X198623154Y-100988777D01*
X198597517Y-101020017D01*
X198566277Y-101045654D01*
X198530638Y-101064704D01*
X198491968Y-101076435D01*
X198445612Y-101081000D01*
X197794388Y-101081000D01*
X197748032Y-101076435D01*
X197709362Y-101064704D01*
X197673723Y-101045654D01*
X197642483Y-101020017D01*
X197616846Y-100988777D01*
X197597796Y-100953138D01*
X197586065Y-100914468D01*
X197581500Y-100868112D01*
X197581500Y-99791888D01*
X197586065Y-99745532D01*
X197597796Y-99706862D01*
X197616846Y-99671223D01*
X197642483Y-99639983D01*
X197673723Y-99614346D01*
X197709362Y-99595296D01*
X197748032Y-99583565D01*
X197794388Y-99579000D01*
X198445612Y-99579000D01*
X198491968Y-99583565D01*
G37*
G36*
X196616968Y-99583565D02*
G01*
X196655638Y-99595296D01*
X196691277Y-99614346D01*
X196722517Y-99639983D01*
X196748154Y-99671223D01*
X196767204Y-99706862D01*
X196778935Y-99745532D01*
X196783500Y-99791888D01*
X196783500Y-100868112D01*
X196778935Y-100914468D01*
X196767204Y-100953138D01*
X196748154Y-100988777D01*
X196722517Y-101020017D01*
X196691277Y-101045654D01*
X196655638Y-101064704D01*
X196616968Y-101076435D01*
X196570612Y-101081000D01*
X195919388Y-101081000D01*
X195873032Y-101076435D01*
X195834362Y-101064704D01*
X195798723Y-101045654D01*
X195767483Y-101020017D01*
X195741846Y-100988777D01*
X195722796Y-100953138D01*
X195711065Y-100914468D01*
X195706500Y-100868112D01*
X195706500Y-99791888D01*
X195711065Y-99745532D01*
X195722796Y-99706862D01*
X195741846Y-99671223D01*
X195767483Y-99639983D01*
X195798723Y-99614346D01*
X195834362Y-99595296D01*
X195873032Y-99583565D01*
X195919388Y-99579000D01*
X196570612Y-99579000D01*
X196616968Y-99583565D01*
G37*
G36*
X143246968Y-99583565D02*
G01*
X143285638Y-99595296D01*
X143321277Y-99614346D01*
X143352517Y-99639983D01*
X143378154Y-99671223D01*
X143397204Y-99706862D01*
X143408935Y-99745532D01*
X143413500Y-99791888D01*
X143413500Y-100868112D01*
X143408935Y-100914468D01*
X143397204Y-100953138D01*
X143378154Y-100988777D01*
X143352517Y-101020017D01*
X143321277Y-101045654D01*
X143285638Y-101064704D01*
X143246968Y-101076435D01*
X143200612Y-101081000D01*
X142549388Y-101081000D01*
X142503032Y-101076435D01*
X142464362Y-101064704D01*
X142428723Y-101045654D01*
X142397483Y-101020017D01*
X142371846Y-100988777D01*
X142352796Y-100953138D01*
X142341065Y-100914468D01*
X142336500Y-100868112D01*
X142336500Y-99791888D01*
X142341065Y-99745532D01*
X142352796Y-99706862D01*
X142371846Y-99671223D01*
X142397483Y-99639983D01*
X142428723Y-99614346D01*
X142464362Y-99595296D01*
X142503032Y-99583565D01*
X142549388Y-99579000D01*
X143200612Y-99579000D01*
X143246968Y-99583565D01*
G37*
G36*
X193079468Y-99583565D02*
G01*
X193118138Y-99595296D01*
X193153777Y-99614346D01*
X193185017Y-99639983D01*
X193210654Y-99671223D01*
X193229704Y-99706862D01*
X193241435Y-99745532D01*
X193246000Y-99791888D01*
X193246000Y-100868112D01*
X193241435Y-100914468D01*
X193229704Y-100953138D01*
X193210654Y-100988777D01*
X193185017Y-101020017D01*
X193153777Y-101045654D01*
X193118138Y-101064704D01*
X193079468Y-101076435D01*
X193033112Y-101081000D01*
X192381888Y-101081000D01*
X192335532Y-101076435D01*
X192296862Y-101064704D01*
X192261223Y-101045654D01*
X192229983Y-101020017D01*
X192204346Y-100988777D01*
X192185296Y-100953138D01*
X192173565Y-100914468D01*
X192169000Y-100868112D01*
X192169000Y-99791888D01*
X192173565Y-99745532D01*
X192185296Y-99706862D01*
X192204346Y-99671223D01*
X192229983Y-99639983D01*
X192261223Y-99614346D01*
X192296862Y-99595296D01*
X192335532Y-99583565D01*
X192381888Y-99579000D01*
X193033112Y-99579000D01*
X193079468Y-99583565D01*
G37*
G36*
X173091968Y-99583565D02*
G01*
X173130638Y-99595296D01*
X173166277Y-99614346D01*
X173197517Y-99639983D01*
X173223154Y-99671223D01*
X173242204Y-99706862D01*
X173253935Y-99745532D01*
X173258500Y-99791888D01*
X173258500Y-100868112D01*
X173253935Y-100914468D01*
X173242204Y-100953138D01*
X173223154Y-100988777D01*
X173197517Y-101020017D01*
X173166277Y-101045654D01*
X173130638Y-101064704D01*
X173091968Y-101076435D01*
X173045612Y-101081000D01*
X172394388Y-101081000D01*
X172348032Y-101076435D01*
X172309362Y-101064704D01*
X172273723Y-101045654D01*
X172242483Y-101020017D01*
X172216846Y-100988777D01*
X172197796Y-100953138D01*
X172186065Y-100914468D01*
X172181500Y-100868112D01*
X172181500Y-99791888D01*
X172186065Y-99745532D01*
X172197796Y-99706862D01*
X172216846Y-99671223D01*
X172242483Y-99639983D01*
X172273723Y-99614346D01*
X172309362Y-99595296D01*
X172348032Y-99583565D01*
X172394388Y-99579000D01*
X173045612Y-99579000D01*
X173091968Y-99583565D01*
G37*
G36*
X177234468Y-99583565D02*
G01*
X177273138Y-99595296D01*
X177308777Y-99614346D01*
X177340017Y-99639983D01*
X177365654Y-99671223D01*
X177384704Y-99706862D01*
X177396435Y-99745532D01*
X177401000Y-99791888D01*
X177401000Y-100868112D01*
X177396435Y-100914468D01*
X177384704Y-100953138D01*
X177365654Y-100988777D01*
X177340017Y-101020017D01*
X177308777Y-101045654D01*
X177273138Y-101064704D01*
X177234468Y-101076435D01*
X177188112Y-101081000D01*
X176536888Y-101081000D01*
X176490532Y-101076435D01*
X176451862Y-101064704D01*
X176416223Y-101045654D01*
X176384983Y-101020017D01*
X176359346Y-100988777D01*
X176340296Y-100953138D01*
X176328565Y-100914468D01*
X176324000Y-100868112D01*
X176324000Y-99791888D01*
X176328565Y-99745532D01*
X176340296Y-99706862D01*
X176359346Y-99671223D01*
X176384983Y-99639983D01*
X176416223Y-99614346D01*
X176451862Y-99595296D01*
X176490532Y-99583565D01*
X176536888Y-99579000D01*
X177188112Y-99579000D01*
X177234468Y-99583565D01*
G37*
G36*
X179109468Y-99583565D02*
G01*
X179148138Y-99595296D01*
X179183777Y-99614346D01*
X179215017Y-99639983D01*
X179240654Y-99671223D01*
X179259704Y-99706862D01*
X179271435Y-99745532D01*
X179276000Y-99791888D01*
X179276000Y-100868112D01*
X179271435Y-100914468D01*
X179259704Y-100953138D01*
X179240654Y-100988777D01*
X179215017Y-101020017D01*
X179183777Y-101045654D01*
X179148138Y-101064704D01*
X179109468Y-101076435D01*
X179063112Y-101081000D01*
X178411888Y-101081000D01*
X178365532Y-101076435D01*
X178326862Y-101064704D01*
X178291223Y-101045654D01*
X178259983Y-101020017D01*
X178234346Y-100988777D01*
X178215296Y-100953138D01*
X178203565Y-100914468D01*
X178199000Y-100868112D01*
X178199000Y-99791888D01*
X178203565Y-99745532D01*
X178215296Y-99706862D01*
X178234346Y-99671223D01*
X178259983Y-99639983D01*
X178291223Y-99614346D01*
X178326862Y-99595296D01*
X178365532Y-99583565D01*
X178411888Y-99579000D01*
X179063112Y-99579000D01*
X179109468Y-99583565D01*
G37*
G36*
X141371968Y-97043565D02*
G01*
X141410638Y-97055296D01*
X141446277Y-97074346D01*
X141477517Y-97099983D01*
X141503154Y-97131223D01*
X141522204Y-97166862D01*
X141533935Y-97205532D01*
X141538500Y-97251888D01*
X141538500Y-98328112D01*
X141533935Y-98374468D01*
X141522204Y-98413138D01*
X141503154Y-98448777D01*
X141477517Y-98480017D01*
X141446277Y-98505654D01*
X141410638Y-98524704D01*
X141371968Y-98536435D01*
X141325612Y-98541000D01*
X140674388Y-98541000D01*
X140628032Y-98536435D01*
X140589362Y-98524704D01*
X140553723Y-98505654D01*
X140522483Y-98480017D01*
X140496846Y-98448777D01*
X140477796Y-98413138D01*
X140466065Y-98374468D01*
X140461500Y-98328112D01*
X140461500Y-97251888D01*
X140466065Y-97205532D01*
X140477796Y-97166862D01*
X140496846Y-97131223D01*
X140522483Y-97099983D01*
X140553723Y-97074346D01*
X140589362Y-97055296D01*
X140628032Y-97043565D01*
X140674388Y-97039000D01*
X141325612Y-97039000D01*
X141371968Y-97043565D01*
G37*
G36*
X157216968Y-97043565D02*
G01*
X157255638Y-97055296D01*
X157291277Y-97074346D01*
X157322517Y-97099983D01*
X157348154Y-97131223D01*
X157367204Y-97166862D01*
X157378935Y-97205532D01*
X157383500Y-97251888D01*
X157383500Y-98328112D01*
X157378935Y-98374468D01*
X157367204Y-98413138D01*
X157348154Y-98448777D01*
X157322517Y-98480017D01*
X157291277Y-98505654D01*
X157255638Y-98524704D01*
X157216968Y-98536435D01*
X157170612Y-98541000D01*
X156519388Y-98541000D01*
X156473032Y-98536435D01*
X156434362Y-98524704D01*
X156398723Y-98505654D01*
X156367483Y-98480017D01*
X156341846Y-98448777D01*
X156322796Y-98413138D01*
X156311065Y-98374468D01*
X156306500Y-98328112D01*
X156306500Y-97251888D01*
X156311065Y-97205532D01*
X156322796Y-97166862D01*
X156341846Y-97131223D01*
X156367483Y-97099983D01*
X156398723Y-97074346D01*
X156434362Y-97055296D01*
X156473032Y-97043565D01*
X156519388Y-97039000D01*
X157170612Y-97039000D01*
X157216968Y-97043565D01*
G37*
G36*
X171186968Y-97043565D02*
G01*
X171225638Y-97055296D01*
X171261277Y-97074346D01*
X171292517Y-97099983D01*
X171318154Y-97131223D01*
X171337204Y-97166862D01*
X171348935Y-97205532D01*
X171353500Y-97251888D01*
X171353500Y-98328112D01*
X171348935Y-98374468D01*
X171337204Y-98413138D01*
X171318154Y-98448777D01*
X171292517Y-98480017D01*
X171261277Y-98505654D01*
X171225638Y-98524704D01*
X171186968Y-98536435D01*
X171140612Y-98541000D01*
X170489388Y-98541000D01*
X170443032Y-98536435D01*
X170404362Y-98524704D01*
X170368723Y-98505654D01*
X170337483Y-98480017D01*
X170311846Y-98448777D01*
X170292796Y-98413138D01*
X170281065Y-98374468D01*
X170276500Y-98328112D01*
X170276500Y-97251888D01*
X170281065Y-97205532D01*
X170292796Y-97166862D01*
X170311846Y-97131223D01*
X170337483Y-97099983D01*
X170368723Y-97074346D01*
X170404362Y-97055296D01*
X170443032Y-97043565D01*
X170489388Y-97039000D01*
X171140612Y-97039000D01*
X171186968Y-97043565D01*
G37*
G36*
X169311968Y-97043565D02*
G01*
X169350638Y-97055296D01*
X169386277Y-97074346D01*
X169417517Y-97099983D01*
X169443154Y-97131223D01*
X169462204Y-97166862D01*
X169473935Y-97205532D01*
X169478500Y-97251888D01*
X169478500Y-98328112D01*
X169473935Y-98374468D01*
X169462204Y-98413138D01*
X169443154Y-98448777D01*
X169417517Y-98480017D01*
X169386277Y-98505654D01*
X169350638Y-98524704D01*
X169311968Y-98536435D01*
X169265612Y-98541000D01*
X168614388Y-98541000D01*
X168568032Y-98536435D01*
X168529362Y-98524704D01*
X168493723Y-98505654D01*
X168462483Y-98480017D01*
X168436846Y-98448777D01*
X168417796Y-98413138D01*
X168406065Y-98374468D01*
X168401500Y-98328112D01*
X168401500Y-97251888D01*
X168406065Y-97205532D01*
X168417796Y-97166862D01*
X168436846Y-97131223D01*
X168462483Y-97099983D01*
X168493723Y-97074346D01*
X168529362Y-97055296D01*
X168568032Y-97043565D01*
X168614388Y-97039000D01*
X169265612Y-97039000D01*
X169311968Y-97043565D01*
G37*
G36*
X155341968Y-97043565D02*
G01*
X155380638Y-97055296D01*
X155416277Y-97074346D01*
X155447517Y-97099983D01*
X155473154Y-97131223D01*
X155492204Y-97166862D01*
X155503935Y-97205532D01*
X155508500Y-97251888D01*
X155508500Y-98328112D01*
X155503935Y-98374468D01*
X155492204Y-98413138D01*
X155473154Y-98448777D01*
X155447517Y-98480017D01*
X155416277Y-98505654D01*
X155380638Y-98524704D01*
X155341968Y-98536435D01*
X155295612Y-98541000D01*
X154644388Y-98541000D01*
X154598032Y-98536435D01*
X154559362Y-98524704D01*
X154523723Y-98505654D01*
X154492483Y-98480017D01*
X154466846Y-98448777D01*
X154447796Y-98413138D01*
X154436065Y-98374468D01*
X154431500Y-98328112D01*
X154431500Y-97251888D01*
X154436065Y-97205532D01*
X154447796Y-97166862D01*
X154466846Y-97131223D01*
X154492483Y-97099983D01*
X154523723Y-97074346D01*
X154559362Y-97055296D01*
X154598032Y-97043565D01*
X154644388Y-97039000D01*
X155295612Y-97039000D01*
X155341968Y-97043565D01*
G37*
G36*
X183281968Y-97043565D02*
G01*
X183320638Y-97055296D01*
X183356277Y-97074346D01*
X183387517Y-97099983D01*
X183413154Y-97131223D01*
X183432204Y-97166862D01*
X183443935Y-97205532D01*
X183448500Y-97251888D01*
X183448500Y-98328112D01*
X183443935Y-98374468D01*
X183432204Y-98413138D01*
X183413154Y-98448777D01*
X183387517Y-98480017D01*
X183356277Y-98505654D01*
X183320638Y-98524704D01*
X183281968Y-98536435D01*
X183235612Y-98541000D01*
X182584388Y-98541000D01*
X182538032Y-98536435D01*
X182499362Y-98524704D01*
X182463723Y-98505654D01*
X182432483Y-98480017D01*
X182406846Y-98448777D01*
X182387796Y-98413138D01*
X182376065Y-98374468D01*
X182371500Y-98328112D01*
X182371500Y-97251888D01*
X182376065Y-97205532D01*
X182387796Y-97166862D01*
X182406846Y-97131223D01*
X182432483Y-97099983D01*
X182463723Y-97074346D01*
X182499362Y-97055296D01*
X182538032Y-97043565D01*
X182584388Y-97039000D01*
X183235612Y-97039000D01*
X183281968Y-97043565D01*
G37*
G36*
X198491968Y-97043565D02*
G01*
X198530638Y-97055296D01*
X198566277Y-97074346D01*
X198597517Y-97099983D01*
X198623154Y-97131223D01*
X198642204Y-97166862D01*
X198653935Y-97205532D01*
X198658500Y-97251888D01*
X198658500Y-98328112D01*
X198653935Y-98374468D01*
X198642204Y-98413138D01*
X198623154Y-98448777D01*
X198597517Y-98480017D01*
X198566277Y-98505654D01*
X198530638Y-98524704D01*
X198491968Y-98536435D01*
X198445612Y-98541000D01*
X197794388Y-98541000D01*
X197748032Y-98536435D01*
X197709362Y-98524704D01*
X197673723Y-98505654D01*
X197642483Y-98480017D01*
X197616846Y-98448777D01*
X197597796Y-98413138D01*
X197586065Y-98374468D01*
X197581500Y-98328112D01*
X197581500Y-97251888D01*
X197586065Y-97205532D01*
X197597796Y-97166862D01*
X197616846Y-97131223D01*
X197642483Y-97099983D01*
X197673723Y-97074346D01*
X197709362Y-97055296D01*
X197748032Y-97043565D01*
X197794388Y-97039000D01*
X198445612Y-97039000D01*
X198491968Y-97043565D01*
G37*
G36*
X185156968Y-97043565D02*
G01*
X185195638Y-97055296D01*
X185231277Y-97074346D01*
X185262517Y-97099983D01*
X185288154Y-97131223D01*
X185307204Y-97166862D01*
X185318935Y-97205532D01*
X185323500Y-97251888D01*
X185323500Y-98328112D01*
X185318935Y-98374468D01*
X185307204Y-98413138D01*
X185288154Y-98448777D01*
X185262517Y-98480017D01*
X185231277Y-98505654D01*
X185195638Y-98524704D01*
X185156968Y-98536435D01*
X185110612Y-98541000D01*
X184459388Y-98541000D01*
X184413032Y-98536435D01*
X184374362Y-98524704D01*
X184338723Y-98505654D01*
X184307483Y-98480017D01*
X184281846Y-98448777D01*
X184262796Y-98413138D01*
X184251065Y-98374468D01*
X184246500Y-98328112D01*
X184246500Y-97251888D01*
X184251065Y-97205532D01*
X184262796Y-97166862D01*
X184281846Y-97131223D01*
X184307483Y-97099983D01*
X184338723Y-97074346D01*
X184374362Y-97055296D01*
X184413032Y-97043565D01*
X184459388Y-97039000D01*
X185110612Y-97039000D01*
X185156968Y-97043565D01*
G37*
G36*
X196616968Y-97043565D02*
G01*
X196655638Y-97055296D01*
X196691277Y-97074346D01*
X196722517Y-97099983D01*
X196748154Y-97131223D01*
X196767204Y-97166862D01*
X196778935Y-97205532D01*
X196783500Y-97251888D01*
X196783500Y-98328112D01*
X196778935Y-98374468D01*
X196767204Y-98413138D01*
X196748154Y-98448777D01*
X196722517Y-98480017D01*
X196691277Y-98505654D01*
X196655638Y-98524704D01*
X196616968Y-98536435D01*
X196570612Y-98541000D01*
X195919388Y-98541000D01*
X195873032Y-98536435D01*
X195834362Y-98524704D01*
X195798723Y-98505654D01*
X195767483Y-98480017D01*
X195741846Y-98448777D01*
X195722796Y-98413138D01*
X195711065Y-98374468D01*
X195706500Y-98328112D01*
X195706500Y-97251888D01*
X195711065Y-97205532D01*
X195722796Y-97166862D01*
X195741846Y-97131223D01*
X195767483Y-97099983D01*
X195798723Y-97074346D01*
X195834362Y-97055296D01*
X195873032Y-97043565D01*
X195919388Y-97039000D01*
X196570612Y-97039000D01*
X196616968Y-97043565D01*
G37*
G36*
X143246968Y-97043565D02*
G01*
X143285638Y-97055296D01*
X143321277Y-97074346D01*
X143352517Y-97099983D01*
X143378154Y-97131223D01*
X143397204Y-97166862D01*
X143408935Y-97205532D01*
X143413500Y-97251888D01*
X143413500Y-98328112D01*
X143408935Y-98374468D01*
X143397204Y-98413138D01*
X143378154Y-98448777D01*
X143352517Y-98480017D01*
X143321277Y-98505654D01*
X143285638Y-98524704D01*
X143246968Y-98536435D01*
X143200612Y-98541000D01*
X142549388Y-98541000D01*
X142503032Y-98536435D01*
X142464362Y-98524704D01*
X142428723Y-98505654D01*
X142397483Y-98480017D01*
X142371846Y-98448777D01*
X142352796Y-98413138D01*
X142341065Y-98374468D01*
X142336500Y-98328112D01*
X142336500Y-97251888D01*
X142341065Y-97205532D01*
X142352796Y-97166862D01*
X142371846Y-97131223D01*
X142397483Y-97099983D01*
X142428723Y-97074346D01*
X142464362Y-97055296D01*
X142503032Y-97043565D01*
X142549388Y-97039000D01*
X143200612Y-97039000D01*
X143246968Y-97043565D01*
G37*
G36*
X108267394Y-93815934D02*
G01*
X108418624Y-93878576D01*
X108418626Y-93878577D01*
X108554732Y-93969520D01*
X108670480Y-94085268D01*
X108761423Y-94221374D01*
X108761424Y-94221376D01*
X108824066Y-94372606D01*
X108856000Y-94533152D01*
X108856000Y-94696848D01*
X108824066Y-94857394D01*
X108761424Y-95008624D01*
X108761423Y-95008626D01*
X108670480Y-95144732D01*
X108554732Y-95260480D01*
X108418626Y-95351423D01*
X108418625Y-95351424D01*
X108418624Y-95351424D01*
X108267394Y-95414066D01*
X108106848Y-95446000D01*
X107943152Y-95446000D01*
X107782606Y-95414066D01*
X107631376Y-95351424D01*
X107631375Y-95351424D01*
X107631374Y-95351423D01*
X107495268Y-95260480D01*
X107379520Y-95144732D01*
X107288577Y-95008626D01*
X107288576Y-95008624D01*
X107225934Y-94857394D01*
X107194000Y-94696848D01*
X107194000Y-94533152D01*
X107225934Y-94372606D01*
X107288576Y-94221376D01*
X107288577Y-94221374D01*
X107379520Y-94085268D01*
X107495268Y-93969520D01*
X107631374Y-93878577D01*
X107631376Y-93878576D01*
X107782606Y-93815934D01*
X107943152Y-93784000D01*
X108106848Y-93784000D01*
X108267394Y-93815934D01*
G37*
G36*
X103187394Y-93815934D02*
G01*
X103338624Y-93878576D01*
X103338626Y-93878577D01*
X103474732Y-93969520D01*
X103590480Y-94085268D01*
X103681423Y-94221374D01*
X103681424Y-94221376D01*
X103744066Y-94372606D01*
X103776000Y-94533152D01*
X103776000Y-94696848D01*
X103744066Y-94857394D01*
X103681424Y-95008624D01*
X103681423Y-95008626D01*
X103590480Y-95144732D01*
X103474732Y-95260480D01*
X103338626Y-95351423D01*
X103338625Y-95351424D01*
X103338624Y-95351424D01*
X103187394Y-95414066D01*
X103026848Y-95446000D01*
X102863152Y-95446000D01*
X102702606Y-95414066D01*
X102551376Y-95351424D01*
X102551375Y-95351424D01*
X102551374Y-95351423D01*
X102415268Y-95260480D01*
X102299520Y-95144732D01*
X102208577Y-95008626D01*
X102208576Y-95008624D01*
X102145934Y-94857394D01*
X102114000Y-94696848D01*
X102114000Y-94533152D01*
X102145934Y-94372606D01*
X102208576Y-94221376D01*
X102208577Y-94221374D01*
X102299520Y-94085268D01*
X102415268Y-93969520D01*
X102551374Y-93878577D01*
X102551376Y-93878576D01*
X102702606Y-93815934D01*
X102863152Y-93784000D01*
X103026848Y-93784000D01*
X103187394Y-93815934D01*
G37*
G36*
X105727394Y-93815934D02*
G01*
X105878624Y-93878576D01*
X105878626Y-93878577D01*
X106014732Y-93969520D01*
X106130480Y-94085268D01*
X106221423Y-94221374D01*
X106221424Y-94221376D01*
X106284066Y-94372606D01*
X106316000Y-94533152D01*
X106316000Y-94696848D01*
X106284066Y-94857394D01*
X106221424Y-95008624D01*
X106221423Y-95008626D01*
X106130480Y-95144732D01*
X106014732Y-95260480D01*
X105878626Y-95351423D01*
X105878625Y-95351424D01*
X105878624Y-95351424D01*
X105727394Y-95414066D01*
X105566848Y-95446000D01*
X105403152Y-95446000D01*
X105242606Y-95414066D01*
X105091376Y-95351424D01*
X105091375Y-95351424D01*
X105091374Y-95351423D01*
X104955268Y-95260480D01*
X104839520Y-95144732D01*
X104748577Y-95008626D01*
X104748576Y-95008624D01*
X104685934Y-94857394D01*
X104654000Y-94696848D01*
X104654000Y-94533152D01*
X104685934Y-94372606D01*
X104748576Y-94221376D01*
X104748577Y-94221374D01*
X104839520Y-94085268D01*
X104955268Y-93969520D01*
X105091374Y-93878577D01*
X105091376Y-93878576D01*
X105242606Y-93815934D01*
X105403152Y-93784000D01*
X105566848Y-93784000D01*
X105727394Y-93815934D01*
G37*
G36*
X110807394Y-93815934D02*
G01*
X110958624Y-93878576D01*
X110958626Y-93878577D01*
X111094732Y-93969520D01*
X111210480Y-94085268D01*
X111301423Y-94221374D01*
X111301424Y-94221376D01*
X111364066Y-94372606D01*
X111396000Y-94533152D01*
X111396000Y-94696848D01*
X111364066Y-94857394D01*
X111301424Y-95008624D01*
X111301423Y-95008626D01*
X111210480Y-95144732D01*
X111094732Y-95260480D01*
X110958626Y-95351423D01*
X110958625Y-95351424D01*
X110958624Y-95351424D01*
X110807394Y-95414066D01*
X110646848Y-95446000D01*
X110483152Y-95446000D01*
X110322606Y-95414066D01*
X110171376Y-95351424D01*
X110171375Y-95351424D01*
X110171374Y-95351423D01*
X110035268Y-95260480D01*
X109919520Y-95144732D01*
X109828577Y-95008626D01*
X109828576Y-95008624D01*
X109765934Y-94857394D01*
X109734000Y-94696848D01*
X109734000Y-94533152D01*
X109765934Y-94372606D01*
X109828576Y-94221376D01*
X109828577Y-94221374D01*
X109919520Y-94085268D01*
X110035268Y-93969520D01*
X110171374Y-93878577D01*
X110171376Y-93878576D01*
X110322606Y-93815934D01*
X110483152Y-93784000D01*
X110646848Y-93784000D01*
X110807394Y-93815934D01*
G37*
G36*
X113347394Y-93815934D02*
G01*
X113498624Y-93878576D01*
X113498626Y-93878577D01*
X113634732Y-93969520D01*
X113750480Y-94085268D01*
X113841423Y-94221374D01*
X113841424Y-94221376D01*
X113904066Y-94372606D01*
X113936000Y-94533152D01*
X113936000Y-94696848D01*
X113904066Y-94857394D01*
X113841424Y-95008624D01*
X113841423Y-95008626D01*
X113750480Y-95144732D01*
X113634732Y-95260480D01*
X113498626Y-95351423D01*
X113498625Y-95351424D01*
X113498624Y-95351424D01*
X113347394Y-95414066D01*
X113186848Y-95446000D01*
X113023152Y-95446000D01*
X112862606Y-95414066D01*
X112711376Y-95351424D01*
X112711375Y-95351424D01*
X112711374Y-95351423D01*
X112575268Y-95260480D01*
X112459520Y-95144732D01*
X112368577Y-95008626D01*
X112368576Y-95008624D01*
X112305934Y-94857394D01*
X112274000Y-94696848D01*
X112274000Y-94533152D01*
X112305934Y-94372606D01*
X112368576Y-94221376D01*
X112368577Y-94221374D01*
X112459520Y-94085268D01*
X112575268Y-93969520D01*
X112711374Y-93878577D01*
X112711376Y-93878576D01*
X112862606Y-93815934D01*
X113023152Y-93784000D01*
X113186848Y-93784000D01*
X113347394Y-93815934D01*
G37*
G36*
X115887394Y-93815934D02*
G01*
X116038624Y-93878576D01*
X116038626Y-93878577D01*
X116174732Y-93969520D01*
X116290480Y-94085268D01*
X116381423Y-94221374D01*
X116381424Y-94221376D01*
X116444066Y-94372606D01*
X116476000Y-94533152D01*
X116476000Y-94696848D01*
X116444066Y-94857394D01*
X116381424Y-95008624D01*
X116381423Y-95008626D01*
X116290480Y-95144732D01*
X116174732Y-95260480D01*
X116038626Y-95351423D01*
X116038625Y-95351424D01*
X116038624Y-95351424D01*
X115887394Y-95414066D01*
X115726848Y-95446000D01*
X115563152Y-95446000D01*
X115402606Y-95414066D01*
X115251376Y-95351424D01*
X115251375Y-95351424D01*
X115251374Y-95351423D01*
X115115268Y-95260480D01*
X114999520Y-95144732D01*
X114908577Y-95008626D01*
X114908576Y-95008624D01*
X114845934Y-94857394D01*
X114814000Y-94696848D01*
X114814000Y-94533152D01*
X114845934Y-94372606D01*
X114908576Y-94221376D01*
X114908577Y-94221374D01*
X114999520Y-94085268D01*
X115115268Y-93969520D01*
X115251374Y-93878577D01*
X115251376Y-93878576D01*
X115402606Y-93815934D01*
X115563152Y-93784000D01*
X115726848Y-93784000D01*
X115887394Y-93815934D01*
G37*
G36*
X118427394Y-93815934D02*
G01*
X118578624Y-93878576D01*
X118578626Y-93878577D01*
X118714732Y-93969520D01*
X118830480Y-94085268D01*
X118921423Y-94221374D01*
X118921424Y-94221376D01*
X118984066Y-94372606D01*
X119016000Y-94533152D01*
X119016000Y-94696848D01*
X118984066Y-94857394D01*
X118921424Y-95008624D01*
X118921423Y-95008626D01*
X118830480Y-95144732D01*
X118714732Y-95260480D01*
X118578626Y-95351423D01*
X118578625Y-95351424D01*
X118578624Y-95351424D01*
X118427394Y-95414066D01*
X118266848Y-95446000D01*
X118103152Y-95446000D01*
X117942606Y-95414066D01*
X117791376Y-95351424D01*
X117791375Y-95351424D01*
X117791374Y-95351423D01*
X117655268Y-95260480D01*
X117539520Y-95144732D01*
X117448577Y-95008626D01*
X117448576Y-95008624D01*
X117385934Y-94857394D01*
X117354000Y-94696848D01*
X117354000Y-94533152D01*
X117385934Y-94372606D01*
X117448576Y-94221376D01*
X117448577Y-94221374D01*
X117539520Y-94085268D01*
X117655268Y-93969520D01*
X117791374Y-93878577D01*
X117791376Y-93878576D01*
X117942606Y-93815934D01*
X118103152Y-93784000D01*
X118266848Y-93784000D01*
X118427394Y-93815934D01*
G37*
G36*
X123507394Y-93815934D02*
G01*
X123658624Y-93878576D01*
X123658626Y-93878577D01*
X123794732Y-93969520D01*
X123910480Y-94085268D01*
X124001423Y-94221374D01*
X124001424Y-94221376D01*
X124064066Y-94372606D01*
X124096000Y-94533152D01*
X124096000Y-94696848D01*
X124064066Y-94857394D01*
X124001424Y-95008624D01*
X124001423Y-95008626D01*
X123910480Y-95144732D01*
X123794732Y-95260480D01*
X123658626Y-95351423D01*
X123658625Y-95351424D01*
X123658624Y-95351424D01*
X123507394Y-95414066D01*
X123346848Y-95446000D01*
X123183152Y-95446000D01*
X123022606Y-95414066D01*
X122871376Y-95351424D01*
X122871375Y-95351424D01*
X122871374Y-95351423D01*
X122735268Y-95260480D01*
X122619520Y-95144732D01*
X122528577Y-95008626D01*
X122528576Y-95008624D01*
X122465934Y-94857394D01*
X122434000Y-94696848D01*
X122434000Y-94533152D01*
X122465934Y-94372606D01*
X122528576Y-94221376D01*
X122528577Y-94221374D01*
X122619520Y-94085268D01*
X122735268Y-93969520D01*
X122871374Y-93878577D01*
X122871376Y-93878576D01*
X123022606Y-93815934D01*
X123183152Y-93784000D01*
X123346848Y-93784000D01*
X123507394Y-93815934D01*
G37*
G36*
X126047394Y-93815934D02*
G01*
X126198624Y-93878576D01*
X126198626Y-93878577D01*
X126334732Y-93969520D01*
X126450480Y-94085268D01*
X126541423Y-94221374D01*
X126541424Y-94221376D01*
X126604066Y-94372606D01*
X126636000Y-94533152D01*
X126636000Y-94696848D01*
X126604066Y-94857394D01*
X126541424Y-95008624D01*
X126541423Y-95008626D01*
X126450480Y-95144732D01*
X126334732Y-95260480D01*
X126198626Y-95351423D01*
X126198625Y-95351424D01*
X126198624Y-95351424D01*
X126047394Y-95414066D01*
X125886848Y-95446000D01*
X125723152Y-95446000D01*
X125562606Y-95414066D01*
X125411376Y-95351424D01*
X125411375Y-95351424D01*
X125411374Y-95351423D01*
X125275268Y-95260480D01*
X125159520Y-95144732D01*
X125068577Y-95008626D01*
X125068576Y-95008624D01*
X125005934Y-94857394D01*
X124974000Y-94696848D01*
X124974000Y-94533152D01*
X125005934Y-94372606D01*
X125068576Y-94221376D01*
X125068577Y-94221374D01*
X125159520Y-94085268D01*
X125275268Y-93969520D01*
X125411374Y-93878577D01*
X125411376Y-93878576D01*
X125562606Y-93815934D01*
X125723152Y-93784000D01*
X125886848Y-93784000D01*
X126047394Y-93815934D01*
G37*
G36*
X131716000Y-95446000D02*
G01*
X130054000Y-95446000D01*
X130054000Y-93784000D01*
X131716000Y-93784000D01*
X131716000Y-95446000D01*
G37*
G36*
X85407394Y-93815934D02*
G01*
X85558624Y-93878576D01*
X85558626Y-93878577D01*
X85694732Y-93969520D01*
X85810480Y-94085268D01*
X85901423Y-94221374D01*
X85901424Y-94221376D01*
X85964066Y-94372606D01*
X85996000Y-94533152D01*
X85996000Y-94696848D01*
X85964066Y-94857394D01*
X85901424Y-95008624D01*
X85901423Y-95008626D01*
X85810480Y-95144732D01*
X85694732Y-95260480D01*
X85558626Y-95351423D01*
X85558625Y-95351424D01*
X85558624Y-95351424D01*
X85407394Y-95414066D01*
X85246848Y-95446000D01*
X85083152Y-95446000D01*
X84922606Y-95414066D01*
X84771376Y-95351424D01*
X84771375Y-95351424D01*
X84771374Y-95351423D01*
X84635268Y-95260480D01*
X84519520Y-95144732D01*
X84428577Y-95008626D01*
X84428576Y-95008624D01*
X84365934Y-94857394D01*
X84334000Y-94696848D01*
X84334000Y-94533152D01*
X84365934Y-94372606D01*
X84428576Y-94221376D01*
X84428577Y-94221374D01*
X84519520Y-94085268D01*
X84635268Y-93969520D01*
X84771374Y-93878577D01*
X84771376Y-93878576D01*
X84922606Y-93815934D01*
X85083152Y-93784000D01*
X85246848Y-93784000D01*
X85407394Y-93815934D01*
G37*
G36*
X87947394Y-93815934D02*
G01*
X88098624Y-93878576D01*
X88098626Y-93878577D01*
X88234732Y-93969520D01*
X88350480Y-94085268D01*
X88441423Y-94221374D01*
X88441424Y-94221376D01*
X88504066Y-94372606D01*
X88536000Y-94533152D01*
X88536000Y-94696848D01*
X88504066Y-94857394D01*
X88441424Y-95008624D01*
X88441423Y-95008626D01*
X88350480Y-95144732D01*
X88234732Y-95260480D01*
X88098626Y-95351423D01*
X88098625Y-95351424D01*
X88098624Y-95351424D01*
X87947394Y-95414066D01*
X87786848Y-95446000D01*
X87623152Y-95446000D01*
X87462606Y-95414066D01*
X87311376Y-95351424D01*
X87311375Y-95351424D01*
X87311374Y-95351423D01*
X87175268Y-95260480D01*
X87059520Y-95144732D01*
X86968577Y-95008626D01*
X86968576Y-95008624D01*
X86905934Y-94857394D01*
X86874000Y-94696848D01*
X86874000Y-94533152D01*
X86905934Y-94372606D01*
X86968576Y-94221376D01*
X86968577Y-94221374D01*
X87059520Y-94085268D01*
X87175268Y-93969520D01*
X87311374Y-93878577D01*
X87311376Y-93878576D01*
X87462606Y-93815934D01*
X87623152Y-93784000D01*
X87786848Y-93784000D01*
X87947394Y-93815934D01*
G37*
G36*
X93027394Y-93815934D02*
G01*
X93178624Y-93878576D01*
X93178626Y-93878577D01*
X93314732Y-93969520D01*
X93430480Y-94085268D01*
X93521423Y-94221374D01*
X93521424Y-94221376D01*
X93584066Y-94372606D01*
X93616000Y-94533152D01*
X93616000Y-94696848D01*
X93584066Y-94857394D01*
X93521424Y-95008624D01*
X93521423Y-95008626D01*
X93430480Y-95144732D01*
X93314732Y-95260480D01*
X93178626Y-95351423D01*
X93178625Y-95351424D01*
X93178624Y-95351424D01*
X93027394Y-95414066D01*
X92866848Y-95446000D01*
X92703152Y-95446000D01*
X92542606Y-95414066D01*
X92391376Y-95351424D01*
X92391375Y-95351424D01*
X92391374Y-95351423D01*
X92255268Y-95260480D01*
X92139520Y-95144732D01*
X92048577Y-95008626D01*
X92048576Y-95008624D01*
X91985934Y-94857394D01*
X91954000Y-94696848D01*
X91954000Y-94533152D01*
X91985934Y-94372606D01*
X92048576Y-94221376D01*
X92048577Y-94221374D01*
X92139520Y-94085268D01*
X92255268Y-93969520D01*
X92391374Y-93878577D01*
X92391376Y-93878576D01*
X92542606Y-93815934D01*
X92703152Y-93784000D01*
X92866848Y-93784000D01*
X93027394Y-93815934D01*
G37*
G36*
X95567394Y-93815934D02*
G01*
X95718624Y-93878576D01*
X95718626Y-93878577D01*
X95854732Y-93969520D01*
X95970480Y-94085268D01*
X96061423Y-94221374D01*
X96061424Y-94221376D01*
X96124066Y-94372606D01*
X96156000Y-94533152D01*
X96156000Y-94696848D01*
X96124066Y-94857394D01*
X96061424Y-95008624D01*
X96061423Y-95008626D01*
X95970480Y-95144732D01*
X95854732Y-95260480D01*
X95718626Y-95351423D01*
X95718625Y-95351424D01*
X95718624Y-95351424D01*
X95567394Y-95414066D01*
X95406848Y-95446000D01*
X95243152Y-95446000D01*
X95082606Y-95414066D01*
X94931376Y-95351424D01*
X94931375Y-95351424D01*
X94931374Y-95351423D01*
X94795268Y-95260480D01*
X94679520Y-95144732D01*
X94588577Y-95008626D01*
X94588576Y-95008624D01*
X94525934Y-94857394D01*
X94494000Y-94696848D01*
X94494000Y-94533152D01*
X94525934Y-94372606D01*
X94588576Y-94221376D01*
X94588577Y-94221374D01*
X94679520Y-94085268D01*
X94795268Y-93969520D01*
X94931374Y-93878577D01*
X94931376Y-93878576D01*
X95082606Y-93815934D01*
X95243152Y-93784000D01*
X95406848Y-93784000D01*
X95567394Y-93815934D01*
G37*
G36*
X98107394Y-93815934D02*
G01*
X98258624Y-93878576D01*
X98258626Y-93878577D01*
X98394732Y-93969520D01*
X98510480Y-94085268D01*
X98601423Y-94221374D01*
X98601424Y-94221376D01*
X98664066Y-94372606D01*
X98696000Y-94533152D01*
X98696000Y-94696848D01*
X98664066Y-94857394D01*
X98601424Y-95008624D01*
X98601423Y-95008626D01*
X98510480Y-95144732D01*
X98394732Y-95260480D01*
X98258626Y-95351423D01*
X98258625Y-95351424D01*
X98258624Y-95351424D01*
X98107394Y-95414066D01*
X97946848Y-95446000D01*
X97783152Y-95446000D01*
X97622606Y-95414066D01*
X97471376Y-95351424D01*
X97471375Y-95351424D01*
X97471374Y-95351423D01*
X97335268Y-95260480D01*
X97219520Y-95144732D01*
X97128577Y-95008626D01*
X97128576Y-95008624D01*
X97065934Y-94857394D01*
X97034000Y-94696848D01*
X97034000Y-94533152D01*
X97065934Y-94372606D01*
X97128576Y-94221376D01*
X97128577Y-94221374D01*
X97219520Y-94085268D01*
X97335268Y-93969520D01*
X97471374Y-93878577D01*
X97471376Y-93878576D01*
X97622606Y-93815934D01*
X97783152Y-93784000D01*
X97946848Y-93784000D01*
X98107394Y-93815934D01*
G37*
G36*
X100647394Y-93815934D02*
G01*
X100798624Y-93878576D01*
X100798626Y-93878577D01*
X100934732Y-93969520D01*
X101050480Y-94085268D01*
X101141423Y-94221374D01*
X101141424Y-94221376D01*
X101204066Y-94372606D01*
X101236000Y-94533152D01*
X101236000Y-94696848D01*
X101204066Y-94857394D01*
X101141424Y-95008624D01*
X101141423Y-95008626D01*
X101050480Y-95144732D01*
X100934732Y-95260480D01*
X100798626Y-95351423D01*
X100798625Y-95351424D01*
X100798624Y-95351424D01*
X100647394Y-95414066D01*
X100486848Y-95446000D01*
X100323152Y-95446000D01*
X100162606Y-95414066D01*
X100011376Y-95351424D01*
X100011375Y-95351424D01*
X100011374Y-95351423D01*
X99875268Y-95260480D01*
X99759520Y-95144732D01*
X99668577Y-95008626D01*
X99668576Y-95008624D01*
X99605934Y-94857394D01*
X99574000Y-94696848D01*
X99574000Y-94533152D01*
X99605934Y-94372606D01*
X99668576Y-94221376D01*
X99668577Y-94221374D01*
X99759520Y-94085268D01*
X99875268Y-93969520D01*
X100011374Y-93878577D01*
X100011376Y-93878576D01*
X100162606Y-93815934D01*
X100323152Y-93784000D01*
X100486848Y-93784000D01*
X100647394Y-93815934D01*
G37*
G36*
X120967394Y-93815934D02*
G01*
X121118624Y-93878576D01*
X121118626Y-93878577D01*
X121254732Y-93969520D01*
X121370480Y-94085268D01*
X121461423Y-94221374D01*
X121461424Y-94221376D01*
X121524066Y-94372606D01*
X121556000Y-94533152D01*
X121556000Y-94696848D01*
X121524066Y-94857394D01*
X121461424Y-95008624D01*
X121461423Y-95008626D01*
X121370480Y-95144732D01*
X121254732Y-95260480D01*
X121118626Y-95351423D01*
X121118625Y-95351424D01*
X121118624Y-95351424D01*
X120967394Y-95414066D01*
X120806848Y-95446000D01*
X120643152Y-95446000D01*
X120482606Y-95414066D01*
X120331376Y-95351424D01*
X120331375Y-95351424D01*
X120331374Y-95351423D01*
X120195268Y-95260480D01*
X120079520Y-95144732D01*
X119988577Y-95008626D01*
X119988576Y-95008624D01*
X119925934Y-94857394D01*
X119894000Y-94696848D01*
X119894000Y-94533152D01*
X119925934Y-94372606D01*
X119988576Y-94221376D01*
X119988577Y-94221374D01*
X120079520Y-94085268D01*
X120195268Y-93969520D01*
X120331374Y-93878577D01*
X120331376Y-93878576D01*
X120482606Y-93815934D01*
X120643152Y-93784000D01*
X120806848Y-93784000D01*
X120967394Y-93815934D01*
G37*
G36*
X90487394Y-93815934D02*
G01*
X90638624Y-93878576D01*
X90638626Y-93878577D01*
X90774732Y-93969520D01*
X90890480Y-94085268D01*
X90981423Y-94221374D01*
X90981424Y-94221376D01*
X91044066Y-94372606D01*
X91076000Y-94533152D01*
X91076000Y-94696848D01*
X91044066Y-94857394D01*
X90981424Y-95008624D01*
X90981423Y-95008626D01*
X90890480Y-95144732D01*
X90774732Y-95260480D01*
X90638626Y-95351423D01*
X90638625Y-95351424D01*
X90638624Y-95351424D01*
X90487394Y-95414066D01*
X90326848Y-95446000D01*
X90163152Y-95446000D01*
X90002606Y-95414066D01*
X89851376Y-95351424D01*
X89851375Y-95351424D01*
X89851374Y-95351423D01*
X89715268Y-95260480D01*
X89599520Y-95144732D01*
X89508577Y-95008626D01*
X89508576Y-95008624D01*
X89445934Y-94857394D01*
X89414000Y-94696848D01*
X89414000Y-94533152D01*
X89445934Y-94372606D01*
X89508576Y-94221376D01*
X89508577Y-94221374D01*
X89599520Y-94085268D01*
X89715268Y-93969520D01*
X89851374Y-93878577D01*
X89851376Y-93878576D01*
X90002606Y-93815934D01*
X90163152Y-93784000D01*
X90326848Y-93784000D01*
X90487394Y-93815934D01*
G37*
G36*
X128587394Y-93815934D02*
G01*
X128738624Y-93878576D01*
X128738626Y-93878577D01*
X128874732Y-93969520D01*
X128990480Y-94085268D01*
X129081423Y-94221374D01*
X129081424Y-94221376D01*
X129144066Y-94372606D01*
X129176000Y-94533152D01*
X129176000Y-94696848D01*
X129144066Y-94857394D01*
X129081424Y-95008624D01*
X129081423Y-95008626D01*
X128990480Y-95144732D01*
X128874732Y-95260480D01*
X128738626Y-95351423D01*
X128738625Y-95351424D01*
X128738624Y-95351424D01*
X128587394Y-95414066D01*
X128426848Y-95446000D01*
X128263152Y-95446000D01*
X128102606Y-95414066D01*
X127951376Y-95351424D01*
X127951375Y-95351424D01*
X127951374Y-95351423D01*
X127815268Y-95260480D01*
X127699520Y-95144732D01*
X127608577Y-95008626D01*
X127608576Y-95008624D01*
X127545934Y-94857394D01*
X127514000Y-94696848D01*
X127514000Y-94533152D01*
X127545934Y-94372606D01*
X127608576Y-94221376D01*
X127608577Y-94221374D01*
X127699520Y-94085268D01*
X127815268Y-93969520D01*
X127951374Y-93878577D01*
X127951376Y-93878576D01*
X128102606Y-93815934D01*
X128263152Y-93784000D01*
X128426848Y-93784000D01*
X128587394Y-93815934D01*
G37*
G36*
X116205000Y-92710000D02*
G01*
X99060000Y-92710000D01*
X99060000Y-81915000D01*
X116205000Y-81915000D01*
X116205000Y-92710000D01*
G37*
G36*
X90754468Y-89606065D02*
G01*
X90793138Y-89617796D01*
X90828777Y-89636846D01*
X90860017Y-89662483D01*
X90885654Y-89693723D01*
X90904704Y-89729362D01*
X90916435Y-89768032D01*
X90921000Y-89814388D01*
X90921000Y-90465612D01*
X90916435Y-90511968D01*
X90904704Y-90550638D01*
X90885654Y-90586277D01*
X90860017Y-90617517D01*
X90828777Y-90643154D01*
X90793138Y-90662204D01*
X90754468Y-90673935D01*
X90708112Y-90678500D01*
X89631888Y-90678500D01*
X89585532Y-90673935D01*
X89546862Y-90662204D01*
X89511223Y-90643154D01*
X89479983Y-90617517D01*
X89454346Y-90586277D01*
X89435296Y-90550638D01*
X89423565Y-90511968D01*
X89419000Y-90465612D01*
X89419000Y-89814388D01*
X89423565Y-89768032D01*
X89435296Y-89729362D01*
X89454346Y-89693723D01*
X89479983Y-89662483D01*
X89511223Y-89636846D01*
X89546862Y-89617796D01*
X89585532Y-89606065D01*
X89631888Y-89601500D01*
X90708112Y-89601500D01*
X90754468Y-89606065D01*
G37*
G36*
X96009716Y-88534250D02*
G01*
X96129220Y-88546020D01*
X96318381Y-88603401D01*
X96492712Y-88696583D01*
X96645515Y-88821985D01*
X96770917Y-88974788D01*
X96864099Y-89149119D01*
X96921480Y-89338280D01*
X96940855Y-89535000D01*
X96921480Y-89731720D01*
X96864099Y-89920881D01*
X96770917Y-90095212D01*
X96645515Y-90248015D01*
X96492712Y-90373417D01*
X96425673Y-90409250D01*
X96327401Y-90461778D01*
X96318381Y-90466599D01*
X96129220Y-90523980D01*
X96030936Y-90533660D01*
X95981795Y-90538500D01*
X95788205Y-90538500D01*
X95739064Y-90533660D01*
X95640780Y-90523980D01*
X95451619Y-90466599D01*
X95442600Y-90461778D01*
X95344327Y-90409250D01*
X95277288Y-90373417D01*
X95124485Y-90248015D01*
X94999083Y-90095212D01*
X94905901Y-89920881D01*
X94848520Y-89731720D01*
X94829145Y-89535000D01*
X94848520Y-89338280D01*
X94905901Y-89149119D01*
X94999083Y-88974788D01*
X95124485Y-88821985D01*
X95277288Y-88696583D01*
X95451619Y-88603401D01*
X95640780Y-88546020D01*
X95760284Y-88534250D01*
X95788205Y-88531500D01*
X95981795Y-88531500D01*
X96009716Y-88534250D01*
G37*
G36*
X86473512Y-87368927D02*
G01*
X86622812Y-87398624D01*
X86786784Y-87466544D01*
X86934354Y-87565147D01*
X87059853Y-87690646D01*
X87158456Y-87838216D01*
X87226376Y-88002188D01*
X87261000Y-88176259D01*
X87261000Y-88353741D01*
X87226376Y-88527812D01*
X87158456Y-88691784D01*
X87059853Y-88839354D01*
X86934354Y-88964853D01*
X86786784Y-89063456D01*
X86622812Y-89131376D01*
X86473512Y-89161073D01*
X86448742Y-89166000D01*
X86271258Y-89166000D01*
X86246488Y-89161073D01*
X86097188Y-89131376D01*
X85933216Y-89063456D01*
X85785646Y-88964853D01*
X85660147Y-88839354D01*
X85561544Y-88691784D01*
X85493624Y-88527812D01*
X85459000Y-88353741D01*
X85459000Y-88176259D01*
X85493624Y-88002188D01*
X85561544Y-87838216D01*
X85660147Y-87690646D01*
X85785646Y-87565147D01*
X85933216Y-87466544D01*
X86097188Y-87398624D01*
X86246488Y-87368927D01*
X86271258Y-87364000D01*
X86448742Y-87364000D01*
X86473512Y-87368927D01*
G37*
G36*
X90754468Y-87731065D02*
G01*
X90793138Y-87742796D01*
X90828777Y-87761846D01*
X90860017Y-87787483D01*
X90885654Y-87818723D01*
X90904704Y-87854362D01*
X90916435Y-87893032D01*
X90921000Y-87939388D01*
X90921000Y-88590612D01*
X90916435Y-88636968D01*
X90904704Y-88675638D01*
X90885654Y-88711277D01*
X90860017Y-88742517D01*
X90828777Y-88768154D01*
X90793138Y-88787204D01*
X90754468Y-88798935D01*
X90708112Y-88803500D01*
X89631888Y-88803500D01*
X89585532Y-88798935D01*
X89546862Y-88787204D01*
X89511223Y-88768154D01*
X89479983Y-88742517D01*
X89454346Y-88711277D01*
X89435296Y-88675638D01*
X89423565Y-88636968D01*
X89419000Y-88590612D01*
X89419000Y-87939388D01*
X89423565Y-87893032D01*
X89435296Y-87854362D01*
X89454346Y-87818723D01*
X89479983Y-87787483D01*
X89511223Y-87761846D01*
X89546862Y-87742796D01*
X89585532Y-87731065D01*
X89631888Y-87726500D01*
X90708112Y-87726500D01*
X90754468Y-87731065D01*
G37*
G36*
X96030936Y-85996340D02*
G01*
X96129220Y-86006020D01*
X96318381Y-86063401D01*
X96492712Y-86156583D01*
X96645515Y-86281985D01*
X96770917Y-86434788D01*
X96864099Y-86609119D01*
X96921480Y-86798280D01*
X96940855Y-86995000D01*
X96921480Y-87191720D01*
X96864099Y-87380881D01*
X96770917Y-87555212D01*
X96645515Y-87708015D01*
X96492712Y-87833417D01*
X96318381Y-87926599D01*
X96129220Y-87983980D01*
X96030936Y-87993660D01*
X95981795Y-87998500D01*
X95788205Y-87998500D01*
X95739064Y-87993660D01*
X95640780Y-87983980D01*
X95451619Y-87926599D01*
X95277288Y-87833417D01*
X95124485Y-87708015D01*
X94999083Y-87555212D01*
X94905901Y-87380881D01*
X94848520Y-87191720D01*
X94829145Y-86995000D01*
X94848520Y-86798280D01*
X94905901Y-86609119D01*
X94999083Y-86434788D01*
X95124485Y-86281985D01*
X95277288Y-86156583D01*
X95451619Y-86063401D01*
X95640780Y-86006020D01*
X95739064Y-85996340D01*
X95788205Y-85991500D01*
X95981795Y-85991500D01*
X96030936Y-85996340D01*
G37*
G36*
X90754468Y-85699065D02*
G01*
X90793138Y-85710796D01*
X90828777Y-85729846D01*
X90860017Y-85755483D01*
X90885654Y-85786723D01*
X90904704Y-85822362D01*
X90916435Y-85861032D01*
X90921000Y-85907388D01*
X90921000Y-86558612D01*
X90916435Y-86604968D01*
X90904704Y-86643638D01*
X90885654Y-86679277D01*
X90860017Y-86710517D01*
X90828777Y-86736154D01*
X90793138Y-86755204D01*
X90754468Y-86766935D01*
X90708112Y-86771500D01*
X89631888Y-86771500D01*
X89585532Y-86766935D01*
X89546862Y-86755204D01*
X89511223Y-86736154D01*
X89479983Y-86710517D01*
X89454346Y-86679277D01*
X89435296Y-86643638D01*
X89423565Y-86604968D01*
X89419000Y-86558612D01*
X89419000Y-85907388D01*
X89423565Y-85861032D01*
X89435296Y-85822362D01*
X89454346Y-85786723D01*
X89479983Y-85755483D01*
X89511223Y-85729846D01*
X89546862Y-85710796D01*
X89585532Y-85699065D01*
X89631888Y-85694500D01*
X90708112Y-85694500D01*
X90754468Y-85699065D01*
G37*
G36*
X87261000Y-86626000D02*
G01*
X85459000Y-86626000D01*
X85459000Y-84824000D01*
X87261000Y-84824000D01*
X87261000Y-86626000D01*
G37*
G36*
X96936000Y-85458500D02*
G01*
X94834000Y-85458500D01*
X94834000Y-83451500D01*
X96936000Y-83451500D01*
X96936000Y-85458500D01*
G37*
G36*
X90754468Y-83824065D02*
G01*
X90793138Y-83835796D01*
X90828777Y-83854846D01*
X90860017Y-83880483D01*
X90885654Y-83911723D01*
X90904704Y-83947362D01*
X90916435Y-83986032D01*
X90921000Y-84032388D01*
X90921000Y-84683612D01*
X90916435Y-84729968D01*
X90904704Y-84768638D01*
X90885654Y-84804277D01*
X90860017Y-84835517D01*
X90828777Y-84861154D01*
X90793138Y-84880204D01*
X90754468Y-84891935D01*
X90708112Y-84896500D01*
X89631888Y-84896500D01*
X89585532Y-84891935D01*
X89546862Y-84880204D01*
X89511223Y-84861154D01*
X89479983Y-84835517D01*
X89454346Y-84804277D01*
X89435296Y-84768638D01*
X89423565Y-84729968D01*
X89419000Y-84683612D01*
X89419000Y-84032388D01*
X89423565Y-83986032D01*
X89435296Y-83947362D01*
X89454346Y-83911723D01*
X89479983Y-83880483D01*
X89511223Y-83854846D01*
X89546862Y-83835796D01*
X89585532Y-83824065D01*
X89631888Y-83819500D01*
X90708112Y-83819500D01*
X90754468Y-83824065D01*
G37*
G36*
X176008512Y-82923927D02*
G01*
X176157812Y-82953624D01*
X176321784Y-83021544D01*
X176469354Y-83120147D01*
X176594853Y-83245646D01*
X176693456Y-83393216D01*
X176761376Y-83557188D01*
X176796000Y-83731259D01*
X176796000Y-83908741D01*
X176761376Y-84082812D01*
X176693456Y-84246784D01*
X176594853Y-84394354D01*
X176469354Y-84519853D01*
X176321784Y-84618456D01*
X176157812Y-84686376D01*
X176008512Y-84716073D01*
X175983742Y-84721000D01*
X175806258Y-84721000D01*
X175781488Y-84716073D01*
X175632188Y-84686376D01*
X175468216Y-84618456D01*
X175320646Y-84519853D01*
X175195147Y-84394354D01*
X175096544Y-84246784D01*
X175028624Y-84082812D01*
X174994000Y-83908741D01*
X174994000Y-83731259D01*
X175028624Y-83557188D01*
X175096544Y-83393216D01*
X175195147Y-83245646D01*
X175320646Y-83120147D01*
X175468216Y-83021544D01*
X175632188Y-82953624D01*
X175781488Y-82923927D01*
X175806258Y-82919000D01*
X175983742Y-82919000D01*
X176008512Y-82923927D01*
G37*
G36*
X166636000Y-84721000D02*
G01*
X164834000Y-84721000D01*
X164834000Y-82919000D01*
X166636000Y-82919000D01*
X166636000Y-84721000D01*
G37*
G36*
X168388512Y-82923927D02*
G01*
X168537812Y-82953624D01*
X168701784Y-83021544D01*
X168849354Y-83120147D01*
X168974853Y-83245646D01*
X169073456Y-83393216D01*
X169141376Y-83557188D01*
X169176000Y-83731259D01*
X169176000Y-83908741D01*
X169141376Y-84082812D01*
X169073456Y-84246784D01*
X168974853Y-84394354D01*
X168849354Y-84519853D01*
X168701784Y-84618456D01*
X168537812Y-84686376D01*
X168388512Y-84716073D01*
X168363742Y-84721000D01*
X168186258Y-84721000D01*
X168161488Y-84716073D01*
X168012188Y-84686376D01*
X167848216Y-84618456D01*
X167700646Y-84519853D01*
X167575147Y-84394354D01*
X167476544Y-84246784D01*
X167408624Y-84082812D01*
X167374000Y-83908741D01*
X167374000Y-83731259D01*
X167408624Y-83557188D01*
X167476544Y-83393216D01*
X167575147Y-83245646D01*
X167700646Y-83120147D01*
X167848216Y-83021544D01*
X168012188Y-82953624D01*
X168161488Y-82923927D01*
X168186258Y-82919000D01*
X168363742Y-82919000D01*
X168388512Y-82923927D01*
G37*
G36*
X170928512Y-82923927D02*
G01*
X171077812Y-82953624D01*
X171241784Y-83021544D01*
X171389354Y-83120147D01*
X171514853Y-83245646D01*
X171613456Y-83393216D01*
X171681376Y-83557188D01*
X171716000Y-83731259D01*
X171716000Y-83908741D01*
X171681376Y-84082812D01*
X171613456Y-84246784D01*
X171514853Y-84394354D01*
X171389354Y-84519853D01*
X171241784Y-84618456D01*
X171077812Y-84686376D01*
X170928512Y-84716073D01*
X170903742Y-84721000D01*
X170726258Y-84721000D01*
X170701488Y-84716073D01*
X170552188Y-84686376D01*
X170388216Y-84618456D01*
X170240646Y-84519853D01*
X170115147Y-84394354D01*
X170016544Y-84246784D01*
X169948624Y-84082812D01*
X169914000Y-83908741D01*
X169914000Y-83731259D01*
X169948624Y-83557188D01*
X170016544Y-83393216D01*
X170115147Y-83245646D01*
X170240646Y-83120147D01*
X170388216Y-83021544D01*
X170552188Y-82953624D01*
X170701488Y-82923927D01*
X170726258Y-82919000D01*
X170903742Y-82919000D01*
X170928512Y-82923927D01*
G37*
G36*
X173468512Y-82923927D02*
G01*
X173617812Y-82953624D01*
X173781784Y-83021544D01*
X173929354Y-83120147D01*
X174054853Y-83245646D01*
X174153456Y-83393216D01*
X174221376Y-83557188D01*
X174256000Y-83731259D01*
X174256000Y-83908741D01*
X174221376Y-84082812D01*
X174153456Y-84246784D01*
X174054853Y-84394354D01*
X173929354Y-84519853D01*
X173781784Y-84618456D01*
X173617812Y-84686376D01*
X173468512Y-84716073D01*
X173443742Y-84721000D01*
X173266258Y-84721000D01*
X173241488Y-84716073D01*
X173092188Y-84686376D01*
X172928216Y-84618456D01*
X172780646Y-84519853D01*
X172655147Y-84394354D01*
X172556544Y-84246784D01*
X172488624Y-84082812D01*
X172454000Y-83908741D01*
X172454000Y-83731259D01*
X172488624Y-83557188D01*
X172556544Y-83393216D01*
X172655147Y-83245646D01*
X172780646Y-83120147D01*
X172928216Y-83021544D01*
X173092188Y-82953624D01*
X173241488Y-82923927D01*
X173266258Y-82919000D01*
X173443742Y-82919000D01*
X173468512Y-82923927D01*
G37*
G36*
X178548512Y-82923927D02*
G01*
X178697812Y-82953624D01*
X178861784Y-83021544D01*
X179009354Y-83120147D01*
X179134853Y-83245646D01*
X179233456Y-83393216D01*
X179301376Y-83557188D01*
X179336000Y-83731259D01*
X179336000Y-83908741D01*
X179301376Y-84082812D01*
X179233456Y-84246784D01*
X179134853Y-84394354D01*
X179009354Y-84519853D01*
X178861784Y-84618456D01*
X178697812Y-84686376D01*
X178548512Y-84716073D01*
X178523742Y-84721000D01*
X178346258Y-84721000D01*
X178321488Y-84716073D01*
X178172188Y-84686376D01*
X178008216Y-84618456D01*
X177860646Y-84519853D01*
X177735147Y-84394354D01*
X177636544Y-84246784D01*
X177568624Y-84082812D01*
X177534000Y-83908741D01*
X177534000Y-83731259D01*
X177568624Y-83557188D01*
X177636544Y-83393216D01*
X177735147Y-83245646D01*
X177860646Y-83120147D01*
X178008216Y-83021544D01*
X178172188Y-82953624D01*
X178321488Y-82923927D01*
X178346258Y-82919000D01*
X178523742Y-82919000D01*
X178548512Y-82923927D01*
G37*
G36*
X209852585Y-78488802D02*
G01*
X210002410Y-78518604D01*
X210284674Y-78635521D01*
X210538705Y-78805259D01*
X210754741Y-79021295D01*
X210924479Y-79275326D01*
X211041396Y-79557590D01*
X211101000Y-79857240D01*
X211101000Y-80162760D01*
X211041396Y-80462410D01*
X210924479Y-80744674D01*
X210754741Y-80998705D01*
X210538705Y-81214741D01*
X210284674Y-81384479D01*
X210002410Y-81501396D01*
X209852585Y-81531198D01*
X209702761Y-81561000D01*
X209397239Y-81561000D01*
X209247415Y-81531198D01*
X209097590Y-81501396D01*
X208815326Y-81384479D01*
X208561295Y-81214741D01*
X208345259Y-80998705D01*
X208175521Y-80744674D01*
X208058604Y-80462410D01*
X207999000Y-80162760D01*
X207999000Y-79857240D01*
X208058604Y-79557590D01*
X208175521Y-79275326D01*
X208345259Y-79021295D01*
X208561295Y-78805259D01*
X208815326Y-78635521D01*
X209097590Y-78518604D01*
X209247415Y-78488802D01*
X209397239Y-78459000D01*
X209702761Y-78459000D01*
X209852585Y-78488802D01*
G37*
G36*
X82852585Y-78488802D02*
G01*
X83002410Y-78518604D01*
X83284674Y-78635521D01*
X83538705Y-78805259D01*
X83754741Y-79021295D01*
X83924479Y-79275326D01*
X84041396Y-79557590D01*
X84101000Y-79857240D01*
X84101000Y-80162760D01*
X84041396Y-80462410D01*
X83924479Y-80744674D01*
X83754741Y-80998705D01*
X83538705Y-81214741D01*
X83284674Y-81384479D01*
X83002410Y-81501396D01*
X82852585Y-81531198D01*
X82702761Y-81561000D01*
X82397239Y-81561000D01*
X82247415Y-81531198D01*
X82097590Y-81501396D01*
X81815326Y-81384479D01*
X81561295Y-81214741D01*
X81345259Y-80998705D01*
X81175521Y-80744674D01*
X81058604Y-80462410D01*
X80999000Y-80162760D01*
X80999000Y-79857240D01*
X81058604Y-79557590D01*
X81175521Y-79275326D01*
X81345259Y-79021295D01*
X81561295Y-78805259D01*
X81815326Y-78635521D01*
X82097590Y-78518604D01*
X82247415Y-78488802D01*
X82397239Y-78459000D01*
X82702761Y-78459000D01*
X82852585Y-78488802D01*
G37*
M02*
