M48
METRIC
T1C0.400
T2C1.000
T3C1.040
T4C1.100
%
G90
G05
T1
X107.95Y-105.41
X110.49Y-108.585
X111.76Y-112.395
X115.57Y-112.935
X120.65Y-114.935
X123.19Y-114.935
X140.97Y-117.385
X142.24Y-116.205
X143.891Y-105.41
X145.415Y-120.015
X146.05Y-98.425
X147.32Y-92.075
X147.32Y-109.093
X153.035Y-112.935
X154.94Y-114.935
X157.607Y-105.791
X161.036Y-98.425
X161.29Y-108.966
X162.306Y-92.075
X168.275Y-113.665
X170.18Y-118.11
X171.831Y-106.426
X172.72Y-98.425
X175.26Y-108.331
X175.66Y-92.729
X181.61Y-113.03
X185.674Y-105.918
X186.72Y-97.82
X189.103Y-92.202
X189.103Y-109.22
X189.865Y-114.935
X194.945Y-113.03
X198.12Y-114.935
X199.898Y-106.68
X200.025Y-97.79
X203.073Y-92.329
X203.073Y-109.347
T2
X165.735Y-83.82
X168.275Y-83.82
X170.815Y-83.82
X173.355Y-83.82
X175.895Y-83.82
X178.435Y-83.82
X165.1Y-120.015
X167.64Y-120.015
X170.18Y-120.015
X172.72Y-120.015
X175.26Y-120.015
X177.8Y-120.015
X180.34Y-120.015
X182.88Y-120.015
X86.36Y-85.725
X86.36Y-88.265
T3
X85.165Y-94.615
X85.165Y-120.015
X87.705Y-94.615
X87.705Y-120.015
X90.245Y-94.615
X90.245Y-120.015
X92.785Y-94.615
X92.785Y-120.015
X95.325Y-94.615
X95.325Y-120.015
X97.865Y-94.615
X97.865Y-120.015
X100.405Y-94.615
X100.405Y-120.015
X102.945Y-94.615
X102.945Y-120.015
X105.485Y-94.615
X105.485Y-120.015
X108.025Y-94.615
X108.025Y-120.015
X110.565Y-94.615
X110.565Y-120.015
X113.105Y-94.615
X113.105Y-120.015
X115.645Y-94.615
X115.645Y-120.015
X118.185Y-94.615
X118.185Y-120.015
X120.725Y-94.615
X120.725Y-120.015
X123.265Y-94.615
X123.265Y-120.015
X125.805Y-94.615
X125.805Y-120.015
X128.345Y-94.615
X128.345Y-120.015
X130.885Y-94.615
X130.885Y-120.015
T4
X95.885Y-84.455
X95.885Y-86.995
X95.885Y-89.535
T0
M30
