G04 #@! TF.GenerationSoftware,KiCad,Pcbnew,(5.1.5)-3*
G04 #@! TF.CreationDate,2020-08-13T10:07:37-04:00*
G04 #@! TF.ProjectId,WifiAntSwitch,57696669-416e-4745-9377-697463682e6b,A*
G04 #@! TF.SameCoordinates,Original*
G04 #@! TF.FileFunction,Copper,L2,Bot*
G04 #@! TF.FilePolarity,Positive*
%FSLAX46Y46*%
G04 Gerber Fmt 4.6, Leading zero omitted, Abs format (unit mm)*
G04 Created by KiCad (PCBNEW (5.1.5)-3) date 2020-08-13 10:07:37*
%MOMM*%
%LPD*%
G04 APERTURE LIST*
%ADD10C,1.560000*%
%ADD11R,1.560000X1.560000*%
%ADD12O,1.700000X1.700000*%
%ADD13R,1.700000X1.700000*%
%ADD14O,2.000000X1.905000*%
%ADD15R,2.000000X1.905000*%
%ADD16C,0.800000*%
%ADD17C,0.250000*%
%ADD18C,0.254000*%
G04 APERTURE END LIST*
D10*
X85165000Y-120015000D03*
X87705000Y-120015000D03*
X90245000Y-120015000D03*
X92785000Y-120015000D03*
X95325000Y-120015000D03*
X97865000Y-120015000D03*
X100405000Y-120015000D03*
X102945000Y-120015000D03*
X105485000Y-120015000D03*
X108025000Y-120015000D03*
X110565000Y-120015000D03*
X113105000Y-120015000D03*
X115645000Y-120015000D03*
X118185000Y-120015000D03*
X120725000Y-120015000D03*
X123265000Y-120015000D03*
X125805000Y-120015000D03*
X128345000Y-120015000D03*
X130885000Y-120015000D03*
X87705000Y-94615000D03*
X90245000Y-94615000D03*
X92785000Y-94615000D03*
X95325000Y-94615000D03*
X97865000Y-94615000D03*
X100405000Y-94615000D03*
X102945000Y-94615000D03*
X105485000Y-94615000D03*
X108025000Y-94615000D03*
X110565000Y-94615000D03*
X113105000Y-94615000D03*
X115645000Y-94615000D03*
X118185000Y-94615000D03*
X120725000Y-94615000D03*
X123265000Y-94615000D03*
X125805000Y-94615000D03*
X85165000Y-94615000D03*
X128345000Y-94615000D03*
D11*
X130885000Y-94615000D03*
D12*
X86360000Y-88265000D03*
D13*
X86360000Y-85725000D03*
D14*
X95885000Y-89535000D03*
X95885000Y-86995000D03*
D15*
X95885000Y-84455000D03*
D12*
X182880000Y-120015000D03*
X180340000Y-120015000D03*
X177800000Y-120015000D03*
X175260000Y-120015000D03*
X172720000Y-120015000D03*
X170180000Y-120015000D03*
X167640000Y-120015000D03*
D13*
X165100000Y-120015000D03*
D12*
X178435000Y-83820000D03*
X175895000Y-83820000D03*
X173355000Y-83820000D03*
X170815000Y-83820000D03*
X168275000Y-83820000D03*
D13*
X165735000Y-83820000D03*
D16*
X143891000Y-105410000D03*
X146050000Y-98425000D03*
X161036000Y-98425000D03*
X157607000Y-105791000D03*
X171831000Y-106426000D03*
X172720000Y-98425000D03*
X186720000Y-97820000D03*
X200025000Y-97790000D03*
X185674000Y-105918000D03*
X199898000Y-106680000D03*
X145415000Y-120015000D03*
X147320000Y-109093000D03*
X147320000Y-92075000D03*
X161290000Y-108966000D03*
X162306000Y-92075000D03*
X175260000Y-108331000D03*
X175659999Y-92728999D03*
X189103000Y-109220000D03*
X189103000Y-92202000D03*
X203073000Y-109347000D03*
X203073000Y-92329000D03*
X120650000Y-114935000D03*
X123190000Y-114935000D03*
X140970000Y-117384990D03*
X142240000Y-116205000D03*
X154940000Y-114935000D03*
X115570000Y-112935021D03*
X153035000Y-112935021D03*
X170179982Y-118110000D03*
X168275000Y-113665000D03*
X111760000Y-112395000D03*
X189865000Y-114935000D03*
X181610000Y-113030000D03*
X110490000Y-108585000D03*
X198120000Y-114935000D03*
X194945000Y-113030000D03*
X107950000Y-105410000D03*
D17*
X85165000Y-94615000D02*
X85165000Y-94563000D01*
X147320000Y-109093000D02*
X147320000Y-92075000D01*
X161290000Y-108966000D02*
X161290000Y-100711000D01*
X161290000Y-100711000D02*
X162306000Y-99695000D01*
X162306000Y-99695000D02*
X162306000Y-92075000D01*
X175659999Y-107931001D02*
X175659999Y-92728999D01*
X175260000Y-108331000D02*
X175659999Y-107931001D01*
X189103000Y-109220000D02*
X189103000Y-92202000D01*
X203073000Y-109347000D02*
X203073000Y-92329000D01*
X120725000Y-120015000D02*
X120725000Y-115010000D01*
X120725000Y-115010000D02*
X120650000Y-114935000D01*
X123265000Y-120015000D02*
X123265000Y-115010000D01*
X123265000Y-115010000D02*
X123190000Y-114935000D01*
X180340000Y-120015000D02*
X177709990Y-117384990D01*
X177709990Y-117384990D02*
X140970000Y-117384990D01*
X129540000Y-116205000D02*
X142240000Y-116205000D01*
X128345000Y-120015000D02*
X128345000Y-117400000D01*
X128345000Y-117400000D02*
X129540000Y-116205000D01*
X125805000Y-120015000D02*
X125805000Y-118911914D01*
X125805000Y-118911914D02*
X125805000Y-118035000D01*
X125805000Y-118035000D02*
X128905000Y-114935000D01*
X128905000Y-114935000D02*
X154940000Y-114935000D01*
X116110021Y-112395000D02*
X115570000Y-112935021D01*
X151929294Y-112395000D02*
X116110021Y-112395000D01*
X153035000Y-112935021D02*
X152469315Y-112935021D01*
X152469315Y-112935021D02*
X151929294Y-112395000D01*
X169614297Y-118110000D02*
X170179982Y-118110000D01*
X118185000Y-120015000D02*
X120090000Y-121920000D01*
X120090000Y-121920000D02*
X140335000Y-121920000D01*
X144145000Y-118110000D02*
X169614297Y-118110000D01*
X140335000Y-121920000D02*
X144145000Y-118110000D01*
X112159999Y-112794999D02*
X111760000Y-112395000D01*
X168275000Y-113665000D02*
X113030000Y-113665000D01*
X113030000Y-113665000D02*
X112159999Y-112794999D01*
X183515000Y-122555000D02*
X189865000Y-116205000D01*
X189865000Y-116205000D02*
X189865000Y-114935000D01*
X114541914Y-122555000D02*
X183515000Y-122555000D01*
X113105000Y-120015000D02*
X113105000Y-121118086D01*
X113105000Y-121118086D02*
X114541914Y-122555000D01*
X113665000Y-111760000D02*
X110889999Y-108984999D01*
X181610000Y-113030000D02*
X180340000Y-111760000D01*
X110889999Y-108984999D02*
X110490000Y-108585000D01*
X180340000Y-111760000D02*
X113665000Y-111760000D01*
X110565000Y-121118086D02*
X112636914Y-123190000D01*
X110565000Y-120015000D02*
X110565000Y-121118086D01*
X112636914Y-123190000D02*
X189865000Y-123190000D01*
X189865000Y-123190000D02*
X198120000Y-114935000D01*
X194945000Y-113030000D02*
X185420000Y-113030000D01*
X109220000Y-105410000D02*
X107950000Y-105410000D01*
X114300000Y-110490000D02*
X109220000Y-105410000D01*
X183578500Y-111188500D02*
X182753000Y-110363000D01*
X185420000Y-113030000D02*
X183578500Y-111188500D01*
X183578500Y-111188500D02*
X183515000Y-111125000D01*
X182753000Y-110363000D02*
X182626000Y-110490000D01*
X115570000Y-110490000D02*
X115316000Y-110490000D01*
X182626000Y-110490000D02*
X115316000Y-110490000D01*
X115316000Y-110490000D02*
X114300000Y-110490000D01*
D18*
G36*
X207415000Y-80220279D02*
G01*
X207497047Y-80632756D01*
X207657988Y-81021302D01*
X207891637Y-81370983D01*
X208189017Y-81668363D01*
X208538698Y-81902012D01*
X208927244Y-82062953D01*
X209339721Y-82145000D01*
X209423000Y-82145000D01*
X209423000Y-122325000D01*
X209339721Y-122325000D01*
X208927244Y-122407047D01*
X208538698Y-122567988D01*
X208189017Y-122801637D01*
X207891637Y-123099017D01*
X207657988Y-123448698D01*
X207497047Y-123837244D01*
X207415000Y-124249721D01*
X207415000Y-124333000D01*
X84685000Y-124333000D01*
X84685000Y-124249721D01*
X84602953Y-123837244D01*
X84442012Y-123448698D01*
X84208363Y-123099017D01*
X83910983Y-122801637D01*
X83561302Y-122567988D01*
X83172756Y-122407047D01*
X82760279Y-122325000D01*
X82677000Y-122325000D01*
X82677000Y-119875635D01*
X83750000Y-119875635D01*
X83750000Y-120154365D01*
X83804377Y-120427740D01*
X83911043Y-120685254D01*
X84065897Y-120917010D01*
X84262990Y-121114103D01*
X84494746Y-121268957D01*
X84752260Y-121375623D01*
X85025635Y-121430000D01*
X85304365Y-121430000D01*
X85577740Y-121375623D01*
X85835254Y-121268957D01*
X86067010Y-121114103D01*
X86264103Y-120917010D01*
X86418957Y-120685254D01*
X86435000Y-120646523D01*
X86451043Y-120685254D01*
X86605897Y-120917010D01*
X86802990Y-121114103D01*
X87034746Y-121268957D01*
X87292260Y-121375623D01*
X87565635Y-121430000D01*
X87844365Y-121430000D01*
X88117740Y-121375623D01*
X88375254Y-121268957D01*
X88607010Y-121114103D01*
X88804103Y-120917010D01*
X88958957Y-120685254D01*
X88975000Y-120646523D01*
X88991043Y-120685254D01*
X89145897Y-120917010D01*
X89342990Y-121114103D01*
X89574746Y-121268957D01*
X89832260Y-121375623D01*
X90105635Y-121430000D01*
X90384365Y-121430000D01*
X90657740Y-121375623D01*
X90915254Y-121268957D01*
X91147010Y-121114103D01*
X91344103Y-120917010D01*
X91498957Y-120685254D01*
X91515000Y-120646523D01*
X91531043Y-120685254D01*
X91685897Y-120917010D01*
X91882990Y-121114103D01*
X92114746Y-121268957D01*
X92372260Y-121375623D01*
X92645635Y-121430000D01*
X92924365Y-121430000D01*
X93197740Y-121375623D01*
X93455254Y-121268957D01*
X93687010Y-121114103D01*
X93884103Y-120917010D01*
X94038957Y-120685254D01*
X94055000Y-120646523D01*
X94071043Y-120685254D01*
X94225897Y-120917010D01*
X94422990Y-121114103D01*
X94654746Y-121268957D01*
X94912260Y-121375623D01*
X95185635Y-121430000D01*
X95464365Y-121430000D01*
X95737740Y-121375623D01*
X95995254Y-121268957D01*
X96227010Y-121114103D01*
X96424103Y-120917010D01*
X96578957Y-120685254D01*
X96595000Y-120646523D01*
X96611043Y-120685254D01*
X96765897Y-120917010D01*
X96962990Y-121114103D01*
X97194746Y-121268957D01*
X97452260Y-121375623D01*
X97725635Y-121430000D01*
X98004365Y-121430000D01*
X98277740Y-121375623D01*
X98535254Y-121268957D01*
X98767010Y-121114103D01*
X98964103Y-120917010D01*
X99118957Y-120685254D01*
X99135000Y-120646523D01*
X99151043Y-120685254D01*
X99305897Y-120917010D01*
X99502990Y-121114103D01*
X99734746Y-121268957D01*
X99992260Y-121375623D01*
X100265635Y-121430000D01*
X100544365Y-121430000D01*
X100817740Y-121375623D01*
X101075254Y-121268957D01*
X101307010Y-121114103D01*
X101504103Y-120917010D01*
X101658957Y-120685254D01*
X101675000Y-120646523D01*
X101691043Y-120685254D01*
X101845897Y-120917010D01*
X102042990Y-121114103D01*
X102274746Y-121268957D01*
X102532260Y-121375623D01*
X102805635Y-121430000D01*
X103084365Y-121430000D01*
X103357740Y-121375623D01*
X103615254Y-121268957D01*
X103847010Y-121114103D01*
X104044103Y-120917010D01*
X104198957Y-120685254D01*
X104215000Y-120646523D01*
X104231043Y-120685254D01*
X104385897Y-120917010D01*
X104582990Y-121114103D01*
X104814746Y-121268957D01*
X105072260Y-121375623D01*
X105345635Y-121430000D01*
X105624365Y-121430000D01*
X105897740Y-121375623D01*
X106155254Y-121268957D01*
X106387010Y-121114103D01*
X106584103Y-120917010D01*
X106738957Y-120685254D01*
X106755000Y-120646523D01*
X106771043Y-120685254D01*
X106925897Y-120917010D01*
X107122990Y-121114103D01*
X107354746Y-121268957D01*
X107612260Y-121375623D01*
X107885635Y-121430000D01*
X108164365Y-121430000D01*
X108437740Y-121375623D01*
X108695254Y-121268957D01*
X108927010Y-121114103D01*
X109124103Y-120917010D01*
X109278957Y-120685254D01*
X109295000Y-120646523D01*
X109311043Y-120685254D01*
X109465897Y-120917010D01*
X109662990Y-121114103D01*
X109810649Y-121212766D01*
X109815998Y-121267071D01*
X109859454Y-121410332D01*
X109930026Y-121542362D01*
X110000106Y-121627754D01*
X110025000Y-121658087D01*
X110053998Y-121681885D01*
X112073115Y-123701003D01*
X112096913Y-123730001D01*
X112125911Y-123753799D01*
X112212637Y-123824974D01*
X112344667Y-123895546D01*
X112487928Y-123939003D01*
X112599581Y-123950000D01*
X112599591Y-123950000D01*
X112636914Y-123953676D01*
X112674237Y-123950000D01*
X189827678Y-123950000D01*
X189865000Y-123953676D01*
X189902322Y-123950000D01*
X189902333Y-123950000D01*
X190013986Y-123939003D01*
X190157247Y-123895546D01*
X190289276Y-123824974D01*
X190405001Y-123730001D01*
X190428804Y-123700997D01*
X198159802Y-115970000D01*
X198221939Y-115970000D01*
X198421898Y-115930226D01*
X198610256Y-115852205D01*
X198779774Y-115738937D01*
X198923937Y-115594774D01*
X199037205Y-115425256D01*
X199115226Y-115236898D01*
X199155000Y-115036939D01*
X199155000Y-114833061D01*
X199115226Y-114633102D01*
X199037205Y-114444744D01*
X198923937Y-114275226D01*
X198779774Y-114131063D01*
X198610256Y-114017795D01*
X198421898Y-113939774D01*
X198221939Y-113900000D01*
X198018061Y-113900000D01*
X197818102Y-113939774D01*
X197629744Y-114017795D01*
X197460226Y-114131063D01*
X197316063Y-114275226D01*
X197202795Y-114444744D01*
X197124774Y-114633102D01*
X197085000Y-114833061D01*
X197085000Y-114895198D01*
X189550199Y-122430000D01*
X184714801Y-122430000D01*
X190376004Y-116768798D01*
X190405001Y-116745001D01*
X190446484Y-116694454D01*
X190499974Y-116629277D01*
X190570546Y-116497247D01*
X190603150Y-116389764D01*
X190614003Y-116353986D01*
X190625000Y-116242333D01*
X190625000Y-116242324D01*
X190628676Y-116205001D01*
X190625000Y-116167678D01*
X190625000Y-115638711D01*
X190668937Y-115594774D01*
X190782205Y-115425256D01*
X190860226Y-115236898D01*
X190900000Y-115036939D01*
X190900000Y-114833061D01*
X190860226Y-114633102D01*
X190782205Y-114444744D01*
X190668937Y-114275226D01*
X190524774Y-114131063D01*
X190355256Y-114017795D01*
X190166898Y-113939774D01*
X189966939Y-113900000D01*
X189763061Y-113900000D01*
X189563102Y-113939774D01*
X189374744Y-114017795D01*
X189205226Y-114131063D01*
X189061063Y-114275226D01*
X188947795Y-114444744D01*
X188869774Y-114633102D01*
X188830000Y-114833061D01*
X188830000Y-115036939D01*
X188869774Y-115236898D01*
X188947795Y-115425256D01*
X189061063Y-115594774D01*
X189105000Y-115638711D01*
X189105000Y-115890198D01*
X183200199Y-121795000D01*
X141534801Y-121795000D01*
X144459802Y-118870000D01*
X163687662Y-118870000D01*
X163660498Y-118920820D01*
X163624188Y-119040518D01*
X163611928Y-119165000D01*
X163611928Y-120865000D01*
X163624188Y-120989482D01*
X163660498Y-121109180D01*
X163719463Y-121219494D01*
X163798815Y-121316185D01*
X163895506Y-121395537D01*
X164005820Y-121454502D01*
X164125518Y-121490812D01*
X164250000Y-121503072D01*
X165950000Y-121503072D01*
X166074482Y-121490812D01*
X166194180Y-121454502D01*
X166304494Y-121395537D01*
X166401185Y-121316185D01*
X166480537Y-121219494D01*
X166539502Y-121109180D01*
X166561513Y-121036620D01*
X166693368Y-121168475D01*
X166936589Y-121330990D01*
X167206842Y-121442932D01*
X167493740Y-121500000D01*
X167786260Y-121500000D01*
X168073158Y-121442932D01*
X168343411Y-121330990D01*
X168586632Y-121168475D01*
X168793475Y-120961632D01*
X168910000Y-120787240D01*
X169026525Y-120961632D01*
X169233368Y-121168475D01*
X169476589Y-121330990D01*
X169746842Y-121442932D01*
X170033740Y-121500000D01*
X170326260Y-121500000D01*
X170613158Y-121442932D01*
X170883411Y-121330990D01*
X171126632Y-121168475D01*
X171333475Y-120961632D01*
X171450000Y-120787240D01*
X171566525Y-120961632D01*
X171773368Y-121168475D01*
X172016589Y-121330990D01*
X172286842Y-121442932D01*
X172573740Y-121500000D01*
X172866260Y-121500000D01*
X173153158Y-121442932D01*
X173423411Y-121330990D01*
X173666632Y-121168475D01*
X173873475Y-120961632D01*
X173990000Y-120787240D01*
X174106525Y-120961632D01*
X174313368Y-121168475D01*
X174556589Y-121330990D01*
X174826842Y-121442932D01*
X175113740Y-121500000D01*
X175406260Y-121500000D01*
X175693158Y-121442932D01*
X175963411Y-121330990D01*
X176206632Y-121168475D01*
X176413475Y-120961632D01*
X176535195Y-120779466D01*
X176604822Y-120896355D01*
X176799731Y-121112588D01*
X177033080Y-121286641D01*
X177295901Y-121411825D01*
X177443110Y-121456476D01*
X177673000Y-121335155D01*
X177673000Y-120142000D01*
X177653000Y-120142000D01*
X177653000Y-119888000D01*
X177673000Y-119888000D01*
X177673000Y-119868000D01*
X177927000Y-119868000D01*
X177927000Y-119888000D01*
X177947000Y-119888000D01*
X177947000Y-120142000D01*
X177927000Y-120142000D01*
X177927000Y-121335155D01*
X178156890Y-121456476D01*
X178304099Y-121411825D01*
X178566920Y-121286641D01*
X178800269Y-121112588D01*
X178995178Y-120896355D01*
X179064805Y-120779466D01*
X179186525Y-120961632D01*
X179393368Y-121168475D01*
X179636589Y-121330990D01*
X179906842Y-121442932D01*
X180193740Y-121500000D01*
X180486260Y-121500000D01*
X180773158Y-121442932D01*
X181043411Y-121330990D01*
X181286632Y-121168475D01*
X181493475Y-120961632D01*
X181610000Y-120787240D01*
X181726525Y-120961632D01*
X181933368Y-121168475D01*
X182176589Y-121330990D01*
X182446842Y-121442932D01*
X182733740Y-121500000D01*
X183026260Y-121500000D01*
X183313158Y-121442932D01*
X183583411Y-121330990D01*
X183826632Y-121168475D01*
X184033475Y-120961632D01*
X184195990Y-120718411D01*
X184307932Y-120448158D01*
X184365000Y-120161260D01*
X184365000Y-119868740D01*
X184307932Y-119581842D01*
X184195990Y-119311589D01*
X184033475Y-119068368D01*
X183826632Y-118861525D01*
X183583411Y-118699010D01*
X183313158Y-118587068D01*
X183026260Y-118530000D01*
X182733740Y-118530000D01*
X182446842Y-118587068D01*
X182176589Y-118699010D01*
X181933368Y-118861525D01*
X181726525Y-119068368D01*
X181610000Y-119242760D01*
X181493475Y-119068368D01*
X181286632Y-118861525D01*
X181043411Y-118699010D01*
X180773158Y-118587068D01*
X180486260Y-118530000D01*
X180193740Y-118530000D01*
X179973592Y-118573790D01*
X178273794Y-116873993D01*
X178249991Y-116844989D01*
X178134266Y-116750016D01*
X178002237Y-116679444D01*
X177858976Y-116635987D01*
X177747323Y-116624990D01*
X177747312Y-116624990D01*
X177709990Y-116621314D01*
X177672668Y-116624990D01*
X143186310Y-116624990D01*
X143235226Y-116506898D01*
X143275000Y-116306939D01*
X143275000Y-116103061D01*
X143235226Y-115903102D01*
X143157205Y-115714744D01*
X143144013Y-115695000D01*
X154236289Y-115695000D01*
X154280226Y-115738937D01*
X154449744Y-115852205D01*
X154638102Y-115930226D01*
X154838061Y-115970000D01*
X155041939Y-115970000D01*
X155241898Y-115930226D01*
X155430256Y-115852205D01*
X155599774Y-115738937D01*
X155743937Y-115594774D01*
X155857205Y-115425256D01*
X155935226Y-115236898D01*
X155975000Y-115036939D01*
X155975000Y-114833061D01*
X155935226Y-114633102D01*
X155857205Y-114444744D01*
X155844013Y-114425000D01*
X167571289Y-114425000D01*
X167615226Y-114468937D01*
X167784744Y-114582205D01*
X167973102Y-114660226D01*
X168173061Y-114700000D01*
X168376939Y-114700000D01*
X168576898Y-114660226D01*
X168765256Y-114582205D01*
X168934774Y-114468937D01*
X169078937Y-114324774D01*
X169192205Y-114155256D01*
X169270226Y-113966898D01*
X169310000Y-113766939D01*
X169310000Y-113563061D01*
X169270226Y-113363102D01*
X169192205Y-113174744D01*
X169078937Y-113005226D01*
X168934774Y-112861063D01*
X168765256Y-112747795D01*
X168576898Y-112669774D01*
X168376939Y-112630000D01*
X168173061Y-112630000D01*
X167973102Y-112669774D01*
X167784744Y-112747795D01*
X167615226Y-112861063D01*
X167571289Y-112905000D01*
X154070000Y-112905000D01*
X154070000Y-112833082D01*
X154030226Y-112633123D01*
X153983369Y-112520000D01*
X180025199Y-112520000D01*
X180575000Y-113069802D01*
X180575000Y-113131939D01*
X180614774Y-113331898D01*
X180692795Y-113520256D01*
X180806063Y-113689774D01*
X180950226Y-113833937D01*
X181119744Y-113947205D01*
X181308102Y-114025226D01*
X181508061Y-114065000D01*
X181711939Y-114065000D01*
X181911898Y-114025226D01*
X182100256Y-113947205D01*
X182269774Y-113833937D01*
X182413937Y-113689774D01*
X182527205Y-113520256D01*
X182605226Y-113331898D01*
X182645000Y-113131939D01*
X182645000Y-112928061D01*
X182605226Y-112728102D01*
X182527205Y-112539744D01*
X182413937Y-112370226D01*
X182269774Y-112226063D01*
X182100256Y-112112795D01*
X181911898Y-112034774D01*
X181711939Y-111995000D01*
X181649802Y-111995000D01*
X180904801Y-111250000D01*
X182565199Y-111250000D01*
X183067497Y-111752299D01*
X183067502Y-111752303D01*
X184856201Y-113541003D01*
X184879999Y-113570001D01*
X184995724Y-113664974D01*
X185127753Y-113735546D01*
X185271014Y-113779003D01*
X185382667Y-113790000D01*
X185382676Y-113790000D01*
X185419999Y-113793676D01*
X185457322Y-113790000D01*
X194241289Y-113790000D01*
X194285226Y-113833937D01*
X194454744Y-113947205D01*
X194643102Y-114025226D01*
X194843061Y-114065000D01*
X195046939Y-114065000D01*
X195246898Y-114025226D01*
X195435256Y-113947205D01*
X195604774Y-113833937D01*
X195748937Y-113689774D01*
X195862205Y-113520256D01*
X195940226Y-113331898D01*
X195980000Y-113131939D01*
X195980000Y-112928061D01*
X195940226Y-112728102D01*
X195862205Y-112539744D01*
X195748937Y-112370226D01*
X195604774Y-112226063D01*
X195435256Y-112112795D01*
X195246898Y-112034774D01*
X195046939Y-111995000D01*
X194843061Y-111995000D01*
X194643102Y-112034774D01*
X194454744Y-112112795D01*
X194285226Y-112226063D01*
X194241289Y-112270000D01*
X185734802Y-112270000D01*
X184142303Y-110677502D01*
X184142299Y-110677497D01*
X183316803Y-109852002D01*
X183293001Y-109822999D01*
X183177276Y-109728026D01*
X183045246Y-109657454D01*
X182901985Y-109613998D01*
X182769752Y-109600974D01*
X182753000Y-109599324D01*
X182752999Y-109599324D01*
X182604014Y-109613998D01*
X182488960Y-109648898D01*
X182460754Y-109657454D01*
X182328724Y-109728026D01*
X182326319Y-109730000D01*
X161989711Y-109730000D01*
X162093937Y-109625774D01*
X162207205Y-109456256D01*
X162285226Y-109267898D01*
X162325000Y-109067939D01*
X162325000Y-108864061D01*
X162285226Y-108664102D01*
X162207205Y-108475744D01*
X162093937Y-108306226D01*
X162050000Y-108262289D01*
X162050000Y-108229061D01*
X174225000Y-108229061D01*
X174225000Y-108432939D01*
X174264774Y-108632898D01*
X174342795Y-108821256D01*
X174456063Y-108990774D01*
X174600226Y-109134937D01*
X174769744Y-109248205D01*
X174958102Y-109326226D01*
X175158061Y-109366000D01*
X175361939Y-109366000D01*
X175561898Y-109326226D01*
X175750256Y-109248205D01*
X175919774Y-109134937D01*
X176063937Y-108990774D01*
X176177205Y-108821256D01*
X176255226Y-108632898D01*
X176295000Y-108432939D01*
X176295000Y-108355226D01*
X176365545Y-108223248D01*
X176409002Y-108079987D01*
X176419999Y-107968334D01*
X176419999Y-107968324D01*
X176423675Y-107931002D01*
X176419999Y-107893679D01*
X176419999Y-93432710D01*
X176463936Y-93388773D01*
X176577204Y-93219255D01*
X176655225Y-93030897D01*
X176694999Y-92830938D01*
X176694999Y-92627060D01*
X176655225Y-92427101D01*
X176577204Y-92238743D01*
X176484540Y-92100061D01*
X188068000Y-92100061D01*
X188068000Y-92303939D01*
X188107774Y-92503898D01*
X188185795Y-92692256D01*
X188299063Y-92861774D01*
X188343001Y-92905712D01*
X188343000Y-108516289D01*
X188299063Y-108560226D01*
X188185795Y-108729744D01*
X188107774Y-108918102D01*
X188068000Y-109118061D01*
X188068000Y-109321939D01*
X188107774Y-109521898D01*
X188185795Y-109710256D01*
X188299063Y-109879774D01*
X188443226Y-110023937D01*
X188612744Y-110137205D01*
X188801102Y-110215226D01*
X189001061Y-110255000D01*
X189204939Y-110255000D01*
X189404898Y-110215226D01*
X189593256Y-110137205D01*
X189762774Y-110023937D01*
X189906937Y-109879774D01*
X190020205Y-109710256D01*
X190098226Y-109521898D01*
X190138000Y-109321939D01*
X190138000Y-109118061D01*
X190098226Y-108918102D01*
X190020205Y-108729744D01*
X189906937Y-108560226D01*
X189863000Y-108516289D01*
X189863000Y-92905711D01*
X189906937Y-92861774D01*
X190020205Y-92692256D01*
X190098226Y-92503898D01*
X190138000Y-92303939D01*
X190138000Y-92227061D01*
X202038000Y-92227061D01*
X202038000Y-92430939D01*
X202077774Y-92630898D01*
X202155795Y-92819256D01*
X202269063Y-92988774D01*
X202313001Y-93032712D01*
X202313000Y-108643289D01*
X202269063Y-108687226D01*
X202155795Y-108856744D01*
X202077774Y-109045102D01*
X202038000Y-109245061D01*
X202038000Y-109448939D01*
X202077774Y-109648898D01*
X202155795Y-109837256D01*
X202269063Y-110006774D01*
X202413226Y-110150937D01*
X202582744Y-110264205D01*
X202771102Y-110342226D01*
X202971061Y-110382000D01*
X203174939Y-110382000D01*
X203374898Y-110342226D01*
X203563256Y-110264205D01*
X203732774Y-110150937D01*
X203876937Y-110006774D01*
X203990205Y-109837256D01*
X204068226Y-109648898D01*
X204108000Y-109448939D01*
X204108000Y-109245061D01*
X204068226Y-109045102D01*
X203990205Y-108856744D01*
X203876937Y-108687226D01*
X203833000Y-108643289D01*
X203833000Y-93032711D01*
X203876937Y-92988774D01*
X203990205Y-92819256D01*
X204068226Y-92630898D01*
X204108000Y-92430939D01*
X204108000Y-92227061D01*
X204068226Y-92027102D01*
X203990205Y-91838744D01*
X203876937Y-91669226D01*
X203732774Y-91525063D01*
X203563256Y-91411795D01*
X203374898Y-91333774D01*
X203174939Y-91294000D01*
X202971061Y-91294000D01*
X202771102Y-91333774D01*
X202582744Y-91411795D01*
X202413226Y-91525063D01*
X202269063Y-91669226D01*
X202155795Y-91838744D01*
X202077774Y-92027102D01*
X202038000Y-92227061D01*
X190138000Y-92227061D01*
X190138000Y-92100061D01*
X190098226Y-91900102D01*
X190020205Y-91711744D01*
X189906937Y-91542226D01*
X189762774Y-91398063D01*
X189593256Y-91284795D01*
X189404898Y-91206774D01*
X189204939Y-91167000D01*
X189001061Y-91167000D01*
X188801102Y-91206774D01*
X188612744Y-91284795D01*
X188443226Y-91398063D01*
X188299063Y-91542226D01*
X188185795Y-91711744D01*
X188107774Y-91900102D01*
X188068000Y-92100061D01*
X176484540Y-92100061D01*
X176463936Y-92069225D01*
X176319773Y-91925062D01*
X176150255Y-91811794D01*
X175961897Y-91733773D01*
X175761938Y-91693999D01*
X175558060Y-91693999D01*
X175358101Y-91733773D01*
X175169743Y-91811794D01*
X175000225Y-91925062D01*
X174856062Y-92069225D01*
X174742794Y-92238743D01*
X174664773Y-92427101D01*
X174624999Y-92627060D01*
X174624999Y-92830938D01*
X174664773Y-93030897D01*
X174742794Y-93219255D01*
X174856062Y-93388773D01*
X174900000Y-93432711D01*
X174899999Y-107359841D01*
X174769744Y-107413795D01*
X174600226Y-107527063D01*
X174456063Y-107671226D01*
X174342795Y-107840744D01*
X174264774Y-108029102D01*
X174225000Y-108229061D01*
X162050000Y-108229061D01*
X162050000Y-101025801D01*
X162817004Y-100258798D01*
X162846001Y-100235001D01*
X162898526Y-100170999D01*
X162940974Y-100119277D01*
X163011546Y-99987247D01*
X163019205Y-99961997D01*
X163055003Y-99843986D01*
X163066000Y-99732333D01*
X163066000Y-99732323D01*
X163069676Y-99695000D01*
X163066000Y-99657678D01*
X163066000Y-92778711D01*
X163109937Y-92734774D01*
X163223205Y-92565256D01*
X163301226Y-92376898D01*
X163341000Y-92176939D01*
X163341000Y-91973061D01*
X163301226Y-91773102D01*
X163223205Y-91584744D01*
X163109937Y-91415226D01*
X162965774Y-91271063D01*
X162796256Y-91157795D01*
X162607898Y-91079774D01*
X162407939Y-91040000D01*
X162204061Y-91040000D01*
X162004102Y-91079774D01*
X161815744Y-91157795D01*
X161646226Y-91271063D01*
X161502063Y-91415226D01*
X161388795Y-91584744D01*
X161310774Y-91773102D01*
X161271000Y-91973061D01*
X161271000Y-92176939D01*
X161310774Y-92376898D01*
X161388795Y-92565256D01*
X161502063Y-92734774D01*
X161546001Y-92778712D01*
X161546000Y-99380198D01*
X160778998Y-100147201D01*
X160750000Y-100170999D01*
X160726202Y-100199997D01*
X160726201Y-100199998D01*
X160655026Y-100286724D01*
X160584454Y-100418754D01*
X160540998Y-100562015D01*
X160526324Y-100711000D01*
X160530001Y-100748332D01*
X160530000Y-108262289D01*
X160486063Y-108306226D01*
X160372795Y-108475744D01*
X160294774Y-108664102D01*
X160255000Y-108864061D01*
X160255000Y-109067939D01*
X160294774Y-109267898D01*
X160372795Y-109456256D01*
X160486063Y-109625774D01*
X160590289Y-109730000D01*
X148139154Y-109730000D01*
X148237205Y-109583256D01*
X148315226Y-109394898D01*
X148355000Y-109194939D01*
X148355000Y-108991061D01*
X148315226Y-108791102D01*
X148237205Y-108602744D01*
X148123937Y-108433226D01*
X148080000Y-108389289D01*
X148080000Y-92778711D01*
X148123937Y-92734774D01*
X148237205Y-92565256D01*
X148315226Y-92376898D01*
X148355000Y-92176939D01*
X148355000Y-91973061D01*
X148315226Y-91773102D01*
X148237205Y-91584744D01*
X148123937Y-91415226D01*
X147979774Y-91271063D01*
X147810256Y-91157795D01*
X147621898Y-91079774D01*
X147421939Y-91040000D01*
X147218061Y-91040000D01*
X147018102Y-91079774D01*
X146829744Y-91157795D01*
X146660226Y-91271063D01*
X146516063Y-91415226D01*
X146402795Y-91584744D01*
X146324774Y-91773102D01*
X146285000Y-91973061D01*
X146285000Y-92176939D01*
X146324774Y-92376898D01*
X146402795Y-92565256D01*
X146516063Y-92734774D01*
X146560001Y-92778712D01*
X146560000Y-108389289D01*
X146516063Y-108433226D01*
X146402795Y-108602744D01*
X146324774Y-108791102D01*
X146285000Y-108991061D01*
X146285000Y-109194939D01*
X146324774Y-109394898D01*
X146402795Y-109583256D01*
X146500846Y-109730000D01*
X143002000Y-109730000D01*
X143002000Y-90170000D01*
X142999560Y-90145224D01*
X142992333Y-90121399D01*
X142980597Y-90099443D01*
X142964803Y-90080197D01*
X142945557Y-90064403D01*
X142923601Y-90052667D01*
X142899776Y-90045440D01*
X142875000Y-90043000D01*
X129540000Y-90043000D01*
X129515224Y-90045440D01*
X129491399Y-90052667D01*
X129469443Y-90064403D01*
X129450197Y-90080197D01*
X129434403Y-90099443D01*
X129422667Y-90121399D01*
X129415440Y-90145224D01*
X129413000Y-90170000D01*
X129413000Y-93681887D01*
X129247010Y-93515897D01*
X129015254Y-93361043D01*
X128757740Y-93254377D01*
X128484365Y-93200000D01*
X128205635Y-93200000D01*
X127932260Y-93254377D01*
X127674746Y-93361043D01*
X127442990Y-93515897D01*
X127245897Y-93712990D01*
X127091043Y-93944746D01*
X127075000Y-93983477D01*
X127058957Y-93944746D01*
X126904103Y-93712990D01*
X126707010Y-93515897D01*
X126475254Y-93361043D01*
X126217740Y-93254377D01*
X125944365Y-93200000D01*
X125665635Y-93200000D01*
X125392260Y-93254377D01*
X125134746Y-93361043D01*
X124902990Y-93515897D01*
X124705897Y-93712990D01*
X124551043Y-93944746D01*
X124535000Y-93983477D01*
X124518957Y-93944746D01*
X124364103Y-93712990D01*
X124167010Y-93515897D01*
X123935254Y-93361043D01*
X123677740Y-93254377D01*
X123404365Y-93200000D01*
X123125635Y-93200000D01*
X122852260Y-93254377D01*
X122594746Y-93361043D01*
X122362990Y-93515897D01*
X122165897Y-93712990D01*
X122011043Y-93944746D01*
X121995000Y-93983477D01*
X121978957Y-93944746D01*
X121824103Y-93712990D01*
X121627010Y-93515897D01*
X121395254Y-93361043D01*
X121137740Y-93254377D01*
X120864365Y-93200000D01*
X120585635Y-93200000D01*
X120312260Y-93254377D01*
X120054746Y-93361043D01*
X119822990Y-93515897D01*
X119625897Y-93712990D01*
X119471043Y-93944746D01*
X119455000Y-93983477D01*
X119438957Y-93944746D01*
X119284103Y-93712990D01*
X119087010Y-93515897D01*
X118855254Y-93361043D01*
X118597740Y-93254377D01*
X118324365Y-93200000D01*
X118045635Y-93200000D01*
X117772260Y-93254377D01*
X117514746Y-93361043D01*
X117282990Y-93515897D01*
X117085897Y-93712990D01*
X116931043Y-93944746D01*
X116915000Y-93983477D01*
X116898957Y-93944746D01*
X116744103Y-93712990D01*
X116547010Y-93515897D01*
X116315254Y-93361043D01*
X116057740Y-93254377D01*
X115784365Y-93200000D01*
X115505635Y-93200000D01*
X115232260Y-93254377D01*
X114974746Y-93361043D01*
X114742990Y-93515897D01*
X114545897Y-93712990D01*
X114391043Y-93944746D01*
X114375000Y-93983477D01*
X114358957Y-93944746D01*
X114204103Y-93712990D01*
X114007010Y-93515897D01*
X113775254Y-93361043D01*
X113517740Y-93254377D01*
X113244365Y-93200000D01*
X112965635Y-93200000D01*
X112692260Y-93254377D01*
X112434746Y-93361043D01*
X112202990Y-93515897D01*
X112005897Y-93712990D01*
X111851043Y-93944746D01*
X111835000Y-93983477D01*
X111818957Y-93944746D01*
X111664103Y-93712990D01*
X111467010Y-93515897D01*
X111235254Y-93361043D01*
X110977740Y-93254377D01*
X110704365Y-93200000D01*
X110425635Y-93200000D01*
X110152260Y-93254377D01*
X109894746Y-93361043D01*
X109662990Y-93515897D01*
X109465897Y-93712990D01*
X109311043Y-93944746D01*
X109295000Y-93983477D01*
X109278957Y-93944746D01*
X109124103Y-93712990D01*
X108927010Y-93515897D01*
X108695254Y-93361043D01*
X108437740Y-93254377D01*
X108164365Y-93200000D01*
X107885635Y-93200000D01*
X107612260Y-93254377D01*
X107354746Y-93361043D01*
X107122990Y-93515897D01*
X106925897Y-93712990D01*
X106771043Y-93944746D01*
X106755000Y-93983477D01*
X106738957Y-93944746D01*
X106584103Y-93712990D01*
X106387010Y-93515897D01*
X106155254Y-93361043D01*
X105897740Y-93254377D01*
X105624365Y-93200000D01*
X105345635Y-93200000D01*
X105072260Y-93254377D01*
X104814746Y-93361043D01*
X104582990Y-93515897D01*
X104385897Y-93712990D01*
X104231043Y-93944746D01*
X104215000Y-93983477D01*
X104198957Y-93944746D01*
X104044103Y-93712990D01*
X103847010Y-93515897D01*
X103615254Y-93361043D01*
X103357740Y-93254377D01*
X103084365Y-93200000D01*
X102805635Y-93200000D01*
X102532260Y-93254377D01*
X102274746Y-93361043D01*
X102042990Y-93515897D01*
X101845897Y-93712990D01*
X101691043Y-93944746D01*
X101675000Y-93983477D01*
X101658957Y-93944746D01*
X101504103Y-93712990D01*
X101307010Y-93515897D01*
X101075254Y-93361043D01*
X100817740Y-93254377D01*
X100544365Y-93200000D01*
X100265635Y-93200000D01*
X99992260Y-93254377D01*
X99734746Y-93361043D01*
X99502990Y-93515897D01*
X99305897Y-93712990D01*
X99151043Y-93944746D01*
X99136223Y-93980525D01*
X99085349Y-93885345D01*
X98843421Y-93816184D01*
X98044605Y-94615000D01*
X98843421Y-95413816D01*
X99085349Y-95344655D01*
X99133425Y-95242721D01*
X99151043Y-95285254D01*
X99305897Y-95517010D01*
X99502990Y-95714103D01*
X99734746Y-95868957D01*
X99992260Y-95975623D01*
X100265635Y-96030000D01*
X100544365Y-96030000D01*
X100817740Y-95975623D01*
X101075254Y-95868957D01*
X101307010Y-95714103D01*
X101504103Y-95517010D01*
X101658957Y-95285254D01*
X101675000Y-95246523D01*
X101691043Y-95285254D01*
X101845897Y-95517010D01*
X102042990Y-95714103D01*
X102274746Y-95868957D01*
X102532260Y-95975623D01*
X102805635Y-96030000D01*
X103084365Y-96030000D01*
X103357740Y-95975623D01*
X103615254Y-95868957D01*
X103847010Y-95714103D01*
X104044103Y-95517010D01*
X104198957Y-95285254D01*
X104215000Y-95246523D01*
X104231043Y-95285254D01*
X104385897Y-95517010D01*
X104582990Y-95714103D01*
X104814746Y-95868957D01*
X105072260Y-95975623D01*
X105345635Y-96030000D01*
X105624365Y-96030000D01*
X105897740Y-95975623D01*
X106155254Y-95868957D01*
X106387010Y-95714103D01*
X106584103Y-95517010D01*
X106738957Y-95285254D01*
X106755000Y-95246523D01*
X106771043Y-95285254D01*
X106925897Y-95517010D01*
X107122990Y-95714103D01*
X107354746Y-95868957D01*
X107612260Y-95975623D01*
X107885635Y-96030000D01*
X108164365Y-96030000D01*
X108437740Y-95975623D01*
X108695254Y-95868957D01*
X108927010Y-95714103D01*
X109124103Y-95517010D01*
X109278957Y-95285254D01*
X109295000Y-95246523D01*
X109311043Y-95285254D01*
X109465897Y-95517010D01*
X109662990Y-95714103D01*
X109894746Y-95868957D01*
X110152260Y-95975623D01*
X110425635Y-96030000D01*
X110704365Y-96030000D01*
X110977740Y-95975623D01*
X111235254Y-95868957D01*
X111467010Y-95714103D01*
X111664103Y-95517010D01*
X111818957Y-95285254D01*
X111835000Y-95246523D01*
X111851043Y-95285254D01*
X112005897Y-95517010D01*
X112202990Y-95714103D01*
X112434746Y-95868957D01*
X112692260Y-95975623D01*
X112965635Y-96030000D01*
X113244365Y-96030000D01*
X113517740Y-95975623D01*
X113775254Y-95868957D01*
X114007010Y-95714103D01*
X114204103Y-95517010D01*
X114358957Y-95285254D01*
X114375000Y-95246523D01*
X114391043Y-95285254D01*
X114545897Y-95517010D01*
X114742990Y-95714103D01*
X114974746Y-95868957D01*
X115232260Y-95975623D01*
X115505635Y-96030000D01*
X115784365Y-96030000D01*
X116057740Y-95975623D01*
X116315254Y-95868957D01*
X116547010Y-95714103D01*
X116744103Y-95517010D01*
X116898957Y-95285254D01*
X116915000Y-95246523D01*
X116931043Y-95285254D01*
X117085897Y-95517010D01*
X117282990Y-95714103D01*
X117514746Y-95868957D01*
X117772260Y-95975623D01*
X118045635Y-96030000D01*
X118324365Y-96030000D01*
X118597740Y-95975623D01*
X118855254Y-95868957D01*
X119087010Y-95714103D01*
X119284103Y-95517010D01*
X119438957Y-95285254D01*
X119455000Y-95246523D01*
X119471043Y-95285254D01*
X119625897Y-95517010D01*
X119822990Y-95714103D01*
X120054746Y-95868957D01*
X120312260Y-95975623D01*
X120585635Y-96030000D01*
X120864365Y-96030000D01*
X121137740Y-95975623D01*
X121395254Y-95868957D01*
X121627010Y-95714103D01*
X121824103Y-95517010D01*
X121978957Y-95285254D01*
X121995000Y-95246523D01*
X122011043Y-95285254D01*
X122165897Y-95517010D01*
X122362990Y-95714103D01*
X122594746Y-95868957D01*
X122852260Y-95975623D01*
X123125635Y-96030000D01*
X123404365Y-96030000D01*
X123677740Y-95975623D01*
X123935254Y-95868957D01*
X124167010Y-95714103D01*
X124364103Y-95517010D01*
X124518957Y-95285254D01*
X124535000Y-95246523D01*
X124551043Y-95285254D01*
X124705897Y-95517010D01*
X124902990Y-95714103D01*
X125134746Y-95868957D01*
X125392260Y-95975623D01*
X125665635Y-96030000D01*
X125944365Y-96030000D01*
X126217740Y-95975623D01*
X126475254Y-95868957D01*
X126707010Y-95714103D01*
X126904103Y-95517010D01*
X127058957Y-95285254D01*
X127075000Y-95246523D01*
X127091043Y-95285254D01*
X127245897Y-95517010D01*
X127442990Y-95714103D01*
X127674746Y-95868957D01*
X127932260Y-95975623D01*
X128205635Y-96030000D01*
X128484365Y-96030000D01*
X128757740Y-95975623D01*
X129015254Y-95868957D01*
X129247010Y-95714103D01*
X129413000Y-95548113D01*
X129413000Y-109730000D01*
X114614802Y-109730000D01*
X109783804Y-104899003D01*
X109760001Y-104869999D01*
X109644276Y-104775026D01*
X109512247Y-104704454D01*
X109368986Y-104660997D01*
X109257333Y-104650000D01*
X109257322Y-104650000D01*
X109220000Y-104646324D01*
X109182678Y-104650000D01*
X108653711Y-104650000D01*
X108609774Y-104606063D01*
X108440256Y-104492795D01*
X108251898Y-104414774D01*
X108051939Y-104375000D01*
X107848061Y-104375000D01*
X107648102Y-104414774D01*
X107459744Y-104492795D01*
X107290226Y-104606063D01*
X107146063Y-104750226D01*
X107032795Y-104919744D01*
X106954774Y-105108102D01*
X106915000Y-105308061D01*
X106915000Y-105511939D01*
X106954774Y-105711898D01*
X107032795Y-105900256D01*
X107146063Y-106069774D01*
X107290226Y-106213937D01*
X107459744Y-106327205D01*
X107648102Y-106405226D01*
X107848061Y-106445000D01*
X108051939Y-106445000D01*
X108251898Y-106405226D01*
X108440256Y-106327205D01*
X108609774Y-106213937D01*
X108653711Y-106170000D01*
X108905199Y-106170000D01*
X110302265Y-107567066D01*
X110188102Y-107589774D01*
X109999744Y-107667795D01*
X109830226Y-107781063D01*
X109686063Y-107925226D01*
X109572795Y-108094744D01*
X109494774Y-108283102D01*
X109455000Y-108483061D01*
X109455000Y-108686939D01*
X109494774Y-108886898D01*
X109572795Y-109075256D01*
X109686063Y-109244774D01*
X109830226Y-109388937D01*
X109999744Y-109502205D01*
X110188102Y-109580226D01*
X110388061Y-109620000D01*
X110450199Y-109620000D01*
X113101200Y-112271002D01*
X113124999Y-112300001D01*
X113153997Y-112323799D01*
X113240723Y-112394974D01*
X113333875Y-112444765D01*
X113372753Y-112465546D01*
X113516014Y-112509003D01*
X113627667Y-112520000D01*
X113627676Y-112520000D01*
X113664999Y-112523676D01*
X113702322Y-112520000D01*
X114621631Y-112520000D01*
X114574774Y-112633123D01*
X114535000Y-112833082D01*
X114535000Y-112905000D01*
X113344802Y-112905000D01*
X112795000Y-112355199D01*
X112795000Y-112293061D01*
X112755226Y-112093102D01*
X112677205Y-111904744D01*
X112563937Y-111735226D01*
X112419774Y-111591063D01*
X112250256Y-111477795D01*
X112061898Y-111399774D01*
X111861939Y-111360000D01*
X111658061Y-111360000D01*
X111458102Y-111399774D01*
X111269744Y-111477795D01*
X111100226Y-111591063D01*
X110956063Y-111735226D01*
X110842795Y-111904744D01*
X110764774Y-112093102D01*
X110725000Y-112293061D01*
X110725000Y-112496939D01*
X110764774Y-112696898D01*
X110842795Y-112885256D01*
X110956063Y-113054774D01*
X111100226Y-113198937D01*
X111269744Y-113312205D01*
X111458102Y-113390226D01*
X111658061Y-113430000D01*
X111720199Y-113430000D01*
X112466201Y-114176003D01*
X112489999Y-114205001D01*
X112605724Y-114299974D01*
X112737753Y-114370546D01*
X112881014Y-114414003D01*
X112992667Y-114425000D01*
X112992676Y-114425000D01*
X113029999Y-114428676D01*
X113067322Y-114425000D01*
X119745987Y-114425000D01*
X119732795Y-114444744D01*
X119654774Y-114633102D01*
X119615000Y-114833061D01*
X119615000Y-115036939D01*
X119654774Y-115236898D01*
X119732795Y-115425256D01*
X119846063Y-115594774D01*
X119965001Y-115713712D01*
X119965000Y-118821009D01*
X119822990Y-118915897D01*
X119625897Y-119112990D01*
X119471043Y-119344746D01*
X119455000Y-119383477D01*
X119438957Y-119344746D01*
X119284103Y-119112990D01*
X119087010Y-118915897D01*
X118855254Y-118761043D01*
X118597740Y-118654377D01*
X118324365Y-118600000D01*
X118045635Y-118600000D01*
X117772260Y-118654377D01*
X117514746Y-118761043D01*
X117282990Y-118915897D01*
X117085897Y-119112990D01*
X116931043Y-119344746D01*
X116916223Y-119380525D01*
X116865349Y-119285345D01*
X116623421Y-119216184D01*
X115824605Y-120015000D01*
X116623421Y-120813816D01*
X116865349Y-120744655D01*
X116913425Y-120642721D01*
X116931043Y-120685254D01*
X117085897Y-120917010D01*
X117282990Y-121114103D01*
X117514746Y-121268957D01*
X117772260Y-121375623D01*
X118045635Y-121430000D01*
X118324365Y-121430000D01*
X118491878Y-121396680D01*
X118890198Y-121795000D01*
X114856716Y-121795000D01*
X114091414Y-121029699D01*
X114127692Y-120993421D01*
X114846184Y-120993421D01*
X114915345Y-121235349D01*
X115167443Y-121354248D01*
X115437894Y-121421681D01*
X115716303Y-121435057D01*
X115991972Y-121393860D01*
X116254308Y-121299675D01*
X116374655Y-121235349D01*
X116443816Y-120993421D01*
X115645000Y-120194605D01*
X114846184Y-120993421D01*
X114127692Y-120993421D01*
X114204103Y-120917010D01*
X114358957Y-120685254D01*
X114373777Y-120649475D01*
X114424651Y-120744655D01*
X114666579Y-120813816D01*
X115465395Y-120015000D01*
X114666579Y-119216184D01*
X114424651Y-119285345D01*
X114376575Y-119387279D01*
X114358957Y-119344746D01*
X114204103Y-119112990D01*
X114127692Y-119036579D01*
X114846184Y-119036579D01*
X115645000Y-119835395D01*
X116443816Y-119036579D01*
X116374655Y-118794651D01*
X116122557Y-118675752D01*
X115852106Y-118608319D01*
X115573697Y-118594943D01*
X115298028Y-118636140D01*
X115035692Y-118730325D01*
X114915345Y-118794651D01*
X114846184Y-119036579D01*
X114127692Y-119036579D01*
X114007010Y-118915897D01*
X113775254Y-118761043D01*
X113517740Y-118654377D01*
X113244365Y-118600000D01*
X112965635Y-118600000D01*
X112692260Y-118654377D01*
X112434746Y-118761043D01*
X112202990Y-118915897D01*
X112005897Y-119112990D01*
X111851043Y-119344746D01*
X111835000Y-119383477D01*
X111818957Y-119344746D01*
X111664103Y-119112990D01*
X111467010Y-118915897D01*
X111235254Y-118761043D01*
X110977740Y-118654377D01*
X110704365Y-118600000D01*
X110425635Y-118600000D01*
X110152260Y-118654377D01*
X109894746Y-118761043D01*
X109662990Y-118915897D01*
X109465897Y-119112990D01*
X109311043Y-119344746D01*
X109295000Y-119383477D01*
X109278957Y-119344746D01*
X109124103Y-119112990D01*
X108927010Y-118915897D01*
X108695254Y-118761043D01*
X108437740Y-118654377D01*
X108164365Y-118600000D01*
X107885635Y-118600000D01*
X107612260Y-118654377D01*
X107354746Y-118761043D01*
X107122990Y-118915897D01*
X106925897Y-119112990D01*
X106771043Y-119344746D01*
X106755000Y-119383477D01*
X106738957Y-119344746D01*
X106584103Y-119112990D01*
X106387010Y-118915897D01*
X106155254Y-118761043D01*
X105897740Y-118654377D01*
X105624365Y-118600000D01*
X105345635Y-118600000D01*
X105072260Y-118654377D01*
X104814746Y-118761043D01*
X104582990Y-118915897D01*
X104385897Y-119112990D01*
X104231043Y-119344746D01*
X104215000Y-119383477D01*
X104198957Y-119344746D01*
X104044103Y-119112990D01*
X103847010Y-118915897D01*
X103615254Y-118761043D01*
X103357740Y-118654377D01*
X103084365Y-118600000D01*
X102805635Y-118600000D01*
X102532260Y-118654377D01*
X102274746Y-118761043D01*
X102042990Y-118915897D01*
X101845897Y-119112990D01*
X101691043Y-119344746D01*
X101675000Y-119383477D01*
X101658957Y-119344746D01*
X101504103Y-119112990D01*
X101307010Y-118915897D01*
X101075254Y-118761043D01*
X100817740Y-118654377D01*
X100544365Y-118600000D01*
X100265635Y-118600000D01*
X99992260Y-118654377D01*
X99734746Y-118761043D01*
X99502990Y-118915897D01*
X99305897Y-119112990D01*
X99151043Y-119344746D01*
X99135000Y-119383477D01*
X99118957Y-119344746D01*
X98964103Y-119112990D01*
X98767010Y-118915897D01*
X98535254Y-118761043D01*
X98277740Y-118654377D01*
X98004365Y-118600000D01*
X97725635Y-118600000D01*
X97452260Y-118654377D01*
X97194746Y-118761043D01*
X96962990Y-118915897D01*
X96765897Y-119112990D01*
X96611043Y-119344746D01*
X96595000Y-119383477D01*
X96578957Y-119344746D01*
X96424103Y-119112990D01*
X96227010Y-118915897D01*
X95995254Y-118761043D01*
X95737740Y-118654377D01*
X95464365Y-118600000D01*
X95185635Y-118600000D01*
X94912260Y-118654377D01*
X94654746Y-118761043D01*
X94422990Y-118915897D01*
X94225897Y-119112990D01*
X94071043Y-119344746D01*
X94055000Y-119383477D01*
X94038957Y-119344746D01*
X93884103Y-119112990D01*
X93687010Y-118915897D01*
X93455254Y-118761043D01*
X93197740Y-118654377D01*
X92924365Y-118600000D01*
X92645635Y-118600000D01*
X92372260Y-118654377D01*
X92114746Y-118761043D01*
X91882990Y-118915897D01*
X91685897Y-119112990D01*
X91531043Y-119344746D01*
X91515000Y-119383477D01*
X91498957Y-119344746D01*
X91344103Y-119112990D01*
X91147010Y-118915897D01*
X90915254Y-118761043D01*
X90657740Y-118654377D01*
X90384365Y-118600000D01*
X90105635Y-118600000D01*
X89832260Y-118654377D01*
X89574746Y-118761043D01*
X89342990Y-118915897D01*
X89145897Y-119112990D01*
X88991043Y-119344746D01*
X88975000Y-119383477D01*
X88958957Y-119344746D01*
X88804103Y-119112990D01*
X88607010Y-118915897D01*
X88375254Y-118761043D01*
X88117740Y-118654377D01*
X87844365Y-118600000D01*
X87565635Y-118600000D01*
X87292260Y-118654377D01*
X87034746Y-118761043D01*
X86802990Y-118915897D01*
X86605897Y-119112990D01*
X86451043Y-119344746D01*
X86435000Y-119383477D01*
X86418957Y-119344746D01*
X86264103Y-119112990D01*
X86067010Y-118915897D01*
X85835254Y-118761043D01*
X85577740Y-118654377D01*
X85304365Y-118600000D01*
X85025635Y-118600000D01*
X84752260Y-118654377D01*
X84494746Y-118761043D01*
X84262990Y-118915897D01*
X84065897Y-119112990D01*
X83911043Y-119344746D01*
X83804377Y-119602260D01*
X83750000Y-119875635D01*
X82677000Y-119875635D01*
X82677000Y-94475635D01*
X83750000Y-94475635D01*
X83750000Y-94754365D01*
X83804377Y-95027740D01*
X83911043Y-95285254D01*
X84065897Y-95517010D01*
X84262990Y-95714103D01*
X84494746Y-95868957D01*
X84752260Y-95975623D01*
X85025635Y-96030000D01*
X85304365Y-96030000D01*
X85577740Y-95975623D01*
X85835254Y-95868957D01*
X86067010Y-95714103D01*
X86264103Y-95517010D01*
X86418957Y-95285254D01*
X86435000Y-95246523D01*
X86451043Y-95285254D01*
X86605897Y-95517010D01*
X86802990Y-95714103D01*
X87034746Y-95868957D01*
X87292260Y-95975623D01*
X87565635Y-96030000D01*
X87844365Y-96030000D01*
X88117740Y-95975623D01*
X88375254Y-95868957D01*
X88607010Y-95714103D01*
X88804103Y-95517010D01*
X88958957Y-95285254D01*
X88975000Y-95246523D01*
X88991043Y-95285254D01*
X89145897Y-95517010D01*
X89342990Y-95714103D01*
X89574746Y-95868957D01*
X89832260Y-95975623D01*
X90105635Y-96030000D01*
X90384365Y-96030000D01*
X90657740Y-95975623D01*
X90915254Y-95868957D01*
X91147010Y-95714103D01*
X91344103Y-95517010D01*
X91498957Y-95285254D01*
X91515000Y-95246523D01*
X91531043Y-95285254D01*
X91685897Y-95517010D01*
X91882990Y-95714103D01*
X92114746Y-95868957D01*
X92372260Y-95975623D01*
X92645635Y-96030000D01*
X92924365Y-96030000D01*
X93197740Y-95975623D01*
X93455254Y-95868957D01*
X93687010Y-95714103D01*
X93884103Y-95517010D01*
X94038957Y-95285254D01*
X94055000Y-95246523D01*
X94071043Y-95285254D01*
X94225897Y-95517010D01*
X94422990Y-95714103D01*
X94654746Y-95868957D01*
X94912260Y-95975623D01*
X95185635Y-96030000D01*
X95464365Y-96030000D01*
X95737740Y-95975623D01*
X95995254Y-95868957D01*
X96227010Y-95714103D01*
X96347692Y-95593421D01*
X97066184Y-95593421D01*
X97135345Y-95835349D01*
X97387443Y-95954248D01*
X97657894Y-96021681D01*
X97936303Y-96035057D01*
X98211972Y-95993860D01*
X98474308Y-95899675D01*
X98594655Y-95835349D01*
X98663816Y-95593421D01*
X97865000Y-94794605D01*
X97066184Y-95593421D01*
X96347692Y-95593421D01*
X96424103Y-95517010D01*
X96578957Y-95285254D01*
X96593777Y-95249475D01*
X96644651Y-95344655D01*
X96886579Y-95413816D01*
X97685395Y-94615000D01*
X96886579Y-93816184D01*
X96644651Y-93885345D01*
X96596575Y-93987279D01*
X96578957Y-93944746D01*
X96424103Y-93712990D01*
X96347692Y-93636579D01*
X97066184Y-93636579D01*
X97865000Y-94435395D01*
X98663816Y-93636579D01*
X98594655Y-93394651D01*
X98342557Y-93275752D01*
X98072106Y-93208319D01*
X97793697Y-93194943D01*
X97518028Y-93236140D01*
X97255692Y-93330325D01*
X97135345Y-93394651D01*
X97066184Y-93636579D01*
X96347692Y-93636579D01*
X96227010Y-93515897D01*
X95995254Y-93361043D01*
X95737740Y-93254377D01*
X95464365Y-93200000D01*
X95185635Y-93200000D01*
X94912260Y-93254377D01*
X94654746Y-93361043D01*
X94422990Y-93515897D01*
X94225897Y-93712990D01*
X94071043Y-93944746D01*
X94055000Y-93983477D01*
X94038957Y-93944746D01*
X93884103Y-93712990D01*
X93687010Y-93515897D01*
X93455254Y-93361043D01*
X93197740Y-93254377D01*
X92924365Y-93200000D01*
X92645635Y-93200000D01*
X92372260Y-93254377D01*
X92114746Y-93361043D01*
X91882990Y-93515897D01*
X91685897Y-93712990D01*
X91531043Y-93944746D01*
X91515000Y-93983477D01*
X91498957Y-93944746D01*
X91344103Y-93712990D01*
X91147010Y-93515897D01*
X90915254Y-93361043D01*
X90657740Y-93254377D01*
X90384365Y-93200000D01*
X90105635Y-93200000D01*
X89832260Y-93254377D01*
X89574746Y-93361043D01*
X89342990Y-93515897D01*
X89145897Y-93712990D01*
X88991043Y-93944746D01*
X88975000Y-93983477D01*
X88958957Y-93944746D01*
X88804103Y-93712990D01*
X88607010Y-93515897D01*
X88375254Y-93361043D01*
X88117740Y-93254377D01*
X87844365Y-93200000D01*
X87565635Y-93200000D01*
X87292260Y-93254377D01*
X87034746Y-93361043D01*
X86802990Y-93515897D01*
X86605897Y-93712990D01*
X86451043Y-93944746D01*
X86435000Y-93983477D01*
X86418957Y-93944746D01*
X86264103Y-93712990D01*
X86067010Y-93515897D01*
X85835254Y-93361043D01*
X85577740Y-93254377D01*
X85304365Y-93200000D01*
X85025635Y-93200000D01*
X84752260Y-93254377D01*
X84494746Y-93361043D01*
X84262990Y-93515897D01*
X84065897Y-93712990D01*
X83911043Y-93944746D01*
X83804377Y-94202260D01*
X83750000Y-94475635D01*
X82677000Y-94475635D01*
X82677000Y-88621890D01*
X84918524Y-88621890D01*
X84963175Y-88769099D01*
X85088359Y-89031920D01*
X85262412Y-89265269D01*
X85478645Y-89460178D01*
X85728748Y-89609157D01*
X86003109Y-89706481D01*
X86233000Y-89585814D01*
X86233000Y-88392000D01*
X86487000Y-88392000D01*
X86487000Y-89585814D01*
X86716891Y-89706481D01*
X86991252Y-89609157D01*
X87115745Y-89535000D01*
X94242319Y-89535000D01*
X94272970Y-89846204D01*
X94363745Y-90145449D01*
X94511155Y-90421235D01*
X94709537Y-90662963D01*
X94951265Y-90861345D01*
X95227051Y-91008755D01*
X95526296Y-91099530D01*
X95759514Y-91122500D01*
X96010486Y-91122500D01*
X96243704Y-91099530D01*
X96542949Y-91008755D01*
X96818735Y-90861345D01*
X97060463Y-90662963D01*
X97258845Y-90421235D01*
X97406255Y-90145449D01*
X97497030Y-89846204D01*
X97527681Y-89535000D01*
X97497030Y-89223796D01*
X97406255Y-88924551D01*
X97258845Y-88648765D01*
X97060463Y-88407037D01*
X96881101Y-88259837D01*
X97066315Y-88104437D01*
X97260969Y-87861923D01*
X97404571Y-87586094D01*
X97475563Y-87367980D01*
X97355594Y-87122000D01*
X96012000Y-87122000D01*
X96012000Y-87142000D01*
X95758000Y-87142000D01*
X95758000Y-87122000D01*
X94414406Y-87122000D01*
X94294437Y-87367980D01*
X94365429Y-87586094D01*
X94509031Y-87861923D01*
X94703685Y-88104437D01*
X94888899Y-88259837D01*
X94709537Y-88407037D01*
X94511155Y-88648765D01*
X94363745Y-88924551D01*
X94272970Y-89223796D01*
X94242319Y-89535000D01*
X87115745Y-89535000D01*
X87241355Y-89460178D01*
X87457588Y-89265269D01*
X87631641Y-89031920D01*
X87756825Y-88769099D01*
X87801476Y-88621890D01*
X87680155Y-88392000D01*
X86487000Y-88392000D01*
X86233000Y-88392000D01*
X85039845Y-88392000D01*
X84918524Y-88621890D01*
X82677000Y-88621890D01*
X82677000Y-84875000D01*
X84871928Y-84875000D01*
X84871928Y-86575000D01*
X84884188Y-86699482D01*
X84920498Y-86819180D01*
X84979463Y-86929494D01*
X85058815Y-87026185D01*
X85155506Y-87105537D01*
X85265820Y-87164502D01*
X85346466Y-87188966D01*
X85262412Y-87264731D01*
X85088359Y-87498080D01*
X84963175Y-87760901D01*
X84918524Y-87908110D01*
X85039845Y-88138000D01*
X86233000Y-88138000D01*
X86233000Y-88118000D01*
X86487000Y-88118000D01*
X86487000Y-88138000D01*
X87680155Y-88138000D01*
X87801476Y-87908110D01*
X87756825Y-87760901D01*
X87631641Y-87498080D01*
X87457588Y-87264731D01*
X87373534Y-87188966D01*
X87454180Y-87164502D01*
X87564494Y-87105537D01*
X87661185Y-87026185D01*
X87740537Y-86929494D01*
X87799502Y-86819180D01*
X87835812Y-86699482D01*
X87848072Y-86575000D01*
X87848072Y-84875000D01*
X87835812Y-84750518D01*
X87799502Y-84630820D01*
X87740537Y-84520506D01*
X87661185Y-84423815D01*
X87564494Y-84344463D01*
X87454180Y-84285498D01*
X87334482Y-84249188D01*
X87210000Y-84236928D01*
X85510000Y-84236928D01*
X85385518Y-84249188D01*
X85265820Y-84285498D01*
X85155506Y-84344463D01*
X85058815Y-84423815D01*
X84979463Y-84520506D01*
X84920498Y-84630820D01*
X84884188Y-84750518D01*
X84871928Y-84875000D01*
X82677000Y-84875000D01*
X82677000Y-83502500D01*
X94246928Y-83502500D01*
X94246928Y-85407500D01*
X94259188Y-85531982D01*
X94295498Y-85651680D01*
X94354463Y-85761994D01*
X94433815Y-85858685D01*
X94530506Y-85938037D01*
X94622219Y-85987059D01*
X94509031Y-86128077D01*
X94365429Y-86403906D01*
X94294437Y-86622020D01*
X94414406Y-86868000D01*
X95758000Y-86868000D01*
X95758000Y-86848000D01*
X96012000Y-86848000D01*
X96012000Y-86868000D01*
X97355594Y-86868000D01*
X97408219Y-86760098D01*
X110160000Y-86760098D01*
X110160000Y-87229902D01*
X110251654Y-87690679D01*
X110431440Y-88124721D01*
X110692450Y-88515349D01*
X111024651Y-88847550D01*
X111415279Y-89108560D01*
X111849321Y-89288346D01*
X112310098Y-89380000D01*
X112779902Y-89380000D01*
X113240679Y-89288346D01*
X113674721Y-89108560D01*
X114065349Y-88847550D01*
X114397550Y-88515349D01*
X114658560Y-88124721D01*
X114838346Y-87690679D01*
X114930000Y-87229902D01*
X114930000Y-86760098D01*
X114838346Y-86299321D01*
X114658560Y-85865279D01*
X114397550Y-85474651D01*
X114065349Y-85142450D01*
X113674721Y-84881440D01*
X113240679Y-84701654D01*
X112779902Y-84610000D01*
X112310098Y-84610000D01*
X111849321Y-84701654D01*
X111415279Y-84881440D01*
X111024651Y-85142450D01*
X110692450Y-85474651D01*
X110431440Y-85865279D01*
X110251654Y-86299321D01*
X110160000Y-86760098D01*
X97408219Y-86760098D01*
X97475563Y-86622020D01*
X97404571Y-86403906D01*
X97260969Y-86128077D01*
X97147781Y-85987059D01*
X97239494Y-85938037D01*
X97336185Y-85858685D01*
X97415537Y-85761994D01*
X97474502Y-85651680D01*
X97510812Y-85531982D01*
X97523072Y-85407500D01*
X97523072Y-83502500D01*
X97510812Y-83378018D01*
X97474502Y-83258320D01*
X97415537Y-83148006D01*
X97336185Y-83051315D01*
X97239494Y-82971963D01*
X97235822Y-82970000D01*
X164246928Y-82970000D01*
X164246928Y-84670000D01*
X164259188Y-84794482D01*
X164295498Y-84914180D01*
X164354463Y-85024494D01*
X164433815Y-85121185D01*
X164530506Y-85200537D01*
X164640820Y-85259502D01*
X164760518Y-85295812D01*
X164885000Y-85308072D01*
X166585000Y-85308072D01*
X166709482Y-85295812D01*
X166829180Y-85259502D01*
X166939494Y-85200537D01*
X167036185Y-85121185D01*
X167115537Y-85024494D01*
X167174502Y-84914180D01*
X167196513Y-84841620D01*
X167328368Y-84973475D01*
X167571589Y-85135990D01*
X167841842Y-85247932D01*
X168128740Y-85305000D01*
X168421260Y-85305000D01*
X168708158Y-85247932D01*
X168978411Y-85135990D01*
X169221632Y-84973475D01*
X169428475Y-84766632D01*
X169545000Y-84592240D01*
X169661525Y-84766632D01*
X169868368Y-84973475D01*
X170111589Y-85135990D01*
X170381842Y-85247932D01*
X170668740Y-85305000D01*
X170961260Y-85305000D01*
X171248158Y-85247932D01*
X171518411Y-85135990D01*
X171761632Y-84973475D01*
X171968475Y-84766632D01*
X172085000Y-84592240D01*
X172201525Y-84766632D01*
X172408368Y-84973475D01*
X172651589Y-85135990D01*
X172921842Y-85247932D01*
X173208740Y-85305000D01*
X173501260Y-85305000D01*
X173788158Y-85247932D01*
X174058411Y-85135990D01*
X174301632Y-84973475D01*
X174508475Y-84766632D01*
X174625000Y-84592240D01*
X174741525Y-84766632D01*
X174948368Y-84973475D01*
X175191589Y-85135990D01*
X175461842Y-85247932D01*
X175748740Y-85305000D01*
X176041260Y-85305000D01*
X176328158Y-85247932D01*
X176598411Y-85135990D01*
X176841632Y-84973475D01*
X177048475Y-84766632D01*
X177170195Y-84584466D01*
X177239822Y-84701355D01*
X177434731Y-84917588D01*
X177668080Y-85091641D01*
X177930901Y-85216825D01*
X178078110Y-85261476D01*
X178308000Y-85140155D01*
X178308000Y-83947000D01*
X178562000Y-83947000D01*
X178562000Y-85140155D01*
X178791890Y-85261476D01*
X178939099Y-85216825D01*
X179201920Y-85091641D01*
X179435269Y-84917588D01*
X179630178Y-84701355D01*
X179779157Y-84451252D01*
X179876481Y-84176891D01*
X179755814Y-83947000D01*
X178562000Y-83947000D01*
X178308000Y-83947000D01*
X178288000Y-83947000D01*
X178288000Y-83693000D01*
X178308000Y-83693000D01*
X178308000Y-82499845D01*
X178562000Y-82499845D01*
X178562000Y-83693000D01*
X179755814Y-83693000D01*
X179876481Y-83463109D01*
X179779157Y-83188748D01*
X179630178Y-82938645D01*
X179435269Y-82722412D01*
X179201920Y-82548359D01*
X178939099Y-82423175D01*
X178791890Y-82378524D01*
X178562000Y-82499845D01*
X178308000Y-82499845D01*
X178078110Y-82378524D01*
X177930901Y-82423175D01*
X177668080Y-82548359D01*
X177434731Y-82722412D01*
X177239822Y-82938645D01*
X177170195Y-83055534D01*
X177048475Y-82873368D01*
X176841632Y-82666525D01*
X176598411Y-82504010D01*
X176328158Y-82392068D01*
X176041260Y-82335000D01*
X175748740Y-82335000D01*
X175461842Y-82392068D01*
X175191589Y-82504010D01*
X174948368Y-82666525D01*
X174741525Y-82873368D01*
X174625000Y-83047760D01*
X174508475Y-82873368D01*
X174301632Y-82666525D01*
X174058411Y-82504010D01*
X173788158Y-82392068D01*
X173501260Y-82335000D01*
X173208740Y-82335000D01*
X172921842Y-82392068D01*
X172651589Y-82504010D01*
X172408368Y-82666525D01*
X172201525Y-82873368D01*
X172085000Y-83047760D01*
X171968475Y-82873368D01*
X171761632Y-82666525D01*
X171518411Y-82504010D01*
X171248158Y-82392068D01*
X170961260Y-82335000D01*
X170668740Y-82335000D01*
X170381842Y-82392068D01*
X170111589Y-82504010D01*
X169868368Y-82666525D01*
X169661525Y-82873368D01*
X169545000Y-83047760D01*
X169428475Y-82873368D01*
X169221632Y-82666525D01*
X168978411Y-82504010D01*
X168708158Y-82392068D01*
X168421260Y-82335000D01*
X168128740Y-82335000D01*
X167841842Y-82392068D01*
X167571589Y-82504010D01*
X167328368Y-82666525D01*
X167196513Y-82798380D01*
X167174502Y-82725820D01*
X167115537Y-82615506D01*
X167036185Y-82518815D01*
X166939494Y-82439463D01*
X166829180Y-82380498D01*
X166709482Y-82344188D01*
X166585000Y-82331928D01*
X164885000Y-82331928D01*
X164760518Y-82344188D01*
X164640820Y-82380498D01*
X164530506Y-82439463D01*
X164433815Y-82518815D01*
X164354463Y-82615506D01*
X164295498Y-82725820D01*
X164259188Y-82845518D01*
X164246928Y-82970000D01*
X97235822Y-82970000D01*
X97129180Y-82912998D01*
X97009482Y-82876688D01*
X96885000Y-82864428D01*
X94885000Y-82864428D01*
X94760518Y-82876688D01*
X94640820Y-82912998D01*
X94530506Y-82971963D01*
X94433815Y-83051315D01*
X94354463Y-83148006D01*
X94295498Y-83258320D01*
X94259188Y-83378018D01*
X94246928Y-83502500D01*
X82677000Y-83502500D01*
X82677000Y-82145000D01*
X82760279Y-82145000D01*
X83172756Y-82062953D01*
X83561302Y-81902012D01*
X83910983Y-81668363D01*
X84208363Y-81370983D01*
X84442012Y-81021302D01*
X84602953Y-80632756D01*
X84685000Y-80220279D01*
X84685000Y-80137000D01*
X207415000Y-80137000D01*
X207415000Y-80220279D01*
G37*
X207415000Y-80220279D02*
X207497047Y-80632756D01*
X207657988Y-81021302D01*
X207891637Y-81370983D01*
X208189017Y-81668363D01*
X208538698Y-81902012D01*
X208927244Y-82062953D01*
X209339721Y-82145000D01*
X209423000Y-82145000D01*
X209423000Y-122325000D01*
X209339721Y-122325000D01*
X208927244Y-122407047D01*
X208538698Y-122567988D01*
X208189017Y-122801637D01*
X207891637Y-123099017D01*
X207657988Y-123448698D01*
X207497047Y-123837244D01*
X207415000Y-124249721D01*
X207415000Y-124333000D01*
X84685000Y-124333000D01*
X84685000Y-124249721D01*
X84602953Y-123837244D01*
X84442012Y-123448698D01*
X84208363Y-123099017D01*
X83910983Y-122801637D01*
X83561302Y-122567988D01*
X83172756Y-122407047D01*
X82760279Y-122325000D01*
X82677000Y-122325000D01*
X82677000Y-119875635D01*
X83750000Y-119875635D01*
X83750000Y-120154365D01*
X83804377Y-120427740D01*
X83911043Y-120685254D01*
X84065897Y-120917010D01*
X84262990Y-121114103D01*
X84494746Y-121268957D01*
X84752260Y-121375623D01*
X85025635Y-121430000D01*
X85304365Y-121430000D01*
X85577740Y-121375623D01*
X85835254Y-121268957D01*
X86067010Y-121114103D01*
X86264103Y-120917010D01*
X86418957Y-120685254D01*
X86435000Y-120646523D01*
X86451043Y-120685254D01*
X86605897Y-120917010D01*
X86802990Y-121114103D01*
X87034746Y-121268957D01*
X87292260Y-121375623D01*
X87565635Y-121430000D01*
X87844365Y-121430000D01*
X88117740Y-121375623D01*
X88375254Y-121268957D01*
X88607010Y-121114103D01*
X88804103Y-120917010D01*
X88958957Y-120685254D01*
X88975000Y-120646523D01*
X88991043Y-120685254D01*
X89145897Y-120917010D01*
X89342990Y-121114103D01*
X89574746Y-121268957D01*
X89832260Y-121375623D01*
X90105635Y-121430000D01*
X90384365Y-121430000D01*
X90657740Y-121375623D01*
X90915254Y-121268957D01*
X91147010Y-121114103D01*
X91344103Y-120917010D01*
X91498957Y-120685254D01*
X91515000Y-120646523D01*
X91531043Y-120685254D01*
X91685897Y-120917010D01*
X91882990Y-121114103D01*
X92114746Y-121268957D01*
X92372260Y-121375623D01*
X92645635Y-121430000D01*
X92924365Y-121430000D01*
X93197740Y-121375623D01*
X93455254Y-121268957D01*
X93687010Y-121114103D01*
X93884103Y-120917010D01*
X94038957Y-120685254D01*
X94055000Y-120646523D01*
X94071043Y-120685254D01*
X94225897Y-120917010D01*
X94422990Y-121114103D01*
X94654746Y-121268957D01*
X94912260Y-121375623D01*
X95185635Y-121430000D01*
X95464365Y-121430000D01*
X95737740Y-121375623D01*
X95995254Y-121268957D01*
X96227010Y-121114103D01*
X96424103Y-120917010D01*
X96578957Y-120685254D01*
X96595000Y-120646523D01*
X96611043Y-120685254D01*
X96765897Y-120917010D01*
X96962990Y-121114103D01*
X97194746Y-121268957D01*
X97452260Y-121375623D01*
X97725635Y-121430000D01*
X98004365Y-121430000D01*
X98277740Y-121375623D01*
X98535254Y-121268957D01*
X98767010Y-121114103D01*
X98964103Y-120917010D01*
X99118957Y-120685254D01*
X99135000Y-120646523D01*
X99151043Y-120685254D01*
X99305897Y-120917010D01*
X99502990Y-121114103D01*
X99734746Y-121268957D01*
X99992260Y-121375623D01*
X100265635Y-121430000D01*
X100544365Y-121430000D01*
X100817740Y-121375623D01*
X101075254Y-121268957D01*
X101307010Y-121114103D01*
X101504103Y-120917010D01*
X101658957Y-120685254D01*
X101675000Y-120646523D01*
X101691043Y-120685254D01*
X101845897Y-120917010D01*
X102042990Y-121114103D01*
X102274746Y-121268957D01*
X102532260Y-121375623D01*
X102805635Y-121430000D01*
X103084365Y-121430000D01*
X103357740Y-121375623D01*
X103615254Y-121268957D01*
X103847010Y-121114103D01*
X104044103Y-120917010D01*
X104198957Y-120685254D01*
X104215000Y-120646523D01*
X104231043Y-120685254D01*
X104385897Y-120917010D01*
X104582990Y-121114103D01*
X104814746Y-121268957D01*
X105072260Y-121375623D01*
X105345635Y-121430000D01*
X105624365Y-121430000D01*
X105897740Y-121375623D01*
X106155254Y-121268957D01*
X106387010Y-121114103D01*
X106584103Y-120917010D01*
X106738957Y-120685254D01*
X106755000Y-120646523D01*
X106771043Y-120685254D01*
X106925897Y-120917010D01*
X107122990Y-121114103D01*
X107354746Y-121268957D01*
X107612260Y-121375623D01*
X107885635Y-121430000D01*
X108164365Y-121430000D01*
X108437740Y-121375623D01*
X108695254Y-121268957D01*
X108927010Y-121114103D01*
X109124103Y-120917010D01*
X109278957Y-120685254D01*
X109295000Y-120646523D01*
X109311043Y-120685254D01*
X109465897Y-120917010D01*
X109662990Y-121114103D01*
X109810649Y-121212766D01*
X109815998Y-121267071D01*
X109859454Y-121410332D01*
X109930026Y-121542362D01*
X110000106Y-121627754D01*
X110025000Y-121658087D01*
X110053998Y-121681885D01*
X112073115Y-123701003D01*
X112096913Y-123730001D01*
X112125911Y-123753799D01*
X112212637Y-123824974D01*
X112344667Y-123895546D01*
X112487928Y-123939003D01*
X112599581Y-123950000D01*
X112599591Y-123950000D01*
X112636914Y-123953676D01*
X112674237Y-123950000D01*
X189827678Y-123950000D01*
X189865000Y-123953676D01*
X189902322Y-123950000D01*
X189902333Y-123950000D01*
X190013986Y-123939003D01*
X190157247Y-123895546D01*
X190289276Y-123824974D01*
X190405001Y-123730001D01*
X190428804Y-123700997D01*
X198159802Y-115970000D01*
X198221939Y-115970000D01*
X198421898Y-115930226D01*
X198610256Y-115852205D01*
X198779774Y-115738937D01*
X198923937Y-115594774D01*
X199037205Y-115425256D01*
X199115226Y-115236898D01*
X199155000Y-115036939D01*
X199155000Y-114833061D01*
X199115226Y-114633102D01*
X199037205Y-114444744D01*
X198923937Y-114275226D01*
X198779774Y-114131063D01*
X198610256Y-114017795D01*
X198421898Y-113939774D01*
X198221939Y-113900000D01*
X198018061Y-113900000D01*
X197818102Y-113939774D01*
X197629744Y-114017795D01*
X197460226Y-114131063D01*
X197316063Y-114275226D01*
X197202795Y-114444744D01*
X197124774Y-114633102D01*
X197085000Y-114833061D01*
X197085000Y-114895198D01*
X189550199Y-122430000D01*
X184714801Y-122430000D01*
X190376004Y-116768798D01*
X190405001Y-116745001D01*
X190446484Y-116694454D01*
X190499974Y-116629277D01*
X190570546Y-116497247D01*
X190603150Y-116389764D01*
X190614003Y-116353986D01*
X190625000Y-116242333D01*
X190625000Y-116242324D01*
X190628676Y-116205001D01*
X190625000Y-116167678D01*
X190625000Y-115638711D01*
X190668937Y-115594774D01*
X190782205Y-115425256D01*
X190860226Y-115236898D01*
X190900000Y-115036939D01*
X190900000Y-114833061D01*
X190860226Y-114633102D01*
X190782205Y-114444744D01*
X190668937Y-114275226D01*
X190524774Y-114131063D01*
X190355256Y-114017795D01*
X190166898Y-113939774D01*
X189966939Y-113900000D01*
X189763061Y-113900000D01*
X189563102Y-113939774D01*
X189374744Y-114017795D01*
X189205226Y-114131063D01*
X189061063Y-114275226D01*
X188947795Y-114444744D01*
X188869774Y-114633102D01*
X188830000Y-114833061D01*
X188830000Y-115036939D01*
X188869774Y-115236898D01*
X188947795Y-115425256D01*
X189061063Y-115594774D01*
X189105000Y-115638711D01*
X189105000Y-115890198D01*
X183200199Y-121795000D01*
X141534801Y-121795000D01*
X144459802Y-118870000D01*
X163687662Y-118870000D01*
X163660498Y-118920820D01*
X163624188Y-119040518D01*
X163611928Y-119165000D01*
X163611928Y-120865000D01*
X163624188Y-120989482D01*
X163660498Y-121109180D01*
X163719463Y-121219494D01*
X163798815Y-121316185D01*
X163895506Y-121395537D01*
X164005820Y-121454502D01*
X164125518Y-121490812D01*
X164250000Y-121503072D01*
X165950000Y-121503072D01*
X166074482Y-121490812D01*
X166194180Y-121454502D01*
X166304494Y-121395537D01*
X166401185Y-121316185D01*
X166480537Y-121219494D01*
X166539502Y-121109180D01*
X166561513Y-121036620D01*
X166693368Y-121168475D01*
X166936589Y-121330990D01*
X167206842Y-121442932D01*
X167493740Y-121500000D01*
X167786260Y-121500000D01*
X168073158Y-121442932D01*
X168343411Y-121330990D01*
X168586632Y-121168475D01*
X168793475Y-120961632D01*
X168910000Y-120787240D01*
X169026525Y-120961632D01*
X169233368Y-121168475D01*
X169476589Y-121330990D01*
X169746842Y-121442932D01*
X170033740Y-121500000D01*
X170326260Y-121500000D01*
X170613158Y-121442932D01*
X170883411Y-121330990D01*
X171126632Y-121168475D01*
X171333475Y-120961632D01*
X171450000Y-120787240D01*
X171566525Y-120961632D01*
X171773368Y-121168475D01*
X172016589Y-121330990D01*
X172286842Y-121442932D01*
X172573740Y-121500000D01*
X172866260Y-121500000D01*
X173153158Y-121442932D01*
X173423411Y-121330990D01*
X173666632Y-121168475D01*
X173873475Y-120961632D01*
X173990000Y-120787240D01*
X174106525Y-120961632D01*
X174313368Y-121168475D01*
X174556589Y-121330990D01*
X174826842Y-121442932D01*
X175113740Y-121500000D01*
X175406260Y-121500000D01*
X175693158Y-121442932D01*
X175963411Y-121330990D01*
X176206632Y-121168475D01*
X176413475Y-120961632D01*
X176535195Y-120779466D01*
X176604822Y-120896355D01*
X176799731Y-121112588D01*
X177033080Y-121286641D01*
X177295901Y-121411825D01*
X177443110Y-121456476D01*
X177673000Y-121335155D01*
X177673000Y-120142000D01*
X177653000Y-120142000D01*
X177653000Y-119888000D01*
X177673000Y-119888000D01*
X177673000Y-119868000D01*
X177927000Y-119868000D01*
X177927000Y-119888000D01*
X177947000Y-119888000D01*
X177947000Y-120142000D01*
X177927000Y-120142000D01*
X177927000Y-121335155D01*
X178156890Y-121456476D01*
X178304099Y-121411825D01*
X178566920Y-121286641D01*
X178800269Y-121112588D01*
X178995178Y-120896355D01*
X179064805Y-120779466D01*
X179186525Y-120961632D01*
X179393368Y-121168475D01*
X179636589Y-121330990D01*
X179906842Y-121442932D01*
X180193740Y-121500000D01*
X180486260Y-121500000D01*
X180773158Y-121442932D01*
X181043411Y-121330990D01*
X181286632Y-121168475D01*
X181493475Y-120961632D01*
X181610000Y-120787240D01*
X181726525Y-120961632D01*
X181933368Y-121168475D01*
X182176589Y-121330990D01*
X182446842Y-121442932D01*
X182733740Y-121500000D01*
X183026260Y-121500000D01*
X183313158Y-121442932D01*
X183583411Y-121330990D01*
X183826632Y-121168475D01*
X184033475Y-120961632D01*
X184195990Y-120718411D01*
X184307932Y-120448158D01*
X184365000Y-120161260D01*
X184365000Y-119868740D01*
X184307932Y-119581842D01*
X184195990Y-119311589D01*
X184033475Y-119068368D01*
X183826632Y-118861525D01*
X183583411Y-118699010D01*
X183313158Y-118587068D01*
X183026260Y-118530000D01*
X182733740Y-118530000D01*
X182446842Y-118587068D01*
X182176589Y-118699010D01*
X181933368Y-118861525D01*
X181726525Y-119068368D01*
X181610000Y-119242760D01*
X181493475Y-119068368D01*
X181286632Y-118861525D01*
X181043411Y-118699010D01*
X180773158Y-118587068D01*
X180486260Y-118530000D01*
X180193740Y-118530000D01*
X179973592Y-118573790D01*
X178273794Y-116873993D01*
X178249991Y-116844989D01*
X178134266Y-116750016D01*
X178002237Y-116679444D01*
X177858976Y-116635987D01*
X177747323Y-116624990D01*
X177747312Y-116624990D01*
X177709990Y-116621314D01*
X177672668Y-116624990D01*
X143186310Y-116624990D01*
X143235226Y-116506898D01*
X143275000Y-116306939D01*
X143275000Y-116103061D01*
X143235226Y-115903102D01*
X143157205Y-115714744D01*
X143144013Y-115695000D01*
X154236289Y-115695000D01*
X154280226Y-115738937D01*
X154449744Y-115852205D01*
X154638102Y-115930226D01*
X154838061Y-115970000D01*
X155041939Y-115970000D01*
X155241898Y-115930226D01*
X155430256Y-115852205D01*
X155599774Y-115738937D01*
X155743937Y-115594774D01*
X155857205Y-115425256D01*
X155935226Y-115236898D01*
X155975000Y-115036939D01*
X155975000Y-114833061D01*
X155935226Y-114633102D01*
X155857205Y-114444744D01*
X155844013Y-114425000D01*
X167571289Y-114425000D01*
X167615226Y-114468937D01*
X167784744Y-114582205D01*
X167973102Y-114660226D01*
X168173061Y-114700000D01*
X168376939Y-114700000D01*
X168576898Y-114660226D01*
X168765256Y-114582205D01*
X168934774Y-114468937D01*
X169078937Y-114324774D01*
X169192205Y-114155256D01*
X169270226Y-113966898D01*
X169310000Y-113766939D01*
X169310000Y-113563061D01*
X169270226Y-113363102D01*
X169192205Y-113174744D01*
X169078937Y-113005226D01*
X168934774Y-112861063D01*
X168765256Y-112747795D01*
X168576898Y-112669774D01*
X168376939Y-112630000D01*
X168173061Y-112630000D01*
X167973102Y-112669774D01*
X167784744Y-112747795D01*
X167615226Y-112861063D01*
X167571289Y-112905000D01*
X154070000Y-112905000D01*
X154070000Y-112833082D01*
X154030226Y-112633123D01*
X153983369Y-112520000D01*
X180025199Y-112520000D01*
X180575000Y-113069802D01*
X180575000Y-113131939D01*
X180614774Y-113331898D01*
X180692795Y-113520256D01*
X180806063Y-113689774D01*
X180950226Y-113833937D01*
X181119744Y-113947205D01*
X181308102Y-114025226D01*
X181508061Y-114065000D01*
X181711939Y-114065000D01*
X181911898Y-114025226D01*
X182100256Y-113947205D01*
X182269774Y-113833937D01*
X182413937Y-113689774D01*
X182527205Y-113520256D01*
X182605226Y-113331898D01*
X182645000Y-113131939D01*
X182645000Y-112928061D01*
X182605226Y-112728102D01*
X182527205Y-112539744D01*
X182413937Y-112370226D01*
X182269774Y-112226063D01*
X182100256Y-112112795D01*
X181911898Y-112034774D01*
X181711939Y-111995000D01*
X181649802Y-111995000D01*
X180904801Y-111250000D01*
X182565199Y-111250000D01*
X183067497Y-111752299D01*
X183067502Y-111752303D01*
X184856201Y-113541003D01*
X184879999Y-113570001D01*
X184995724Y-113664974D01*
X185127753Y-113735546D01*
X185271014Y-113779003D01*
X185382667Y-113790000D01*
X185382676Y-113790000D01*
X185419999Y-113793676D01*
X185457322Y-113790000D01*
X194241289Y-113790000D01*
X194285226Y-113833937D01*
X194454744Y-113947205D01*
X194643102Y-114025226D01*
X194843061Y-114065000D01*
X195046939Y-114065000D01*
X195246898Y-114025226D01*
X195435256Y-113947205D01*
X195604774Y-113833937D01*
X195748937Y-113689774D01*
X195862205Y-113520256D01*
X195940226Y-113331898D01*
X195980000Y-113131939D01*
X195980000Y-112928061D01*
X195940226Y-112728102D01*
X195862205Y-112539744D01*
X195748937Y-112370226D01*
X195604774Y-112226063D01*
X195435256Y-112112795D01*
X195246898Y-112034774D01*
X195046939Y-111995000D01*
X194843061Y-111995000D01*
X194643102Y-112034774D01*
X194454744Y-112112795D01*
X194285226Y-112226063D01*
X194241289Y-112270000D01*
X185734802Y-112270000D01*
X184142303Y-110677502D01*
X184142299Y-110677497D01*
X183316803Y-109852002D01*
X183293001Y-109822999D01*
X183177276Y-109728026D01*
X183045246Y-109657454D01*
X182901985Y-109613998D01*
X182769752Y-109600974D01*
X182753000Y-109599324D01*
X182752999Y-109599324D01*
X182604014Y-109613998D01*
X182488960Y-109648898D01*
X182460754Y-109657454D01*
X182328724Y-109728026D01*
X182326319Y-109730000D01*
X161989711Y-109730000D01*
X162093937Y-109625774D01*
X162207205Y-109456256D01*
X162285226Y-109267898D01*
X162325000Y-109067939D01*
X162325000Y-108864061D01*
X162285226Y-108664102D01*
X162207205Y-108475744D01*
X162093937Y-108306226D01*
X162050000Y-108262289D01*
X162050000Y-108229061D01*
X174225000Y-108229061D01*
X174225000Y-108432939D01*
X174264774Y-108632898D01*
X174342795Y-108821256D01*
X174456063Y-108990774D01*
X174600226Y-109134937D01*
X174769744Y-109248205D01*
X174958102Y-109326226D01*
X175158061Y-109366000D01*
X175361939Y-109366000D01*
X175561898Y-109326226D01*
X175750256Y-109248205D01*
X175919774Y-109134937D01*
X176063937Y-108990774D01*
X176177205Y-108821256D01*
X176255226Y-108632898D01*
X176295000Y-108432939D01*
X176295000Y-108355226D01*
X176365545Y-108223248D01*
X176409002Y-108079987D01*
X176419999Y-107968334D01*
X176419999Y-107968324D01*
X176423675Y-107931002D01*
X176419999Y-107893679D01*
X176419999Y-93432710D01*
X176463936Y-93388773D01*
X176577204Y-93219255D01*
X176655225Y-93030897D01*
X176694999Y-92830938D01*
X176694999Y-92627060D01*
X176655225Y-92427101D01*
X176577204Y-92238743D01*
X176484540Y-92100061D01*
X188068000Y-92100061D01*
X188068000Y-92303939D01*
X188107774Y-92503898D01*
X188185795Y-92692256D01*
X188299063Y-92861774D01*
X188343001Y-92905712D01*
X188343000Y-108516289D01*
X188299063Y-108560226D01*
X188185795Y-108729744D01*
X188107774Y-108918102D01*
X188068000Y-109118061D01*
X188068000Y-109321939D01*
X188107774Y-109521898D01*
X188185795Y-109710256D01*
X188299063Y-109879774D01*
X188443226Y-110023937D01*
X188612744Y-110137205D01*
X188801102Y-110215226D01*
X189001061Y-110255000D01*
X189204939Y-110255000D01*
X189404898Y-110215226D01*
X189593256Y-110137205D01*
X189762774Y-110023937D01*
X189906937Y-109879774D01*
X190020205Y-109710256D01*
X190098226Y-109521898D01*
X190138000Y-109321939D01*
X190138000Y-109118061D01*
X190098226Y-108918102D01*
X190020205Y-108729744D01*
X189906937Y-108560226D01*
X189863000Y-108516289D01*
X189863000Y-92905711D01*
X189906937Y-92861774D01*
X190020205Y-92692256D01*
X190098226Y-92503898D01*
X190138000Y-92303939D01*
X190138000Y-92227061D01*
X202038000Y-92227061D01*
X202038000Y-92430939D01*
X202077774Y-92630898D01*
X202155795Y-92819256D01*
X202269063Y-92988774D01*
X202313001Y-93032712D01*
X202313000Y-108643289D01*
X202269063Y-108687226D01*
X202155795Y-108856744D01*
X202077774Y-109045102D01*
X202038000Y-109245061D01*
X202038000Y-109448939D01*
X202077774Y-109648898D01*
X202155795Y-109837256D01*
X202269063Y-110006774D01*
X202413226Y-110150937D01*
X202582744Y-110264205D01*
X202771102Y-110342226D01*
X202971061Y-110382000D01*
X203174939Y-110382000D01*
X203374898Y-110342226D01*
X203563256Y-110264205D01*
X203732774Y-110150937D01*
X203876937Y-110006774D01*
X203990205Y-109837256D01*
X204068226Y-109648898D01*
X204108000Y-109448939D01*
X204108000Y-109245061D01*
X204068226Y-109045102D01*
X203990205Y-108856744D01*
X203876937Y-108687226D01*
X203833000Y-108643289D01*
X203833000Y-93032711D01*
X203876937Y-92988774D01*
X203990205Y-92819256D01*
X204068226Y-92630898D01*
X204108000Y-92430939D01*
X204108000Y-92227061D01*
X204068226Y-92027102D01*
X203990205Y-91838744D01*
X203876937Y-91669226D01*
X203732774Y-91525063D01*
X203563256Y-91411795D01*
X203374898Y-91333774D01*
X203174939Y-91294000D01*
X202971061Y-91294000D01*
X202771102Y-91333774D01*
X202582744Y-91411795D01*
X202413226Y-91525063D01*
X202269063Y-91669226D01*
X202155795Y-91838744D01*
X202077774Y-92027102D01*
X202038000Y-92227061D01*
X190138000Y-92227061D01*
X190138000Y-92100061D01*
X190098226Y-91900102D01*
X190020205Y-91711744D01*
X189906937Y-91542226D01*
X189762774Y-91398063D01*
X189593256Y-91284795D01*
X189404898Y-91206774D01*
X189204939Y-91167000D01*
X189001061Y-91167000D01*
X188801102Y-91206774D01*
X188612744Y-91284795D01*
X188443226Y-91398063D01*
X188299063Y-91542226D01*
X188185795Y-91711744D01*
X188107774Y-91900102D01*
X188068000Y-92100061D01*
X176484540Y-92100061D01*
X176463936Y-92069225D01*
X176319773Y-91925062D01*
X176150255Y-91811794D01*
X175961897Y-91733773D01*
X175761938Y-91693999D01*
X175558060Y-91693999D01*
X175358101Y-91733773D01*
X175169743Y-91811794D01*
X175000225Y-91925062D01*
X174856062Y-92069225D01*
X174742794Y-92238743D01*
X174664773Y-92427101D01*
X174624999Y-92627060D01*
X174624999Y-92830938D01*
X174664773Y-93030897D01*
X174742794Y-93219255D01*
X174856062Y-93388773D01*
X174900000Y-93432711D01*
X174899999Y-107359841D01*
X174769744Y-107413795D01*
X174600226Y-107527063D01*
X174456063Y-107671226D01*
X174342795Y-107840744D01*
X174264774Y-108029102D01*
X174225000Y-108229061D01*
X162050000Y-108229061D01*
X162050000Y-101025801D01*
X162817004Y-100258798D01*
X162846001Y-100235001D01*
X162898526Y-100170999D01*
X162940974Y-100119277D01*
X163011546Y-99987247D01*
X163019205Y-99961997D01*
X163055003Y-99843986D01*
X163066000Y-99732333D01*
X163066000Y-99732323D01*
X163069676Y-99695000D01*
X163066000Y-99657678D01*
X163066000Y-92778711D01*
X163109937Y-92734774D01*
X163223205Y-92565256D01*
X163301226Y-92376898D01*
X163341000Y-92176939D01*
X163341000Y-91973061D01*
X163301226Y-91773102D01*
X163223205Y-91584744D01*
X163109937Y-91415226D01*
X162965774Y-91271063D01*
X162796256Y-91157795D01*
X162607898Y-91079774D01*
X162407939Y-91040000D01*
X162204061Y-91040000D01*
X162004102Y-91079774D01*
X161815744Y-91157795D01*
X161646226Y-91271063D01*
X161502063Y-91415226D01*
X161388795Y-91584744D01*
X161310774Y-91773102D01*
X161271000Y-91973061D01*
X161271000Y-92176939D01*
X161310774Y-92376898D01*
X161388795Y-92565256D01*
X161502063Y-92734774D01*
X161546001Y-92778712D01*
X161546000Y-99380198D01*
X160778998Y-100147201D01*
X160750000Y-100170999D01*
X160726202Y-100199997D01*
X160726201Y-100199998D01*
X160655026Y-100286724D01*
X160584454Y-100418754D01*
X160540998Y-100562015D01*
X160526324Y-100711000D01*
X160530001Y-100748332D01*
X160530000Y-108262289D01*
X160486063Y-108306226D01*
X160372795Y-108475744D01*
X160294774Y-108664102D01*
X160255000Y-108864061D01*
X160255000Y-109067939D01*
X160294774Y-109267898D01*
X160372795Y-109456256D01*
X160486063Y-109625774D01*
X160590289Y-109730000D01*
X148139154Y-109730000D01*
X148237205Y-109583256D01*
X148315226Y-109394898D01*
X148355000Y-109194939D01*
X148355000Y-108991061D01*
X148315226Y-108791102D01*
X148237205Y-108602744D01*
X148123937Y-108433226D01*
X148080000Y-108389289D01*
X148080000Y-92778711D01*
X148123937Y-92734774D01*
X148237205Y-92565256D01*
X148315226Y-92376898D01*
X148355000Y-92176939D01*
X148355000Y-91973061D01*
X148315226Y-91773102D01*
X148237205Y-91584744D01*
X148123937Y-91415226D01*
X147979774Y-91271063D01*
X147810256Y-91157795D01*
X147621898Y-91079774D01*
X147421939Y-91040000D01*
X147218061Y-91040000D01*
X147018102Y-91079774D01*
X146829744Y-91157795D01*
X146660226Y-91271063D01*
X146516063Y-91415226D01*
X146402795Y-91584744D01*
X146324774Y-91773102D01*
X146285000Y-91973061D01*
X146285000Y-92176939D01*
X146324774Y-92376898D01*
X146402795Y-92565256D01*
X146516063Y-92734774D01*
X146560001Y-92778712D01*
X146560000Y-108389289D01*
X146516063Y-108433226D01*
X146402795Y-108602744D01*
X146324774Y-108791102D01*
X146285000Y-108991061D01*
X146285000Y-109194939D01*
X146324774Y-109394898D01*
X146402795Y-109583256D01*
X146500846Y-109730000D01*
X143002000Y-109730000D01*
X143002000Y-90170000D01*
X142999560Y-90145224D01*
X142992333Y-90121399D01*
X142980597Y-90099443D01*
X142964803Y-90080197D01*
X142945557Y-90064403D01*
X142923601Y-90052667D01*
X142899776Y-90045440D01*
X142875000Y-90043000D01*
X129540000Y-90043000D01*
X129515224Y-90045440D01*
X129491399Y-90052667D01*
X129469443Y-90064403D01*
X129450197Y-90080197D01*
X129434403Y-90099443D01*
X129422667Y-90121399D01*
X129415440Y-90145224D01*
X129413000Y-90170000D01*
X129413000Y-93681887D01*
X129247010Y-93515897D01*
X129015254Y-93361043D01*
X128757740Y-93254377D01*
X128484365Y-93200000D01*
X128205635Y-93200000D01*
X127932260Y-93254377D01*
X127674746Y-93361043D01*
X127442990Y-93515897D01*
X127245897Y-93712990D01*
X127091043Y-93944746D01*
X127075000Y-93983477D01*
X127058957Y-93944746D01*
X126904103Y-93712990D01*
X126707010Y-93515897D01*
X126475254Y-93361043D01*
X126217740Y-93254377D01*
X125944365Y-93200000D01*
X125665635Y-93200000D01*
X125392260Y-93254377D01*
X125134746Y-93361043D01*
X124902990Y-93515897D01*
X124705897Y-93712990D01*
X124551043Y-93944746D01*
X124535000Y-93983477D01*
X124518957Y-93944746D01*
X124364103Y-93712990D01*
X124167010Y-93515897D01*
X123935254Y-93361043D01*
X123677740Y-93254377D01*
X123404365Y-93200000D01*
X123125635Y-93200000D01*
X122852260Y-93254377D01*
X122594746Y-93361043D01*
X122362990Y-93515897D01*
X122165897Y-93712990D01*
X122011043Y-93944746D01*
X121995000Y-93983477D01*
X121978957Y-93944746D01*
X121824103Y-93712990D01*
X121627010Y-93515897D01*
X121395254Y-93361043D01*
X121137740Y-93254377D01*
X120864365Y-93200000D01*
X120585635Y-93200000D01*
X120312260Y-93254377D01*
X120054746Y-93361043D01*
X119822990Y-93515897D01*
X119625897Y-93712990D01*
X119471043Y-93944746D01*
X119455000Y-93983477D01*
X119438957Y-93944746D01*
X119284103Y-93712990D01*
X119087010Y-93515897D01*
X118855254Y-93361043D01*
X118597740Y-93254377D01*
X118324365Y-93200000D01*
X118045635Y-93200000D01*
X117772260Y-93254377D01*
X117514746Y-93361043D01*
X117282990Y-93515897D01*
X117085897Y-93712990D01*
X116931043Y-93944746D01*
X116915000Y-93983477D01*
X116898957Y-93944746D01*
X116744103Y-93712990D01*
X116547010Y-93515897D01*
X116315254Y-93361043D01*
X116057740Y-93254377D01*
X115784365Y-93200000D01*
X115505635Y-93200000D01*
X115232260Y-93254377D01*
X114974746Y-93361043D01*
X114742990Y-93515897D01*
X114545897Y-93712990D01*
X114391043Y-93944746D01*
X114375000Y-93983477D01*
X114358957Y-93944746D01*
X114204103Y-93712990D01*
X114007010Y-93515897D01*
X113775254Y-93361043D01*
X113517740Y-93254377D01*
X113244365Y-93200000D01*
X112965635Y-93200000D01*
X112692260Y-93254377D01*
X112434746Y-93361043D01*
X112202990Y-93515897D01*
X112005897Y-93712990D01*
X111851043Y-93944746D01*
X111835000Y-93983477D01*
X111818957Y-93944746D01*
X111664103Y-93712990D01*
X111467010Y-93515897D01*
X111235254Y-93361043D01*
X110977740Y-93254377D01*
X110704365Y-93200000D01*
X110425635Y-93200000D01*
X110152260Y-93254377D01*
X109894746Y-93361043D01*
X109662990Y-93515897D01*
X109465897Y-93712990D01*
X109311043Y-93944746D01*
X109295000Y-93983477D01*
X109278957Y-93944746D01*
X109124103Y-93712990D01*
X108927010Y-93515897D01*
X108695254Y-93361043D01*
X108437740Y-93254377D01*
X108164365Y-93200000D01*
X107885635Y-93200000D01*
X107612260Y-93254377D01*
X107354746Y-93361043D01*
X107122990Y-93515897D01*
X106925897Y-93712990D01*
X106771043Y-93944746D01*
X106755000Y-93983477D01*
X106738957Y-93944746D01*
X106584103Y-93712990D01*
X106387010Y-93515897D01*
X106155254Y-93361043D01*
X105897740Y-93254377D01*
X105624365Y-93200000D01*
X105345635Y-93200000D01*
X105072260Y-93254377D01*
X104814746Y-93361043D01*
X104582990Y-93515897D01*
X104385897Y-93712990D01*
X104231043Y-93944746D01*
X104215000Y-93983477D01*
X104198957Y-93944746D01*
X104044103Y-93712990D01*
X103847010Y-93515897D01*
X103615254Y-93361043D01*
X103357740Y-93254377D01*
X103084365Y-93200000D01*
X102805635Y-93200000D01*
X102532260Y-93254377D01*
X102274746Y-93361043D01*
X102042990Y-93515897D01*
X101845897Y-93712990D01*
X101691043Y-93944746D01*
X101675000Y-93983477D01*
X101658957Y-93944746D01*
X101504103Y-93712990D01*
X101307010Y-93515897D01*
X101075254Y-93361043D01*
X100817740Y-93254377D01*
X100544365Y-93200000D01*
X100265635Y-93200000D01*
X99992260Y-93254377D01*
X99734746Y-93361043D01*
X99502990Y-93515897D01*
X99305897Y-93712990D01*
X99151043Y-93944746D01*
X99136223Y-93980525D01*
X99085349Y-93885345D01*
X98843421Y-93816184D01*
X98044605Y-94615000D01*
X98843421Y-95413816D01*
X99085349Y-95344655D01*
X99133425Y-95242721D01*
X99151043Y-95285254D01*
X99305897Y-95517010D01*
X99502990Y-95714103D01*
X99734746Y-95868957D01*
X99992260Y-95975623D01*
X100265635Y-96030000D01*
X100544365Y-96030000D01*
X100817740Y-95975623D01*
X101075254Y-95868957D01*
X101307010Y-95714103D01*
X101504103Y-95517010D01*
X101658957Y-95285254D01*
X101675000Y-95246523D01*
X101691043Y-95285254D01*
X101845897Y-95517010D01*
X102042990Y-95714103D01*
X102274746Y-95868957D01*
X102532260Y-95975623D01*
X102805635Y-96030000D01*
X103084365Y-96030000D01*
X103357740Y-95975623D01*
X103615254Y-95868957D01*
X103847010Y-95714103D01*
X104044103Y-95517010D01*
X104198957Y-95285254D01*
X104215000Y-95246523D01*
X104231043Y-95285254D01*
X104385897Y-95517010D01*
X104582990Y-95714103D01*
X104814746Y-95868957D01*
X105072260Y-95975623D01*
X105345635Y-96030000D01*
X105624365Y-96030000D01*
X105897740Y-95975623D01*
X106155254Y-95868957D01*
X106387010Y-95714103D01*
X106584103Y-95517010D01*
X106738957Y-95285254D01*
X106755000Y-95246523D01*
X106771043Y-95285254D01*
X106925897Y-95517010D01*
X107122990Y-95714103D01*
X107354746Y-95868957D01*
X107612260Y-95975623D01*
X107885635Y-96030000D01*
X108164365Y-96030000D01*
X108437740Y-95975623D01*
X108695254Y-95868957D01*
X108927010Y-95714103D01*
X109124103Y-95517010D01*
X109278957Y-95285254D01*
X109295000Y-95246523D01*
X109311043Y-95285254D01*
X109465897Y-95517010D01*
X109662990Y-95714103D01*
X109894746Y-95868957D01*
X110152260Y-95975623D01*
X110425635Y-96030000D01*
X110704365Y-96030000D01*
X110977740Y-95975623D01*
X111235254Y-95868957D01*
X111467010Y-95714103D01*
X111664103Y-95517010D01*
X111818957Y-95285254D01*
X111835000Y-95246523D01*
X111851043Y-95285254D01*
X112005897Y-95517010D01*
X112202990Y-95714103D01*
X112434746Y-95868957D01*
X112692260Y-95975623D01*
X112965635Y-96030000D01*
X113244365Y-96030000D01*
X113517740Y-95975623D01*
X113775254Y-95868957D01*
X114007010Y-95714103D01*
X114204103Y-95517010D01*
X114358957Y-95285254D01*
X114375000Y-95246523D01*
X114391043Y-95285254D01*
X114545897Y-95517010D01*
X114742990Y-95714103D01*
X114974746Y-95868957D01*
X115232260Y-95975623D01*
X115505635Y-96030000D01*
X115784365Y-96030000D01*
X116057740Y-95975623D01*
X116315254Y-95868957D01*
X116547010Y-95714103D01*
X116744103Y-95517010D01*
X116898957Y-95285254D01*
X116915000Y-95246523D01*
X116931043Y-95285254D01*
X117085897Y-95517010D01*
X117282990Y-95714103D01*
X117514746Y-95868957D01*
X117772260Y-95975623D01*
X118045635Y-96030000D01*
X118324365Y-96030000D01*
X118597740Y-95975623D01*
X118855254Y-95868957D01*
X119087010Y-95714103D01*
X119284103Y-95517010D01*
X119438957Y-95285254D01*
X119455000Y-95246523D01*
X119471043Y-95285254D01*
X119625897Y-95517010D01*
X119822990Y-95714103D01*
X120054746Y-95868957D01*
X120312260Y-95975623D01*
X120585635Y-96030000D01*
X120864365Y-96030000D01*
X121137740Y-95975623D01*
X121395254Y-95868957D01*
X121627010Y-95714103D01*
X121824103Y-95517010D01*
X121978957Y-95285254D01*
X121995000Y-95246523D01*
X122011043Y-95285254D01*
X122165897Y-95517010D01*
X122362990Y-95714103D01*
X122594746Y-95868957D01*
X122852260Y-95975623D01*
X123125635Y-96030000D01*
X123404365Y-96030000D01*
X123677740Y-95975623D01*
X123935254Y-95868957D01*
X124167010Y-95714103D01*
X124364103Y-95517010D01*
X124518957Y-95285254D01*
X124535000Y-95246523D01*
X124551043Y-95285254D01*
X124705897Y-95517010D01*
X124902990Y-95714103D01*
X125134746Y-95868957D01*
X125392260Y-95975623D01*
X125665635Y-96030000D01*
X125944365Y-96030000D01*
X126217740Y-95975623D01*
X126475254Y-95868957D01*
X126707010Y-95714103D01*
X126904103Y-95517010D01*
X127058957Y-95285254D01*
X127075000Y-95246523D01*
X127091043Y-95285254D01*
X127245897Y-95517010D01*
X127442990Y-95714103D01*
X127674746Y-95868957D01*
X127932260Y-95975623D01*
X128205635Y-96030000D01*
X128484365Y-96030000D01*
X128757740Y-95975623D01*
X129015254Y-95868957D01*
X129247010Y-95714103D01*
X129413000Y-95548113D01*
X129413000Y-109730000D01*
X114614802Y-109730000D01*
X109783804Y-104899003D01*
X109760001Y-104869999D01*
X109644276Y-104775026D01*
X109512247Y-104704454D01*
X109368986Y-104660997D01*
X109257333Y-104650000D01*
X109257322Y-104650000D01*
X109220000Y-104646324D01*
X109182678Y-104650000D01*
X108653711Y-104650000D01*
X108609774Y-104606063D01*
X108440256Y-104492795D01*
X108251898Y-104414774D01*
X108051939Y-104375000D01*
X107848061Y-104375000D01*
X107648102Y-104414774D01*
X107459744Y-104492795D01*
X107290226Y-104606063D01*
X107146063Y-104750226D01*
X107032795Y-104919744D01*
X106954774Y-105108102D01*
X106915000Y-105308061D01*
X106915000Y-105511939D01*
X106954774Y-105711898D01*
X107032795Y-105900256D01*
X107146063Y-106069774D01*
X107290226Y-106213937D01*
X107459744Y-106327205D01*
X107648102Y-106405226D01*
X107848061Y-106445000D01*
X108051939Y-106445000D01*
X108251898Y-106405226D01*
X108440256Y-106327205D01*
X108609774Y-106213937D01*
X108653711Y-106170000D01*
X108905199Y-106170000D01*
X110302265Y-107567066D01*
X110188102Y-107589774D01*
X109999744Y-107667795D01*
X109830226Y-107781063D01*
X109686063Y-107925226D01*
X109572795Y-108094744D01*
X109494774Y-108283102D01*
X109455000Y-108483061D01*
X109455000Y-108686939D01*
X109494774Y-108886898D01*
X109572795Y-109075256D01*
X109686063Y-109244774D01*
X109830226Y-109388937D01*
X109999744Y-109502205D01*
X110188102Y-109580226D01*
X110388061Y-109620000D01*
X110450199Y-109620000D01*
X113101200Y-112271002D01*
X113124999Y-112300001D01*
X113153997Y-112323799D01*
X113240723Y-112394974D01*
X113333875Y-112444765D01*
X113372753Y-112465546D01*
X113516014Y-112509003D01*
X113627667Y-112520000D01*
X113627676Y-112520000D01*
X113664999Y-112523676D01*
X113702322Y-112520000D01*
X114621631Y-112520000D01*
X114574774Y-112633123D01*
X114535000Y-112833082D01*
X114535000Y-112905000D01*
X113344802Y-112905000D01*
X112795000Y-112355199D01*
X112795000Y-112293061D01*
X112755226Y-112093102D01*
X112677205Y-111904744D01*
X112563937Y-111735226D01*
X112419774Y-111591063D01*
X112250256Y-111477795D01*
X112061898Y-111399774D01*
X111861939Y-111360000D01*
X111658061Y-111360000D01*
X111458102Y-111399774D01*
X111269744Y-111477795D01*
X111100226Y-111591063D01*
X110956063Y-111735226D01*
X110842795Y-111904744D01*
X110764774Y-112093102D01*
X110725000Y-112293061D01*
X110725000Y-112496939D01*
X110764774Y-112696898D01*
X110842795Y-112885256D01*
X110956063Y-113054774D01*
X111100226Y-113198937D01*
X111269744Y-113312205D01*
X111458102Y-113390226D01*
X111658061Y-113430000D01*
X111720199Y-113430000D01*
X112466201Y-114176003D01*
X112489999Y-114205001D01*
X112605724Y-114299974D01*
X112737753Y-114370546D01*
X112881014Y-114414003D01*
X112992667Y-114425000D01*
X112992676Y-114425000D01*
X113029999Y-114428676D01*
X113067322Y-114425000D01*
X119745987Y-114425000D01*
X119732795Y-114444744D01*
X119654774Y-114633102D01*
X119615000Y-114833061D01*
X119615000Y-115036939D01*
X119654774Y-115236898D01*
X119732795Y-115425256D01*
X119846063Y-115594774D01*
X119965001Y-115713712D01*
X119965000Y-118821009D01*
X119822990Y-118915897D01*
X119625897Y-119112990D01*
X119471043Y-119344746D01*
X119455000Y-119383477D01*
X119438957Y-119344746D01*
X119284103Y-119112990D01*
X119087010Y-118915897D01*
X118855254Y-118761043D01*
X118597740Y-118654377D01*
X118324365Y-118600000D01*
X118045635Y-118600000D01*
X117772260Y-118654377D01*
X117514746Y-118761043D01*
X117282990Y-118915897D01*
X117085897Y-119112990D01*
X116931043Y-119344746D01*
X116916223Y-119380525D01*
X116865349Y-119285345D01*
X116623421Y-119216184D01*
X115824605Y-120015000D01*
X116623421Y-120813816D01*
X116865349Y-120744655D01*
X116913425Y-120642721D01*
X116931043Y-120685254D01*
X117085897Y-120917010D01*
X117282990Y-121114103D01*
X117514746Y-121268957D01*
X117772260Y-121375623D01*
X118045635Y-121430000D01*
X118324365Y-121430000D01*
X118491878Y-121396680D01*
X118890198Y-121795000D01*
X114856716Y-121795000D01*
X114091414Y-121029699D01*
X114127692Y-120993421D01*
X114846184Y-120993421D01*
X114915345Y-121235349D01*
X115167443Y-121354248D01*
X115437894Y-121421681D01*
X115716303Y-121435057D01*
X115991972Y-121393860D01*
X116254308Y-121299675D01*
X116374655Y-121235349D01*
X116443816Y-120993421D01*
X115645000Y-120194605D01*
X114846184Y-120993421D01*
X114127692Y-120993421D01*
X114204103Y-120917010D01*
X114358957Y-120685254D01*
X114373777Y-120649475D01*
X114424651Y-120744655D01*
X114666579Y-120813816D01*
X115465395Y-120015000D01*
X114666579Y-119216184D01*
X114424651Y-119285345D01*
X114376575Y-119387279D01*
X114358957Y-119344746D01*
X114204103Y-119112990D01*
X114127692Y-119036579D01*
X114846184Y-119036579D01*
X115645000Y-119835395D01*
X116443816Y-119036579D01*
X116374655Y-118794651D01*
X116122557Y-118675752D01*
X115852106Y-118608319D01*
X115573697Y-118594943D01*
X115298028Y-118636140D01*
X115035692Y-118730325D01*
X114915345Y-118794651D01*
X114846184Y-119036579D01*
X114127692Y-119036579D01*
X114007010Y-118915897D01*
X113775254Y-118761043D01*
X113517740Y-118654377D01*
X113244365Y-118600000D01*
X112965635Y-118600000D01*
X112692260Y-118654377D01*
X112434746Y-118761043D01*
X112202990Y-118915897D01*
X112005897Y-119112990D01*
X111851043Y-119344746D01*
X111835000Y-119383477D01*
X111818957Y-119344746D01*
X111664103Y-119112990D01*
X111467010Y-118915897D01*
X111235254Y-118761043D01*
X110977740Y-118654377D01*
X110704365Y-118600000D01*
X110425635Y-118600000D01*
X110152260Y-118654377D01*
X109894746Y-118761043D01*
X109662990Y-118915897D01*
X109465897Y-119112990D01*
X109311043Y-119344746D01*
X109295000Y-119383477D01*
X109278957Y-119344746D01*
X109124103Y-119112990D01*
X108927010Y-118915897D01*
X108695254Y-118761043D01*
X108437740Y-118654377D01*
X108164365Y-118600000D01*
X107885635Y-118600000D01*
X107612260Y-118654377D01*
X107354746Y-118761043D01*
X107122990Y-118915897D01*
X106925897Y-119112990D01*
X106771043Y-119344746D01*
X106755000Y-119383477D01*
X106738957Y-119344746D01*
X106584103Y-119112990D01*
X106387010Y-118915897D01*
X106155254Y-118761043D01*
X105897740Y-118654377D01*
X105624365Y-118600000D01*
X105345635Y-118600000D01*
X105072260Y-118654377D01*
X104814746Y-118761043D01*
X104582990Y-118915897D01*
X104385897Y-119112990D01*
X104231043Y-119344746D01*
X104215000Y-119383477D01*
X104198957Y-119344746D01*
X104044103Y-119112990D01*
X103847010Y-118915897D01*
X103615254Y-118761043D01*
X103357740Y-118654377D01*
X103084365Y-118600000D01*
X102805635Y-118600000D01*
X102532260Y-118654377D01*
X102274746Y-118761043D01*
X102042990Y-118915897D01*
X101845897Y-119112990D01*
X101691043Y-119344746D01*
X101675000Y-119383477D01*
X101658957Y-119344746D01*
X101504103Y-119112990D01*
X101307010Y-118915897D01*
X101075254Y-118761043D01*
X100817740Y-118654377D01*
X100544365Y-118600000D01*
X100265635Y-118600000D01*
X99992260Y-118654377D01*
X99734746Y-118761043D01*
X99502990Y-118915897D01*
X99305897Y-119112990D01*
X99151043Y-119344746D01*
X99135000Y-119383477D01*
X99118957Y-119344746D01*
X98964103Y-119112990D01*
X98767010Y-118915897D01*
X98535254Y-118761043D01*
X98277740Y-118654377D01*
X98004365Y-118600000D01*
X97725635Y-118600000D01*
X97452260Y-118654377D01*
X97194746Y-118761043D01*
X96962990Y-118915897D01*
X96765897Y-119112990D01*
X96611043Y-119344746D01*
X96595000Y-119383477D01*
X96578957Y-119344746D01*
X96424103Y-119112990D01*
X96227010Y-118915897D01*
X95995254Y-118761043D01*
X95737740Y-118654377D01*
X95464365Y-118600000D01*
X95185635Y-118600000D01*
X94912260Y-118654377D01*
X94654746Y-118761043D01*
X94422990Y-118915897D01*
X94225897Y-119112990D01*
X94071043Y-119344746D01*
X94055000Y-119383477D01*
X94038957Y-119344746D01*
X93884103Y-119112990D01*
X93687010Y-118915897D01*
X93455254Y-118761043D01*
X93197740Y-118654377D01*
X92924365Y-118600000D01*
X92645635Y-118600000D01*
X92372260Y-118654377D01*
X92114746Y-118761043D01*
X91882990Y-118915897D01*
X91685897Y-119112990D01*
X91531043Y-119344746D01*
X91515000Y-119383477D01*
X91498957Y-119344746D01*
X91344103Y-119112990D01*
X91147010Y-118915897D01*
X90915254Y-118761043D01*
X90657740Y-118654377D01*
X90384365Y-118600000D01*
X90105635Y-118600000D01*
X89832260Y-118654377D01*
X89574746Y-118761043D01*
X89342990Y-118915897D01*
X89145897Y-119112990D01*
X88991043Y-119344746D01*
X88975000Y-119383477D01*
X88958957Y-119344746D01*
X88804103Y-119112990D01*
X88607010Y-118915897D01*
X88375254Y-118761043D01*
X88117740Y-118654377D01*
X87844365Y-118600000D01*
X87565635Y-118600000D01*
X87292260Y-118654377D01*
X87034746Y-118761043D01*
X86802990Y-118915897D01*
X86605897Y-119112990D01*
X86451043Y-119344746D01*
X86435000Y-119383477D01*
X86418957Y-119344746D01*
X86264103Y-119112990D01*
X86067010Y-118915897D01*
X85835254Y-118761043D01*
X85577740Y-118654377D01*
X85304365Y-118600000D01*
X85025635Y-118600000D01*
X84752260Y-118654377D01*
X84494746Y-118761043D01*
X84262990Y-118915897D01*
X84065897Y-119112990D01*
X83911043Y-119344746D01*
X83804377Y-119602260D01*
X83750000Y-119875635D01*
X82677000Y-119875635D01*
X82677000Y-94475635D01*
X83750000Y-94475635D01*
X83750000Y-94754365D01*
X83804377Y-95027740D01*
X83911043Y-95285254D01*
X84065897Y-95517010D01*
X84262990Y-95714103D01*
X84494746Y-95868957D01*
X84752260Y-95975623D01*
X85025635Y-96030000D01*
X85304365Y-96030000D01*
X85577740Y-95975623D01*
X85835254Y-95868957D01*
X86067010Y-95714103D01*
X86264103Y-95517010D01*
X86418957Y-95285254D01*
X86435000Y-95246523D01*
X86451043Y-95285254D01*
X86605897Y-95517010D01*
X86802990Y-95714103D01*
X87034746Y-95868957D01*
X87292260Y-95975623D01*
X87565635Y-96030000D01*
X87844365Y-96030000D01*
X88117740Y-95975623D01*
X88375254Y-95868957D01*
X88607010Y-95714103D01*
X88804103Y-95517010D01*
X88958957Y-95285254D01*
X88975000Y-95246523D01*
X88991043Y-95285254D01*
X89145897Y-95517010D01*
X89342990Y-95714103D01*
X89574746Y-95868957D01*
X89832260Y-95975623D01*
X90105635Y-96030000D01*
X90384365Y-96030000D01*
X90657740Y-95975623D01*
X90915254Y-95868957D01*
X91147010Y-95714103D01*
X91344103Y-95517010D01*
X91498957Y-95285254D01*
X91515000Y-95246523D01*
X91531043Y-95285254D01*
X91685897Y-95517010D01*
X91882990Y-95714103D01*
X92114746Y-95868957D01*
X92372260Y-95975623D01*
X92645635Y-96030000D01*
X92924365Y-96030000D01*
X93197740Y-95975623D01*
X93455254Y-95868957D01*
X93687010Y-95714103D01*
X93884103Y-95517010D01*
X94038957Y-95285254D01*
X94055000Y-95246523D01*
X94071043Y-95285254D01*
X94225897Y-95517010D01*
X94422990Y-95714103D01*
X94654746Y-95868957D01*
X94912260Y-95975623D01*
X95185635Y-96030000D01*
X95464365Y-96030000D01*
X95737740Y-95975623D01*
X95995254Y-95868957D01*
X96227010Y-95714103D01*
X96347692Y-95593421D01*
X97066184Y-95593421D01*
X97135345Y-95835349D01*
X97387443Y-95954248D01*
X97657894Y-96021681D01*
X97936303Y-96035057D01*
X98211972Y-95993860D01*
X98474308Y-95899675D01*
X98594655Y-95835349D01*
X98663816Y-95593421D01*
X97865000Y-94794605D01*
X97066184Y-95593421D01*
X96347692Y-95593421D01*
X96424103Y-95517010D01*
X96578957Y-95285254D01*
X96593777Y-95249475D01*
X96644651Y-95344655D01*
X96886579Y-95413816D01*
X97685395Y-94615000D01*
X96886579Y-93816184D01*
X96644651Y-93885345D01*
X96596575Y-93987279D01*
X96578957Y-93944746D01*
X96424103Y-93712990D01*
X96347692Y-93636579D01*
X97066184Y-93636579D01*
X97865000Y-94435395D01*
X98663816Y-93636579D01*
X98594655Y-93394651D01*
X98342557Y-93275752D01*
X98072106Y-93208319D01*
X97793697Y-93194943D01*
X97518028Y-93236140D01*
X97255692Y-93330325D01*
X97135345Y-93394651D01*
X97066184Y-93636579D01*
X96347692Y-93636579D01*
X96227010Y-93515897D01*
X95995254Y-93361043D01*
X95737740Y-93254377D01*
X95464365Y-93200000D01*
X95185635Y-93200000D01*
X94912260Y-93254377D01*
X94654746Y-93361043D01*
X94422990Y-93515897D01*
X94225897Y-93712990D01*
X94071043Y-93944746D01*
X94055000Y-93983477D01*
X94038957Y-93944746D01*
X93884103Y-93712990D01*
X93687010Y-93515897D01*
X93455254Y-93361043D01*
X93197740Y-93254377D01*
X92924365Y-93200000D01*
X92645635Y-93200000D01*
X92372260Y-93254377D01*
X92114746Y-93361043D01*
X91882990Y-93515897D01*
X91685897Y-93712990D01*
X91531043Y-93944746D01*
X91515000Y-93983477D01*
X91498957Y-93944746D01*
X91344103Y-93712990D01*
X91147010Y-93515897D01*
X90915254Y-93361043D01*
X90657740Y-93254377D01*
X90384365Y-93200000D01*
X90105635Y-93200000D01*
X89832260Y-93254377D01*
X89574746Y-93361043D01*
X89342990Y-93515897D01*
X89145897Y-93712990D01*
X88991043Y-93944746D01*
X88975000Y-93983477D01*
X88958957Y-93944746D01*
X88804103Y-93712990D01*
X88607010Y-93515897D01*
X88375254Y-93361043D01*
X88117740Y-93254377D01*
X87844365Y-93200000D01*
X87565635Y-93200000D01*
X87292260Y-93254377D01*
X87034746Y-93361043D01*
X86802990Y-93515897D01*
X86605897Y-93712990D01*
X86451043Y-93944746D01*
X86435000Y-93983477D01*
X86418957Y-93944746D01*
X86264103Y-93712990D01*
X86067010Y-93515897D01*
X85835254Y-93361043D01*
X85577740Y-93254377D01*
X85304365Y-93200000D01*
X85025635Y-93200000D01*
X84752260Y-93254377D01*
X84494746Y-93361043D01*
X84262990Y-93515897D01*
X84065897Y-93712990D01*
X83911043Y-93944746D01*
X83804377Y-94202260D01*
X83750000Y-94475635D01*
X82677000Y-94475635D01*
X82677000Y-88621890D01*
X84918524Y-88621890D01*
X84963175Y-88769099D01*
X85088359Y-89031920D01*
X85262412Y-89265269D01*
X85478645Y-89460178D01*
X85728748Y-89609157D01*
X86003109Y-89706481D01*
X86233000Y-89585814D01*
X86233000Y-88392000D01*
X86487000Y-88392000D01*
X86487000Y-89585814D01*
X86716891Y-89706481D01*
X86991252Y-89609157D01*
X87115745Y-89535000D01*
X94242319Y-89535000D01*
X94272970Y-89846204D01*
X94363745Y-90145449D01*
X94511155Y-90421235D01*
X94709537Y-90662963D01*
X94951265Y-90861345D01*
X95227051Y-91008755D01*
X95526296Y-91099530D01*
X95759514Y-91122500D01*
X96010486Y-91122500D01*
X96243704Y-91099530D01*
X96542949Y-91008755D01*
X96818735Y-90861345D01*
X97060463Y-90662963D01*
X97258845Y-90421235D01*
X97406255Y-90145449D01*
X97497030Y-89846204D01*
X97527681Y-89535000D01*
X97497030Y-89223796D01*
X97406255Y-88924551D01*
X97258845Y-88648765D01*
X97060463Y-88407037D01*
X96881101Y-88259837D01*
X97066315Y-88104437D01*
X97260969Y-87861923D01*
X97404571Y-87586094D01*
X97475563Y-87367980D01*
X97355594Y-87122000D01*
X96012000Y-87122000D01*
X96012000Y-87142000D01*
X95758000Y-87142000D01*
X95758000Y-87122000D01*
X94414406Y-87122000D01*
X94294437Y-87367980D01*
X94365429Y-87586094D01*
X94509031Y-87861923D01*
X94703685Y-88104437D01*
X94888899Y-88259837D01*
X94709537Y-88407037D01*
X94511155Y-88648765D01*
X94363745Y-88924551D01*
X94272970Y-89223796D01*
X94242319Y-89535000D01*
X87115745Y-89535000D01*
X87241355Y-89460178D01*
X87457588Y-89265269D01*
X87631641Y-89031920D01*
X87756825Y-88769099D01*
X87801476Y-88621890D01*
X87680155Y-88392000D01*
X86487000Y-88392000D01*
X86233000Y-88392000D01*
X85039845Y-88392000D01*
X84918524Y-88621890D01*
X82677000Y-88621890D01*
X82677000Y-84875000D01*
X84871928Y-84875000D01*
X84871928Y-86575000D01*
X84884188Y-86699482D01*
X84920498Y-86819180D01*
X84979463Y-86929494D01*
X85058815Y-87026185D01*
X85155506Y-87105537D01*
X85265820Y-87164502D01*
X85346466Y-87188966D01*
X85262412Y-87264731D01*
X85088359Y-87498080D01*
X84963175Y-87760901D01*
X84918524Y-87908110D01*
X85039845Y-88138000D01*
X86233000Y-88138000D01*
X86233000Y-88118000D01*
X86487000Y-88118000D01*
X86487000Y-88138000D01*
X87680155Y-88138000D01*
X87801476Y-87908110D01*
X87756825Y-87760901D01*
X87631641Y-87498080D01*
X87457588Y-87264731D01*
X87373534Y-87188966D01*
X87454180Y-87164502D01*
X87564494Y-87105537D01*
X87661185Y-87026185D01*
X87740537Y-86929494D01*
X87799502Y-86819180D01*
X87835812Y-86699482D01*
X87848072Y-86575000D01*
X87848072Y-84875000D01*
X87835812Y-84750518D01*
X87799502Y-84630820D01*
X87740537Y-84520506D01*
X87661185Y-84423815D01*
X87564494Y-84344463D01*
X87454180Y-84285498D01*
X87334482Y-84249188D01*
X87210000Y-84236928D01*
X85510000Y-84236928D01*
X85385518Y-84249188D01*
X85265820Y-84285498D01*
X85155506Y-84344463D01*
X85058815Y-84423815D01*
X84979463Y-84520506D01*
X84920498Y-84630820D01*
X84884188Y-84750518D01*
X84871928Y-84875000D01*
X82677000Y-84875000D01*
X82677000Y-83502500D01*
X94246928Y-83502500D01*
X94246928Y-85407500D01*
X94259188Y-85531982D01*
X94295498Y-85651680D01*
X94354463Y-85761994D01*
X94433815Y-85858685D01*
X94530506Y-85938037D01*
X94622219Y-85987059D01*
X94509031Y-86128077D01*
X94365429Y-86403906D01*
X94294437Y-86622020D01*
X94414406Y-86868000D01*
X95758000Y-86868000D01*
X95758000Y-86848000D01*
X96012000Y-86848000D01*
X96012000Y-86868000D01*
X97355594Y-86868000D01*
X97408219Y-86760098D01*
X110160000Y-86760098D01*
X110160000Y-87229902D01*
X110251654Y-87690679D01*
X110431440Y-88124721D01*
X110692450Y-88515349D01*
X111024651Y-88847550D01*
X111415279Y-89108560D01*
X111849321Y-89288346D01*
X112310098Y-89380000D01*
X112779902Y-89380000D01*
X113240679Y-89288346D01*
X113674721Y-89108560D01*
X114065349Y-88847550D01*
X114397550Y-88515349D01*
X114658560Y-88124721D01*
X114838346Y-87690679D01*
X114930000Y-87229902D01*
X114930000Y-86760098D01*
X114838346Y-86299321D01*
X114658560Y-85865279D01*
X114397550Y-85474651D01*
X114065349Y-85142450D01*
X113674721Y-84881440D01*
X113240679Y-84701654D01*
X112779902Y-84610000D01*
X112310098Y-84610000D01*
X111849321Y-84701654D01*
X111415279Y-84881440D01*
X111024651Y-85142450D01*
X110692450Y-85474651D01*
X110431440Y-85865279D01*
X110251654Y-86299321D01*
X110160000Y-86760098D01*
X97408219Y-86760098D01*
X97475563Y-86622020D01*
X97404571Y-86403906D01*
X97260969Y-86128077D01*
X97147781Y-85987059D01*
X97239494Y-85938037D01*
X97336185Y-85858685D01*
X97415537Y-85761994D01*
X97474502Y-85651680D01*
X97510812Y-85531982D01*
X97523072Y-85407500D01*
X97523072Y-83502500D01*
X97510812Y-83378018D01*
X97474502Y-83258320D01*
X97415537Y-83148006D01*
X97336185Y-83051315D01*
X97239494Y-82971963D01*
X97235822Y-82970000D01*
X164246928Y-82970000D01*
X164246928Y-84670000D01*
X164259188Y-84794482D01*
X164295498Y-84914180D01*
X164354463Y-85024494D01*
X164433815Y-85121185D01*
X164530506Y-85200537D01*
X164640820Y-85259502D01*
X164760518Y-85295812D01*
X164885000Y-85308072D01*
X166585000Y-85308072D01*
X166709482Y-85295812D01*
X166829180Y-85259502D01*
X166939494Y-85200537D01*
X167036185Y-85121185D01*
X167115537Y-85024494D01*
X167174502Y-84914180D01*
X167196513Y-84841620D01*
X167328368Y-84973475D01*
X167571589Y-85135990D01*
X167841842Y-85247932D01*
X168128740Y-85305000D01*
X168421260Y-85305000D01*
X168708158Y-85247932D01*
X168978411Y-85135990D01*
X169221632Y-84973475D01*
X169428475Y-84766632D01*
X169545000Y-84592240D01*
X169661525Y-84766632D01*
X169868368Y-84973475D01*
X170111589Y-85135990D01*
X170381842Y-85247932D01*
X170668740Y-85305000D01*
X170961260Y-85305000D01*
X171248158Y-85247932D01*
X171518411Y-85135990D01*
X171761632Y-84973475D01*
X171968475Y-84766632D01*
X172085000Y-84592240D01*
X172201525Y-84766632D01*
X172408368Y-84973475D01*
X172651589Y-85135990D01*
X172921842Y-85247932D01*
X173208740Y-85305000D01*
X173501260Y-85305000D01*
X173788158Y-85247932D01*
X174058411Y-85135990D01*
X174301632Y-84973475D01*
X174508475Y-84766632D01*
X174625000Y-84592240D01*
X174741525Y-84766632D01*
X174948368Y-84973475D01*
X175191589Y-85135990D01*
X175461842Y-85247932D01*
X175748740Y-85305000D01*
X176041260Y-85305000D01*
X176328158Y-85247932D01*
X176598411Y-85135990D01*
X176841632Y-84973475D01*
X177048475Y-84766632D01*
X177170195Y-84584466D01*
X177239822Y-84701355D01*
X177434731Y-84917588D01*
X177668080Y-85091641D01*
X177930901Y-85216825D01*
X178078110Y-85261476D01*
X178308000Y-85140155D01*
X178308000Y-83947000D01*
X178562000Y-83947000D01*
X178562000Y-85140155D01*
X178791890Y-85261476D01*
X178939099Y-85216825D01*
X179201920Y-85091641D01*
X179435269Y-84917588D01*
X179630178Y-84701355D01*
X179779157Y-84451252D01*
X179876481Y-84176891D01*
X179755814Y-83947000D01*
X178562000Y-83947000D01*
X178308000Y-83947000D01*
X178288000Y-83947000D01*
X178288000Y-83693000D01*
X178308000Y-83693000D01*
X178308000Y-82499845D01*
X178562000Y-82499845D01*
X178562000Y-83693000D01*
X179755814Y-83693000D01*
X179876481Y-83463109D01*
X179779157Y-83188748D01*
X179630178Y-82938645D01*
X179435269Y-82722412D01*
X179201920Y-82548359D01*
X178939099Y-82423175D01*
X178791890Y-82378524D01*
X178562000Y-82499845D01*
X178308000Y-82499845D01*
X178078110Y-82378524D01*
X177930901Y-82423175D01*
X177668080Y-82548359D01*
X177434731Y-82722412D01*
X177239822Y-82938645D01*
X177170195Y-83055534D01*
X177048475Y-82873368D01*
X176841632Y-82666525D01*
X176598411Y-82504010D01*
X176328158Y-82392068D01*
X176041260Y-82335000D01*
X175748740Y-82335000D01*
X175461842Y-82392068D01*
X175191589Y-82504010D01*
X174948368Y-82666525D01*
X174741525Y-82873368D01*
X174625000Y-83047760D01*
X174508475Y-82873368D01*
X174301632Y-82666525D01*
X174058411Y-82504010D01*
X173788158Y-82392068D01*
X173501260Y-82335000D01*
X173208740Y-82335000D01*
X172921842Y-82392068D01*
X172651589Y-82504010D01*
X172408368Y-82666525D01*
X172201525Y-82873368D01*
X172085000Y-83047760D01*
X171968475Y-82873368D01*
X171761632Y-82666525D01*
X171518411Y-82504010D01*
X171248158Y-82392068D01*
X170961260Y-82335000D01*
X170668740Y-82335000D01*
X170381842Y-82392068D01*
X170111589Y-82504010D01*
X169868368Y-82666525D01*
X169661525Y-82873368D01*
X169545000Y-83047760D01*
X169428475Y-82873368D01*
X169221632Y-82666525D01*
X168978411Y-82504010D01*
X168708158Y-82392068D01*
X168421260Y-82335000D01*
X168128740Y-82335000D01*
X167841842Y-82392068D01*
X167571589Y-82504010D01*
X167328368Y-82666525D01*
X167196513Y-82798380D01*
X167174502Y-82725820D01*
X167115537Y-82615506D01*
X167036185Y-82518815D01*
X166939494Y-82439463D01*
X166829180Y-82380498D01*
X166709482Y-82344188D01*
X166585000Y-82331928D01*
X164885000Y-82331928D01*
X164760518Y-82344188D01*
X164640820Y-82380498D01*
X164530506Y-82439463D01*
X164433815Y-82518815D01*
X164354463Y-82615506D01*
X164295498Y-82725820D01*
X164259188Y-82845518D01*
X164246928Y-82970000D01*
X97235822Y-82970000D01*
X97129180Y-82912998D01*
X97009482Y-82876688D01*
X96885000Y-82864428D01*
X94885000Y-82864428D01*
X94760518Y-82876688D01*
X94640820Y-82912998D01*
X94530506Y-82971963D01*
X94433815Y-83051315D01*
X94354463Y-83148006D01*
X94295498Y-83258320D01*
X94259188Y-83378018D01*
X94246928Y-83502500D01*
X82677000Y-83502500D01*
X82677000Y-82145000D01*
X82760279Y-82145000D01*
X83172756Y-82062953D01*
X83561302Y-81902012D01*
X83910983Y-81668363D01*
X84208363Y-81370983D01*
X84442012Y-81021302D01*
X84602953Y-80632756D01*
X84685000Y-80220279D01*
X84685000Y-80137000D01*
X207415000Y-80137000D01*
X207415000Y-80220279D01*
G36*
X139974774Y-117083092D02*
G01*
X139935000Y-117283051D01*
X139935000Y-117486929D01*
X139974774Y-117686888D01*
X140052795Y-117875246D01*
X140166063Y-118044764D01*
X140310226Y-118188927D01*
X140479744Y-118302195D01*
X140668102Y-118380216D01*
X140868061Y-118419990D01*
X141071939Y-118419990D01*
X141271898Y-118380216D01*
X141460256Y-118302195D01*
X141629774Y-118188927D01*
X141673711Y-118144990D01*
X143035208Y-118144990D01*
X140020199Y-121160000D01*
X131636195Y-121160000D01*
X131683816Y-120993421D01*
X130885000Y-120194605D01*
X130086184Y-120993421D01*
X130133805Y-121160000D01*
X129178320Y-121160000D01*
X129247010Y-121114103D01*
X129444103Y-120917010D01*
X129598957Y-120685254D01*
X129613777Y-120649475D01*
X129664651Y-120744655D01*
X129906579Y-120813816D01*
X130705395Y-120015000D01*
X131064605Y-120015000D01*
X131863421Y-120813816D01*
X132105349Y-120744655D01*
X132224248Y-120492557D01*
X132291681Y-120222106D01*
X132305057Y-119943697D01*
X132263860Y-119668028D01*
X132169675Y-119405692D01*
X132105349Y-119285345D01*
X131863421Y-119216184D01*
X131064605Y-120015000D01*
X130705395Y-120015000D01*
X129906579Y-119216184D01*
X129664651Y-119285345D01*
X129616575Y-119387279D01*
X129598957Y-119344746D01*
X129444103Y-119112990D01*
X129367692Y-119036579D01*
X130086184Y-119036579D01*
X130885000Y-119835395D01*
X131683816Y-119036579D01*
X131614655Y-118794651D01*
X131362557Y-118675752D01*
X131092106Y-118608319D01*
X130813697Y-118594943D01*
X130538028Y-118636140D01*
X130275692Y-118730325D01*
X130155345Y-118794651D01*
X130086184Y-119036579D01*
X129367692Y-119036579D01*
X129247010Y-118915897D01*
X129105000Y-118821009D01*
X129105000Y-117714801D01*
X129854802Y-116965000D01*
X140023690Y-116965000D01*
X139974774Y-117083092D01*
G37*
X139974774Y-117083092D02*
X139935000Y-117283051D01*
X139935000Y-117486929D01*
X139974774Y-117686888D01*
X140052795Y-117875246D01*
X140166063Y-118044764D01*
X140310226Y-118188927D01*
X140479744Y-118302195D01*
X140668102Y-118380216D01*
X140868061Y-118419990D01*
X141071939Y-118419990D01*
X141271898Y-118380216D01*
X141460256Y-118302195D01*
X141629774Y-118188927D01*
X141673711Y-118144990D01*
X143035208Y-118144990D01*
X140020199Y-121160000D01*
X131636195Y-121160000D01*
X131683816Y-120993421D01*
X130885000Y-120194605D01*
X130086184Y-120993421D01*
X130133805Y-121160000D01*
X129178320Y-121160000D01*
X129247010Y-121114103D01*
X129444103Y-120917010D01*
X129598957Y-120685254D01*
X129613777Y-120649475D01*
X129664651Y-120744655D01*
X129906579Y-120813816D01*
X130705395Y-120015000D01*
X131064605Y-120015000D01*
X131863421Y-120813816D01*
X132105349Y-120744655D01*
X132224248Y-120492557D01*
X132291681Y-120222106D01*
X132305057Y-119943697D01*
X132263860Y-119668028D01*
X132169675Y-119405692D01*
X132105349Y-119285345D01*
X131863421Y-119216184D01*
X131064605Y-120015000D01*
X130705395Y-120015000D01*
X129906579Y-119216184D01*
X129664651Y-119285345D01*
X129616575Y-119387279D01*
X129598957Y-119344746D01*
X129444103Y-119112990D01*
X129367692Y-119036579D01*
X130086184Y-119036579D01*
X130885000Y-119835395D01*
X131683816Y-119036579D01*
X131614655Y-118794651D01*
X131362557Y-118675752D01*
X131092106Y-118608319D01*
X130813697Y-118594943D01*
X130538028Y-118636140D01*
X130275692Y-118730325D01*
X130155345Y-118794651D01*
X130086184Y-119036579D01*
X129367692Y-119036579D01*
X129247010Y-118915897D01*
X129105000Y-118821009D01*
X129105000Y-117714801D01*
X129854802Y-116965000D01*
X140023690Y-116965000D01*
X139974774Y-117083092D01*
M02*
